<svg width="10" height="14" viewBox="0 0 10 14" fill="none" xmlns="http://www.w3.org/2000/svg">
<path d="M9.41323 6.56851L2.55495 0.726687C2.39632 0.591463 2.18458 0.516968 1.95879 0.516968C1.73301 0.516968 1.52126 0.591463 1.36264 0.726687L0.857575 1.1568C0.528926 1.43706 0.528926 1.89258 0.857575 2.17241L6.61664 7.07803L0.851185 11.9891C0.692562 12.1243 0.60498 12.3046 0.60498 12.4968C0.60498 12.6892 0.692562 12.8695 0.851185 13.0048L1.35625 13.4348C1.515 13.57 1.72662 13.6445 1.9524 13.6445C2.17819 13.6445 2.38993 13.57 2.54856 13.4348L9.41323 7.58765C9.57223 7.452 9.65956 7.27088 9.65906 7.07835C9.65956 6.88507 9.57223 6.70406 9.41323 6.56851Z" fill="#00AAFF"/>
</svg>
