<svg width="74" height="64" viewBox="0 0 74 64" fill="none" xmlns="http://www.w3.org/2000/svg">
<circle cx="32" cy="32" r="32" fill="#00AAFF"/>
<g clip-path="url(#clip0)">
<path d="M49.0719 37.5642C49.0636 37.5554 49.0612 37.5438 49.0527 37.5353L40.5552 29.0377V23.6984C40.5552 23.3028 40.3982 22.9248 40.1191 22.6456L31.1852 13.6126C30.7607 13.1881 30.1194 13.0587 29.5625 13.2899C29.0056 13.5196 28.6435 14.0634 28.6435 14.6654V19.1323H24.0773C23.4754 19.1322 22.9316 19.4942 22.7019 20.0512C22.4707 20.6081 22.5986 21.2479 23.0247 21.674L32.0578 30.707C32.337 30.9862 32.715 31.1432 33.1105 31.1432H38.4498L46.9473 39.6407C46.9558 39.6492 46.9674 39.6516 46.9762 39.6599C47.5559 40.2132 48.4364 40.2206 49.0239 39.6599C49.6425 39.0695 49.6286 38.1473 49.0719 37.5642Z" fill="white"/>
<path d="M47.9997 13.1765C44.1898 13.1765 40.5876 14.1458 37.3438 15.6599L41.9114 20.2274C43.8284 19.5899 45.8716 19.2316 47.9998 19.2316C58.6726 19.2315 67.3562 27.9152 67.3562 38.588C67.3562 49.2609 58.6726 57.9445 47.9997 57.9445C37.3268 57.9445 28.6432 49.261 28.6432 38.588C28.6432 36.4598 29.0016 34.4166 29.639 32.4996L25.0714 27.9321C23.5576 31.1759 22.5881 34.7781 22.5881 38.588C22.5881 52.5455 34.0422 63.9997 47.9997 63.9997C61.9572 63.9997 73.4114 52.5455 73.4114 38.588C73.4114 24.6305 61.9574 13.1765 47.9997 13.1765Z" fill="white"/>
<path d="M48 25.1876C46.4262 25.1876 44.9372 25.5102 43.5331 26.0108V27.8049L46.9753 31.2471C47.3134 31.1998 47.6491 31.1434 48 31.1434C52.1049 31.1434 55.4449 34.4834 55.4449 38.5883C55.4449 42.6932 52.1049 46.0331 48 46.0331C43.8951 46.0331 40.5552 42.6932 40.5552 38.5883C40.5552 38.2373 40.6115 37.9016 40.6588 37.5636L37.2167 34.1213H35.4226C34.922 35.5254 34.5994 37.0144 34.5994 38.5882C34.5994 45.9778 40.6105 51.9888 48 51.9888C55.3895 51.9888 61.4007 45.9778 61.4007 38.5882C61.4007 31.1986 55.3896 25.1876 48 25.1876Z" fill="white"/>
</g>
<circle cx="32" cy="32" r="32" fill="url(#paint0_linear)" style="mix-blend-mode:multiply"/>
<defs>
<linearGradient id="paint0_linear" x1="50.1961" y1="55.5294" x2="6.58823" y2="15.3725" gradientUnits="userSpaceOnUse">
<stop stop-color="white"/>
<stop offset="1" stop-color="#00AAFF" stop-opacity="0"/>
</linearGradient>
<clipPath id="clip0">
<rect width="50.8235" height="50.8235" fill="white" transform="translate(22.5881 13.1765)"/>
</clipPath>
</defs>
</svg>
