<svg width="10" height="14" viewBox="0 0 10 14" fill="none" xmlns="http://www.w3.org/2000/svg">
<path d="M0.586803 6.56851L7.44506 0.726687C7.60368 0.591463 7.81543 0.516968 8.04121 0.516968C8.26699 0.516968 8.47874 0.591463 8.63736 0.726687L9.14243 1.1568C9.47107 1.43706 9.47107 1.89258 9.14243 2.17241L3.38338 7.07803L9.14882 11.9891C9.30744 12.1243 9.39502 12.3046 9.39502 12.4968C9.39502 12.6892 9.30744 12.8695 9.14882 13.0048L8.64375 13.4348C8.485 13.57 8.27338 13.6445 8.0476 13.6445C7.82182 13.6445 7.61007 13.57 7.45145 13.4348L0.586803 7.58765C0.427804 7.452 0.340473 7.27088 0.340975 7.07835C0.340473 6.88507 0.427804 6.70406 0.586803 6.56851Z" fill="#00AAFF"/>
</svg>
