<svg width="390" height="382" viewBox="0 0 390 382" fill="none" xmlns="http://www.w3.org/2000/svg">
<path d="M288.959 14.4126H221.106V80.1487H288.959V14.4126Z" fill="#EBEBEB"/>
<path d="M281.206 21.925H228.859V72.6363H281.206V21.925Z" fill="white"/>
<path d="M230.901 21.925H228.859V72.6363H230.901V21.925Z" fill="#DBDBDB"/>
<path d="M291.001 14.4126H288.958V80.1487H291.001V14.4126Z" fill="#DBDBDB"/>
<path d="M243.597 53.6656C248.569 64.6247 267.687 62.6103 268.86 49.1101C269.452 42.2999 264.619 34.0206 255.166 34.0298H255.12C244.004 34.8614 240.178 46.1532 243.597 53.6656Z" fill="#EBEBEB"/>
<path d="M242.683 31.2856C243.742 31.3968 244.726 31.8855 245.455 32.6624C246.222 33.3831 247.081 34.7138 246.748 35.7949C246.665 36.0721 246.49 36.0167 246.194 36.0074C245.264 35.8661 244.413 35.4015 243.792 34.6953C243.091 34.0552 242.456 33.3463 241.897 32.5792C241.819 32.4454 241.778 32.2928 241.779 32.1376C241.78 31.9824 241.823 31.8305 241.904 31.6978C241.984 31.5651 242.099 31.4568 242.236 31.3842C242.373 31.3116 242.528 31.2775 242.683 31.2856Z" fill="#EBEBEB"/>
<path d="M250.5 27.1735C251.468 27.8 252.166 28.7657 252.459 29.881C252.754 30.7495 253.004 32.0617 252.348 32.8102C252.277 32.8793 252.186 32.9238 252.087 32.9371C251.989 32.9504 251.889 32.9318 251.803 32.8841C251.017 32.5052 250.666 31.3594 250.361 30.6109C249.916 29.6975 249.656 28.7052 249.594 27.691C249.597 27.5862 249.627 27.4839 249.68 27.3939C249.734 27.3039 249.81 27.2293 249.901 27.1773C249.992 27.1253 250.095 27.0976 250.2 27.0969C250.305 27.0963 250.408 27.1227 250.5 27.1735Z" fill="#EBEBEB"/>
<path d="M237.933 37.2455C239.689 36.8666 242.082 37.4487 242.747 39.3061C242.782 39.4383 242.763 39.5788 242.696 39.6977C242.629 39.8167 242.518 39.9049 242.387 39.9437C241.7 40.1179 240.974 40.0561 240.326 39.7681C239.532 39.5278 238.709 39.4724 237.933 39.1675C237.157 38.8625 236.88 37.4765 237.933 37.2455Z" fill="#EBEBEB"/>
<path d="M259.094 29.1233C259.47 28.3359 260.008 27.6369 260.674 27.072C260.997 26.7485 261.422 27.072 261.357 27.497C261.247 28.2824 261.265 29.0956 261.136 29.881C261.079 30.6656 260.879 31.433 260.544 32.1449C260.446 32.3224 260.296 32.4658 260.115 32.5561C259.933 32.6463 259.728 32.679 259.528 32.6499C259.327 32.6208 259.14 32.5312 258.991 32.3932C258.843 32.2551 258.74 32.075 258.696 31.877C258.536 30.9401 258.675 29.9766 259.094 29.1233Z" fill="#EBEBEB"/>
<path d="M237.462 43.9725C238.653 43.9759 239.8 44.4241 240.678 45.2292C240.739 45.294 240.785 45.3716 240.813 45.4565C240.84 45.5413 240.849 45.6313 240.837 45.7198C240.826 45.8083 240.795 45.8931 240.746 45.9681C240.698 46.0431 240.633 46.1063 240.557 46.1532C239.522 46.5913 238.376 46.6979 237.277 46.4582C236.482 46.3935 234.681 46.4582 234.773 45.2477C234.865 44.0372 236.575 43.8986 237.462 43.9725Z" fill="#EBEBEB"/>
<path d="M236.409 53.7674C236.869 53.0161 237.518 52.3982 238.291 51.9751C239.065 51.5521 239.935 51.3385 240.816 51.3557C240.923 51.3606 241.026 51.3918 241.118 51.4464C241.21 51.5011 241.286 51.5776 241.341 51.6691C241.396 51.7605 241.427 51.8641 241.433 51.9707C241.438 52.0772 241.416 52.1834 241.371 52.2797C240.871 52.9973 240.209 53.5865 239.438 53.9992C238.667 54.4119 237.809 54.6365 236.935 54.6545C236.833 54.6494 236.734 54.6191 236.647 54.5664C236.559 54.5136 236.486 54.4401 236.434 54.3523C236.382 54.2644 236.352 54.1651 236.348 54.063C236.343 53.961 236.364 53.8594 236.409 53.7674Z" fill="#EBEBEB"/>
<path d="M239.504 62.1762C239.885 61.2319 240.526 60.4149 241.352 59.8199C242.159 59.058 243.176 58.5558 244.272 58.3784C244.632 58.3784 244.808 58.785 244.706 59.1269C244.486 59.646 244.214 60.1414 243.893 60.6053C243.593 61.0994 243.215 61.5424 242.775 61.9175C242.405 62.26 241.967 62.5196 241.489 62.679C241.011 62.8383 240.504 62.8937 240.003 62.8415C239.925 62.8339 239.85 62.8102 239.781 62.7718C239.713 62.7334 239.654 62.6813 239.607 62.6187C239.56 62.5562 239.527 62.4845 239.509 62.4083C239.491 62.3321 239.489 62.2531 239.504 62.1762Z" fill="#EBEBEB"/>
<path d="M250.38 61.7696C250.424 61.6989 250.485 61.6406 250.558 61.6002C250.631 61.5598 250.713 61.5386 250.796 61.5386C250.879 61.5386 250.961 61.5598 251.034 61.6002C251.106 61.6406 251.168 61.6989 251.212 61.7696C251.602 62.6053 251.674 63.5548 251.415 64.4401C251.309 65.5253 250.859 66.5483 250.13 67.36C250.009 67.4763 249.861 67.5596 249.698 67.6019C249.536 67.6441 249.365 67.6438 249.203 67.6012C249.04 67.5585 248.892 67.4748 248.771 67.3582C248.65 67.2415 248.562 67.0958 248.513 66.935C248.014 65.0684 249.373 63.1926 250.38 61.7696Z" fill="#EBEBEB"/>
<path d="M259.288 61.4924C259.336 61.4105 259.403 61.3408 259.482 61.2883C259.561 61.2359 259.652 61.2022 259.746 61.1897C259.84 61.1773 259.936 61.1864 260.026 61.2164C260.117 61.2464 260.199 61.2966 260.267 61.363C260.987 62.1197 261.432 63.0956 261.533 64.1351C261.635 65.0592 261.893 66.2604 261.441 67.0828C261.369 67.203 261.271 67.3053 261.154 67.382C261.037 67.4587 260.904 67.5078 260.765 67.5256C260.626 67.5434 260.485 67.5294 260.352 67.4847C260.22 67.44 260.099 67.3658 259.999 67.2676C259.325 66.6947 259.075 65.3364 258.899 64.4955C258.649 63.4812 258.787 62.4096 259.288 61.4924Z" fill="#EBEBEB"/>
<path d="M266.893 57.1309C267.28 57.1649 267.658 57.2649 268.011 57.4266C268.387 57.658 268.745 57.9175 269.083 58.2028C269.636 58.6996 270.226 59.1537 270.848 59.5611C270.986 59.6459 271.092 59.7731 271.152 59.9237C271.211 60.0742 271.22 60.24 271.178 60.3962C271.135 60.5523 271.043 60.6905 270.915 60.7898C270.787 60.8892 270.631 60.9444 270.469 60.9472C269.973 61.0215 269.468 60.996 268.982 60.8722C268.497 60.7485 268.041 60.5289 267.641 60.2264C267.207 59.9077 266.837 59.5095 266.551 59.0529C266.321 58.6151 266.213 58.1238 266.237 57.6299C266.238 57.5507 266.258 57.4729 266.294 57.4023C266.33 57.3317 266.381 57.2702 266.444 57.2222C266.507 57.1743 266.581 57.1412 266.658 57.1253C266.736 57.1095 266.816 57.1114 266.893 57.1309Z" fill="#EBEBEB"/>
<path d="M270.884 49.8494C271.44 49.7148 272.02 49.7089 272.579 49.8322C273.138 49.9555 273.661 50.2047 274.109 50.5609C274.728 51.0599 275.541 52.0486 275.236 52.8987C275.212 52.9919 275.163 53.077 275.095 53.1451C275.027 53.2133 274.942 53.2622 274.848 53.2868C274.12 53.2899 273.402 53.112 272.76 52.7693C271.796 52.5885 270.919 52.0948 270.265 51.3648C270.186 51.228 270.139 51.0749 270.128 50.9172C270.118 50.7596 270.143 50.6015 270.203 50.4552C270.263 50.3089 270.355 50.1782 270.473 50.0732C270.591 49.9682 270.732 49.8916 270.884 49.8494Z" fill="#EBEBEB"/>
<path d="M269.868 42.3833C270.23 41.9153 270.761 41.607 271.346 41.5239C272.278 41.2761 273.226 41.0969 274.183 40.988C274.691 40.9048 275.301 41.4315 274.932 41.912C274.427 42.7259 273.716 43.392 272.871 43.8432C271.947 44.2775 270.607 44.7673 269.905 43.7324C269.769 43.5352 269.693 43.3028 269.686 43.0633C269.68 42.8238 269.743 42.5876 269.868 42.3833Z" fill="#EBEBEB"/>
<path d="M265.127 35.5177C265.451 33.7251 267.364 32.9119 268.888 32.4407C269.526 32.2466 269.812 33.032 269.48 33.4756C269.147 33.9191 268.713 34.5013 268.306 34.991C267.899 35.4807 267.687 35.9705 267.382 36.4602C267.236 36.7257 266.997 36.9278 266.71 37.0276C266.424 37.1274 266.111 37.118 265.832 37.0011C265.552 36.8842 265.325 36.6681 265.195 36.3943C265.065 36.1205 265.041 35.8083 265.127 35.5177Z" fill="#EBEBEB"/>
<path d="M251.627 43.3811C251.627 43.8801 251.221 42.9098 250.703 42.9098C250.186 42.9098 249.779 43.8338 249.779 43.3811C249.779 43.136 249.877 42.901 250.05 42.7277C250.223 42.5544 250.458 42.457 250.703 42.457C250.948 42.457 251.183 42.5544 251.357 42.7277C251.53 42.901 251.627 43.136 251.627 43.3811Z" fill="#A6A6A6"/>
<path d="M261.089 43.3811C261.089 43.8801 260.683 42.9191 260.165 42.9191C259.648 42.9191 259.241 43.8431 259.241 43.3811C259.241 43.136 259.339 42.901 259.512 42.7277C259.685 42.5544 259.92 42.457 260.165 42.457C260.41 42.457 260.645 42.5544 260.819 42.7277C260.992 42.901 261.089 43.136 261.089 43.3811Z" fill="#A6A6A6"/>
<path d="M249.012 45.8207C249.014 46.2488 248.889 46.6677 248.653 47.0245C248.416 47.3813 248.079 47.6599 247.684 47.825C247.289 47.99 246.854 48.0342 246.434 47.9518C246.014 47.8694 245.628 47.6642 245.325 47.3622C245.021 47.0602 244.814 46.6749 244.73 46.2552C244.646 45.8355 244.688 45.4003 244.852 45.0047C245.015 44.609 245.292 44.2708 245.648 44.0328C246.004 43.7948 246.422 43.6677 246.85 43.6677C247.422 43.6677 247.971 43.8943 248.376 44.2978C248.781 44.7013 249.01 45.2489 249.012 45.8207Z" fill="white"/>
<path d="M266.606 45.8207C266.608 46.2488 266.483 46.6677 266.246 47.0245C266.01 47.3813 265.673 47.6599 265.278 47.825C264.883 47.99 264.448 48.0342 264.028 47.9518C263.608 47.8694 263.222 47.6642 262.918 47.3622C262.615 47.0602 262.408 46.6749 262.324 46.2552C262.24 45.8355 262.282 45.4003 262.445 45.0047C262.609 44.609 262.886 44.2708 263.242 44.0328C263.598 43.7948 264.016 43.6677 264.444 43.6677C265.016 43.6677 265.564 43.8943 265.97 44.2978C266.375 44.7013 266.604 45.2489 266.606 45.8207Z" fill="white"/>
<path d="M253.707 43.7046C253.882 44.0161 254.141 44.2722 254.455 44.4438C254.746 44.571 255.061 44.6367 255.379 44.6367C255.697 44.6367 256.012 44.571 256.303 44.4438C256.618 44.2741 256.88 44.0217 257.061 43.7138C257.079 43.9271 257.045 44.1417 256.963 44.3394C256.881 44.5372 256.753 44.7124 256.59 44.8504C256.246 45.1309 255.813 45.2784 255.37 45.2662C254.925 45.2759 254.492 45.1249 254.15 44.8412C253.992 44.6999 253.87 44.5233 253.793 44.3259C253.715 44.1284 253.686 43.9156 253.707 43.7046Z" fill="#A6A6A6"/>
<path d="M375.319 79.6775H307.467V145.414H375.319V79.6775Z" fill="#EBEBEB"/>
<path d="M367.567 87.1899H315.22V137.901H367.567V87.1899Z" fill="white"/>
<path d="M317.262 87.1899H315.22V137.901H317.262V87.1899Z" fill="#DBDBDB"/>
<path d="M377.361 79.6775H375.319V145.414H377.361V79.6775Z" fill="#DBDBDB"/>
<path d="M361.098 114.939C359.72 111.481 357.496 108.425 354.63 106.05C352.942 104.596 350.964 103.519 348.827 102.892C346.69 102.264 344.444 102.099 342.239 102.409C340.889 102.595 339.567 102.946 338.302 103.453C331.085 106.345 328.267 113.617 327.63 116.223C326.945 116.128 326.273 115.961 325.624 115.724C325.329 115.428 328.6 101.429 341.73 99.6182C342.42 99.52 343.114 99.4614 343.81 99.4426C347.416 99.3602 350.953 100.439 353.9 102.52C359.241 106.216 362.115 112.065 362.503 113.811C362.577 114.163 362.022 114.532 361.098 114.939Z" fill="#A6A6A6"/>
<path d="M361.098 114.939C360.496 115.197 359.879 115.419 359.25 115.604C358.004 112.726 356.106 110.176 353.706 108.156C352.209 106.869 350.455 105.916 348.56 105.361C346.665 104.807 344.674 104.663 342.719 104.941C341.297 105.13 339.911 105.532 338.607 106.133C333.118 108.646 330.679 114.033 329.903 116.621L327.704 116.223C328.341 113.617 331.16 106.345 338.376 103.453C339.641 102.946 340.963 102.595 342.313 102.409C344.507 102.11 346.739 102.28 348.862 102.908C350.985 103.535 352.951 104.606 354.63 106.05C357.496 108.425 359.72 111.481 361.098 114.939Z" fill="#C7C7C7"/>
<path d="M359.25 115.604C358.534 115.828 357.802 115.998 357.06 116.112C355.794 113.58 353.925 111.396 351.618 109.755C349.143 108.004 346.085 107.282 343.089 107.74C342.18 107.869 341.288 108.095 340.427 108.415C335.65 110.208 333.331 114.477 332.407 117.036L329.856 116.62C330.633 114.033 333.072 108.646 338.561 106.133C339.864 105.532 341.25 105.13 342.673 104.941C344.635 104.656 346.635 104.796 348.538 105.351C350.442 105.906 352.204 106.862 353.706 108.156C356.105 110.176 358.003 112.726 359.25 115.604Z" fill="#DBDBDB"/>
<path d="M357.06 116.112C356.825 116.181 356.575 116.181 356.339 116.112C356.016 115.872 353.456 112.241 349.686 110.392C348.128 109.58 346.375 109.218 344.623 109.348C344.013 109.4 343.41 109.508 342.821 109.672C337.23 111.243 335.253 117.341 334.504 117.341C334.347 117.341 333.506 117.221 332.397 117.046C333.321 114.486 335.641 110.217 340.418 108.424C341.278 108.104 342.171 107.878 343.079 107.75C346.076 107.292 349.133 108.014 351.608 109.764C353.918 111.402 355.79 113.582 357.06 116.112Z" fill="#EBEBEB"/>
<path d="M365.136 117.193C365.175 117.821 365.084 118.451 364.868 119.042C364.469 120.143 363.666 121.051 362.623 121.583C359.851 123.089 357.531 120.538 357.531 120.538C357.164 121.004 356.706 121.391 356.185 121.675C355.664 121.96 355.091 122.135 354.5 122.192C353.891 122.208 353.292 122.04 352.779 121.71C352.267 121.381 351.865 120.905 351.627 120.344C351.627 120.344 349.871 119.882 349.853 118.496C349.853 116.648 351.922 116.75 351.922 116.75C351.922 116.75 351.58 113.497 353.983 112.666C354.726 112.412 355.532 112.412 356.275 112.666C356.905 112.867 357.47 113.234 357.91 113.728C358.073 113.042 358.45 112.424 358.986 111.966C359.523 111.507 360.191 111.231 360.895 111.178C362.743 111.113 363.898 113.285 363.898 113.285C364.332 113.218 364.775 113.29 365.165 113.491C365.555 113.692 365.872 114.011 366.069 114.403C366.254 114.905 366.262 115.455 366.092 115.962C365.922 116.469 365.585 116.903 365.136 117.193Z" fill="#EBEBEB"/>
<path d="M322.187 115.123C322.406 114.22 322.884 113.399 323.561 112.763C324.239 112.126 325.087 111.701 326.003 111.538C329.246 110.91 330.725 114.125 330.725 114.125C331.23 113.775 331.8 113.531 332.402 113.407C333.004 113.283 333.625 113.282 334.227 113.405C334.832 113.579 335.371 113.93 335.776 114.412C336.181 114.894 336.433 115.486 336.5 116.112C336.5 116.112 338.099 117.092 337.692 118.478C337.156 120.326 335.123 119.568 335.123 119.568C335.123 119.568 334.467 122.895 331.834 122.978C331.025 123.025 330.224 122.797 329.561 122.331C329.002 121.936 328.553 121.405 328.258 120.788C327.889 121.411 327.334 121.902 326.67 122.19C326.006 122.479 325.269 122.551 324.562 122.396C322.714 121.887 322.233 119.402 322.233 119.402C321.776 119.345 321.35 119.143 321.017 118.825C320.684 118.507 320.463 118.09 320.385 117.637C320.347 117.074 320.506 116.515 320.835 116.057C321.163 115.598 321.641 115.268 322.187 115.123Z" fill="#EBEBEB"/>
<path d="M340.058 106.354C340.058 106.863 339.651 105.883 339.134 105.883C338.617 105.883 338.21 106.863 338.21 106.354C338.21 106.109 338.307 105.874 338.481 105.701C338.654 105.528 338.889 105.43 339.134 105.43C339.379 105.43 339.614 105.528 339.787 105.701C339.961 105.874 340.058 106.109 340.058 106.354Z" fill="#A6A6A6"/>
<path d="M349.52 106.354C349.52 106.863 349.113 105.902 348.596 105.902C348.078 105.902 347.672 106.826 347.672 106.354C347.672 106.109 347.769 105.874 347.943 105.701C348.116 105.528 348.351 105.43 348.596 105.43C348.841 105.43 349.076 105.528 349.249 105.701C349.423 105.874 349.52 106.109 349.52 106.354Z" fill="#A6A6A6"/>
<path d="M337.434 108.757C337.436 109.185 337.31 109.604 337.074 109.961C336.837 110.318 336.5 110.596 336.105 110.761C335.711 110.926 335.276 110.97 334.855 110.888C334.435 110.806 334.049 110.6 333.746 110.298C333.443 109.996 333.236 109.611 333.152 109.191C333.067 108.772 333.11 108.337 333.273 107.941C333.436 107.545 333.714 107.207 334.069 106.969C334.425 106.731 334.844 106.604 335.272 106.604C335.843 106.604 336.392 106.831 336.797 107.234C337.203 107.638 337.431 108.185 337.434 108.757Z" fill="white"/>
<path d="M355.027 108.757C355.029 109.185 354.903 109.605 354.667 109.962C354.43 110.319 354.092 110.597 353.697 110.762C353.301 110.927 352.866 110.971 352.445 110.887C352.025 110.804 351.639 110.598 351.336 110.295C351.033 109.992 350.827 109.606 350.744 109.186C350.661 108.766 350.704 108.33 350.869 107.935C351.034 107.539 351.312 107.201 351.669 106.965C352.026 106.728 352.446 106.602 352.874 106.604C353.445 106.604 353.993 106.831 354.397 107.235C354.8 107.638 355.027 108.186 355.027 108.757Z" fill="white"/>
<path d="M342.128 106.641C342.303 106.952 342.563 107.208 342.876 107.38C343.164 107.519 343.481 107.588 343.8 107.583C344.12 107.586 344.435 107.516 344.724 107.38C345.036 107.206 345.295 106.951 345.473 106.641C345.491 106.853 345.459 107.067 345.379 107.265C345.298 107.462 345.172 107.638 345.011 107.777C344.666 108.063 344.23 108.214 343.782 108.202C343.336 108.21 342.903 108.055 342.562 107.768C342.407 107.627 342.287 107.452 342.212 107.256C342.136 107.06 342.108 106.85 342.128 106.641Z" fill="#A6A6A6"/>
<path d="M42.85 223.162L30.7266 223.412L24.5725 223.522C22.5119 223.522 20.4421 223.522 18.3815 223.569H17.9749V223.162L17.9194 212.822V212.351H18.3815L30.6157 212.406C34.7 212.406 38.775 212.508 42.85 212.554H43.1087V212.804C43.1087 214.55 43.0256 216.296 42.9886 218.024L42.85 223.162ZM42.85 223.162L42.7206 217.932C42.7206 216.213 42.619 214.513 42.6005 212.822L42.85 213.072C38.775 213.118 34.7 213.219 30.6157 213.219L18.3815 213.284L18.8435 212.822V223.162L18.4277 222.746C20.4421 222.746 22.4565 222.746 24.4801 222.792L30.5603 222.903L42.85 223.162Z" fill="#EBEBEB"/>
<path d="M29.202 236.2L17.0787 236.45L10.9246 236.561C8.86396 236.561 6.79411 236.561 4.7335 236.607H4.32693V236.2L4.27148 225.86V225.417H4.7335L16.9678 225.472C21.0428 225.472 25.127 225.574 29.202 225.62H29.4608V225.87C29.4608 227.616 29.3869 229.362 29.3407 231.09L29.202 236.2ZM29.202 236.2L29.0727 230.961C29.0265 229.242 28.971 227.542 28.9526 225.851L29.202 226.101C25.127 226.147 21.0428 226.248 16.9678 226.248L4.7335 226.341L5.19552 225.888L5.14932 236.228L4.7335 235.812C6.74791 235.812 8.76231 235.812 10.786 235.812L16.8661 235.923L29.202 236.2Z" fill="#EBEBEB"/>
<path d="M297.875 114.819L285.752 115.077L279.598 115.179C277.537 115.225 275.467 115.179 273.407 115.234H273V114.819L272.945 104.479V104.017H273.407L285.641 104.081C289.725 104.081 293.8 104.183 297.875 104.229H298.134V104.479C298.134 106.234 298.051 107.981 298.005 109.709L297.875 114.819ZM297.875 114.819L297.746 109.598C297.746 107.87 297.644 106.17 297.626 104.479L297.875 104.728C293.8 104.784 289.725 104.876 285.641 104.885L273.407 104.941L273.869 104.479L273.823 114.819L273.407 114.412C275.421 114.412 277.436 114.412 279.459 114.412L285.539 114.514L297.875 114.819Z" fill="#EBEBEB"/>
<path d="M284.227 127.857L272.104 128.115L265.941 128.217C263.889 128.263 261.82 128.217 259.759 128.273H259.352V127.857L259.306 117.517V117.055H259.768L272.002 117.11C276.077 117.11 280.162 117.221 284.237 117.267H284.495V117.517C284.495 119.272 284.422 121.019 284.375 122.747L284.227 127.857ZM284.227 127.857L284.098 122.636C284.052 120.908 283.996 119.208 283.978 117.517L284.227 117.766C280.152 117.822 276.068 117.914 271.993 117.923L259.759 117.979L260.221 117.517L260.175 127.857L259.759 127.45C261.773 127.45 263.788 127.45 265.811 127.496L271.882 127.598L284.227 127.857Z" fill="#EBEBEB"/>
<path d="M381.113 236.2L368.98 236.45L362.826 236.561C360.775 236.561 358.705 236.561 356.644 236.607H356.228V236.2L356.182 225.86V225.417H356.644L368.878 225.472C372.953 225.472 377.038 225.574 381.113 225.62H381.362V225.87C381.362 227.616 381.288 229.362 381.242 231.09L381.113 236.2ZM381.113 236.2L380.983 230.97C380.983 229.252 380.872 227.551 380.863 225.86L381.113 226.11C377.038 226.156 372.953 226.258 368.878 226.258L356.644 226.313L357.106 225.86L357.051 236.2L356.644 235.784C358.659 235.784 360.673 235.784 362.687 235.784L368.768 235.895L381.113 236.2Z" fill="#EBEBEB"/>
<path d="M367.465 15.8447L355.332 16.1035L349.178 16.2051C347.127 16.2051 345.057 16.2051 342.997 16.2606H342.618V15.8447V5.50474V5.04272H343.089L355.323 5.09817C359.398 5.09817 363.473 5.20905 367.557 5.25526H367.807V5.49551C367.807 7.25118 367.724 8.99761 367.687 10.7163L367.465 15.8447ZM367.465 15.8447L367.336 10.6239C367.29 8.89597 367.225 7.19573 367.206 5.50474L367.465 5.75423C363.381 5.75423 359.306 5.90208 355.231 5.91132L342.997 5.96676L343.459 5.50474L343.403 15.8447L342.997 15.4289C345.011 15.4289 347.016 15.4289 349.04 15.4844L355.12 15.586L367.465 15.8447Z" fill="#EBEBEB"/>
<path d="M381.113 28.8831L368.98 29.1418L362.826 29.2434C360.775 29.2434 358.705 29.2434 356.644 29.2989H356.228V28.8831L356.182 18.5431V18.0811H356.644L368.878 18.1365C372.953 18.1365 377.038 18.2474 381.113 18.2936H381.362V18.5431C381.362 20.2987 381.288 22.0452 381.242 23.7639L381.113 28.8831ZM381.113 28.8831L380.983 23.6622C380.983 21.9343 380.872 20.2341 380.863 18.5431L381.113 18.7926C377.038 18.7926 372.953 18.9404 368.878 18.9497L356.644 19.0051L357.106 18.5431L357.051 28.8831L356.644 28.4672C358.659 28.4672 360.673 28.4672 362.687 28.5227L368.768 28.6243L381.113 28.8831Z" fill="#EBEBEB"/>
<path d="M29.202 15.8449L17.0787 16.1037L10.8876 16.2053C8.82699 16.2053 6.75715 16.2053 4.69654 16.2608H4.32693V15.8449L4.27148 5.49571V5.03369H4.7335L16.9678 5.08913C21.0428 5.08913 25.127 5.20002 29.202 5.24622H29.4608V5.49571C29.4608 7.25138 29.3869 8.99782 29.3407 10.7165L29.202 15.8449ZM29.202 15.8449L29.0727 10.6241C29.0265 8.89617 28.971 7.19594 28.9526 5.50495L29.202 5.75444C25.127 5.75444 21.0428 5.90229 16.9678 5.91153L4.7335 5.96697L5.19552 5.50495L5.14932 15.8449L4.7335 15.4291C6.74791 15.4291 8.76231 15.4291 10.786 15.4846L16.8661 15.5862L29.202 15.8449Z" fill="#EBEBEB"/>
<path d="M218.889 209.274L206.784 209.523L200.63 209.634C198.569 209.634 196.509 209.634 194.439 209.68H194.032V209.274V198.934V198.462H194.494L206.729 198.518C210.813 198.518 214.888 198.619 218.972 198.666H219.222V198.915C219.222 200.662 219.138 202.408 219.101 204.136L218.889 209.274ZM218.889 209.274L218.75 204.044C218.75 202.325 218.649 200.625 218.63 198.934L218.889 199.183C214.805 199.183 210.73 199.331 206.645 199.331L194.411 199.386L194.873 198.934L194.827 209.274L194.411 208.858C196.435 208.858 198.44 208.858 200.464 208.904L206.544 209.015L218.889 209.274Z" fill="#EBEBEB"/>
<path d="M54.9271 36.0627C54.9271 36.0112 54.9066 35.9619 54.8703 35.9255C54.8339 35.8891 54.7845 35.8687 54.733 35.8687C54.6816 35.8687 54.6322 35.8891 54.5958 35.9255C54.5594 35.9619 54.539 36.0112 54.539 36.0627C53.8922 44.4437 54.1139 52.8987 54.2248 61.3074C54.3357 69.7162 54.0677 78.1527 54.502 86.5429C54.502 86.6042 54.5264 86.663 54.5697 86.7063C54.613 86.7496 54.6718 86.7739 54.733 86.7739C54.7943 86.7739 54.8531 86.7496 54.8964 86.7063C54.9397 86.663 54.964 86.6042 54.964 86.5429C55.3983 78.1527 55.1304 69.7069 55.2413 61.3074C55.3521 52.9079 55.5739 44.4437 54.9271 36.0627Z" fill="#C7C7C7"/>
<path d="M59.1594 93.427C59.1594 98.4723 56.2856 100.256 54.7332 100.256C53.1808 100.256 50.2979 98.4631 50.2979 93.427C50.2979 88.391 54.7332 80.3149 54.7332 80.3149C54.8718 80.5737 59.1594 88.465 59.1594 93.427Z" fill="#EBEBEB"/>
<path d="M69.573 36.9129C69.573 36.8541 69.5496 36.7977 69.508 36.7561C69.4664 36.7145 69.41 36.6912 69.3512 36.6912C69.2924 36.6912 69.236 36.7145 69.1944 36.7561C69.1528 36.7977 69.1294 36.8541 69.1294 36.9129C68.4087 47.678 68.7506 58.5909 68.8153 69.3744C68.88 80.1579 68.8153 91.0246 69.0925 101.845C69.104 101.907 69.1367 101.962 69.1848 102.002C69.2329 102.042 69.2934 102.064 69.3558 102.064C69.4183 102.064 69.4788 102.042 69.5269 102.002C69.575 101.962 69.6076 101.907 69.6192 101.845C69.8502 91.0246 69.841 80.1949 69.8964 69.3744C69.9518 58.5539 70.303 47.7057 69.573 36.9129Z" fill="#C7C7C7"/>
<path d="M73.7868 111.261C73.7868 116.316 70.9038 118.099 69.3514 118.099C67.799 118.099 64.9253 116.306 64.9253 111.261C64.9253 106.216 69.3514 98.1489 69.3514 98.1489C69.4993 98.4169 73.7868 106.308 73.7868 111.261Z" fill="#DBDBDB"/>
<path d="M85.4114 26.1941C85.4011 26.1441 85.3738 26.0993 85.3343 26.0671C85.2947 26.0349 85.2453 26.0173 85.1943 26.0173C85.1433 26.0173 85.0939 26.0349 85.0543 26.0671C85.0148 26.0993 84.9875 26.1441 84.9771 26.1941C84.663 43.3073 84.3858 60.4297 85.0696 77.5337C85.0696 77.568 85.0832 77.6009 85.1074 77.6251C85.1317 77.6494 85.1646 77.663 85.1989 77.663C85.2332 77.663 85.2661 77.6494 85.2904 77.6251C85.3147 77.6009 85.3283 77.568 85.3283 77.5337C86.0121 60.4297 85.7349 43.3073 85.4114 26.1941Z" fill="#C7C7C7"/>
<path d="M89.6252 83.0315C89.6252 88.0768 86.7515 89.8602 85.1991 89.8602C83.6467 89.8602 80.7729 88.0768 80.7729 83.0315C80.7729 77.9863 85.1991 69.9194 85.1991 69.9194C85.3377 70.1782 89.6252 78.0695 89.6252 83.0315Z" fill="#EBEBEB"/>
<path d="M101.443 32.2095C101.443 32.1776 101.431 32.1471 101.408 32.1245C101.386 32.102 101.355 32.0894 101.323 32.0894C101.291 32.0894 101.261 32.102 101.238 32.1245C101.216 32.1471 101.203 32.1776 101.203 32.2095C100.547 37.8184 100.797 43.6214 100.797 49.258C100.797 54.8946 100.797 60.6329 100.797 66.3157C100.861 77.6722 100.797 89.0471 101.037 100.413C101.037 100.481 101.064 100.547 101.113 100.596C101.161 100.644 101.227 100.672 101.296 100.672C101.364 100.672 101.43 100.644 101.478 100.596C101.527 100.547 101.554 100.481 101.554 100.413C101.831 89.0471 101.73 77.6722 101.795 66.3157C101.795 60.7715 101.795 55.2273 101.795 49.7385C101.868 43.9355 102.136 37.9755 101.443 32.2095Z" fill="#C7C7C7"/>
<path d="M105.777 105.292C105.777 110.337 102.894 112.12 101.342 112.12C99.7893 112.12 96.9155 110.337 96.9155 105.292C96.9155 100.247 101.342 92.1797 101.342 92.1797C101.443 92.4107 105.777 100.302 105.777 105.292Z" fill="#DBDBDB"/>
<path d="M116.552 33.2169C116.552 33.1728 116.534 33.1304 116.503 33.0993C116.472 33.0681 116.429 33.0505 116.385 33.0505C116.341 33.0505 116.299 33.0681 116.268 33.0993C116.237 33.1304 116.219 33.1728 116.219 33.2169C115.489 43.2242 115.933 53.4071 115.951 63.4329C115.97 73.4587 115.563 83.6509 116.265 93.6582C116.265 93.6901 116.278 93.7206 116.3 93.7432C116.323 93.7657 116.353 93.7783 116.385 93.7783C116.417 93.7783 116.448 93.7657 116.47 93.7432C116.493 93.7206 116.505 93.6901 116.505 93.6582C117.208 83.6509 116.801 73.468 116.82 63.4329C116.838 53.3979 117.282 43.1872 116.552 33.2169Z" fill="#C7C7C7"/>
<path d="M120.848 92.8079C120.848 97.8532 117.975 99.6366 116.422 99.6366C114.87 99.6366 111.996 97.8532 111.996 92.8079C111.996 87.7627 116.422 79.6958 116.422 79.6958C116.524 79.9545 120.848 87.8458 120.848 92.8079Z" fill="#EBEBEB"/>
<path d="M51.2586 23.4681C51.2586 23.4681 41.1958 25.7043 41.1958 34.9724C41.1958 44.2405 54.4558 43.2888 54.4558 43.2888C54.4558 43.2888 55.2597 51.2725 65.4888 54.1555C75.7179 57.0385 82.9623 49.0363 82.9623 49.0363C83.9509 50.2099 85.1978 51.1385 86.6054 51.7493C88.0131 52.3601 89.543 52.6365 91.0754 52.5569C92.6144 52.5462 94.1203 52.1087 95.4254 51.293C96.7305 50.4773 97.7837 49.3154 98.4677 47.9367C98.4677 47.9367 104.382 50.4963 110.138 48.0938C111.786 47.4189 113.273 46.4032 114.501 45.1132C115.729 43.8233 116.67 42.2884 117.263 40.6091C117.263 40.6091 125.256 41.5331 126.697 34.2147C128.139 26.8963 119.185 24.6232 119.185 24.6232C119.185 24.6232 119 12.6661 110.683 9.24719C107.666 8.04065 104.411 7.54237 101.17 7.79067C97.9297 8.03897 94.7891 9.02723 91.9902 10.6795C91.9902 10.6795 81.9182 -2.5805 66.8933 0.450343C51.8684 3.48119 51.2586 23.4681 51.2586 23.4681Z" fill="#EBEBEB"/>
<path d="M99.8077 25.0389C99.8077 24.9373 99.6599 24.965 99.6506 25.0389C99.4289 26.5358 98.7266 32.2187 96.5459 32.2834C94.4945 32.348 92.8497 27.4137 92.4154 25.6395C92.4154 25.6199 92.4076 25.6011 92.3938 25.5873C92.3799 25.5734 92.3611 25.5656 92.3415 25.5656C92.3219 25.5656 92.3031 25.5734 92.2892 25.5873C92.2754 25.6011 92.2676 25.6199 92.2676 25.6395C92.36 27.9589 93.7368 33.9559 96.8878 33.3737C99.6691 32.9579 100.122 26.7484 99.8077 25.0389Z" fill="white"/>
<path d="M68.0857 25.0389C68.0857 24.9373 68.2428 24.965 68.252 25.0389C68.4738 26.5358 69.1761 32.2187 71.3476 32.2834C73.4082 32.348 75.0437 27.4137 75.4873 25.6395C75.4873 25.5471 75.6351 25.5841 75.6351 25.6395C75.5427 27.9589 74.1659 33.9559 71.0149 33.3737C68.2243 32.9579 67.7808 26.7484 68.0857 25.0389Z" fill="white"/>
<path d="M79.9038 28.9385C80.49 29.4525 81.1389 29.8903 81.835 30.2414C82.4822 30.5655 83.1909 30.7482 83.9141 30.7773C84.6307 30.7977 85.3414 30.6422 85.984 30.3245C86.6752 29.9724 87.3004 29.5035 87.8321 28.9385C87.5671 29.766 87.0393 30.4845 86.3288 30.9848C85.6184 31.4851 84.7641 31.7399 83.8956 31.7106C83.0145 31.6842 82.1629 31.3874 81.4562 30.8605C80.7719 30.3747 80.2348 29.7097 79.9038 28.9385Z" fill="white"/>
<path d="M0.215332 307.97L48.3947 307.739L96.5741 307.665L192.924 307.508L289.273 307.656L337.452 307.739L385.632 307.97L337.452 308.192L289.273 308.275L192.924 308.432L96.5741 308.275L48.3947 308.192L0.215332 307.97Z" fill="#263238"/>
<path d="M215.59 375.028C279.387 375.028 331.104 370.651 331.104 365.251C331.104 359.852 279.387 355.475 215.59 355.475C151.794 355.475 100.076 359.852 100.076 365.251C100.076 370.651 151.794 375.028 215.59 375.028Z" fill="#EBEBEB"/>
<path d="M378.073 308.238C384.227 310.779 386.824 302.694 386.639 296.808C386.454 290.922 384.523 286.542 382.693 286.209C379.496 285.636 370.071 304.884 378.073 308.238Z" fill="#FFC727"/>
<path d="M329.912 276.96C327.414 280.009 324.68 282.858 321.735 285.479C314.546 292.068 305.296 298.813 302.579 295.893C298.486 291.522 314.315 267.904 317.493 265.317C318.683 264.257 320.194 263.628 321.784 263.529C323.374 263.43 324.951 263.868 326.262 264.771C330.31 267.359 332.675 273.3 329.912 276.96Z" fill="#FFC727"/>
<path opacity="0.1" d="M316.597 288.251C318.395 287.496 320.116 286.568 321.735 285.479C314.546 292.068 305.296 298.813 302.579 295.893C298.486 291.522 314.315 267.904 317.493 265.317C318.683 264.257 320.194 263.628 321.784 263.529C323.374 263.43 324.951 263.868 326.262 264.771C319.624 268.773 314.368 274.709 311.201 281.783C310.341 283.834 308.114 288.686 313.049 289.175C314.13 289.342 315.636 288.612 316.597 288.251Z" fill="#030402"/>
<path d="M339.06 311.583C335.78 313.958 300.251 325.814 292.766 322.561C285.281 319.308 282.712 299.257 285.253 299.257C287.795 299.257 291.934 303.979 292.563 304.062C292.923 304.117 298.828 300.689 304.529 297.714C308.539 295.625 312.448 293.75 314.268 293.463C329.626 291.014 338.543 302.907 339.605 308.747C339.846 310.105 339.679 311.131 339.06 311.583Z" fill="#FFC727"/>
<path opacity="0.1" d="M339.06 311.583C335.78 313.958 300.251 325.813 292.766 322.561C285.281 319.308 282.712 299.257 285.253 299.257C287.795 299.257 291.934 303.978 292.563 304.062C292.923 304.117 298.828 300.689 304.529 297.713C301.606 299.86 299.138 302.564 297.266 305.669C292.794 313.893 304.612 317.747 310.507 317.839C316.163 317.95 321.596 316.203 326.872 314.291C331.225 312.701 335.477 310.85 339.605 308.746C339.846 310.105 339.679 311.13 339.06 311.583Z" fill="#030402"/>
<path d="M379.625 308.164C379.46 308.492 379.262 308.801 379.034 309.088C375.661 313.533 362.401 321.101 350.934 322.81C338.58 324.658 316.024 321.36 311.958 312.563C307.892 303.766 319.859 262.665 320.764 260.493L365.571 257.083L365.904 257.915C368.334 263.949 383.007 300.864 379.625 308.164Z" fill="#FFC727"/>
<path opacity="0.1" d="M379.034 309.116C375.661 313.561 362.401 321.129 350.934 322.838C338.58 324.686 316.024 321.387 311.958 312.591C307.892 303.794 319.859 262.693 320.764 260.521L365.571 257.111L365.904 257.943C354.131 262.609 342.387 268.597 333.34 277.597C324.294 286.597 318.038 302.546 328.369 313.053C337.323 322.182 352.708 320.556 363.649 316.749C369.061 314.821 374.225 312.259 379.034 309.116Z" fill="#030402"/>
<path d="M376.65 312.378C375.837 313.57 371.974 316.998 366.772 321.064C355.499 329.935 337.951 342.003 331.659 341.596C322.418 341.005 312.143 320.658 314.832 319.687C317.521 318.717 323.721 322.173 324.423 322.025C324.932 321.914 332.407 312.96 338.164 307.139C339.738 305.393 341.515 303.842 343.459 302.519C362.411 292.151 379.228 308.58 376.65 312.378Z" fill="#FFC727"/>
<path opacity="0.1" d="M366.772 321.064C355.499 329.935 337.951 342.003 331.659 341.596C322.418 341.005 312.143 320.657 314.832 319.687C317.521 318.717 323.721 322.173 324.423 322.025C324.932 321.914 332.407 312.96 338.164 307.139C334.745 311.38 331.243 316.536 330.513 321.877C329.256 331.117 340.677 332.125 347.053 330.822C354.408 329.316 360.71 325.407 366.772 321.064Z" fill="#030402"/>
<path d="M373.259 305.679C366.855 307.878 349.742 280.6 348.532 276.11C347.266 271.425 349.567 268.034 352.93 266.25C357.476 263.866 363.954 264.402 366.301 268.653C368.897 273.365 373.61 286.209 375.033 295.45C375.883 300.754 375.597 304.884 373.259 305.679Z" fill="#FFC727"/>
<path opacity="0.1" d="M373.259 305.679C366.855 307.878 349.742 280.6 348.532 276.109C347.266 271.425 349.567 268.033 352.93 266.25C351.332 269.216 353.984 275.352 355.037 277.477C356.813 280.789 358.878 283.936 361.209 286.884C363.172 289.704 365.42 292.314 367.918 294.673C368.842 295.524 371.226 297.778 372.492 297.843C374.063 297.917 374.756 296.826 375.033 295.45C375.883 300.754 375.597 304.884 373.259 305.679Z" fill="#030402"/>
<path d="M319.831 260.595C317.123 260.142 317.345 265.363 317.872 266.241C318.399 267.119 326.826 273.125 341.657 271.988C357.929 270.759 367.946 264.31 368.75 263.136C369.553 261.963 367.881 256.936 366.107 257.074C364.333 257.213 346.314 265.003 319.831 260.595Z" fill="#FFC727"/>
<path opacity="0.6" d="M319.831 260.595C317.123 260.142 317.345 265.363 317.872 266.241C318.399 267.119 326.826 273.125 341.657 271.988C357.929 270.759 367.946 264.31 368.75 263.136C369.553 261.963 367.881 256.936 366.107 257.074C364.333 257.213 346.314 265.003 319.831 260.595Z" fill="white"/>
<path d="M327.833 201.558L315.331 210.521C314.635 210.533 313.94 210.49 313.252 210.392C310.723 210.12 308.321 209.147 306.316 207.583C304.312 206.019 302.783 203.926 301.904 201.539C298.338 192.077 303.651 180.231 317.613 182.624C324.95 183.881 327.168 190.469 327.778 195.561C328.001 197.553 328.019 199.562 327.833 201.558Z" fill="#FFC727"/>
<path opacity="0.6" d="M316.209 206.317C316.209 206.317 310.304 206.594 308.17 200.939C306.035 195.284 309.214 188.187 317.558 189.619C324.867 190.876 323.684 200.948 323.684 200.948L316.209 206.317Z" fill="white"/>
<path d="M389.328 199.294C389.384 204.247 386.732 207.398 383.507 209.403C380.145 211.309 376.415 212.475 372.566 212.822L361.478 202.177C361.478 202.177 359.223 192.558 367.863 187.328C372.991 184.223 379.515 184.038 384.015 187.328C387.11 189.619 389.245 193.537 389.328 199.294Z" fill="#FFC727"/>
<path opacity="0.6" d="M365.774 202.316C365.774 202.316 364.425 196.559 369.6 193.426C374.774 190.294 382.324 192.133 382.435 200.588C382.536 207.98 372.409 208.682 372.409 208.682L365.774 202.316Z" fill="white"/>
<path opacity="0.1" d="M372.335 204.007C374.673 209.616 379.09 210.614 383.507 209.403C380.145 211.309 376.415 212.475 372.566 212.822L361.478 202.177C361.478 202.177 359.223 192.558 367.863 187.328C372.991 184.223 379.515 184.038 384.015 187.328C375.652 187.125 368.944 195.847 372.335 204.007Z" fill="#030402"/>
<path d="M377.861 243.048C377.511 244.526 377.038 245.972 376.447 247.372C375.766 248.959 374.921 250.471 373.924 251.881C370.505 256.686 365.423 260.198 359.62 262.656C351.621 265.851 343.007 267.212 334.412 266.638C324.072 265.954 315.516 262.406 309.824 257.121C306.947 254.51 304.747 251.241 303.411 247.594C301.313 241.745 302.487 236.256 304.538 230.85C306.109 226.701 308.188 222.599 309.694 218.431C310.684 215.663 311.873 212.97 313.252 210.374C314.007 208.969 314.837 207.605 315.737 206.289C317.898 203.08 320.596 200.266 323.712 197.973C324.988 197.041 326.338 196.215 327.75 195.506C331.839 193.474 336.317 192.343 340.881 192.188C342.841 192.082 344.806 192.082 346.767 192.188C359.112 192.9 366.855 197.844 370.986 203.221C375.283 208.877 381.427 228.457 377.861 243.048Z" fill="#FFC727"/>
<g opacity="0.4">
<path opacity="0.6" d="M317.124 244.156C317.244 246.779 316.624 249.383 315.335 251.671C314.046 253.958 312.139 255.837 309.833 257.093C306.936 254.496 304.716 251.232 303.365 247.584C301.276 241.726 302.441 236.246 304.501 230.841C307.854 231.173 310.976 232.701 313.294 235.147C315.612 237.592 316.971 240.79 317.124 244.156Z" fill="white"/>
<path opacity="0.6" d="M377.86 243.047C377.509 244.525 377.036 245.972 376.447 247.372C373.407 254.533 367.105 259.532 359.62 262.655C357.081 261.987 354.758 260.672 352.879 258.838C350.999 257.004 349.627 254.715 348.896 252.193C348.165 249.671 348.101 247.002 348.709 244.448C349.316 241.894 350.576 239.54 352.364 237.618C354.153 235.695 356.409 234.269 358.913 233.478C361.417 232.688 364.083 232.56 366.651 233.107C369.219 233.654 371.602 234.857 373.566 236.599C375.531 238.341 377.01 240.563 377.86 243.047Z" fill="white"/>
</g>
<path opacity="0.1" d="M373.924 251.881C370.505 256.686 365.423 260.198 359.62 262.656C351.621 265.851 343.007 267.212 334.412 266.638C324.072 265.954 315.516 262.406 309.824 257.121C306.947 254.51 304.747 251.241 303.411 247.594C301.313 241.745 302.487 236.256 304.538 230.85C306.109 226.701 308.188 222.598 309.694 218.431C310.684 215.663 311.872 212.97 313.252 210.373C310.723 210.101 308.321 209.129 306.316 207.564C304.312 206 302.783 203.907 301.904 201.521C298.338 192.059 303.651 180.213 317.613 182.606C324.95 183.863 327.168 190.451 327.778 195.543C331.867 193.511 336.344 192.38 340.908 192.225C342.869 192.119 344.834 192.119 346.794 192.225C324.396 197.021 315.784 228.096 314.776 234.583C313.696 241.173 315.249 247.923 319.101 253.378C327.63 265.15 346 264.226 358.326 260.077C363.911 258.152 369.17 255.388 373.924 251.881Z" fill="#030402"/>
<path opacity="0.6" d="M327.362 226.563C323.777 227.893 317.355 240.867 319.72 244.341C322.086 247.815 341.712 250.126 345.455 246.817C349.197 243.509 344.004 229.981 341.703 228.244C339.402 226.507 330.698 225.324 327.362 226.563Z" fill="white"/>
<path d="M320.94 225.158C319.443 224.964 317.964 226.332 317.715 228.143C317.465 229.954 318.537 231.663 320.034 231.839C321.531 232.014 323.019 230.675 323.259 228.863C323.499 227.052 322.446 225.361 320.94 225.158Z" fill="#263238"/>
<path d="M322.991 227.126C322.991 227.071 322.853 227.126 322.871 227.126C323.416 229.778 322.067 232.763 319.046 232.744C319 232.744 318.981 232.809 319.046 232.818C322.289 233.502 324.239 229.935 322.991 227.126Z" fill="#263238"/>
<path d="M350.01 228.004C351.525 228.106 352.699 229.75 352.579 231.571C352.459 233.391 351.073 234.86 349.557 234.759C348.042 234.657 346.868 233.022 346.998 231.192C347.127 229.362 348.485 227.902 350.01 228.004Z" fill="#263238"/>
<path d="M347.598 229.519C347.598 229.473 347.737 229.519 347.709 229.575C346.637 232.07 347.358 235.267 350.333 235.849V235.923C346.961 235.895 345.806 232.024 347.598 229.519Z" fill="#263238"/>
<path d="M323.795 218.597C323.675 217.775 322.696 217.673 322.03 217.719C321.159 217.801 320.31 218.043 319.526 218.431C319.339 218.52 319.185 218.667 319.087 218.849C318.988 219.031 318.95 219.24 318.978 219.446C319.005 219.651 319.098 219.843 319.241 219.992C319.384 220.142 319.572 220.243 319.776 220.279C320.6 220.347 321.429 220.266 322.224 220.039C322.917 219.872 323.925 219.494 323.795 218.597Z" fill="#263238"/>
<path d="M349.53 221.259C349.816 220.482 350.805 220.547 351.433 220.76C352.274 221.003 353.058 221.407 353.743 221.952C353.914 222.074 354.041 222.249 354.105 222.45C354.169 222.65 354.166 222.866 354.098 223.065C354.03 223.265 353.899 223.436 353.725 223.555C353.551 223.674 353.344 223.734 353.133 223.726C352.311 223.626 351.513 223.378 350.777 222.996C350.13 222.7 349.225 222.118 349.53 221.259Z" fill="#263238"/>
<path d="M331.529 232.938C329.875 232.717 325.985 229.242 326.706 227.579C327.427 225.916 336.131 227.098 337.166 228.503C338.201 229.907 332.453 233.058 331.529 232.938Z" fill="#263238"/>
<path d="M362.226 238.409C362.139 239.273 361.798 240.091 361.246 240.761C360.694 241.432 359.956 241.923 359.125 242.173C358.293 242.424 357.406 242.422 356.576 242.168C355.746 241.915 355.009 241.421 354.46 240.748C353.91 240.076 353.573 239.256 353.489 238.392C353.406 237.528 353.581 236.658 353.992 235.893C354.403 235.129 355.031 234.503 355.798 234.095C356.565 233.688 357.435 233.517 358.299 233.604C359.455 233.723 360.518 234.295 361.254 235.196C361.99 236.096 362.339 237.251 362.226 238.409Z" fill="#FF99BA"/>
<path d="M315.045 233.816C314.956 234.68 314.613 235.498 314.06 236.166C313.506 236.835 312.767 237.325 311.935 237.574C311.103 237.822 310.217 237.819 309.387 237.563C308.557 237.308 307.822 236.812 307.274 236.139C306.726 235.465 306.39 234.645 306.308 233.78C306.227 232.916 306.404 232.047 306.816 231.283C307.228 230.519 307.858 229.895 308.625 229.489C309.393 229.083 310.263 228.913 311.127 229.002C312.285 229.121 313.348 229.695 314.083 230.598C314.817 231.501 315.163 232.658 315.045 233.816Z" fill="#FF99BA"/>
<path d="M10.4816 110.448H1.12109V307.915H10.4816V110.448Z" fill="#EBEBEB"/>
<path d="M10.7218 105.514C10.7218 106.488 10.433 107.44 9.8918 108.25C9.35062 109.06 8.58142 109.691 7.68147 110.064C6.78152 110.437 5.79125 110.534 4.83587 110.344C3.88049 110.154 3.00291 109.685 2.31412 108.996C1.62533 108.308 1.15626 107.43 0.966218 106.475C0.776181 105.519 0.873718 104.529 1.24649 103.629C1.61926 102.729 2.25053 101.96 3.06046 101.419C3.87039 100.877 4.82261 100.589 5.79671 100.589C7.10294 100.589 8.35566 101.108 9.2793 102.031C10.2029 102.955 10.7218 104.208 10.7218 105.514Z" fill="#EBEBEB"/>
<path d="M260.748 110.448H251.388V307.915H260.748V110.448Z" fill="#EBEBEB"/>
<path d="M260.998 105.514C260.998 106.488 260.709 107.44 260.168 108.25C259.626 109.06 258.857 109.691 257.957 110.064C257.057 110.436 256.067 110.534 255.112 110.344C254.156 110.154 253.279 109.685 252.59 108.996C251.901 108.307 251.432 107.43 251.242 106.474C251.052 105.519 251.15 104.529 251.522 103.629C251.895 102.729 252.526 101.96 253.336 101.418C254.146 100.877 255.098 100.588 256.073 100.588C257.378 100.591 258.629 101.111 259.552 102.034C260.476 102.957 260.995 104.208 260.998 105.514Z" fill="#EBEBEB"/>
<path d="M251.397 242.826H10.4814V272.062H251.397V242.826Z" fill="#EBEBEB"/>
<path d="M19.6756 242.835H10.4814V272.062H19.6756V242.835Z" fill="#DBDBDB"/>
<path d="M251.388 242.835H242.193V272.062H251.388V242.835Z" fill="#DBDBDB"/>
<path d="M125.912 267.654H31.4756V247.242H125.912V267.654ZM32.3996 266.73H124.988V248.166H32.3996V266.73Z" fill="#DBDBDB"/>
<path d="M90.1059 257.915H67.2544V253.702H90.0781L90.1059 257.915ZM68.2062 256.991H89.1818V254.626H68.1784L68.2062 256.991Z" fill="#DBDBDB"/>
<path d="M230.384 267.654H135.947V247.242H230.384V267.654ZM136.871 266.73H229.46V248.166H136.871V266.73Z" fill="#DBDBDB"/>
<path d="M194.578 257.915H171.754V253.702H194.578V257.915ZM172.678 256.991H193.654V254.626H172.678V256.991Z" fill="#DBDBDB"/>
<path d="M251.397 233.964H10.4814V242.835H251.397V233.964Z" fill="#DBDBDB"/>
<path d="M251.397 210.965H10.4814V233.964H251.397V210.965Z" fill="#FFC727"/>
<path opacity="0.6" d="M251.397 210.965H10.4814V233.964H251.397V210.965Z" fill="white"/>
<path d="M251.147 121.61H10.4814V129.492H251.147V121.61Z" fill="#EBEBEB"/>
<path d="M17.4301 129.501H14.2422V242.835H17.4301V129.501Z" fill="#EBEBEB"/>
<path d="M32.7602 129.501H29.5723V242.835H32.7602V129.501Z" fill="#EBEBEB"/>
<path d="M48.0898 129.501H44.9019V242.835H48.0898V129.501Z" fill="#EBEBEB"/>
<path d="M63.4199 129.501H60.2319V242.835H63.4199V129.501Z" fill="#EBEBEB"/>
<path d="M78.7495 129.501H75.5615V242.835H78.7495V129.501Z" fill="#EBEBEB"/>
<path d="M94.079 129.501H90.8911V242.835H94.079V129.501Z" fill="#EBEBEB"/>
<path d="M109.409 129.501H106.221V242.835H109.409V129.501Z" fill="#EBEBEB"/>
<path d="M124.739 129.501H121.551V242.835H124.739V129.501Z" fill="#EBEBEB"/>
<path d="M140.069 129.501H136.881V242.835H140.069V129.501Z" fill="#EBEBEB"/>
<path d="M155.398 129.501H152.21V242.835H155.398V129.501Z" fill="#EBEBEB"/>
<path d="M170.728 129.501H167.541V242.835H170.728V129.501Z" fill="#EBEBEB"/>
<path d="M186.067 129.501H182.879V242.835H186.067V129.501Z" fill="#EBEBEB"/>
<path d="M201.397 129.501H198.209V242.835H201.397V129.501Z" fill="#EBEBEB"/>
<path d="M216.727 129.501H213.539V242.835H216.727V129.501Z" fill="#EBEBEB"/>
<path d="M232.057 129.501H228.869V242.835H232.057V129.501Z" fill="#EBEBEB"/>
<path d="M247.387 129.501H244.199V242.835H247.387V129.501Z" fill="#EBEBEB"/>
<path d="M251.147 121.61H10.4814V129.492H251.147V121.61Z" fill="#EBEBEB"/>
<path d="M10.6112 362.674C10.88 365.832 12.0115 368.856 13.8823 371.415C16.9752 375.626 21.3383 378.732 26.3291 380.277C32.2799 381.959 48.737 382.125 55.9537 380.166C63.1705 378.207 68.2527 373.032 67.7075 363.949C67.1623 354.866 58.5318 345.468 58.5318 345.468C52.8034 346.167 47.0164 346.247 41.2708 345.708C39.6969 345.557 38.1102 345.606 36.5489 345.856C29.7018 346.91 24.5364 351.271 22.3834 351.401C19.7961 351.548 16.026 347.409 14.8987 347.279C13.7714 347.15 9.85345 353.018 10.6112 362.674Z" fill="#FFC727"/>
<path opacity="0.6" d="M10.6112 362.674C10.88 365.832 12.0115 368.856 13.8823 371.415C16.9752 375.626 21.3383 378.732 26.3291 380.277C32.2799 381.959 48.737 382.125 55.9537 380.166C63.1705 378.207 68.2527 373.032 67.7075 363.949C67.1623 354.866 58.5318 345.468 58.5318 345.468C52.8034 346.167 47.0164 346.247 41.2708 345.708C39.6969 345.557 38.1102 345.606 36.5489 345.856C29.7018 346.91 24.5364 351.271 22.3834 351.401C19.7961 351.548 16.026 347.409 14.8987 347.279C13.7714 347.15 9.85345 353.018 10.6112 362.674Z" fill="white"/>
<path d="M17.255 370.63C17.0794 370.519 20.2211 359.089 30.2654 353.073C30.441 352.962 30.441 353.212 30.2654 353.35C27.6134 355.633 20.4429 363.967 18.5763 369.928C31.097 373.568 44.7359 364.254 48.201 359.172C48.2842 359.061 48.4505 359.172 48.3858 359.31C39.5335 375.462 18.9737 372.82 17.255 370.63Z" fill="#FFC727"/>
<path opacity="0.1" d="M13.8823 371.415C16.9753 375.626 21.3383 378.732 26.3291 380.277C32.2799 381.959 48.7371 382.125 55.9538 380.166C63.1705 378.207 68.2528 373.032 67.7076 363.949C67.1624 354.866 58.5319 345.468 58.5319 345.468C52.8034 346.167 47.0165 346.247 41.2708 345.708C39.697 345.557 38.1102 345.606 36.549 345.856C42.2595 348.194 47.8592 352.112 51.3336 357.25C58.1345 367.414 45.9834 373.189 37.7133 374.649C29.627 376.098 21.2899 374.967 13.8823 371.415Z" fill="#030402"/>
<path d="M61.8766 335.184C62.6898 338.242 66.9404 342.576 67.3192 342.465L67.7535 342.373C70.8385 341.549 73.5264 339.648 75.3306 337.013C78.5925 332.393 77.1787 326.22 75.728 325.842C74.2772 325.463 72.9558 328.078 70.4609 328.614C67.966 329.15 66.6354 327.967 65.12 326.969C64.9167 327.237 61.0912 332.208 61.8766 335.184Z" fill="#FFC727"/>
<path d="M36.5581 346.272C38.1017 348.91 40.3654 351.054 43.0838 352.452C45.8021 353.849 48.8626 354.443 51.9064 354.163C60.5924 353.646 66.0072 348.564 67.7537 342.373C68.2527 340.592 68.4495 338.739 68.3358 336.893C68.1606 333.362 67.0509 329.94 65.1202 326.978C63.4869 324.469 61.204 322.45 58.5143 321.135C55.8247 319.82 52.8289 319.259 49.8458 319.512C48.8797 319.571 47.9193 319.701 46.972 319.9C38.0735 321.813 33.8969 329.935 33.9893 337.226C34.0512 340.412 34.9361 343.529 36.5581 346.272Z" fill="#FFC727"/>
<path opacity="0.6" d="M36.5581 346.272C38.1017 348.91 40.3654 351.054 43.0838 352.452C45.8021 353.849 48.8626 354.443 51.9064 354.163C60.5924 353.646 66.0072 348.564 67.7537 342.373C68.2527 340.592 68.4495 338.739 68.3358 336.893C68.1606 333.362 67.0509 329.94 65.1202 326.978C63.4869 324.469 61.204 322.45 58.5143 321.135C55.8247 319.82 52.8289 319.259 49.8458 319.512C48.8797 319.571 47.9193 319.701 46.972 319.9C38.0735 321.813 33.8969 329.935 33.9893 337.226C34.0512 340.412 34.9361 343.529 36.5581 346.272Z" fill="white"/>
<path d="M58.2174 336.181C61.5254 335.544 62.8376 340.885 59.28 341.569C55.7225 342.252 54.7984 336.828 58.2174 336.181Z" fill="#263238"/>
<path opacity="0.1" d="M36.5581 346.272C38.1017 348.91 40.3654 351.054 43.0837 352.451C45.8021 353.849 48.8626 354.443 51.9064 354.163C60.5924 353.646 66.0072 348.564 67.7537 342.373C70.8386 341.549 73.5266 339.648 75.3308 337.013C78.5926 332.393 77.1788 326.22 75.7281 325.842C74.2774 325.463 72.956 328.078 70.4611 328.614C67.9662 329.15 66.6356 327.967 65.1201 326.969C63.4869 324.46 61.204 322.44 58.5143 321.126C55.8247 319.811 52.8289 319.25 49.8458 319.503C48.8797 319.562 47.9193 319.692 46.972 319.891C57.774 322.875 66.9775 336.884 55.7227 345.098C53.5242 346.624 51.0216 347.657 48.3866 348.124C45.7516 348.591 43.0467 348.483 40.4575 347.806C39.1023 347.449 37.7935 346.934 36.5581 346.272Z" fill="#030402"/>
<path d="M252.349 298.989C262.217 300.504 281.373 340.34 271.079 345.191C262.762 349.118 235.568 328.419 236.381 314.614C236.926 305.466 245.427 297.926 252.349 298.989Z" fill="#AD6359"/>
<path d="M175.256 294.895C174.674 279.316 182.861 249.229 199.281 244.073C215.701 238.917 233.896 248.176 236.908 269.512C239.255 286.145 232.999 303.341 232.999 303.341C232.999 303.341 246.86 297.88 251.055 298.785C259.371 300.587 268.011 316.629 259.695 326.276C253.753 333.16 212.726 364.485 189.791 341.929C176.707 329.066 175.968 314.235 175.256 294.895Z" fill="#AD6359"/>
<g opacity="0.1">
<path opacity="0.1" d="M252.349 298.989C262.217 300.504 281.373 340.34 271.079 345.191C262.762 349.118 235.568 328.419 236.381 314.614C236.926 305.466 245.427 297.926 252.349 298.989Z" fill="black"/>
<path opacity="0.1" d="M175.256 294.895C174.674 279.316 182.861 249.229 199.281 244.073C215.701 238.917 233.896 248.176 236.908 269.512C239.255 286.145 232.999 303.341 232.999 303.341C232.999 303.341 246.86 297.88 251.055 298.785C259.371 300.587 268.011 316.629 259.695 326.276C253.753 333.16 212.726 364.485 189.791 341.929C176.707 329.066 175.968 314.235 175.256 294.895Z" fill="black"/>
</g>
<path d="M233.498 300.735C232.238 305.137 230.245 309.295 227.602 313.034C226.346 314.836 224.997 316.555 223.574 318.227C222.085 320.093 220.424 321.813 218.611 323.365C218.408 323.522 218.611 323.827 218.861 323.679C219.831 322.958 220.894 322.367 221.836 321.591C222.762 320.814 223.647 319.991 224.488 319.124C226.105 317.471 227.522 315.636 228.711 313.653C231.085 309.677 232.769 305.329 233.692 300.791C233.71 300.68 233.581 300.624 233.498 300.735Z" fill="#263238"/>
<path d="M254.372 325.934C252.8 328.945 250.739 331.674 248.273 334.01C247.118 335.091 245.926 336.089 244.688 337.041C243.399 338.112 241.999 339.041 240.511 339.813C240.345 339.887 240.447 340.182 240.613 340.118C241.38 339.794 242.184 339.591 242.941 339.194C243.692 338.815 244.421 338.392 245.122 337.928C246.502 337.02 247.762 335.943 248.874 334.721C251.215 332.142 253.111 329.191 254.483 325.989C254.52 325.943 254.409 325.86 254.372 325.934Z" fill="#263238"/>
<path d="M94.2822 303.683C99.4753 304.93 128.758 311.121 147.054 305.891C161.041 302.057 173.011 292.979 180.477 280.545C192.489 260.891 181.151 246.078 169.018 252.528C154.613 260.198 141.297 269.762 132.001 272.857C120.636 276.627 100.917 277.662 97.812 278.244C91.2791 279.473 87.8139 302.112 94.2822 303.683Z" fill="#AD6359"/>
<path d="M99.6693 278.3C97.9044 275.777 90.8725 271.48 89.819 269.383C88.7656 267.285 87.3334 261.408 84.2194 262.961C81.1054 264.513 84.2841 272.931 85.0325 274.853C85.781 276.775 66.0066 270.186 64.3618 274.853C62.717 279.519 76.6607 282.661 76.3743 283.613C76.0878 284.565 61.2016 282.8 60.2406 286.939C59.2796 291.079 75.3856 291.476 75.3578 291.8C75.3301 292.123 63.8905 288.03 62.3381 291.476C60.7858 294.923 77.0026 298 76.9472 298.73C76.8917 299.46 67.3926 300.763 68.0857 304.468C68.7787 308.174 83.0828 304.376 84.3949 304.228C85.7071 304.08 95.8623 304.764 97.4424 303.184C99.0225 301.604 100.926 280.101 99.6693 278.3Z" fill="#AD6359"/>
<g opacity="0.1">
<path opacity="0.1" d="M94.2822 303.683C99.4753 304.93 128.758 311.121 147.054 305.891C161.041 302.057 173.011 292.979 180.477 280.545C192.489 260.891 181.151 246.078 169.018 252.528C154.613 260.198 141.297 269.762 132.001 272.857C120.636 276.627 100.917 277.662 97.812 278.244C91.2791 279.473 87.8139 302.112 94.2822 303.683Z" fill="black"/>
<path opacity="0.1" d="M99.6693 278.3C97.9044 275.777 90.8725 271.48 89.819 269.383C88.7656 267.285 87.3334 261.408 84.2194 262.961C81.1054 264.513 84.2841 272.931 85.0325 274.853C85.781 276.775 66.0066 270.187 64.3618 274.853C62.717 279.52 76.6607 282.661 76.3743 283.613C76.0878 284.565 61.2016 282.8 60.2406 286.94C59.2796 291.079 75.3856 291.477 75.3578 291.8C75.3301 292.123 63.8905 288.03 62.3381 291.477C60.7858 294.923 77.0026 298 76.9472 298.73C76.8917 299.46 67.3926 300.763 68.0857 304.469C68.7787 308.174 83.0828 304.376 84.3949 304.228C85.7071 304.08 95.8623 304.764 97.4424 303.184C99.0225 301.604 100.926 280.102 99.6693 278.3Z" fill="black"/>
</g>
<path d="M87.0563 279.103C85.6211 282.135 84.5748 285.336 83.9423 288.63C83.4221 291.964 83.363 295.353 83.7667 298.702C83.7667 298.961 84.1918 298.961 84.1641 298.702C83.9683 295.39 84.1575 292.066 84.7277 288.797C85.1969 285.511 86.0786 282.298 87.352 279.233C87.4259 279.067 87.1395 278.937 87.0563 279.103Z" fill="#263238"/>
<path d="M73.5379 291.513C72.5122 291.347 71.4957 291.162 70.4793 290.959C69.4629 290.756 68.6312 290.636 67.624 290.534C66.4967 290.405 65.7759 290.368 64.6486 290.146C64.3252 290.072 64.2605 290.146 64.5654 290.285C66.4359 290.86 68.34 291.319 70.2668 291.661C71.2647 291.791 72.2535 291.902 73.2514 291.994C74.3185 292.125 75.3921 292.196 76.4671 292.206C76.5964 292.206 76.6426 291.994 76.4671 291.966C75.5708 291.763 74.5174 291.68 73.5379 291.513Z" fill="#263238"/>
<path d="M215.941 323.716C214.925 323.06 220.857 303.008 221.338 282.291C221.92 257.158 216.856 241.892 217.743 240.506C219.591 237.679 223.481 240.266 224.11 240.22C224.738 240.174 249.059 232.523 265.303 239.582C281.548 246.642 292.1 269.309 288.811 287.734C285.521 306.159 270.949 337.632 219.97 323.356C219.665 323.273 218.196 325.213 215.941 323.716Z" fill="#FFC727"/>
<g opacity="0.6">
<path opacity="0.6" d="M215.941 323.716C214.925 323.06 220.857 303.008 221.338 282.291C221.92 257.158 216.856 241.892 217.743 240.506C219.591 237.679 223.481 240.266 224.11 240.22C224.738 240.174 249.059 232.523 265.303 239.582C281.548 246.642 292.1 269.309 288.811 287.734C285.521 306.159 270.949 337.632 219.97 323.356C219.665 323.273 218.196 325.213 215.941 323.716Z" fill="white"/>
</g>
<path d="M224.23 243.898C225.478 246.944 226.509 250.075 227.316 253.267C228.098 256.471 228.715 259.712 229.164 262.979C230.109 269.522 230.419 276.142 230.088 282.744C229.79 289.351 228.862 295.913 227.316 302.343C226.579 305.556 225.679 308.73 224.618 311.852C224.156 313.432 223.463 314.938 222.872 316.472C222.28 318.006 221.643 319.521 221.023 321.027C221.476 319.447 221.947 317.867 222.428 316.305C222.908 314.744 223.444 313.201 223.768 311.584C224.526 308.405 225.403 305.263 225.93 302.038L226.374 299.636C226.521 298.832 226.716 298.046 226.799 297.233L227.445 292.391C227.704 290.783 227.769 289.148 227.926 287.531C228.083 285.914 228.231 284.287 228.24 282.661L228.406 277.782L228.333 272.903C228.231 269.651 228.028 266.435 227.695 263.155C227.111 256.646 225.952 250.202 224.23 243.898Z" fill="#FFC727"/>
<path d="M306.257 316.61C316.024 318.689 332.869 359.55 322.316 363.828C313.825 367.275 287.822 345.052 289.421 331.321C290.493 322.201 299.41 315.15 306.257 316.61Z" fill="#AD6359"/>
<path d="M229.516 308.118C229.839 292.539 239.68 262.961 256.387 258.747C273.093 254.533 290.715 264.818 292.507 286.293C293.893 303.036 286.667 319.844 286.667 319.844C286.667 319.844 300.814 315.224 304.963 316.333C313.178 318.606 320.866 335.119 312.014 344.267C305.693 350.8 262.938 379.731 241.334 355.9C229.017 342.317 229.128 327.468 229.516 308.118Z" fill="#AD6359"/>
<path d="M287.341 317.285C285.825 321.603 283.598 325.638 280.753 329.223C279.385 330.951 277.981 332.587 276.429 334.176C274.836 335.953 273.079 337.574 271.18 339.018C271.141 339.051 271.116 339.097 271.109 339.147C271.102 339.197 271.114 339.249 271.143 339.29C271.172 339.332 271.216 339.361 271.265 339.373C271.315 339.384 271.367 339.376 271.411 339.351C272.427 338.686 273.518 338.159 274.507 337.438C275.47 336.716 276.395 335.945 277.279 335.128C278.988 333.572 280.508 331.82 281.806 329.907C284.408 326.072 286.339 321.822 287.517 317.34C287.554 317.239 287.378 317.174 287.341 317.285Z" fill="#263238"/>
<path d="M306.737 343.629C304.997 346.547 302.783 349.155 300.186 351.345C298.975 352.361 297.719 353.295 296.434 354.172C295.082 355.163 293.63 356.009 292.1 356.695C291.934 356.76 292.017 357.065 292.193 357C292.978 356.723 293.782 356.575 294.568 356.242C295.338 355.908 296.088 355.528 296.813 355.106C298.242 354.276 299.564 353.273 300.749 352.121C303.227 349.672 305.287 346.835 306.848 343.722C306.885 343.694 306.783 343.555 306.737 343.629Z" fill="#263238"/>
<path d="M219.415 241.939C230.679 270.926 219.046 320.075 215.913 321.997C215.913 321.997 163.308 325.111 139.514 271.924C138.239 269.068 176.207 246.43 185.605 241.634C194.402 237.152 209.547 240.072 217.115 240.978C218.399 241.126 219.221 241.421 219.415 241.939Z" fill="#AD6359"/>
<g opacity="0.1">
<path opacity="0.1" d="M185.781 279.741C185.553 279.612 185.303 279.528 185.043 279.497C184.784 279.465 184.521 279.484 184.269 279.555C184.017 279.625 183.782 279.745 183.576 279.907C183.371 280.069 183.2 280.27 183.073 280.499C182.755 281 182.64 281.604 182.754 282.187C182.867 282.769 183.2 283.286 183.683 283.631C184.037 283.847 184.463 283.913 184.866 283.816C185.27 283.719 185.618 283.467 185.836 283.114C186.032 283.003 186.21 282.863 186.363 282.698C186.531 282.47 186.65 282.209 186.712 281.932C186.774 281.656 186.778 281.369 186.723 281.091C186.668 280.813 186.556 280.549 186.394 280.317C186.232 280.084 186.023 279.888 185.781 279.741Z" fill="black"/>
<path opacity="0.1" d="M163.409 294.359C163.182 294.23 162.932 294.147 162.672 294.115C162.413 294.083 162.149 294.103 161.898 294.173C161.646 294.243 161.41 294.363 161.205 294.525C161 294.687 160.829 294.888 160.702 295.117C160.382 295.618 160.268 296.224 160.383 296.807C160.499 297.391 160.834 297.907 161.321 298.249C161.497 298.359 161.692 298.432 161.896 298.465C162.101 298.499 162.309 298.491 162.51 298.443C162.712 298.395 162.901 298.307 163.068 298.185C163.235 298.063 163.376 297.909 163.483 297.732C163.676 297.621 163.851 297.481 164.001 297.316C164.17 297.088 164.29 296.827 164.352 296.549C164.414 296.272 164.417 295.985 164.361 295.706C164.306 295.428 164.192 295.164 164.028 294.932C163.864 294.7 163.653 294.505 163.409 294.359Z" fill="black"/>
<path opacity="0.1" d="M194.032 312.415C193.902 312.415 193.745 312.544 193.828 312.692C194.001 312.944 194.193 313.181 194.401 313.404C194.512 313.542 194.808 313.958 194.66 314.161C194.512 314.365 194.05 314.161 193.884 314.069C193.121 313.459 192.6 312.598 192.415 311.639C192.402 311.602 192.377 311.571 192.344 311.551C192.311 311.531 192.272 311.523 192.234 311.528C192.196 311.534 192.16 311.552 192.134 311.581C192.108 311.61 192.093 311.646 192.091 311.685C192.202 312.942 192.96 315.797 194.771 315.381C195.092 315.286 195.366 315.074 195.537 314.786C195.708 314.498 195.765 314.156 195.695 313.829C195.604 313.447 195.394 313.104 195.094 312.85C194.795 312.596 194.423 312.444 194.032 312.415Z" fill="black"/>
</g>
<path d="M204.936 356.677C206.599 351.594 220.044 323.411 216.302 304.718C212.319 284.86 205.675 269.124 198.874 264.171C180.255 250.597 164.685 268.791 167.559 282.254C171.135 299.155 178.222 305.891 180.348 315.446C180.588 316.555 177.64 340.885 179.858 351.114C181.235 357.647 202.82 362.997 204.936 356.677Z" fill="#AD6359"/>
<path d="M179.682 347.122C177.159 347.87 173.491 351.446 171.365 351.835C169.24 352.223 163.132 354.126 164.62 356.122C166.108 358.118 174.516 357.194 176.429 356.972C178.342 356.75 171.495 367.571 176.087 369.049C180.68 370.528 184.034 362.729 184.967 363.025C185.901 363.32 183.923 371.803 188.017 372.829C192.11 373.854 192.757 364.512 193.08 364.512C193.404 364.512 189.144 370.796 192.544 372.09C195.945 373.383 199.253 364.244 199.937 364.355C200.621 364.466 201.785 370.168 205.481 370.177C209.177 370.186 205.629 361.398 205.481 360.613C205.333 359.828 206.202 353.969 204.649 352.87C203.097 351.77 181.484 346.586 179.682 347.122Z" fill="#AD6359"/>
<path d="M179.562 326.276C178.997 322.632 179.167 318.912 180.061 315.335C180.264 314.411 180.551 313.561 180.819 312.683C181.123 311.813 181.471 310.958 181.863 310.124C182.63 308.452 183.602 306.881 184.755 305.448C183.918 307.055 183.175 308.709 182.528 310.401C181.886 312.078 181.361 313.798 180.957 315.548C180.532 317.299 180.208 319.073 179.987 320.861C179.752 322.657 179.61 324.465 179.562 326.276Z" fill="#263238"/>
<path d="M180.301 315.446C179.035 313.256 177.926 311.001 176.882 308.728C175.838 306.455 174.849 304.108 173.897 301.835C172.946 299.562 172.049 297.215 171.218 294.821C170.386 292.428 169.573 290.1 168.861 287.669C170.245 289.78 171.48 291.985 172.557 294.267C173.666 296.522 174.664 298.823 175.616 301.142C176.568 303.461 177.464 305.808 178.222 308.192C179.041 310.572 179.735 312.994 180.301 315.446Z" fill="#263238"/>
<path d="M168.067 291.402C169.095 292.063 170.028 292.862 170.839 293.777C171.679 294.671 172.388 295.679 172.946 296.771C170.88 295.431 169.194 293.582 168.048 291.402H168.067Z" fill="#263238"/>
<path d="M207.56 276.535C210.003 282.357 212.128 288.307 213.927 294.359C214.845 297.398 215.604 300.482 216.2 303.6C216.338 304.394 216.44 305.189 216.56 305.984C216.68 306.778 216.717 307.619 216.717 308.423C216.717 309.227 216.717 310.04 216.717 310.835C216.717 311.63 216.662 312.424 216.606 313.219C216.138 319.54 215.212 325.818 213.834 332.005C213.132 335.091 212.319 338.15 211.349 341.171L210.572 343.407L209.704 345.625C209.39 346.355 209.057 347.067 208.734 347.787C208.41 348.508 207.967 349.173 207.597 349.866C208.822 346.976 209.787 343.983 210.48 340.922C211.238 337.872 211.848 334.805 212.421 331.681C213.524 325.52 214.308 319.305 214.768 313.062C214.832 312.286 214.878 311.51 214.897 310.733C214.915 309.957 214.943 309.19 214.897 308.423C214.851 307.656 214.814 306.908 214.777 306.15L214.463 303.858C213.991 300.791 213.261 297.741 212.522 294.692C210.997 288.649 209.306 282.587 207.56 276.535Z" fill="#263238"/>
<path d="M210 278.614C210.532 279.887 210.875 281.232 211.016 282.606C211.218 283.974 211.193 285.366 210.942 286.727C210.538 285.419 210.256 284.077 210.101 282.717C209.919 281.357 209.885 279.981 210 278.614Z" fill="#263238"/>
<path d="M200.907 350.347C198.565 348.963 196.047 347.901 193.422 347.187C190.712 346.564 187.929 346.325 185.152 346.475C184.94 346.475 184.893 346.826 185.106 346.817C187.836 346.832 190.553 347.177 193.201 347.843C195.838 348.425 198.387 349.357 200.778 350.615C200.907 350.652 201.036 350.421 200.907 350.347Z" fill="#263238"/>
<path d="M185.161 194.739C186.431 195.879 187.999 196.633 189.682 196.913C191.366 197.193 193.094 196.987 194.664 196.32C196.234 195.652 197.582 194.551 198.548 193.145C199.515 191.739 200.061 190.087 200.121 188.381C203.069 190.562 206.959 191.274 210.175 188.89C213.391 186.506 214.01 182.116 212.143 178.596C212.143 178.596 212.088 178.596 212.097 178.596C213.446 181.978 212.91 186.081 209.805 188.317C207.153 190.229 204.261 189.906 201.739 188.548C203.078 188.781 204.452 188.738 205.774 188.42C207.096 188.102 208.339 187.517 209.427 186.7C210.602 185.749 211.471 184.474 211.926 183.033C212.381 181.592 212.402 180.049 211.986 178.596C215.313 177.626 218.538 175.445 219.757 172.072C220.278 170.673 220.381 169.152 220.053 167.695C219.725 166.238 218.98 164.908 217.909 163.867C219.403 163.123 220.648 161.96 221.491 160.52C222.334 159.08 222.739 157.425 222.657 155.759C222.575 154.092 222.008 152.485 221.027 151.135C220.046 149.786 218.693 148.751 217.133 148.158C218.157 147.518 219.003 146.63 219.594 145.577C220.185 144.524 220.501 143.339 220.514 142.132C220.527 140.924 220.236 139.733 219.668 138.667C219.099 137.602 218.272 136.697 217.262 136.035C217.942 135.4 218.426 134.585 218.657 133.684C218.888 132.783 218.856 131.836 218.565 130.952C217.937 128.864 216.154 127.441 214.278 126.443C214.537 125.507 214.558 124.522 214.339 123.576C214.119 122.63 213.666 121.754 213.021 121.028C212.16 120.125 211.006 119.558 209.765 119.428C208.524 119.297 207.278 119.612 206.248 120.317C204.723 117.212 202.626 114.043 199.308 112.703C196.582 111.603 193.182 111.899 191.103 114.079C190.287 112.852 189.221 111.812 187.973 111.027C186.726 110.243 185.326 109.732 183.867 109.528C182.408 109.325 180.922 109.433 179.507 109.847C178.093 110.26 176.782 110.969 175.662 111.926C174.667 111.117 173.477 110.583 172.21 110.377C170.944 110.171 169.646 110.301 168.445 110.753C166.77 111.304 165.254 112.256 164.029 113.525C163.083 112.876 161.959 112.537 160.812 112.553C159.665 112.57 158.552 112.942 157.625 113.617C156.782 114.28 156.097 115.12 155.618 116.079C155.138 117.038 154.877 118.09 154.853 119.162C154.477 119.66 153.994 120.068 153.439 120.354C152.051 121.074 150.861 122.126 149.974 123.415C149.088 124.704 148.533 126.191 148.357 127.746C147.45 127.919 146.59 128.285 145.836 128.818C145.082 129.351 144.451 130.04 143.985 130.837C143.52 131.635 143.23 132.523 143.136 133.442C143.042 134.361 143.146 135.289 143.441 136.164C141.756 137.084 140.5 138.629 139.945 140.467C139.39 142.305 139.58 144.288 140.475 145.987C139.192 146.817 138.103 147.915 137.283 149.205C136.464 150.496 135.932 151.948 135.725 153.462C135.42 155.818 136.095 158.572 138.239 159.755C136.769 160.919 136.963 163.238 138.008 164.717C138.419 165.272 138.89 165.78 139.412 166.232C140.013 166.777 140.937 167.304 141.316 168.08C141.694 168.856 141.482 169.808 141.519 170.621C141.551 171.212 141.644 171.797 141.796 172.368C142.403 174.482 143.713 176.325 145.508 177.595C147.304 178.865 149.479 179.485 151.674 179.354C151.85 182.505 154.548 184.658 157.357 185.711C158.276 186.035 159.222 186.273 160.185 186.422C161.056 186.51 161.879 186.865 162.541 187.439C162.947 187.836 163.271 188.363 163.687 188.723C165.202 190.119 167.05 190.303 168.898 190.22C169.656 198.62 179.839 200.348 185.161 194.739ZM157.302 114.874C158.146 114.025 159.234 113.459 160.415 113.256C161.595 113.052 162.809 113.22 163.89 113.738L163.705 113.969C163.705 113.969 162.92 113.848 162.532 113.839C161.818 113.816 161.104 113.9 160.416 114.089C159.373 114.355 158.403 114.849 157.574 115.534C156.745 116.22 156.078 117.08 155.62 118.053L155.5 118.265C155.77 116.988 156.394 115.813 157.302 114.874ZM212.541 122.904C211.879 121.97 210.945 121.263 209.867 120.881C208.788 120.499 207.618 120.46 206.516 120.77L206.433 120.603C208.604 119.614 210.859 119.31 212.716 121.352C213.284 121.986 213.674 122.76 213.846 123.594C214.018 124.429 213.966 125.294 213.696 126.101C213.618 124.948 213.218 123.84 212.541 122.904ZM169.249 190.211H169.332C170.248 192.661 172.082 194.658 174.446 195.777C176.809 196.897 179.516 197.051 181.992 196.208C176.651 198.444 170.746 197.298 169.249 190.211Z" fill="#263238"/>
<path d="M196.084 234.879C189.098 255.116 171.375 264.448 161.016 267.683C144.975 272.719 100.03 278.512 87.1671 250.237C84.1825 243.685 82.667 233.9 82.3252 223.338C81.6598 203.111 85.3006 180.028 91.1682 171.268C103.624 152.686 137.832 141.108 167.54 153.194C191.454 162.934 203.088 214.624 196.084 234.879Z" fill="#AD6359"/>
<path d="M144.55 203.471C143.271 203.167 142.009 202.794 140.77 202.353C139.329 201.909 138.128 201.706 137.13 200.505C136.887 200.128 136.776 199.683 136.813 199.237C136.849 198.791 137.032 198.369 137.333 198.038C138.701 196.688 140.604 196.79 142.369 197.252C144.16 197.661 145.734 198.721 146.786 200.227C147.913 201.752 146.287 203.813 144.55 203.471Z" fill="#263238"/>
<path d="M103.199 203.36C104.479 203.078 105.744 202.729 106.988 202.316C108.429 201.9 109.612 201.706 110.619 200.468C110.865 200.098 110.982 199.658 110.952 199.215C110.922 198.772 110.747 198.352 110.453 198.019C109.113 196.661 107.219 196.744 105.463 197.178C103.685 197.566 102.112 198.596 101.046 200.071C99.882 201.614 101.444 203.684 103.199 203.36Z" fill="#263238"/>
<path d="M131.235 235.008C131.433 235.545 131.594 236.094 131.715 236.653C132.233 238.871 132.565 242.77 129.211 244.193C127.93 244.702 126.517 244.773 125.192 244.397C121.551 243.528 118.141 239.712 118.141 239.712C125.949 240.987 131.235 235.008 131.235 235.008Z" fill="#263238"/>
<path d="M131.715 236.653C132.233 238.871 132.565 242.77 129.211 244.193C127.93 244.702 126.517 244.774 125.191 244.397C125.469 242.441 126.359 240.623 127.733 239.204C128.83 238.039 130.198 237.163 131.715 236.653Z" fill="#FF99BA"/>
<path d="M113.077 208.137C112.356 216.454 112.892 213.497 111.811 221.795C109.963 222.016 101.647 222.478 102.284 223.19C104.585 225.75 111.377 230.074 111.349 230.139C110.481 232.421 106.794 234.971 106.988 235.147C117.706 245.164 127.76 238.954 131.114 235.424C131.789 234.713 131.502 234.74 131.114 235.055C127.695 237.623 117.494 241.735 109.926 234.879C111.342 233.525 112.402 231.843 113.012 229.982C113.086 229.751 107.745 226.073 105.62 224.04C108.143 223.8 111.247 223.726 113.123 223.569C113.558 223.569 114.602 216.98 113.844 208.11C113.84 208.008 113.796 207.912 113.722 207.843C113.647 207.773 113.548 207.736 113.447 207.74C113.345 207.744 113.249 207.788 113.18 207.862C113.11 207.937 113.073 208.036 113.077 208.137Z" fill="#263238"/>
<path d="M139.689 210.013C146.481 209.819 146.361 223.43 140.068 223.606C133.776 223.781 133.988 210.17 139.689 210.013Z" fill="#263238"/>
<path d="M141.852 210.53C142.942 211.076 144.07 212.138 145.308 212.129C146.74 212.129 147.692 210.789 148.496 209.514C148.579 209.385 148.69 209.514 148.708 209.625C148.976 211.861 148.357 214.245 145.992 214.827C143.839 215.363 142.065 213.552 141.27 211.362C141.122 210.956 141.418 210.299 141.852 210.53Z" fill="#263238"/>
<path d="M107.801 210.253C101.878 209.801 101.333 222.903 106.794 223.329C112.255 223.754 112.754 210.632 107.801 210.253Z" fill="#263238"/>
<path d="M106.147 210.53C105.056 211.076 103.938 212.138 102.691 212.129C101.259 212.129 100.307 210.789 99.503 209.514C99.4198 209.385 99.3089 209.514 99.2905 209.625C99.0225 211.861 99.6416 214.245 102.007 214.827C104.16 215.363 105.934 213.552 106.729 211.362C106.877 210.956 106.581 210.299 106.147 210.53Z" fill="#263238"/>
<path d="M137.195 270.695C132.103 270.279 127.03 270.935 121.948 270.334C117.027 269.735 112.188 268.585 107.524 266.906C102.513 265.258 97.8236 262.757 93.6632 259.514C93.3952 259.292 93.4507 259.458 93.6632 259.708C97.0007 263.035 100.931 265.708 105.251 267.59C109.431 269.549 113.838 270.98 118.372 271.85C123.023 272.711 127.759 273.021 132.482 272.774C137.86 272.534 144.264 271.979 147.766 277.015C147.858 277.145 148.071 277.015 147.987 276.886C145.936 272.922 141.491 271.055 137.195 270.695Z" fill="#263238"/>
<path d="M164.075 271.859C164.641 269.996 165.613 268.283 166.921 266.841C168.251 265.424 169.728 264.154 171.329 263.053C174.461 260.817 177.649 258.821 180.643 256.52C183.733 254.452 186.443 251.867 188.655 248.878C190.746 245.722 192.664 242.456 194.402 239.093C193.325 242.792 191.804 246.347 189.874 249.682C188.852 251.366 187.626 252.918 186.224 254.302C184.811 255.628 183.314 256.863 181.743 257.998C178.642 260.234 175.432 262.312 172.124 264.226C170.494 265.17 168.948 266.252 167.503 267.461C166.103 268.706 164.941 270.196 164.075 271.859Z" fill="#263238"/>
<path d="M84.4226 196.263C86.9478 196.2 89.3563 195.187 91.1681 193.427C94.9289 189.814 95.2339 186.404 95.2339 186.404C99.3458 183.549 102.469 178.272 101.564 173.384C103.949 173.862 106.417 173.714 108.728 172.955C111.038 172.195 113.113 170.85 114.75 169.051C118.113 182.911 136.196 188.64 148.292 181.063C148.8 186.709 150.51 192.438 154.668 196.439C158.664 200.32 163.695 202.967 169.157 204.062C169.153 204.09 169.153 204.118 169.157 204.146C166.32 214.68 177.03 223.633 186.991 221.601C187.929 221.502 188.857 221.32 189.763 221.055C194.586 219.595 199.299 217.211 201.249 212.342C202.446 209.242 202.49 205.815 201.372 202.686C200.254 199.557 198.049 196.933 195.159 195.293C197.159 193.32 198.431 190.727 198.766 187.937C199.102 185.148 198.482 182.327 197.007 179.936C195.067 176.84 190.41 175.371 189.948 171.684C189.528 167.563 187.776 163.691 184.958 160.655C182.14 157.619 178.41 155.583 174.332 154.857C172.102 154.604 169.995 153.705 168.27 152.27C167.157 151.272 165.981 150.346 164.749 149.498C159.899 146.341 154.146 144.864 148.375 145.293C144.993 145.552 141.63 147.243 138.276 146.301C135.365 145.488 126.198 146.153 123.214 146.818C110.203 149.71 104.853 155.67 104.853 155.67C104.853 155.67 98.0337 157.103 92.3047 165.253C86.8251 173.033 86.7604 177.265 86.7604 177.265C86.021 179.382 85.1476 181.45 84.1454 183.456C80.7727 188.659 84.0622 196.273 84.4226 196.263ZM169.305 204.672C170.968 212.48 173.481 216.066 176.605 218.533C171.735 215.733 168.372 210.743 169.305 204.672ZM115.951 169.346C117.666 172.762 120.155 175.731 123.218 178.017C126.282 180.303 129.837 181.842 133.6 182.514C125.755 181.793 118.935 177.773 115.951 169.346Z" fill="#263238"/>
<path d="M170.516 221.231C170.516 221.231 178.278 203.97 187.98 202.806C198.237 201.568 201.841 220.085 195.372 228.402C187.832 238.15 174.877 235.794 174.877 235.794L170.516 221.231Z" fill="#AD6359"/>
<path d="M185.734 214.005C187.099 212.547 188.635 211.26 190.308 210.17C190.502 210.05 190.308 209.717 190.105 209.819C182.99 213.404 176.854 221.721 178.601 230.037C178.612 230.098 178.645 230.154 178.693 230.194C178.741 230.234 178.802 230.255 178.864 230.255C178.926 230.255 178.987 230.234 179.035 230.194C179.083 230.154 179.116 230.098 179.127 230.037C179.257 229.27 179.377 228.522 179.506 227.773C180.634 225.629 181.65 223.689 183.655 222.118C185.575 220.604 187.873 219.645 190.299 219.346C190.585 219.346 190.512 218.912 190.234 218.912C188.343 218.955 186.483 219.401 184.779 220.22C183.074 221.039 181.563 222.212 180.347 223.661C180.828 221.719 181.578 219.853 182.574 218.117C183.476 216.605 184.535 215.192 185.734 213.903" fill="#263238"/>
<path d="M176.974 235.304C176.964 235.309 176.956 235.316 176.95 235.325C176.944 235.334 176.941 235.344 176.941 235.355C176.941 235.366 176.944 235.376 176.95 235.385C176.956 235.394 176.964 235.402 176.974 235.406C176.984 235.402 176.993 235.394 176.998 235.385C177.004 235.376 177.007 235.366 177.007 235.355C177.007 235.344 177.004 235.334 176.998 235.325C176.993 235.316 176.984 235.309 176.974 235.304Z" fill="#263238"/>
<path d="M191.898 244.628C192.526 247.224 197.571 236.413 197.571 235.008C197.571 233.604 201.591 228.365 202.192 225.454C202.792 222.543 203.254 214.365 202.949 212.517C202.644 210.669 204.64 205.273 203.716 202.14C202.792 199.008 193.469 171.342 169.25 157.971C145.031 144.6 127.973 148.213 127.973 148.213C119.197 149.348 110.571 151.437 102.248 154.442C88.7936 159.357 78.3427 197.243 78.4998 197.964C78.6569 198.684 80.2093 200.597 80.1261 202.713C80.0429 204.829 78.5183 207.444 80.1261 208.988C81.7339 210.531 80.3479 216.093 80.9577 218.071C81.5676 220.048 82.2421 220.399 82.2791 221.85C82.3161 223.301 78.6661 186.607 117.152 162.324C117.152 162.324 178.296 188.88 191.898 244.628Z" fill="#FFC727"/>
<path d="M82.2422 221.48C82.2571 221.612 82.2571 221.746 82.2422 221.878C82.2791 221.998 82.2607 221.859 82.2422 221.48Z" fill="#FFC727"/>
<path d="M82.2422 221.48C82.2565 221.613 82.2565 221.746 82.2422 221.878C82.2791 221.998 82.2607 221.859 82.2422 221.48Z" fill="#FFC727"/>
<path opacity="0.3" d="M91.085 179.815C91.1114 180.694 90.8237 181.554 90.2735 182.24C89.7233 182.925 88.9466 183.393 88.0829 183.557C87.2193 183.722 86.3252 183.574 85.5612 183.138C84.7972 182.703 84.2133 182.01 83.9144 181.183C84.515 179.621 85.1711 178.032 85.8641 176.424C86.4304 176.168 87.0522 176.058 87.672 176.106C88.2919 176.153 88.8897 176.357 89.4101 176.697C89.9306 177.036 90.357 177.502 90.6497 178.051C90.9425 178.599 91.0921 179.212 91.085 179.834V179.815ZM104.354 168.173C103.374 168.173 102.434 168.562 101.741 169.255C101.047 169.948 100.658 170.888 100.658 171.869C100.653 172.39 100.758 172.907 100.967 173.384C101.175 173.862 101.483 174.29 101.868 174.641C103.532 172.931 105.334 171.24 107.283 169.586C106.935 169.143 106.49 168.785 105.983 168.54C105.475 168.295 104.918 168.169 104.354 168.173ZM86.0027 193.63C85.0225 193.569 84.058 193.899 83.3215 194.549C82.585 195.199 82.1368 196.115 82.0756 197.095C82.0143 198.075 82.345 199.04 82.9948 199.776C83.6446 200.513 84.5604 200.961 85.5407 201.022C86.3073 198.75 87.1925 196.52 88.1927 194.341C87.5592 193.873 86.7906 193.623 86.0027 193.63ZM152.155 150.708C151.839 151.272 151.676 151.91 151.683 152.556C151.6 153.537 151.91 154.51 152.544 155.262C153.178 156.014 154.085 156.483 155.065 156.567C156.046 156.65 157.019 156.34 157.771 155.706C158.523 155.072 158.992 154.165 159.076 153.185C156.655 152.168 154.345 151.374 152.155 150.708ZM163.354 179.815C162.623 179.815 161.908 180.032 161.301 180.438C160.693 180.845 160.219 181.422 159.939 182.097C159.659 182.773 159.586 183.516 159.729 184.233C159.871 184.95 160.224 185.608 160.74 186.125C161.257 186.642 161.916 186.994 162.633 187.137C163.35 187.279 164.093 187.206 164.768 186.926C165.444 186.647 166.021 186.173 166.427 185.565C166.833 184.957 167.05 184.243 167.05 183.512C167.05 182.531 166.661 181.591 165.968 180.898C165.274 180.205 164.334 179.815 163.354 179.815ZM111.294 151.605C109.141 152.196 106.858 152.88 104.53 153.674C104.53 154.655 104.919 155.595 105.612 156.288C106.305 156.981 107.246 157.371 108.226 157.371C109.206 157.371 110.146 156.981 110.839 156.288C111.533 155.595 111.922 154.655 111.922 153.674C111.921 152.936 111.699 152.215 111.284 151.605H111.294ZM129.895 152.529C129.164 152.529 128.449 152.745 127.841 153.152C127.233 153.558 126.76 154.135 126.48 154.81C126.2 155.486 126.127 156.229 126.269 156.946C126.412 157.663 126.764 158.321 127.281 158.838C127.798 159.355 128.457 159.707 129.174 159.85C129.89 159.993 130.634 159.919 131.309 159.64C131.984 159.36 132.562 158.886 132.968 158.278C133.374 157.67 133.591 156.956 133.591 156.225C133.592 155.738 133.497 155.255 133.311 154.805C133.125 154.355 132.852 153.946 132.508 153.602C132.164 153.258 131.755 152.985 131.305 152.799C130.855 152.613 130.372 152.518 129.885 152.519L129.895 152.529ZM145.058 166.814C144.327 166.814 143.612 167.031 143.005 167.437C142.397 167.843 141.923 168.421 141.643 169.096C141.364 169.771 141.29 170.515 141.433 171.231C141.576 171.948 141.928 172.607 142.444 173.124C142.961 173.641 143.62 173.993 144.337 174.136C145.054 174.278 145.797 174.205 146.473 173.925C147.148 173.645 147.725 173.172 148.131 172.564C148.537 171.956 148.754 171.241 148.754 170.51C148.755 170.023 148.66 169.541 148.475 169.091C148.289 168.641 148.016 168.232 147.672 167.888C147.327 167.543 146.918 167.27 146.468 167.085C146.018 166.899 145.536 166.804 145.049 166.805L145.058 166.814ZM172.973 163.118C172.242 163.118 171.528 163.335 170.92 163.741C170.312 164.147 169.838 164.724 169.558 165.4C169.279 166.075 169.206 166.818 169.348 167.535C169.491 168.252 169.843 168.911 170.36 169.428C170.877 169.945 171.535 170.297 172.252 170.439C172.969 170.582 173.712 170.509 174.388 170.229C175.063 169.949 175.64 169.476 176.047 168.868C176.453 168.26 176.669 167.545 176.669 166.814C176.673 166.326 176.58 165.841 176.395 165.389C176.211 164.937 175.938 164.526 175.593 164.179C175.249 163.833 174.839 163.559 174.388 163.372C173.936 163.185 173.453 163.089 172.964 163.09L172.973 163.118ZM181.04 190.229C180.309 190.229 179.594 190.446 178.987 190.852C178.379 191.258 177.905 191.836 177.625 192.511C177.346 193.186 177.272 193.93 177.415 194.647C177.558 195.364 177.91 196.022 178.427 196.539C178.943 197.056 179.602 197.408 180.319 197.551C181.036 197.693 181.779 197.62 182.455 197.34C183.13 197.061 183.707 196.587 184.113 195.979C184.52 195.371 184.736 194.657 184.736 193.926C184.74 193.437 184.647 192.953 184.462 192.5C184.277 192.048 184.005 191.637 183.66 191.291C183.316 190.944 182.906 190.67 182.455 190.483C182.003 190.296 181.519 190.2 181.031 190.202L181.04 190.229ZM189.791 231.312C189.086 231.309 188.396 231.512 187.804 231.894C188.728 234.112 189.514 236.394 190.234 238.723C191.215 238.664 192.131 238.218 192.783 237.484C193.434 236.749 193.768 235.785 193.709 234.805C193.65 233.825 193.204 232.908 192.469 232.256C191.735 231.605 190.771 231.272 189.791 231.331V231.312ZM172.964 205.088C172.675 205.089 172.386 205.123 172.105 205.19C173.509 206.958 174.868 208.778 176.18 210.651C176.51 210.091 176.682 209.452 176.679 208.803C176.681 208.314 176.587 207.83 176.401 207.378C176.215 206.926 175.942 206.516 175.596 206.17C175.251 205.825 174.84 205.551 174.388 205.366C173.937 205.18 173.453 205.085 172.964 205.088ZM190.068 176.443C189.574 176.666 189.134 176.996 188.782 177.409C188.429 177.822 188.172 178.307 188.028 178.83C187.884 179.354 187.857 179.902 187.949 180.437C188.041 180.972 188.25 181.48 188.56 181.925C188.871 182.37 189.276 182.741 189.746 183.012C190.216 183.283 190.74 183.448 191.281 183.493C191.822 183.539 192.366 183.465 192.875 183.276C193.384 183.088 193.845 182.79 194.226 182.403C192.979 180.388 191.593 178.383 190.068 176.378V176.443ZM191.5 209.514C190.769 209.514 190.055 209.731 189.447 210.137C188.839 210.543 188.365 211.12 188.085 211.796C187.806 212.471 187.732 213.214 187.875 213.931C188.018 214.648 188.37 215.307 188.887 215.824C189.404 216.341 190.062 216.693 190.779 216.835C191.496 216.978 192.239 216.905 192.915 216.625C193.59 216.345 194.167 215.872 194.573 215.264C194.98 214.656 195.196 213.941 195.196 213.21C195.205 212.719 195.116 212.232 194.934 211.776C194.752 211.32 194.481 210.905 194.137 210.555C193.793 210.205 193.382 209.927 192.93 209.737C192.477 209.547 191.991 209.449 191.5 209.449V209.514ZM201.387 219.475C201.387 219.999 201.498 220.518 201.713 220.995C201.928 221.473 202.242 221.9 202.635 222.247C202.81 220.399 202.949 218.246 203.014 216.417C202.522 216.749 202.118 217.194 201.835 217.715C201.552 218.236 201.398 218.818 201.387 219.411V219.475ZM200.556 194.083C200.073 194.137 199.607 194.286 199.182 194.521C198.757 194.756 198.383 195.073 198.08 195.452C197.778 195.832 197.553 196.268 197.419 196.734C197.285 197.201 197.244 197.689 197.299 198.171C197.353 198.654 197.502 199.121 197.737 199.545C197.972 199.97 198.289 200.344 198.668 200.647C199.048 200.949 199.484 201.174 199.95 201.308C200.417 201.442 200.905 201.483 201.387 201.429C202.04 201.425 202.679 201.242 203.236 200.902C202.783 199.368 201.896 196.975 200.556 193.999V194.083Z" fill="white"/>
<path opacity="0.1" d="M197.544 235.009C197.117 232.407 196.436 229.854 195.511 227.385C194.679 224.881 193.764 222.414 192.831 219.947C190.983 215.022 189.042 210.106 186.917 205.291C186.39 204.09 185.873 202.861 185.272 201.725C184.596 200.635 183.799 199.625 182.898 198.712C181.123 196.79 179.201 195.016 177.289 193.168C175.376 191.32 173.426 189.574 171.467 187.809L165.59 182.505C169.761 185.751 173.82 189.139 177.769 192.669C179.756 194.415 181.678 196.236 183.517 198.158C184.481 199.113 185.33 200.176 186.049 201.327C186.695 202.519 187.222 203.73 187.758 204.94C189.828 209.807 191.741 214.735 193.496 219.725C194.356 222.229 195.197 224.733 195.936 227.265C196.305 228.54 196.657 229.815 196.952 231.109C197.282 232.385 197.48 233.692 197.544 235.009Z" fill="#050400"/>
<path opacity="0.1" d="M180.051 183.53C185.347 186.991 190.152 191.15 194.337 195.894C196.455 198.267 198.314 200.86 199.881 203.628C201.455 206.385 202.511 209.407 202.995 212.545C202.755 211.787 202.524 211.039 202.311 210.29C202.208 209.911 202.069 209.543 201.896 209.191L201.434 208.119C201.276 207.759 201.147 207.398 200.981 207.047L200.426 206.012C200.038 205.338 199.724 204.626 199.271 203.979L198.005 202.02L196.619 200.126C196.176 199.488 195.695 198.897 195.178 198.278C194.66 197.659 194.208 197.058 193.672 196.485C191.634 194.126 189.475 191.874 187.203 189.74C186.076 188.649 184.912 187.605 183.72 186.57C182.528 185.535 181.271 184.528 180.051 183.53Z" fill="#050400"/>
<path opacity="0.1" d="M80.126 201.022C80.7848 198.091 81.7128 195.226 82.8981 192.466C83.9885 189.694 85.1897 186.921 86.4279 184.214C87.6427 181.464 88.9967 178.778 90.4844 176.166C92.0902 173.613 94.0679 171.315 96.3521 169.346C95.3439 170.446 94.3998 171.603 93.5245 172.811C92.6314 173.987 91.8194 175.222 91.0943 176.507C90.392 177.801 89.7729 179.15 89.1446 180.509L87.2965 184.574L83.6004 192.724C82.972 194.083 82.3806 195.496 81.7523 196.827C81.1224 198.19 80.5793 199.591 80.126 201.022Z" fill="#050400"/>
<path opacity="0.1" d="M80.7358 210.235C81.0032 208.092 81.4106 205.968 81.9556 203.878C82.4621 201.777 83.079 199.704 83.8037 197.668C84.1771 196.64 84.609 195.634 85.0973 194.656C85.624 193.732 86.123 192.761 86.6774 191.828L88.2852 189.056C88.8581 188.132 89.3941 187.208 89.9855 186.284C89.5789 187.282 89.1169 188.261 88.6918 189.25L87.3058 192.161C86.853 193.14 86.3817 194.092 85.8827 195.053C85.4279 196.011 85.0239 196.991 84.6723 197.992C83.9238 199.997 83.277 202.039 82.6024 204.081C82.2697 205.097 81.9463 206.123 81.6322 207.158C81.3365 208.165 81.0408 209.2 80.7358 210.235Z" fill="#050400"/>
<path opacity="0.1" d="M164.278 155.449C158.115 160.513 143.949 171.897 140.17 172.682C138.878 172.896 137.571 173.014 136.261 173.033C130.175 168.98 123.786 165.4 117.152 162.324C112.667 165.127 108.456 168.348 104.576 171.943C99.8473 170.498 95.2629 168.617 90.8818 166.325C94.2269 160.614 98.0801 155.985 102.22 154.469C110.543 151.464 119.169 149.376 127.945 148.241C127.945 148.241 142.72 145.127 164.278 155.449Z" fill="#050400"/>
<path d="M117.402 153.887C117.402 153.887 97.9047 139.888 77.853 145.718C77.853 145.718 86.5482 164.384 95.8903 167.821C100.51 169.531 116.071 164.569 116.783 161.353C117.241 158.892 117.449 156.39 117.402 153.887Z" fill="#FFC727"/>
<path opacity="0.3" d="M96.6938 145.183C96.3439 145.845 95.8009 146.385 95.137 146.732C94.473 147.079 93.7194 147.216 92.9759 147.125C92.2324 147.033 91.5342 146.718 90.9737 146.221C90.4133 145.725 90.017 145.069 89.8374 144.342C92.1417 144.438 94.4346 144.719 96.6938 145.183ZM87.4534 157.195C86.5898 157.193 85.7529 157.494 85.0879 158.045C86.5206 160.071 88.1218 161.972 89.8744 163.728C90.2754 163.385 90.5983 162.96 90.8215 162.482C91.0446 162.004 91.1628 161.484 91.1681 160.956C91.1779 160.467 91.0904 159.98 90.9108 159.525C90.7312 159.07 90.4629 158.655 90.1217 158.304C89.7804 157.954 89.3729 157.674 88.9228 157.482C88.4727 157.29 87.989 157.19 87.4996 157.186L87.4534 157.195ZM108.18 149.997C107.449 149.997 106.734 150.214 106.126 150.62C105.518 151.026 105.045 151.603 104.765 152.279C104.485 152.954 104.412 153.697 104.554 154.414C104.697 155.131 105.049 155.79 105.566 156.307C106.083 156.824 106.742 157.176 107.459 157.318C108.176 157.461 108.919 157.388 109.594 157.108C110.269 156.828 110.847 156.354 111.253 155.747C111.659 155.139 111.876 154.424 111.876 153.693C111.878 152.719 111.496 151.784 110.813 151.09C110.129 150.396 109.2 150 108.226 149.988L108.18 149.997Z" fill="white"/>
<path opacity="0.1" d="M117.411 153.896C117.44 156.375 117.23 158.85 116.783 161.289C116.763 161.441 116.703 161.584 116.607 161.704C116.531 161.876 116.424 162.032 116.293 162.166C116.191 162.25 116.108 162.36 115.97 162.471C114.537 163.848 111.349 165.29 107.866 166.371C107.121 163.39 106.657 160.346 106.48 157.278C106.415 154.885 108.134 152.067 110.019 149.673C112.599 150.867 115.072 152.28 117.411 153.896Z" fill="#050400"/>
<path d="M123.168 154.534C123.168 154.534 148.117 139.278 163.345 139.694C163.345 139.694 162.162 156.511 150.251 165.567C144.92 169.605 122.872 166.066 122.53 162.536C122.369 159.852 122.584 157.159 123.168 154.534Z" fill="#FFC727"/>
<path opacity="0.3" d="M159.122 152.519C159.122 153.25 158.905 153.965 158.499 154.573C158.093 155.181 157.516 155.654 156.84 155.934C156.165 156.214 155.422 156.287 154.705 156.145C153.988 156.002 153.329 155.65 152.812 155.133C152.296 154.616 151.944 153.957 151.801 153.24C151.658 152.524 151.731 151.78 152.011 151.105C152.291 150.43 152.765 149.852 153.373 149.446C153.98 149.04 154.695 148.823 155.426 148.823C156.406 148.823 157.346 149.213 158.04 149.906C158.733 150.599 159.122 151.539 159.122 152.519ZM129.886 152.519C129.155 152.519 128.44 152.736 127.832 153.142C127.224 153.548 126.751 154.126 126.471 154.801C126.191 155.476 126.118 156.22 126.26 156.937C126.403 157.654 126.755 158.312 127.272 158.829C127.789 159.346 128.448 159.698 129.165 159.841C129.882 159.983 130.625 159.91 131.3 159.63C131.975 159.351 132.553 158.877 132.959 158.269C133.365 157.661 133.582 156.947 133.582 156.216C133.582 155.235 133.192 154.295 132.499 153.602C131.806 152.909 130.866 152.519 129.886 152.519ZM145.049 166.805C144.418 166.802 143.796 166.964 143.247 167.276C144.223 167.232 145.195 167.13 146.158 166.971C145.799 166.86 145.425 166.804 145.049 166.805Z" fill="white"/>
<path opacity="0.1" d="M128.925 151.263C130.449 153.536 132.196 156.964 132.14 160.281C132.003 162.325 131.433 164.315 130.468 166.121C126.042 165.197 122.669 163.848 122.503 162.425C122.361 159.758 122.585 157.085 123.168 154.478C123.168 154.478 125.386 153.157 128.925 151.263Z" fill="#050400"/>
<path d="M128.481 159.403C128.325 161.273 127.618 163.055 126.449 164.523C125.281 165.992 123.703 167.08 121.916 167.652C120.128 168.224 118.212 168.253 116.408 167.736C114.604 167.218 112.994 166.178 111.782 164.746C110.569 163.314 109.808 161.554 109.595 159.69C109.383 157.826 109.727 155.94 110.586 154.271C111.445 152.603 112.779 151.226 114.419 150.316C116.06 149.405 117.934 149.002 119.804 149.156C122.313 149.365 124.637 150.562 126.264 152.484C127.891 154.405 128.688 156.894 128.481 159.403Z" fill="#FFC727"/>
</svg>
