<svg width="68" height="78" viewBox="0 0 68 78" fill="none" xmlns="http://www.w3.org/2000/svg">
<ellipse cx="32.552" cy="32.64" rx="32.552" ry="32.64" fill="#FA7387"/>
<g clip-path="url(#clip0)">
<path d="M67.9923 27.0919V26.9995C67.964 26.9308 67.9292 26.8649 67.8883 26.803L67.8305 26.722C67.779 26.6583 67.7208 26.6001 67.6571 26.5487C67.5713 26.4901 67.4779 26.4435 67.3797 26.41L53.9252 21.8789C53.6853 21.7979 53.4255 21.7979 53.1855 21.8789L39.8929 26.3406C39.7974 26.3824 39.7079 26.4367 39.627 26.5024C39.5633 26.5539 39.5051 26.6121 39.4536 26.6758L39.3958 26.7567C39.3549 26.8187 39.3201 26.8846 39.2918 26.9532V27.0457C39.2816 27.134 39.2816 27.2233 39.2918 27.3115V43.124L34.1135 44.8693C34.0152 44.9029 33.9219 44.9495 33.8361 45.0081C33.7723 45.0595 33.7141 45.1177 33.6627 45.1814L33.6049 45.2623C33.564 45.3243 33.5292 45.3902 33.5009 45.4588V45.5513C33.4906 45.6396 33.4906 45.7289 33.5009 45.8172V48.2445L24.3463 40.3383C24.1553 40.174 23.9159 40.0765 23.6643 40.0609L9.67818 39.1593C9.57849 39.1462 9.47735 39.1462 9.37765 39.1593H9.29674L9.07712 39.2518L8.98465 39.3096L8.41827 39.6563L8.34892 39.7372C8.29387 39.8086 8.24735 39.8862 8.21021 39.9684L2.08405 54.9139C1.90403 55.3601 2.01904 55.8712 2.37302 56.197L12.7759 65.837C12.8688 65.9188 12.9742 65.9851 13.088 66.0335H13.1689C13.2803 66.0742 13.3972 66.0977 13.5157 66.1029L27.6983 66.519C28.1692 66.5213 28.5944 66.2378 28.7733 65.8023L33.0963 55.2376V61.9995C33.0947 62.4832 33.3945 62.9167 33.8476 63.086L47.1865 68.1141C47.4288 68.2044 47.6955 68.2044 47.9378 68.1141L61.2304 63.1322C61.6835 62.9629 61.9833 62.5295 61.9817 62.0457V46.5569L67.2063 44.6035C67.6594 44.4342 67.9592 44.0007 67.9576 43.517V27.4271C67.9576 27.4271 67.9923 27.3809 67.9923 27.3578C68.0026 27.2695 68.0026 27.1803 67.9923 27.0919ZM22.8321 42.4767L30.6343 49.2617L20.1389 48.9496L12.4292 41.8063L22.8321 42.4767ZM13.0418 63.0051L4.53452 55.0411L9.68974 42.442L18.2895 50.406L16.5094 54.6134L13.0418 63.0051ZM27.0279 64.2419L15.3073 63.8951L20.4625 51.2845L32.1832 51.6312L27.0279 64.2419ZM53.5554 24.1791L63.3919 27.4849L53.5554 31.1259L43.7188 27.4387L53.5554 24.1791ZM41.4302 29.0916L52.3995 33.2065V46.8343L41.4302 42.6847V29.0916ZM46.4814 65.3631L35.5005 61.2482V47.6319L46.4814 51.7468V65.3631ZM47.591 49.7009L37.7545 46.0137L40.8638 44.9734L50.5385 48.6028L49.9259 48.834L47.591 49.7009ZM59.774 61.2482L48.7931 65.3631V51.7468L52.3417 50.4176L59.7856 47.6319L59.774 61.2482ZM65.6921 42.6847L54.7112 46.8343V33.2065L65.6921 29.0916V42.6847Z" fill="white"/>
</g>
<ellipse cx="32.552" cy="32.64" rx="32.552" ry="32.64" fill="url(#paint0_linear)" style="mix-blend-mode:multiply"/>
<defs>
<linearGradient id="paint0_linear" x1="50.1046" y1="47.36" x2="-8.40752" y2="4.63056" gradientUnits="userSpaceOnUse">
<stop stop-color="white"/>
<stop offset="1" stop-color="#FF0606" stop-opacity="0"/>
</linearGradient>
<clipPath id="clip0">
<rect width="66" height="66" fill="white" transform="translate(2 12)"/>
</clipPath>
</defs>
</svg>
