<svg width="83" height="85" viewBox="0 0 83 85" fill="none" xmlns="http://www.w3.org/2000/svg">
<ellipse cx="32.552" cy="32.64" rx="32.552" ry="32.64" fill="#FA7387"/>
<g clip-path="url(#clip0)">
<path d="M49.1068 28.1745C53.989 28.1745 57.9609 32.1465 57.9609 37.0286C57.9609 37.6398 58.4565 38.1354 59.0677 38.1354C59.6789 38.1354 60.1745 37.6398 60.1745 37.0286C60.1745 32.1465 64.1465 28.1745 69.0286 28.1745C69.6398 28.1745 70.1354 27.6789 70.1354 27.0677C70.1354 26.4565 69.6398 25.9609 69.0286 25.9609C64.1465 25.9609 60.1745 21.989 60.1745 17.1068C60.1745 16.4956 59.6789 16 59.0677 16C58.4565 16 57.9609 16.4956 57.9609 17.1068C57.9609 21.989 53.989 25.9609 49.1068 25.9609C48.4956 25.9609 48 26.4565 48 27.0677C48 27.6789 48.4956 28.1745 49.1068 28.1745ZM59.0677 21.9291C60.1541 24.1641 61.9712 25.9812 64.2063 27.0677C61.9713 28.1541 60.1542 29.9712 59.0677 32.2063C57.9813 29.9713 56.1642 28.1542 53.9291 27.0677C56.1642 25.9813 57.9813 24.1642 59.0677 21.9291Z" fill="white"/>
<path d="M21.2581 28.1784C24.3095 28.1784 26.792 30.6609 26.792 33.7122C26.792 34.3234 27.2875 34.819 27.8988 34.819C28.51 34.819 29.0055 34.3234 29.0055 33.7122C29.0055 30.6609 31.488 28.1784 34.5394 28.1784C35.1507 28.1784 35.6462 27.6828 35.6462 27.0716C35.6462 26.4605 35.1507 25.9648 34.5394 25.9648C31.488 25.9648 29.0055 23.4824 29.0055 20.431C29.0055 19.8198 28.51 19.3242 27.8988 19.3242C27.2875 19.3242 26.792 19.8198 26.792 20.431C26.792 23.4824 24.3095 25.9648 21.2581 25.9648C20.6469 25.9648 20.1514 26.4605 20.1514 27.0716C20.1514 27.6828 20.6469 28.1784 21.2581 28.1784ZM27.8988 24.418C28.5532 25.5038 29.4666 26.4173 30.5522 27.0716C29.4665 27.7259 28.5531 28.6395 27.8988 29.7252C27.2443 28.6395 26.3309 27.7259 25.2453 27.0716C26.3309 26.4173 27.2443 25.5038 27.8988 24.418Z" fill="white"/>
<path d="M51.0301 50.6459C51.6414 50.6459 52.1369 50.1504 52.1369 49.5391C52.1369 48.9279 51.6414 48.4324 51.0301 48.4324C50.4189 48.4324 49.9233 48.9279 49.9233 49.5391C49.9233 50.1504 50.4189 50.6459 51.0301 50.6459Z" fill="white"/>
<path d="M53.9829 47.015C54.2947 47.5406 54.9739 47.7139 55.4995 47.4019C58.3902 45.6866 61.7052 44.7799 65.0863 44.7799C65.6974 44.7799 66.193 44.2843 66.193 43.6732C66.193 43.062 65.6974 42.5664 65.0863 42.5664C54.7116 42.5664 46.2712 34.1259 46.2712 23.7513C46.2712 23.1401 45.7757 22.6445 45.1644 22.6445C44.5531 22.6445 44.0576 23.1401 44.0576 23.7513C44.0576 34.1259 35.6172 42.5664 25.2425 42.5664C24.6312 42.5664 24.1357 43.062 24.1357 43.6732C24.1357 44.2843 24.6312 44.7799 25.2425 44.7799C35.6172 44.7799 44.0576 53.2204 44.0576 63.5951C44.0576 64.2062 44.5531 64.7018 45.1644 64.7018C45.7757 64.7018 46.2712 64.2062 46.2712 63.5951C46.2712 60.214 47.1778 56.899 48.8931 54.0083C49.205 53.4826 49.0318 52.8036 48.5062 52.4917C47.9801 52.1795 47.3013 52.353 46.9896 52.8786C46.2409 54.1401 45.6302 55.4735 45.1636 56.8554C43.0659 50.6712 38.1644 45.7703 31.98 43.6732C38.1651 41.5758 43.0671 36.6738 45.1644 30.4888C47.2615 36.6732 52.1624 41.5747 58.3465 43.6724C56.9647 44.139 55.6313 44.7497 54.3697 45.4984C53.8442 45.8104 53.6709 46.4892 53.9829 47.015Z" fill="white"/>
</g>
<ellipse cx="32.552" cy="32.64" rx="32.552" ry="32.64" fill="url(#paint0_linear)" style="mix-blend-mode:multiply"/>
<defs>
<linearGradient id="paint0_linear" x1="50.1046" y1="47.36" x2="-8.40752" y2="4.63056" gradientUnits="userSpaceOnUse">
<stop stop-color="white"/>
<stop offset="1" stop-color="#FF0606" stop-opacity="0"/>
</linearGradient>
<clipPath id="clip0">
<rect width="68" height="71" fill="white" transform="translate(15 14)"/>
</clipPath>
</defs>
</svg>
