<svg width="81" height="68" viewBox="0 0 81 68" fill="none" xmlns="http://www.w3.org/2000/svg">
<ellipse cx="32.552" cy="32.64" rx="32.552" ry="32.64" fill="#FA7387"/>
<g clip-path="url(#clip0)">
<path d="M72.2144 40.8693C71.1924 40.2543 70.0007 40.0933 68.859 40.4155C67.7171 40.738 66.773 41.5021 66.2006 42.5672L65.3552 44.1399L64.5821 41.175L66.8831 37.0798C68.2458 34.6547 67.4342 31.5424 65.0739 30.1422C64.2024 29.6251 63.231 29.415 62.2845 29.4798L64.4342 25.6574C65.0943 24.4826 65.2696 23.1139 64.928 21.8036C64.5863 20.4933 63.7685 19.398 62.6251 18.7198C61.7466 18.1986 60.7757 17.9876 59.8324 18.0522L60.1768 17.4394C61.5396 15.0142 60.7279 11.902 58.3676 10.5017C56.0075 9.10135 52.9786 9.93564 51.6159 12.3607L51.2718 12.9731C50.8547 12.1015 50.1908 11.3434 49.3125 10.8223C48.1693 10.144 46.8372 9.96378 45.562 10.3148C44.2867 10.6659 43.2208 11.5063 42.5608 12.6811L41.0301 15.4056C40.7264 15.946 40.9066 16.637 41.4325 16.949C41.9586 17.2609 42.6311 17.0759 42.9346 16.5355L44.4653 13.811C44.8317 13.1589 45.4233 12.6924 46.1311 12.4975C46.839 12.3026 47.5783 12.4027 48.2129 12.7791C48.8475 13.1556 49.3014 13.7634 49.4912 14.4907C49.6798 15.2137 49.5847 15.9687 49.2237 16.6183L39.2908 34.2954C38.9872 34.8358 39.1673 35.5267 39.6933 35.8388C40.2191 36.1506 40.8916 35.9657 41.1953 35.4253L53.5201 13.4904C54.2766 12.1443 55.9576 11.6814 57.2678 12.4586C58.5779 13.2359 59.0284 14.9634 58.272 16.3095L48.292 34.0712C46.5053 34.6966 45.4687 36.6534 45.9642 38.5536L46.1355 39.2104C45.6655 39.1408 45.1746 39.1655 44.6876 39.2995C42.7594 39.8304 41.6111 41.8741 42.1277 43.8553L45.0815 55.1822C45.6272 57.2749 46.6205 59.1653 47.9773 60.7426C42.2512 64.0108 35.3183 63.9776 29.5875 60.5778C21.5475 55.808 18.158 45.8946 21.5279 37.006L25.0362 27.7523C25.6088 26.2422 27.2803 25.4646 28.7622 26.0189C30.2052 26.5586 30.9995 28.1681 30.5704 29.6831L28.296 37.7141C28.1261 38.314 28.4197 38.9511 28.9787 39.1963C29.5379 39.4414 30.1887 39.2183 30.4926 38.6775L37.9894 25.3358C38.2932 24.7954 38.1129 24.1045 37.587 23.7924C37.0613 23.4804 36.3886 23.6655 36.0849 24.2059L32.7101 30.2118C33.3977 27.588 32.0098 24.8286 29.5146 23.8954C28.2485 23.4221 26.8755 23.4758 25.6485 24.0465C24.4213 24.6174 23.4761 25.6421 22.9871 26.932L19.4788 36.1858C17.6701 40.9564 17.5835 46.2439 19.2351 51.0743C20.8867 55.9046 24.1728 59.9747 28.4879 62.5346C31.6699 64.4224 35.2565 65.4103 38.9046 65.4103C39.1477 65.4103 39.3911 65.4058 39.6346 65.397C43.1699 65.2694 46.6114 64.2237 49.6371 62.3659C50.1688 62.8032 50.7361 63.2024 51.3369 63.5588C53.4057 64.7862 55.7014 65.4132 58.0281 65.4131C59.1941 65.4131 60.3684 65.2555 61.5249 64.9371C65.812 63.7568 69.2489 60.483 70.7186 56.1799L74.1 46.2792C74.8018 44.2242 74.0089 41.949 72.2144 40.8693ZM63.9742 32.0992C65.2843 32.8765 65.7347 34.6038 64.9784 35.9501L63.7769 38.0883L62.6969 33.9467C62.4921 33.1618 62.054 32.4825 61.443 31.9892C62.2306 31.6144 63.1773 31.6266 63.9742 32.0992ZM61.5253 20.6768C62.1599 21.0533 62.6138 21.6611 62.8036 22.3884C62.9932 23.1158 62.8958 23.8754 62.5296 24.5272L58.7682 31.2158C58.5992 31.237 58.4304 31.2701 58.2631 31.3162C57.7795 31.4493 57.3375 31.6793 56.9562 31.9887C56.6714 31.1454 56.1087 30.4427 55.3488 29.9919C54.7488 29.6359 54.0779 29.4683 53.4022 29.4959L57.7779 21.7082C58.5343 20.3624 60.2153 19.8997 61.5253 20.6768ZM72.0248 45.5309L68.6434 55.4314C67.4145 59.0297 64.5406 61.7673 60.9557 62.7543C58.0589 63.5517 55.0335 63.1425 52.4365 61.6018C49.8394 60.0611 47.9818 57.5735 47.2056 54.597L44.2519 43.2704C44.0491 42.4927 44.4999 41.6905 45.2567 41.482C46.0133 41.274 46.794 41.7366 46.9971 42.5139L48.8953 49.7933C49.0269 50.2981 49.4712 50.631 49.9568 50.631C50.0509 50.631 50.1468 50.6184 50.2421 50.5922C50.8286 50.4307 51.1768 49.8111 51.0196 49.2083L48.0887 37.9685C47.8859 37.1908 48.3366 36.3886 49.0935 36.1801C49.8502 35.972 50.631 36.4349 50.8339 37.2126L53.765 48.4524C53.9222 49.0551 54.5249 49.4129 55.1118 49.2514C55.6984 49.0899 56.0465 48.4703 55.8894 47.8675L52.1661 33.5912C52.0678 33.2145 52.1183 32.8211 52.3081 32.4833C52.4978 32.1456 52.8043 31.904 53.1709 31.803C53.5375 31.702 53.9204 31.7538 54.2492 31.9488C54.5779 32.1439 54.813 32.4588 54.9113 32.8355L58.6342 47.112C58.7658 47.6168 59.2101 47.9498 59.6956 47.9496C59.7898 47.9496 59.8856 47.9371 59.981 47.9109C60.5675 47.7494 60.9156 47.1298 60.7585 46.527L57.8275 35.2872C57.7292 34.9105 57.7797 34.517 57.9695 34.1792C58.1593 33.8415 58.4657 33.5999 58.8323 33.4989C59.5892 33.291 60.3698 33.7537 60.5727 34.5314L63.9368 47.4321C64.0529 47.8772 64.4205 48.2053 64.8658 48.2612C65.3112 48.3173 65.7447 48.0893 65.9614 47.6859L68.1255 43.6597C68.409 43.1324 68.8765 42.7542 69.4418 42.5945C70.007 42.4347 70.5969 42.5147 71.103 42.8192C71.9913 43.3538 72.3789 44.4942 72.0248 45.5309Z" fill="white"/>
<path d="M39.5078 21.5033C39.7969 21.5033 40.0806 21.3824 40.2852 21.1723C40.4897 20.9621 40.6073 20.6706 40.6073 20.3735C40.6073 20.0763 40.4897 19.7848 40.2852 19.5747C40.0806 19.3645 39.7969 19.2437 39.5078 19.2437C39.2175 19.2437 38.9349 19.3645 38.7304 19.5747C38.5248 19.7848 38.4082 20.0763 38.4082 20.3735C38.4082 20.6706 38.5248 20.9621 38.7304 21.1723C38.9349 21.3825 39.2175 21.5033 39.5078 21.5033Z" fill="white"/>
</g>
<ellipse cx="32.552" cy="32.64" rx="32.552" ry="32.64" fill="url(#paint0_linear)" style="mix-blend-mode:multiply"/>
<defs>
<linearGradient id="paint0_linear" x1="50.1046" y1="47.36" x2="-8.40752" y2="4.63056" gradientUnits="userSpaceOnUse">
<stop stop-color="white"/>
<stop offset="1" stop-color="#FF0606" stop-opacity="0"/>
</linearGradient>
<clipPath id="clip0">
<rect width="56.2976" height="57.8472" fill="white" transform="translate(18.0564 7.46118)"/>
</clipPath>
</defs>
</svg>
