<svg width="80" height="66" viewBox="0 0 80 66" fill="none" xmlns="http://www.w3.org/2000/svg">
<ellipse cx="32.552" cy="32.64" rx="32.552" ry="32.64" fill="#FA7387"/>
<g clip-path="url(#clip0)">
<path d="M53.316 37.1418C53.9819 36.5256 54.4133 35.6612 54.4133 34.6808C54.4133 32.8177 52.9071 31.3074 51.0489 31.3074C49.1908 31.3074 47.6846 32.8177 47.6846 34.6808C47.6846 35.6612 48.116 36.5254 48.7819 37.1418L36.5517 61.8934H32.5449V65.2669H38.6313L49.3667 43.5131V61.8934H46.0024V65.2669H56.0955V61.8934H52.7311V43.5131L63.4666 65.2669H69.5529V61.8934H65.5462L53.316 37.1418Z" fill="white"/>
<path d="M70.4388 8.56617L71.3097 11.8243L68.0591 12.6978L72.413 28.9903L75.6642 28.1167L76.5352 31.3749L79.7845 30.5019L73.6882 7.69312L70.4388 8.56617Z" fill="white"/>
<path d="M29.9423 40.3407L28.201 33.8239L31.4518 32.9501L32.3227 36.2095L35.5722 35.3365L32.9598 25.5604L29.7107 26.4334L30.5813 29.692L27.3305 30.5659L25.589 24.0483L22.3396 24.9213L26.6929 41.2137L29.9423 40.3407Z" fill="white"/>
<path d="M44.5809 36.4381C44.4281 35.8744 44.3201 35.2925 44.3201 34.6808C44.3201 30.9597 47.3379 27.9338 51.0489 27.9338C54.1629 27.9338 56.7638 30.0752 57.5281 32.9594L69.1635 29.8632L64.8096 13.5706L35.3386 21.4289L39.6919 37.7214L44.5809 36.4381Z" fill="white"/>
</g>
<ellipse cx="32.552" cy="32.64" rx="32.552" ry="32.64" fill="url(#paint0_linear)" style="mix-blend-mode:multiply"/>
<defs>
<linearGradient id="paint0_linear" x1="50.1046" y1="47.36" x2="-8.40752" y2="4.63056" gradientUnits="userSpaceOnUse">
<stop stop-color="white"/>
<stop offset="1" stop-color="#FF0606" stop-opacity="0"/>
</linearGradient>
<clipPath id="clip0">
<rect width="57.4447" height="57.6" fill="white" transform="translate(22.3396 7.67993)"/>
</clipPath>
</defs>
</svg>
