<svg width="17" height="15" viewBox="0 0 17 15" fill="none" xmlns="http://www.w3.org/2000/svg">
<path d="M11.2688 7.57699L16.9999 10.7739V4.24512L11.2688 7.57699Z" fill="white"/>
<path d="M0 4.24512V10.7739L5.73112 7.57699L0 4.24512Z" fill="white"/>
<path d="M15.9374 2.34375H1.06239C0.532206 2.34375 0.111456 2.6925 0.0317688 3.14156L8.49989 8.06437L16.968 3.14156C16.8883 2.6925 16.4676 2.34375 15.9374 2.34375Z" fill="white"/>
<path d="M10.2958 8.14327L8.79237 9.01702C8.70312 9.06858 8.60218 9.0939 8.50018 9.0939C8.39818 9.0939 8.29724 9.06858 8.20799 9.01702L6.70456 8.14233L0.0341797 11.8651C0.115992 12.3105 0.534617 12.6564 1.06268 12.6564H15.9377C16.4657 12.6564 16.8844 12.3105 16.9662 11.8651L10.2958 8.14327Z" fill="white"/>
</svg>
