<svg width="16" height="14" viewBox="0 0 16 14" fill="none" xmlns="http://www.w3.org/2000/svg">
<path d="M14.8939 3.01287L13.008 1.34999C12.8749 1.23206 12.7168 1.13849 12.5427 1.07466C12.3685 1.01083 12.1818 0.977987 11.9933 0.978027C11.609 0.978027 11.2477 1.11087 10.9768 1.34999L8.94743 3.14102C8.81381 3.25843 8.70779 3.39799 8.63546 3.55167C8.56314 3.70535 8.52593 3.87013 8.52597 4.03654C8.52597 4.37568 8.67649 4.6945 8.94743 4.93361L10.4314 6.24329C10.084 6.919 9.60109 7.53372 9.00587 8.05776C8.41215 8.58435 7.71569 9.01212 6.94993 9.32055L5.46597 8.01088C5.33293 7.89295 5.17481 7.79938 5.00067 7.73555C4.82654 7.67172 4.63983 7.63888 4.45128 7.63892C4.06701 7.63892 3.70576 7.77176 3.43482 8.01088L1.40367 9.80035C1.26988 9.91798 1.16377 10.0578 1.09144 10.2117C1.01911 10.3657 0.981989 10.5308 0.982209 10.6974C0.982209 11.0366 1.13273 11.3554 1.40367 11.5945L3.28607 13.2558C3.71815 13.6387 4.31492 13.856 4.92763 13.856C5.0569 13.856 5.18086 13.8466 5.30305 13.8278C7.69014 13.4809 10.0577 12.3603 11.9685 10.6755C13.8774 8.99235 15.1454 6.90438 15.5438 4.79139C15.6642 4.14594 15.4216 3.48172 14.8939 3.01287Z" fill="white"/>
</svg>
