<svg width="11" height="13" viewBox="0 0 11 13" fill="none" xmlns="http://www.w3.org/2000/svg">
<path d="M5.34895 0C2.40674 0 0.013092 2.11204 0.013092 4.70808C0.013092 7.92985 4.78816 12.6596 4.99146 12.8594C5.18242 13.047 5.51582 13.0467 5.70643 12.8594C5.90974 12.6596 10.6848 7.92985 10.6848 4.70808C10.6847 2.11204 8.29113 0 5.34895 0ZM5.34895 7.07685C3.86865 7.07685 2.66437 6.01423 2.66437 4.70808C2.66437 3.40194 3.86868 2.33934 5.34895 2.33934C6.82922 2.33934 8.03349 3.40196 8.03349 4.70811C8.03349 6.01425 6.82922 7.07685 5.34895 7.07685Z" fill="white"/>
</svg>
