<svg width="30" height="26" viewBox="0 0 30 26" fill="none" xmlns="http://www.w3.org/2000/svg">
<g clip-path="url(#clip0)">
<path d="M27.9395 26.0001C28.8202 26.0001 29.5343 25.3576 29.5343 24.5651V1.43498C29.5343 0.642383 28.8202 0 27.9395 0H2.23208C1.35106 0 0.637207 0.642383 0.637207 1.43498V24.5651C0.637207 25.3576 1.35106 26.0001 2.23208 26.0001H27.9395Z" fill="#395185"/>
<path d="M20.5756 25.9999V15.9313H24.3319L24.8942 12.0075H20.5756V9.50213C20.5756 8.36605 20.9263 7.59184 22.737 7.59184L25.0464 7.59093V4.08144C24.6468 4.0336 23.276 3.92676 21.6812 3.92676C18.3515 3.92676 16.072 5.75539 16.072 9.11366V12.0075H12.3062V15.9313H16.072V25.9999H20.5756Z" fill="white"/>
</g>
<defs>
<clipPath id="clip0">
<rect width="28.8971" height="26" fill="white" transform="translate(0.637207)"/>
</clipPath>
</defs>
</svg>
