<svg width="39" height="25" viewBox="0 0 39 25" fill="none" xmlns="http://www.w3.org/2000/svg">
<path d="M38.1416 3.83844C37.9185 3.09653 37.4833 2.42016 36.8792 1.87667C36.2752 1.33318 35.5235 0.941545 34.6989 0.740755C31.6802 0 19.5307 0 19.5307 0C19.5307 0 7.38063 0.0224222 4.36188 0.763177C3.53729 0.963979 2.78555 1.35564 2.18153 1.89915C1.57751 2.44267 1.14227 3.11907 0.919168 3.861C0.00606629 8.68698 -0.348142 16.0407 0.944241 20.6736C1.16737 21.4155 1.60261 22.0919 2.20663 22.6354C2.81066 23.1789 3.56238 23.5705 4.38695 23.7713C7.4057 24.512 19.5555 24.512 19.5555 24.512C19.5555 24.512 31.7051 24.512 34.7237 23.7713C35.5483 23.5705 36.3 23.1789 36.9041 22.6354C37.5081 22.0919 37.9434 21.4155 38.1665 20.6736C39.1296 15.8408 39.4264 8.49174 38.1416 3.83858V3.83844Z" fill="#FF0000"/>
<path d="M15.6631 17.5085L25.7422 12.256L15.6632 7.00342L15.6631 17.5085Z" fill="white"/>
</svg>
