<svg width="202" height="177" viewBox="0 0 202 177" fill="none" xmlns="http://www.w3.org/2000/svg">
<path d="M82.2856 158.745H61.8662V158.875H82.2856V158.745Z" fill="#E0E0E0"/>
<path d="M82.0259 102.586C81.7397 102.586 81.4535 102.586 81.1621 102.612C79.3489 102.74 77.5865 103.268 76.0012 104.157C74.4159 105.046 73.0469 106.275 71.9925 107.756C70.9381 109.237 70.2244 110.932 69.9024 112.721C69.5804 114.51 69.6582 116.348 70.1302 118.104C71.4745 123.345 72.1236 128.741 72.0608 134.152V149.909C72.0608 150.461 72.2801 150.99 72.6704 151.381C73.0608 151.771 73.5902 151.99 74.1423 151.99H124.16V102.586H82.0259Z" fill="#E6E6E6"/>
<path d="M136.463 114.903C136.444 111.717 135.192 108.662 132.969 106.379C130.747 104.097 127.726 102.764 124.542 102.66C121.357 102.556 118.256 103.69 115.89 105.823C113.523 107.957 112.075 110.924 111.849 114.102C111.763 115.45 111.896 116.804 112.245 118.109C113.593 123.35 114.244 128.746 114.181 134.157V149.914C114.181 150.466 114.4 150.996 114.79 151.386C115.181 151.776 115.71 151.996 116.262 151.996H132.055C132.607 151.996 133.137 151.776 133.527 151.386C133.918 150.996 134.137 150.466 134.137 149.914V133.231C134.091 128.157 134.732 123.1 136.041 118.197C136.33 117.124 136.472 116.015 136.463 114.903Z" fill="#F0F0F0"/>
<path d="M34.4952 73.4454H75.9169C77.1449 73.4399 78.362 73.6771 79.4982 74.1433C80.6344 74.6094 81.6673 75.2954 82.5376 76.1619C83.4079 77.0284 84.0985 78.0582 84.5698 79.1923C85.041 80.3264 85.2836 81.5424 85.2836 82.7705V128.771H25.1753V82.7705C25.1753 80.2982 26.157 77.9271 27.9047 76.1785C29.6524 74.4299 32.0229 73.4468 34.4952 73.4454Z" fill="#E0E0E0"/>
<path d="M45.7875 73.4454H88.1251C89.2902 73.4454 90.4439 73.6748 91.5204 74.1207C92.5968 74.5666 93.5749 75.2201 94.3988 76.044C95.2227 76.8679 95.8762 77.846 96.3221 78.9224C96.7679 79.9989 96.9974 81.1526 96.9974 82.3177V128.766H36.8892V82.3229C36.8885 81.1551 37.1183 79.9987 37.5655 78.92C38.0127 77.8412 38.6685 76.8614 39.4952 76.0366C40.3219 75.2119 41.3033 74.5584 42.383 74.1137C43.4628 73.6691 44.6198 73.4419 45.7875 73.4454Z" fill="#F0F0F0"/>
<path d="M65.2128 119.254H106.593C107.311 119.254 107.999 119.539 108.506 120.046C109.014 120.554 109.299 121.242 109.299 121.96V128.761C109.299 129.479 109.014 130.167 108.506 130.674C107.999 131.182 107.311 131.467 106.593 131.467H65.2128C64.9989 131.467 64.7938 131.382 64.6425 131.231C64.4912 131.079 64.4063 130.874 64.4062 130.66V120.06C64.4062 119.846 64.4912 119.641 64.6425 119.49C64.7938 119.339 64.9989 119.254 65.2128 119.254Z" fill="#E0E0E0"/>
<path d="M75.1836 114.903C75.1649 111.717 73.9128 108.662 71.6901 106.379C69.4674 104.097 66.4469 102.764 63.2624 102.66C60.0779 102.556 56.977 103.69 54.6105 105.823C52.244 107.957 50.7959 110.924 50.57 114.102C50.4835 115.45 50.6171 116.804 50.9655 118.109C52.314 123.35 52.9649 128.746 52.9012 134.157V149.914C52.9012 150.466 53.1205 150.996 53.5109 151.386C53.9013 151.776 54.4307 151.996 54.9827 151.996H70.776C71.3281 151.996 71.8575 151.776 72.2479 151.386C72.6382 150.996 72.8575 150.466 72.8575 149.914V133.231C72.812 128.157 73.4527 123.1 74.7621 118.197C75.0508 117.124 75.1926 116.015 75.1836 114.903Z" fill="#F0F0F0"/>
<path d="M123.271 153.479H21.6261C21.2286 153.479 20.8474 153.321 20.5664 153.04C20.2853 152.759 20.1274 152.377 20.1274 151.98H124.764C124.764 152.377 124.607 152.757 124.327 153.038C124.047 153.319 123.667 153.477 123.271 153.479Z" fill="#E0E0E0"/>
<path d="M45.3917 7.28003H15.4858V38.2734H45.3917V7.28003Z" fill="#E0E0E0"/>
<path d="M47.0989 7.28003H17.9424V38.2734H47.0989V7.28003Z" fill="#F0F0F0"/>
<path d="M44.6533 35.8278V9.7207L20.3831 9.7207V35.8278H44.6533Z" fill="#FAFAFA"/>
<path d="M32.5181 16.1782L25.8833 27.6733H39.158L32.5181 16.1782Z" fill="#F0F0F0"/>
<path d="M85.2584 20.3308H55.3525V51.3242H85.2584V20.3308Z" fill="#E0E0E0"/>
<path d="M86.9602 20.3308H57.8037V51.3242H86.9602V20.3308Z" fill="#F0F0F0"/>
<path d="M84.5137 48.884V22.7769H60.2435V48.884H84.5137Z" fill="#FAFAFA"/>
<path d="M75.3555 40.4849L78.2331 35.4998C78.5332 34.978 78.6908 34.3866 78.6903 33.7847C78.6898 33.1829 78.5311 32.5917 78.2301 32.0705C77.9292 31.5493 77.4966 31.1163 76.9756 30.8149C76.4547 30.5135 75.8637 30.3543 75.2618 30.3533H69.5013C68.8993 30.3537 68.3079 30.5125 67.7868 30.8139C67.2656 31.1153 66.833 31.5485 66.5324 32.0701C66.2317 32.5917 66.0737 33.1833 66.0742 33.7853C66.0747 34.3874 66.2337 34.9787 66.5352 35.4998L69.4128 40.4849C69.7136 41.007 70.1466 41.4405 70.6682 41.742C71.1898 42.0434 71.7817 42.2022 72.3842 42.2022C72.9866 42.2022 73.5785 42.0434 74.1001 41.742C74.6217 41.4405 75.0547 41.007 75.3555 40.4849Z" fill="#F0F0F0"/>
<path d="M154.53 79.6064H146.355V151.007H154.53V79.6064Z" fill="#E6E6E6"/>
<path d="M193.786 151.007H148.509V153.469H193.786V151.007Z" fill="#E6E6E6"/>
<path d="M154.524 151.012H195.941V79.6121H154.524V151.012Z" fill="#F0F0F0"/>
<path d="M158.943 129.536H191.528V116.787H158.943V129.536Z" fill="#E6E6E6"/>
<path d="M158.943 146.225H191.528V133.475H158.943V146.225Z" fill="#E6E6E6"/>
<path d="M179.95 122.288H170.515C170.058 122.288 169.688 122.658 169.688 123.115V123.209C169.688 123.666 170.058 124.036 170.515 124.036H179.95C180.407 124.036 180.777 123.666 180.777 123.209V123.115C180.777 122.658 180.407 122.288 179.95 122.288Z" fill="#F0F0F0"/>
<path d="M179.95 138.976H170.515C170.058 138.976 169.688 139.346 169.688 139.803V139.897C169.688 140.354 170.058 140.724 170.515 140.724H179.95C180.407 140.724 180.777 140.354 180.777 139.897V139.803C180.777 139.346 180.407 138.976 179.95 138.976Z" fill="#F0F0F0"/>
<path d="M158.943 96.2952H191.528V83.546H158.943V96.2952Z" fill="#E6E6E6"/>
<path d="M158.943 112.853H191.528V100.104H158.943V112.853Z" fill="#E6E6E6"/>
<path d="M179.95 89.0461H170.515C170.058 89.0461 169.688 89.4166 169.688 89.8735V89.9672C169.688 90.4242 170.058 90.7946 170.515 90.7946H179.95C180.407 90.7946 180.777 90.4242 180.777 89.9672V89.8735C180.777 89.4166 180.407 89.0461 179.95 89.0461Z" fill="#F0F0F0"/>
<path d="M179.95 105.599H170.515C170.058 105.599 169.688 105.969 169.688 106.426V106.52C169.688 106.977 170.058 107.347 170.515 107.347H179.95C180.407 107.347 180.777 106.977 180.777 106.52V106.426C180.777 105.969 180.407 105.599 179.95 105.599Z" fill="#F0F0F0"/>
<path d="M185.284 58.979H177.608C177.608 58.979 178.941 63.5791 178.941 66.2642C178.941 68.9493 173.102 79.5858 181.449 79.5858C189.796 79.5858 183.952 68.9754 183.952 66.2642C183.952 63.5531 185.284 58.979 185.284 58.979Z" fill="#F0F0F0"/>
<path d="M165.307 65.1613C165.302 65.8806 165.084 66.5823 164.681 67.1779C164.277 67.7735 163.707 68.2363 163.041 68.508C162.374 68.7797 161.643 68.8482 160.938 68.7047C160.233 68.5612 159.587 68.2123 159.08 67.7018C158.573 67.1914 158.229 66.5423 158.09 65.8364C157.952 65.1305 158.025 64.3995 158.302 63.7354C158.578 63.0713 159.045 62.5039 159.643 62.1048C160.242 61.7057 160.945 61.4927 161.664 61.4927C162.633 61.4995 163.559 61.8891 164.242 62.5763C164.924 63.2636 165.307 64.1928 165.307 65.1613Z" fill="#F0F0F0"/>
<path d="M171.588 66.9094C171.588 67.6349 171.373 68.3442 170.97 68.9475C170.567 69.5508 169.994 70.0211 169.324 70.2987C168.653 70.5764 167.916 70.649 167.204 70.5075C166.492 70.3659 165.839 70.0165 165.326 69.5035C164.812 68.9904 164.463 68.3367 164.321 67.6251C164.18 66.9134 164.253 66.1758 164.53 65.5054C164.808 64.8351 165.278 64.2621 165.881 63.859C166.485 63.4559 167.194 63.2407 167.92 63.2407C168.893 63.2407 169.826 63.6272 170.514 64.3152C171.202 65.0032 171.588 65.9364 171.588 66.9094Z" fill="#F0F0F0"/>
<path d="M176.953 65.4938C176.953 66.2194 176.738 66.9287 176.335 67.532C175.932 68.1353 175.359 68.6055 174.689 68.8832C174.018 69.1609 173.281 69.2335 172.569 69.092C171.857 68.9504 171.204 68.601 170.691 68.0879C170.178 67.5749 169.828 66.9212 169.687 66.2095C169.545 65.4979 169.618 64.7603 169.895 64.0899C170.173 63.4195 170.643 62.8466 171.247 62.4435C171.85 62.0404 172.559 61.8252 173.285 61.8252C174.258 61.8252 175.191 62.2117 175.879 62.8997C176.567 63.5877 176.953 64.5208 176.953 65.4938Z" fill="#F0F0F0"/>
<path d="M155.071 66.9771V71.14C155.071 75.7818 159.562 79.5805 165.046 79.5805H170C175.49 79.5805 179.981 75.7818 179.981 71.14V66.9771H155.071Z" fill="#E6E6E6"/>
<path d="M139.07 45.5483C136.306 45.5483 133.655 44.4501 131.7 42.4954C129.745 40.5407 128.647 37.8896 128.647 35.1252C128.647 32.3608 129.745 29.7097 131.7 27.755C133.655 25.8003 136.306 24.7021 139.07 24.7021H140.35V45.5483H139.07Z" fill="#E0E0E0"/>
<path d="M150.504 37.5107C151.815 31.9056 148.335 26.2985 142.729 24.9869C137.124 23.6753 131.517 27.1559 130.206 32.761C128.894 38.3661 132.375 43.9732 137.98 45.2848C143.585 46.5963 149.192 43.1158 150.504 37.5107Z" fill="#F0F0F0"/>
<path d="M140.819 36.431C140.474 36.431 140.143 36.2939 139.899 36.05C139.655 35.806 139.518 35.4751 139.518 35.1301C139.518 34.785 139.655 34.4541 139.899 34.2102C140.143 33.9662 140.474 33.8291 140.819 33.8291C143.802 33.8264 146.663 32.6403 148.773 30.5312C150.883 28.4221 152.071 25.5621 152.075 22.5787V5.27627C152.075 4.93125 152.212 4.60035 152.456 4.35638C152.7 4.1124 153.031 3.97534 153.376 3.97534C153.721 3.97534 154.052 4.1124 154.295 4.35638C154.539 4.60035 154.677 4.93125 154.677 5.27627V22.5787C154.671 26.2517 153.209 29.7727 150.611 32.3695C148.014 34.9663 144.492 36.4269 140.819 36.431Z" fill="#E0E0E0"/>
<path d="M165.676 22.5425H141.073L143.821 0H162.929L165.676 22.5425Z" fill="#F0F0F0"/>
<path d="M100.895 176.974C156.618 176.974 201.79 174.336 201.79 171.083C201.79 167.83 156.618 165.192 100.895 165.192C45.1723 165.192 0 167.83 0 171.083C0 174.336 45.1723 176.974 100.895 176.974Z" fill="#F5F5F5"/>
<path d="M179.622 124.484L178.732 117.568C178.598 116.539 178.095 115.593 177.316 114.908C176.536 114.222 175.534 113.843 174.496 113.842H151.444C150.406 113.843 149.404 113.466 148.624 112.781C147.844 112.096 147.341 111.151 147.208 110.121L142.426 73.0292C142.347 72.4277 142.398 71.8163 142.575 71.236C142.752 70.6556 143.05 70.1197 143.451 69.6641C143.851 69.2084 144.344 68.8435 144.897 68.5937C145.45 68.344 146.05 68.2151 146.656 68.2158H167.503C168.11 68.2157 168.709 68.0861 169.262 67.8358C169.815 67.5854 170.308 67.22 170.709 66.764C171.109 66.3079 171.408 65.7717 171.584 65.1911C171.761 64.6105 171.812 63.9989 171.733 63.3971L170.849 56.4762C170.716 55.447 170.212 54.5015 169.433 53.8166C168.653 53.1318 167.651 52.7545 166.613 52.7555H143.565C142.528 52.755 141.526 52.3765 140.747 51.6907C139.969 51.0049 139.466 50.0589 139.335 49.0296L134.901 14.685C134.769 13.6553 134.265 12.7092 133.486 12.0235C132.706 11.3378 131.704 10.9595 130.665 10.9591H123.817C123.21 10.9593 122.61 11.0889 122.057 11.3392C121.504 11.5895 121.011 11.9548 120.61 12.4107C120.209 12.8667 119.91 13.4028 119.733 13.9834C119.555 14.564 119.504 15.1757 119.582 15.7778L123.744 47.9264C123.822 48.5285 123.771 49.1402 123.593 49.7208C123.416 50.3014 123.117 50.8375 122.716 51.2935C122.315 51.7494 121.822 52.1147 121.269 52.365C120.716 52.6153 120.116 52.7449 119.509 52.7451H63.6883C62.6506 52.7446 61.6487 52.3661 60.87 51.6803C60.0913 50.9945 59.5892 50.0485 59.4576 49.0192L55.024 14.6746C54.8924 13.6454 54.3903 12.6993 53.6116 12.0135C52.8329 11.3278 51.831 10.9492 50.7934 10.9487H43.9453C43.3382 10.9489 42.7382 11.0785 42.1851 11.3288C41.6321 11.5791 41.1387 11.9444 40.7379 12.4003C40.3371 12.8563 40.0381 13.3924 39.8607 13.973C39.6834 14.5536 39.6318 15.1653 39.7095 15.7674L43.8724 47.916C43.9501 48.5181 43.8985 49.1298 43.7212 49.7104C43.5439 50.291 43.2448 50.8271 42.844 51.2831C42.4432 51.739 41.9499 52.1043 41.3968 52.3546C40.8437 52.6049 40.2437 52.7345 39.6366 52.7347H18.7749C18.168 52.7341 17.5681 52.863 17.015 53.1127C16.462 53.3624 15.9685 53.7272 15.5676 54.1828C15.1667 54.6383 14.8676 55.1742 14.6903 55.7545C14.5129 56.3348 14.4613 56.9463 14.539 57.5481L15.4341 64.4639C15.5658 65.494 16.0687 66.4408 16.8484 67.1267C17.6282 67.8126 18.6314 68.1905 19.6699 68.1897H42.7172C43.755 68.1888 44.7575 68.566 45.5371 69.2509C46.3168 69.9357 46.8202 70.8812 46.9531 71.9104L51.7405 109.003C51.8182 109.604 51.7666 110.216 51.5893 110.796C51.4119 111.377 51.1128 111.912 50.7119 112.368C50.311 112.823 49.8176 113.188 49.2645 113.438C48.7114 113.688 48.1115 113.817 47.5047 113.816H26.6585C26.0514 113.816 25.4514 113.946 24.8983 114.196C24.3453 114.446 23.8519 114.812 23.4511 115.268C23.0503 115.724 22.7513 116.26 22.5739 116.84C22.3966 117.421 22.345 118.033 22.4227 118.635L23.3177 125.55C23.4493 126.58 23.9515 127.526 24.7301 128.212C25.5088 128.897 26.5107 129.276 27.5484 129.276H50.6009C51.6386 129.275 52.6411 129.653 53.4208 130.337C54.2004 131.022 54.7038 131.968 54.8367 132.997L59.2651 167.342C59.3979 168.371 59.901 169.317 60.6806 170.003C61.4601 170.689 62.4627 171.067 63.5009 171.067H70.349C70.9561 171.067 71.5561 170.938 72.1092 170.687C72.6623 170.437 73.1556 170.072 73.5564 169.616C73.9572 169.16 74.2563 168.624 74.4336 168.043C74.6109 167.463 74.6625 166.851 74.5849 166.249L70.4219 134.1C70.3505 133.501 70.4071 132.893 70.588 132.317C70.7689 131.741 71.0699 131.21 71.4713 130.759C71.8726 130.308 72.3651 129.947 72.9162 129.7C73.4673 129.454 74.0644 129.327 74.6681 129.328H130.473C131.508 129.324 132.51 129.696 133.292 130.376C134.073 131.056 134.58 131.997 134.719 133.023L139.148 167.368C139.28 168.397 139.783 169.343 140.563 170.029C141.343 170.715 142.345 171.093 143.383 171.093H150.231C150.838 171.093 151.438 170.964 151.991 170.713C152.544 170.463 153.037 170.098 153.437 169.642C153.838 169.186 154.136 168.649 154.313 168.069C154.49 167.488 154.541 166.877 154.462 166.275L150.299 134.126C150.221 133.524 150.273 132.913 150.45 132.333C150.628 131.752 150.927 131.216 151.328 130.761C151.729 130.305 152.222 129.94 152.775 129.691C153.328 129.441 153.928 129.312 154.535 129.313H175.381C175.99 129.313 176.591 129.184 177.146 128.934C177.7 128.683 178.195 128.317 178.596 127.86C178.998 127.402 179.297 126.865 179.474 126.283C179.651 125.7 179.701 125.087 179.622 124.484ZM67.3361 110.121L62.5538 73.0292C62.4762 72.4278 62.5276 71.8168 62.7047 71.2368C62.8817 70.6569 63.1804 70.1213 63.5807 69.6658C63.981 69.2104 64.4738 68.8455 65.0263 68.5954C65.5787 68.3454 66.1781 68.2159 66.7845 68.2158H122.589C123.627 68.2148 124.629 68.5921 125.409 69.2769C126.189 69.9618 126.692 70.9072 126.825 71.9364L131.597 109.034C131.675 109.636 131.623 110.247 131.446 110.827C131.268 111.408 130.969 111.944 130.568 112.399C130.167 112.855 129.674 113.22 129.121 113.469C128.568 113.719 127.968 113.848 127.361 113.847H71.5719C70.5337 113.847 69.5311 113.469 68.7516 112.783C67.972 112.097 67.4688 111.151 67.3361 110.121Z" fill="#FA7387"/>
<path opacity="0.4" d="M179.622 124.484L178.732 117.568C178.598 116.539 178.095 115.593 177.316 114.908C176.536 114.222 175.534 113.843 174.496 113.842H151.444C150.406 113.843 149.404 113.466 148.624 112.781C147.844 112.096 147.341 111.151 147.208 110.121L142.426 73.0292C142.347 72.4277 142.398 71.8163 142.575 71.236C142.752 70.6556 143.05 70.1197 143.451 69.6641C143.851 69.2084 144.344 68.8435 144.897 68.5937C145.45 68.344 146.05 68.2151 146.656 68.2158H167.503C168.11 68.2157 168.709 68.0861 169.262 67.8358C169.815 67.5854 170.308 67.22 170.709 66.764C171.109 66.3079 171.408 65.7717 171.584 65.1911C171.761 64.6105 171.812 63.9989 171.733 63.3971L170.849 56.4762C170.716 55.447 170.212 54.5015 169.433 53.8166C168.653 53.1318 167.651 52.7545 166.613 52.7555H143.565C142.528 52.755 141.526 52.3765 140.747 51.6907C139.969 51.0049 139.466 50.0589 139.335 49.0296L134.901 14.685C134.769 13.6553 134.265 12.7092 133.486 12.0235C132.706 11.3378 131.704 10.9595 130.665 10.9591H123.817C123.21 10.9593 122.61 11.0889 122.057 11.3392C121.504 11.5895 121.011 11.9548 120.61 12.4107C120.209 12.8667 119.91 13.4028 119.733 13.9834C119.555 14.564 119.504 15.1757 119.582 15.7778L123.744 47.9264C123.822 48.5285 123.771 49.1402 123.593 49.7208C123.416 50.3014 123.117 50.8375 122.716 51.2935C122.315 51.7494 121.822 52.1147 121.269 52.365C120.716 52.6153 120.116 52.7449 119.509 52.7451H63.6883C62.6506 52.7446 61.6487 52.3661 60.87 51.6803C60.0913 50.9945 59.5892 50.0485 59.4576 49.0192L55.024 14.6746C54.8924 13.6454 54.3903 12.6993 53.6116 12.0135C52.8329 11.3278 51.831 10.9492 50.7934 10.9487H43.9453C43.3382 10.9489 42.7382 11.0785 42.1851 11.3288C41.6321 11.5791 41.1387 11.9444 40.7379 12.4003C40.3371 12.8563 40.0381 13.3924 39.8607 13.973C39.6834 14.5536 39.6318 15.1653 39.7095 15.7674L43.8724 47.916C43.9501 48.5181 43.8985 49.1298 43.7212 49.7104C43.5439 50.291 43.2448 50.8271 42.844 51.2831C42.4432 51.739 41.9499 52.1043 41.3968 52.3546C40.8437 52.6049 40.2437 52.7345 39.6366 52.7347H18.7749C18.168 52.7341 17.5681 52.863 17.015 53.1127C16.462 53.3624 15.9685 53.7272 15.5676 54.1828C15.1667 54.6383 14.8676 55.1742 14.6903 55.7545C14.5129 56.3348 14.4613 56.9463 14.539 57.5481L15.4341 64.4639C15.5658 65.494 16.0687 66.4408 16.8484 67.1267C17.6282 67.8126 18.6314 68.1905 19.6699 68.1897H42.7172C43.755 68.1888 44.7575 68.566 45.5371 69.2509C46.3168 69.9357 46.8202 70.8812 46.9531 71.9104L51.7405 109.003C51.8182 109.604 51.7666 110.216 51.5893 110.796C51.4119 111.377 51.1128 111.912 50.7119 112.368C50.311 112.823 49.8176 113.188 49.2645 113.438C48.7114 113.688 48.1115 113.817 47.5047 113.816H26.6585C26.0514 113.816 25.4514 113.946 24.8983 114.196C24.3453 114.446 23.8519 114.812 23.4511 115.268C23.0503 115.724 22.7513 116.26 22.5739 116.84C22.3966 117.421 22.345 118.033 22.4227 118.635L23.3177 125.55C23.4493 126.58 23.9515 127.526 24.7301 128.212C25.5088 128.897 26.5107 129.276 27.5484 129.276H50.6009C51.6386 129.275 52.6411 129.653 53.4208 130.337C54.2004 131.022 54.7038 131.968 54.8367 132.997L59.2651 167.342C59.3979 168.371 59.901 169.317 60.6806 170.003C61.4601 170.689 62.4627 171.067 63.5009 171.067H70.349C70.9561 171.067 71.5561 170.938 72.1092 170.687C72.6623 170.437 73.1556 170.072 73.5564 169.616C73.9572 169.16 74.2563 168.624 74.4336 168.043C74.6109 167.463 74.6625 166.851 74.5849 166.249L70.4219 134.1C70.3505 133.501 70.4071 132.893 70.588 132.317C70.7689 131.741 71.0699 131.21 71.4713 130.759C71.8726 130.308 72.3651 129.947 72.9162 129.7C73.4673 129.454 74.0644 129.327 74.6681 129.328H130.473C131.508 129.324 132.51 129.696 133.292 130.376C134.073 131.056 134.58 131.997 134.719 133.023L139.148 167.368C139.28 168.397 139.783 169.343 140.563 170.029C141.343 170.715 142.345 171.093 143.383 171.093H150.231C150.838 171.093 151.438 170.964 151.991 170.713C152.544 170.463 153.037 170.098 153.437 169.642C153.838 169.186 154.136 168.649 154.313 168.069C154.49 167.488 154.541 166.877 154.462 166.275L150.299 134.126C150.221 133.524 150.273 132.913 150.45 132.333C150.628 131.752 150.927 131.216 151.328 130.761C151.729 130.305 152.222 129.94 152.775 129.691C153.328 129.441 153.928 129.312 154.535 129.313H175.381C175.99 129.313 176.591 129.184 177.146 128.934C177.7 128.683 178.195 128.317 178.596 127.86C178.998 127.402 179.297 126.865 179.474 126.283C179.651 125.7 179.701 125.087 179.622 124.484ZM67.3361 110.121L62.5538 73.0292C62.4762 72.4278 62.5276 71.8168 62.7047 71.2368C62.8817 70.6569 63.1804 70.1213 63.5807 69.6658C63.981 69.2104 64.4738 68.8455 65.0263 68.5954C65.5787 68.3454 66.1781 68.2159 66.7845 68.2158H122.589C123.627 68.2148 124.629 68.5921 125.409 69.2769C126.189 69.9618 126.692 70.9072 126.825 71.9364L131.597 109.034C131.675 109.636 131.623 110.247 131.446 110.827C131.268 111.408 130.969 111.944 130.568 112.399C130.167 112.855 129.674 113.22 129.121 113.469C128.568 113.719 127.968 113.848 127.361 113.847H71.5719C70.5337 113.847 69.5311 113.469 68.7516 112.783C67.972 112.097 67.4688 111.151 67.3361 110.121Z" fill="black"/>
<path d="M81.3553 149.472L80.835 145.517L81.3553 145.45L81.8757 149.404L81.3553 149.472ZM154.364 96.29L152.532 82.1098L153.052 82.0474L154.879 96.2224L154.364 96.29ZM67.8152 44.5441L67.0711 38.8513L67.5915 38.7836L68.3304 44.5077L67.8152 44.5441ZM66.6288 35.3491L65.3799 25.6858L65.9003 25.6182L67.1439 35.2815L66.6288 35.3491Z" fill="#FA7387"/>
<path opacity="0.3" d="M81.3553 149.472L80.835 145.517L81.3553 145.45L81.8757 149.404L81.3553 149.472ZM154.364 96.29L152.532 82.1098L153.052 82.0474L154.879 96.2224L154.364 96.29ZM67.8152 44.5441L67.0711 38.8513L67.5915 38.7836L68.3304 44.5077L67.8152 44.5441ZM66.6288 35.3491L65.3799 25.6858L65.9003 25.6182L67.1439 35.2815L66.6288 35.3491Z" fill="black"/>
<path d="M187.277 124.484L186.382 117.568C186.249 116.538 185.746 115.592 184.966 114.906C184.187 114.221 183.184 113.842 182.146 113.842H159.094C158.057 113.842 157.056 113.464 156.277 112.779C155.498 112.094 154.996 111.15 154.863 110.121L150.076 73.0291C149.999 72.4274 150.051 71.8162 150.229 71.2363C150.406 70.6563 150.705 70.1209 151.106 69.6655C151.507 69.2101 152 68.8453 152.553 68.5953C153.105 68.3454 153.705 68.2159 154.311 68.2156H175.158C175.765 68.2154 176.365 68.0859 176.918 67.8356C177.471 67.5853 177.964 67.22 178.365 66.764C178.766 66.3081 179.065 65.7719 179.242 65.1913C179.419 64.6108 179.471 63.999 179.393 63.397L178.472 56.476C178.341 55.4473 177.838 54.5018 177.059 53.8169C176.281 53.132 175.279 52.7545 174.242 52.7553H151.189C150.151 52.755 149.148 52.3766 148.369 51.6909C147.589 51.0053 147.086 50.0592 146.953 49.0295L142.525 14.6849C142.392 13.6552 141.889 12.7091 141.109 12.0234C140.33 11.3377 139.327 10.9593 138.289 10.959H131.441C130.834 10.9592 130.234 11.0887 129.681 11.339C129.128 11.5893 128.634 11.9546 128.234 12.4106C127.833 12.8665 127.534 13.4027 127.356 13.9833C127.179 14.5638 127.128 15.1756 127.205 15.7776L131.368 47.9263C131.446 48.5284 131.394 49.1401 131.217 49.7207C131.04 50.3013 130.741 50.8374 130.34 51.2933C129.939 51.7493 129.446 52.1146 128.893 52.3649C128.339 52.6152 127.739 52.7447 127.132 52.7449H71.3172C70.2795 52.7476 69.2764 52.3726 68.495 51.6898C67.7136 51.0071 67.2074 50.0633 67.0709 49.0347L62.6425 14.6901C62.5098 13.6604 62.0066 12.7143 61.227 12.0286C60.4475 11.3429 59.4449 10.9645 58.4067 10.9642H51.569C50.9621 10.9643 50.3622 11.0938 49.8094 11.3442C49.2565 11.5945 48.7635 11.9599 48.3631 12.416C47.9627 12.872 47.6641 13.4083 47.4874 13.9888C47.3107 14.5694 47.2599 15.181 47.3384 15.7828L51.5014 47.9315C51.579 48.5336 51.5274 49.1453 51.3501 49.7259C51.1728 50.3064 50.8737 50.8426 50.4729 51.2985C50.0721 51.7545 49.5788 52.1198 49.0257 52.3701C48.4726 52.6204 47.8726 52.7499 47.2655 52.7501H26.4038C25.7969 52.7496 25.197 52.8785 24.6439 53.1282C24.0909 53.3779 23.5974 53.7427 23.1965 54.1983C22.7956 54.6538 22.4965 55.1896 22.3192 55.77C22.1418 56.3503 22.0902 56.9618 22.1679 57.5636L23.0578 64.4793C23.1906 65.509 23.6937 66.4551 24.4733 67.1408C25.2528 67.8265 26.2554 68.2049 27.2936 68.2052H50.3461C51.3839 68.2043 52.3864 68.5815 53.166 69.2663C53.9457 69.9512 54.4491 70.8967 54.582 71.9259L59.3642 109.034C59.4427 109.635 59.3919 110.247 59.2152 110.827C59.0384 111.407 58.7398 111.943 58.3393 112.399C57.9388 112.854 57.4457 113.219 56.8928 113.469C56.34 113.719 55.7402 113.848 55.1336 113.847H34.2874C33.6805 113.847 33.0807 113.977 32.5278 114.227C31.975 114.477 31.4819 114.843 31.0815 115.299C30.6811 115.755 30.3826 116.291 30.2059 116.872C30.0292 117.452 29.9783 118.064 30.0568 118.666L30.9466 125.582C31.0794 126.611 31.5826 127.557 32.3621 128.243C33.1417 128.929 34.1443 129.307 35.1825 129.307H58.2246C59.2617 129.307 60.2636 129.684 61.0424 130.369C61.8212 131.054 62.3235 131.999 62.4552 133.028L66.8888 167.373C67.0216 168.402 67.5247 169.348 68.3043 170.034C69.0838 170.72 70.0864 171.098 71.1246 171.099H77.9987C78.6058 171.098 79.2059 170.969 79.7589 170.718C80.312 170.468 80.8054 170.103 81.2062 169.647C81.607 169.191 81.906 168.655 82.0833 168.074C82.2606 167.494 82.3122 166.882 82.2346 166.28L78.0716 134.131C77.9939 133.529 78.0454 132.918 78.2228 132.338C78.4002 131.757 78.6993 131.221 79.1002 130.766C79.5011 130.31 79.9945 129.946 80.5476 129.696C81.1006 129.446 81.7006 129.317 82.3074 129.318H138.102C139.139 129.318 140.14 129.696 140.918 130.381C141.697 131.065 142.2 132.01 142.332 133.038L146.766 167.383C146.898 168.412 147.4 169.358 148.178 170.044C148.957 170.73 149.959 171.108 150.997 171.109H157.845C158.452 171.109 159.052 170.979 159.605 170.729C160.158 170.479 160.651 170.113 161.052 169.657C161.453 169.201 161.752 168.665 161.929 168.085C162.107 167.504 162.158 166.892 162.081 166.29L157.918 134.142C157.84 133.54 157.891 132.929 158.068 132.349C158.246 131.769 158.544 131.234 158.944 130.778C159.345 130.323 159.838 129.958 160.39 129.708C160.942 129.458 161.542 129.328 162.148 129.328H183C183.613 129.334 184.22 129.209 184.78 128.96C185.34 128.71 185.84 128.343 186.246 127.884C186.652 127.424 186.954 126.883 187.132 126.296C187.31 125.709 187.359 125.091 187.277 124.484ZM74.991 110.121L70.1931 73.0291C70.1163 72.4274 70.1685 71.8162 70.3462 71.2363C70.5239 70.6563 70.823 70.1209 71.2237 69.6655C71.6245 69.2101 72.1175 68.8453 72.6702 68.5953C73.2229 68.3454 73.8224 68.2159 74.429 68.2156H130.218C131.256 68.2158 132.257 68.5934 133.037 69.2781C133.816 69.9627 134.32 70.9076 134.454 71.9363L139.236 109.034C139.314 109.635 139.262 110.246 139.085 110.826C138.908 111.406 138.61 111.942 138.209 112.397C137.809 112.853 137.316 113.217 136.764 113.467C136.211 113.718 135.612 113.847 135.006 113.847H79.2008C78.1623 113.848 77.1591 113.47 76.3793 112.784C75.5996 112.098 75.0967 111.151 74.965 110.121H74.991Z" fill="#FA7387"/>
<path opacity="0.3" d="M187.277 124.484L186.382 117.568C186.249 116.538 185.746 115.592 184.966 114.906C184.187 114.221 183.184 113.842 182.146 113.842H159.094C158.057 113.842 157.056 113.464 156.277 112.779C155.498 112.094 154.996 111.15 154.863 110.121L150.076 73.0291C149.999 72.4274 150.051 71.8162 150.229 71.2363C150.406 70.6563 150.705 70.1209 151.106 69.6655C151.507 69.2101 152 68.8453 152.553 68.5953C153.105 68.3454 153.705 68.2159 154.311 68.2156H175.158C175.765 68.2154 176.365 68.0859 176.918 67.8356C177.471 67.5853 177.964 67.22 178.365 66.764C178.766 66.3081 179.065 65.7719 179.242 65.1913C179.419 64.6108 179.471 63.999 179.393 63.397L178.472 56.476C178.341 55.4473 177.838 54.5018 177.059 53.8169C176.281 53.132 175.279 52.7545 174.242 52.7553H151.189C150.151 52.755 149.148 52.3766 148.369 51.6909C147.589 51.0053 147.086 50.0592 146.953 49.0295L142.525 14.6849C142.392 13.6552 141.889 12.7091 141.109 12.0234C140.33 11.3377 139.327 10.9593 138.289 10.959H131.441C130.834 10.9592 130.234 11.0887 129.681 11.339C129.128 11.5893 128.634 11.9546 128.234 12.4106C127.833 12.8665 127.534 13.4027 127.356 13.9833C127.179 14.5638 127.128 15.1756 127.205 15.7776L131.368 47.9263C131.446 48.5284 131.394 49.1401 131.217 49.7207C131.04 50.3013 130.741 50.8374 130.34 51.2933C129.939 51.7493 129.446 52.1146 128.893 52.3649C128.339 52.6152 127.739 52.7447 127.132 52.7449H71.3172C70.2795 52.7476 69.2764 52.3726 68.495 51.6898C67.7136 51.0071 67.2074 50.0633 67.0709 49.0347L62.6425 14.6901C62.5098 13.6604 62.0066 12.7143 61.227 12.0286C60.4475 11.3429 59.4449 10.9645 58.4067 10.9642H51.569C50.9621 10.9643 50.3622 11.0938 49.8094 11.3442C49.2565 11.5945 48.7635 11.9599 48.3631 12.416C47.9627 12.872 47.6641 13.4083 47.4874 13.9888C47.3107 14.5694 47.2599 15.181 47.3384 15.7828L51.5014 47.9315C51.579 48.5336 51.5274 49.1453 51.3501 49.7259C51.1728 50.3064 50.8737 50.8426 50.4729 51.2985C50.0721 51.7545 49.5788 52.1198 49.0257 52.3701C48.4726 52.6204 47.8726 52.7499 47.2655 52.7501H26.4038C25.7969 52.7496 25.197 52.8785 24.6439 53.1282C24.0909 53.3779 23.5974 53.7427 23.1965 54.1983C22.7956 54.6538 22.4965 55.1896 22.3192 55.77C22.1418 56.3503 22.0902 56.9618 22.1679 57.5636L23.0578 64.4793C23.1906 65.509 23.6937 66.4551 24.4733 67.1408C25.2528 67.8265 26.2554 68.2049 27.2936 68.2052H50.3461C51.3839 68.2043 52.3864 68.5815 53.166 69.2663C53.9457 69.9512 54.4491 70.8967 54.582 71.9259L59.3642 109.034C59.4427 109.635 59.3919 110.247 59.2152 110.827C59.0384 111.407 58.7398 111.943 58.3393 112.399C57.9388 112.854 57.4457 113.219 56.8928 113.469C56.34 113.719 55.7402 113.848 55.1336 113.847H34.2874C33.6805 113.847 33.0807 113.977 32.5278 114.227C31.975 114.477 31.4819 114.843 31.0815 115.299C30.6811 115.755 30.3826 116.291 30.2059 116.872C30.0292 117.452 29.9783 118.064 30.0568 118.666L30.9466 125.582C31.0794 126.611 31.5826 127.557 32.3621 128.243C33.1417 128.929 34.1443 129.307 35.1825 129.307H58.2246C59.2617 129.307 60.2636 129.684 61.0424 130.369C61.8212 131.054 62.3235 131.999 62.4552 133.028L66.8888 167.373C67.0216 168.402 67.5247 169.348 68.3043 170.034C69.0838 170.72 70.0864 171.098 71.1246 171.099H77.9987C78.6058 171.098 79.2059 170.969 79.7589 170.718C80.312 170.468 80.8054 170.103 81.2062 169.647C81.607 169.191 81.906 168.655 82.0833 168.074C82.2606 167.494 82.3122 166.882 82.2346 166.28L78.0716 134.131C77.9939 133.529 78.0454 132.918 78.2228 132.338C78.4002 131.757 78.6993 131.221 79.1002 130.766C79.5011 130.31 79.9945 129.946 80.5476 129.696C81.1006 129.446 81.7006 129.317 82.3074 129.318H138.102C139.139 129.318 140.14 129.696 140.918 130.381C141.697 131.065 142.2 132.01 142.332 133.038L146.766 167.383C146.898 168.412 147.4 169.358 148.178 170.044C148.957 170.73 149.959 171.108 150.997 171.109H157.845C158.452 171.109 159.052 170.979 159.605 170.729C160.158 170.479 160.651 170.113 161.052 169.657C161.453 169.201 161.752 168.665 161.929 168.085C162.107 167.504 162.158 166.892 162.081 166.29L157.918 134.142C157.84 133.54 157.891 132.929 158.068 132.349C158.246 131.769 158.544 131.234 158.944 130.778C159.345 130.323 159.838 129.958 160.39 129.708C160.942 129.458 161.542 129.328 162.148 129.328H183C183.613 129.334 184.22 129.209 184.78 128.96C185.34 128.71 185.84 128.343 186.246 127.884C186.652 127.424 186.954 126.883 187.132 126.296C187.31 125.709 187.359 125.091 187.277 124.484ZM74.991 110.121L70.1931 73.0291C70.1163 72.4274 70.1685 71.8162 70.3462 71.2363C70.5239 70.6563 70.823 70.1209 71.2237 69.6655C71.6245 69.2101 72.1175 68.8453 72.6702 68.5953C73.2229 68.3454 73.8224 68.2159 74.429 68.2156H130.218C131.256 68.2158 132.257 68.5934 133.037 69.2781C133.816 69.9627 134.32 70.9076 134.454 71.9363L139.236 109.034C139.314 109.635 139.262 110.246 139.085 110.826C138.908 111.406 138.61 111.942 138.209 112.397C137.809 112.853 137.316 113.217 136.764 113.467C136.211 113.718 135.612 113.847 135.006 113.847H79.2008C78.1623 113.848 77.1591 113.47 76.3793 112.784C75.5996 112.098 75.0967 111.151 74.965 110.121H74.991Z" fill="black"/>
<path d="M157.845 169.584H150.997C150.323 169.583 149.672 169.337 149.167 168.892C148.661 168.447 148.335 167.833 148.249 167.165L143.815 132.82C143.634 131.43 142.953 130.154 141.9 129.229C140.846 128.304 139.493 127.794 138.091 127.793H82.297C81.4769 127.792 80.6661 127.966 79.9187 128.304C79.1713 128.641 78.5044 129.134 77.9626 129.75C77.4209 130.366 77.0167 131.09 76.777 131.874C76.5374 132.658 76.4678 133.484 76.5729 134.298L80.7359 166.446C80.7862 166.837 80.7526 167.234 80.6372 167.611C80.5218 167.988 80.3273 168.336 80.0667 168.631C79.8061 168.927 79.4855 169.163 79.1261 169.325C78.7668 169.487 78.3771 169.57 77.9831 169.569H71.1298C70.4551 169.569 69.8035 169.324 69.2968 168.878C68.7901 168.433 68.4631 167.818 68.377 167.149L63.9486 132.804C63.7647 131.415 63.0831 130.141 62.0305 129.216C60.9778 128.292 59.6255 127.781 58.2245 127.778H35.172C34.498 127.776 33.8475 127.53 33.3413 127.085C32.835 126.64 32.5074 126.026 32.4192 125.358L31.5294 118.442C31.4791 118.052 31.5126 117.655 31.6277 117.279C31.7428 116.902 31.9368 116.555 32.1968 116.259C32.4568 115.964 32.7769 115.727 33.1356 115.565C33.4943 115.403 33.8834 115.32 34.277 115.32H55.1283C55.9481 115.32 56.7585 115.145 57.5055 114.807C58.2525 114.47 58.919 113.977 59.4606 113.361C60.0022 112.746 60.4065 112.022 60.6464 111.238C60.8864 110.454 60.9566 109.628 60.8524 108.815L56.065 71.7282C55.8833 70.3379 55.2025 69.0611 54.1495 68.1354C53.0965 67.2097 51.7429 66.6982 50.3409 66.6962H27.2884C26.6154 66.6955 25.9657 66.4502 25.4602 66.006C24.9547 65.5618 24.6279 64.9489 24.5408 64.2816L23.6458 57.3607C23.5954 56.9699 23.629 56.5728 23.7444 56.1961C23.8598 55.8193 24.0543 55.4715 24.3149 55.176C24.5755 54.8804 24.8961 54.6439 25.2555 54.4822C25.6148 54.3205 26.0045 54.2374 26.3985 54.2384H47.2447C48.0647 54.2393 48.8755 54.0652 49.623 53.7277C50.3704 53.3903 51.0372 52.8973 51.579 52.2817C52.1207 51.6661 52.5249 50.942 52.7646 50.1577C53.0043 49.3734 53.0739 48.5471 52.9688 47.7338L48.8058 15.5851C48.7555 15.1948 48.789 14.7982 48.9041 14.4218C49.0192 14.0454 49.2132 13.6979 49.4732 13.4024C49.7332 13.1069 50.0532 12.8703 50.4119 12.7083C50.7706 12.5463 51.1598 12.4626 51.5533 12.4629H58.4015C59.0755 12.4647 59.726 12.7109 60.2322 13.1559C60.7384 13.6009 61.066 14.2144 61.1542 14.8826L65.5826 49.2272C65.7655 50.6165 66.4467 51.8921 67.4996 52.8167C68.5525 53.7414 69.9054 54.2522 71.3067 54.254H127.122C127.942 54.2549 128.753 54.0808 129.5 53.7434C130.248 53.4059 130.914 52.9129 131.456 52.2973C131.998 51.6817 132.402 50.9576 132.642 50.1733C132.881 49.389 132.951 48.5627 132.846 47.7494L128.683 15.6007C128.633 15.2104 128.666 14.8138 128.781 14.4374C128.896 14.061 129.09 13.7135 129.35 13.418C129.61 13.1225 129.93 12.8859 130.289 12.7239C130.648 12.5619 131.037 12.4782 131.431 12.4785H138.279C138.952 12.4814 139.602 12.728 140.108 13.1728C140.614 13.6176 140.942 14.2305 141.031 14.8982L145.46 49.2429C145.642 50.6326 146.323 51.9088 147.376 52.8337C148.429 53.7585 149.782 54.2689 151.184 54.2696H174.268C174.941 54.2716 175.591 54.518 176.096 54.9631C176.602 55.4081 176.928 56.0216 177.015 56.6894L177.91 63.5895C177.961 63.9803 177.927 64.3774 177.812 64.7541C177.696 65.1309 177.502 65.4787 177.241 65.7742C176.981 66.0698 176.66 66.3063 176.301 66.468C175.941 66.6297 175.552 66.7128 175.158 66.7118H154.285C153.466 66.7118 152.655 66.8864 151.908 67.2241C151.161 67.5618 150.495 68.0548 149.953 68.6703C149.411 69.2857 149.007 70.0095 148.767 70.7934C148.527 71.5772 148.457 72.4033 148.561 73.2164L153.349 110.309C153.531 111.698 154.211 112.975 155.265 113.899C156.318 114.824 157.671 115.335 159.073 115.335H182.125C182.8 115.336 183.451 115.582 183.957 116.027C184.464 116.472 184.791 117.086 184.878 117.755L185.768 124.671C185.818 125.061 185.785 125.458 185.67 125.834C185.555 126.211 185.361 126.558 185.101 126.854C184.84 127.149 184.52 127.386 184.162 127.548C183.803 127.71 183.414 127.793 183.02 127.793H162.169C161.348 127.791 160.537 127.964 159.789 128.3C159.04 128.637 158.373 129.13 157.831 129.746C157.289 130.362 156.884 131.087 156.645 131.872C156.406 132.657 156.338 133.484 156.445 134.298L160.608 166.446C160.657 166.837 160.622 167.233 160.506 167.609C160.39 167.985 160.195 168.332 159.935 168.628C159.675 168.923 159.355 169.159 158.996 169.322C158.638 169.484 158.249 169.568 157.855 169.569L157.845 169.584ZM82.297 127.673H138.102C139.534 127.677 140.915 128.2 141.99 129.145C143.065 130.091 143.76 131.395 143.946 132.815L148.379 167.159C148.461 167.793 148.769 168.376 149.248 168.8C149.726 169.224 150.342 169.46 150.981 169.465H157.829C158.203 169.463 158.573 169.381 158.913 169.225C159.254 169.069 159.557 168.843 159.803 168.561C160.049 168.279 160.232 167.948 160.341 167.59C160.449 167.231 160.48 166.854 160.431 166.483L156.268 134.334C156.161 133.503 156.232 132.658 156.477 131.857C156.722 131.055 157.135 130.315 157.688 129.686C158.242 129.057 158.923 128.553 159.687 128.207C160.45 127.862 161.279 127.684 162.117 127.684H182.963C183.337 127.682 183.707 127.6 184.047 127.444C184.388 127.289 184.691 127.062 184.937 126.78C185.183 126.498 185.366 126.167 185.475 125.809C185.583 125.45 185.614 125.073 185.565 124.702L184.67 117.786C184.588 117.153 184.28 116.57 183.801 116.146C183.323 115.722 182.707 115.486 182.068 115.481H159.016C157.584 115.477 156.203 114.953 155.128 114.008C154.053 113.062 153.358 111.759 153.172 110.34L148.384 73.2477C148.277 72.4164 148.348 71.5719 148.593 70.7704C148.838 69.9689 149.251 69.2287 149.804 68.5994C150.358 67.9701 151.039 67.466 151.803 67.1207C152.567 66.7755 153.395 66.597 154.233 66.5973H175.079C175.454 66.5953 175.823 66.5137 176.164 66.3579C176.504 66.2021 176.807 65.9757 177.053 65.6937C177.299 65.4116 177.483 65.0805 177.591 64.7222C177.699 64.3639 177.73 63.9867 177.681 63.6156L176.87 56.6894C176.786 56.0564 176.476 55.4749 175.999 55.0515C175.521 54.6281 174.906 54.3911 174.268 54.3841H151.215C149.783 54.3812 148.4 53.8583 147.324 52.9127C146.249 51.9671 145.553 50.663 145.366 49.2429L140.938 14.8982C140.855 14.2648 140.546 13.6827 140.068 13.2591C139.59 12.8354 138.975 12.5989 138.336 12.593H131.441C131.067 12.5958 130.698 12.678 130.358 12.834C130.018 12.9901 129.715 13.2165 129.469 13.4984C129.223 13.7802 129.04 14.111 128.931 14.4689C128.823 14.8269 128.791 15.2038 128.839 15.5747L133.002 47.7234C133.113 48.5588 133.043 49.4083 132.798 50.2145C132.553 51.0208 132.138 51.7651 131.58 52.3973C131.023 53.0296 130.337 53.535 129.568 53.8795C128.799 54.224 127.965 54.3996 127.122 54.3945H71.3171C69.8848 54.3916 68.5022 53.8687 67.4264 52.9231C66.3506 51.9775 65.6547 50.6734 65.4681 49.2533L61.0397 14.9086C60.9569 14.2752 60.648 13.6931 60.1699 13.2695C59.6918 12.8459 59.0766 12.6093 58.4379 12.6034H51.569C51.1947 12.6054 50.8251 12.687 50.4848 12.8428C50.1444 12.9986 49.8411 13.225 49.5951 13.507C49.349 13.789 49.1657 14.1202 49.0574 14.4785C48.9492 14.8368 48.9184 15.214 48.9671 15.5851L53.1301 47.7338C53.2393 48.5684 53.1685 49.4167 52.9226 50.2217C52.6766 51.0267 52.2611 51.7697 51.704 52.4008C51.1469 53.0318 50.4612 53.5362 49.6929 53.8801C48.9246 54.224 48.0916 54.3994 47.2499 54.3945H26.4037C26.0297 54.3974 25.6605 54.4795 25.3206 54.6356C24.9807 54.7917 24.6777 55.0181 24.4318 55.2999C24.1859 55.5817 24.0026 55.9126 23.894 56.2705C23.7854 56.6284 23.754 57.0053 23.8019 57.3763L24.6709 64.2816C24.7537 64.915 25.0626 65.4972 25.5407 65.9208C26.0189 66.3444 26.634 66.581 27.2728 66.5869H50.3253C51.7576 66.5898 53.1402 67.1127 54.216 68.0583C55.2918 69.004 55.9877 70.308 56.1743 71.7282L60.9565 108.82C61.0646 109.651 60.9941 110.496 60.7499 111.297C60.5056 112.099 60.0931 112.839 59.54 113.468C58.9869 114.098 58.3059 114.602 57.5424 114.947C56.779 115.293 55.9506 115.471 55.1127 115.471H34.2874C33.9131 115.473 33.5435 115.554 33.2032 115.71C32.8628 115.866 32.5596 116.092 32.3135 116.374C32.0674 116.656 31.8841 116.988 31.7758 117.346C31.6676 117.704 31.6368 118.081 31.6855 118.452L32.5754 125.368C32.6582 126.002 32.9671 126.584 33.4452 127.007C33.9233 127.431 34.5384 127.668 35.1772 127.673H58.2245C59.6563 127.677 61.0382 128.2 62.1131 129.145C63.1881 130.091 63.8829 131.395 64.0683 132.815L68.5019 167.159C68.5836 167.793 68.8923 168.376 69.3706 168.8C69.849 169.224 70.4647 169.46 71.1038 169.465H77.9987C78.373 169.463 78.7426 169.381 79.0829 169.225C79.4232 169.069 79.7265 168.843 79.9726 168.561C80.2187 168.279 80.402 167.948 80.5102 167.59C80.6185 167.231 80.6493 166.854 80.6006 166.483L76.4376 134.334C76.3303 133.503 76.4015 132.658 76.6464 131.857C76.8913 131.055 77.3042 130.315 77.8577 129.686C78.4112 129.057 79.0926 128.553 79.8562 128.207C80.6199 127.862 81.4485 127.684 82.2866 127.684L82.297 127.673ZM135.006 115.471H79.2008C77.7684 115.468 76.3859 114.945 75.3101 113.999C74.2342 113.054 73.5384 111.75 73.3518 110.329L68.5643 73.2372C68.4571 72.406 68.5283 71.5615 68.7732 70.76C69.018 69.9584 69.431 69.2183 69.9845 68.589C70.538 67.9597 71.2193 67.4556 71.983 67.1103C72.7467 66.7651 73.5752 66.5866 74.4133 66.5869H130.218C131.65 66.5898 133.033 67.1127 134.109 68.0583C135.185 69.004 135.88 70.308 136.067 71.7282L140.849 108.82C140.957 109.651 140.885 110.495 140.641 111.296C140.396 112.098 139.984 112.837 139.431 113.467C138.878 114.096 138.197 114.6 137.434 114.946C136.671 115.291 135.843 115.47 135.006 115.471ZM74.4133 66.717C73.5935 66.717 72.7831 66.8916 72.0361 67.2293C71.2891 67.567 70.6226 68.06 70.081 68.6755C69.5394 69.2909 69.1352 70.0147 68.8952 70.7986C68.6552 71.5825 68.585 72.4085 68.6892 73.2216L73.4767 110.314C73.6595 111.703 74.3408 112.979 75.3937 113.903C76.4466 114.828 77.7995 115.339 79.2008 115.341H135.006C135.826 115.341 136.636 115.167 137.384 114.83C138.131 114.493 138.798 114 139.34 113.384C139.882 112.768 140.286 112.044 140.525 111.26C140.765 110.476 140.835 109.649 140.73 108.836L135.947 71.749C135.766 70.3587 135.085 69.0819 134.032 68.1562C132.979 67.2305 131.625 66.719 130.223 66.717H74.4133Z" fill="#FA7387"/>
<path d="M114.382 149.54L118.467 151.928L124.634 142.832L120.549 140.438L114.382 149.54Z" fill="#E4897B"/>
<path d="M118.613 151.793L115.256 147.666C115.2 147.594 115.119 147.545 115.029 147.529C114.939 147.513 114.846 147.53 114.767 147.578L111.125 149.763C111.035 149.822 110.958 149.898 110.9 149.988C110.841 150.078 110.802 150.18 110.786 150.286C110.769 150.392 110.775 150.5 110.803 150.604C110.831 150.707 110.88 150.804 110.948 150.887C112.145 152.302 112.795 152.927 114.273 154.743C115.178 155.862 116.942 158.266 118.202 159.806C119.461 161.347 121.048 160.186 120.663 159.432C118.935 156.049 118.868 154.228 118.894 152.589C118.898 152.298 118.798 152.016 118.613 151.793Z" fill="#263238"/>
<path d="M120.149 154.379H120.05C119.384 154.275 118.676 153.11 118.317 152.428C118.309 152.414 118.306 152.397 118.308 152.381C118.31 152.365 118.317 152.35 118.328 152.338C118.339 152.326 118.353 152.318 118.369 152.314C118.385 152.311 118.401 152.312 118.416 152.319C118.635 152.412 120.56 153.261 120.68 153.88C120.69 153.936 120.686 153.993 120.667 154.047C120.649 154.101 120.618 154.149 120.576 154.187C120.521 154.246 120.455 154.294 120.382 154.327C120.309 154.36 120.229 154.378 120.149 154.379ZM118.588 152.548C119.134 153.531 119.696 154.15 120.097 154.213C120.168 154.225 120.241 154.219 120.309 154.196C120.378 154.172 120.439 154.131 120.487 154.077C120.509 154.056 120.526 154.03 120.536 154.001C120.546 153.972 120.549 153.941 120.544 153.911C120.445 153.495 119.233 152.855 118.588 152.548Z" fill="#FA7387"/>
<path d="M119.92 152.745C119.384 152.741 118.854 152.633 118.359 152.428C118.347 152.423 118.336 152.414 118.329 152.403C118.321 152.392 118.317 152.379 118.317 152.365C118.315 152.352 118.317 152.337 118.322 152.324C118.328 152.311 118.337 152.3 118.349 152.293C118.396 152.261 119.447 151.548 120.191 151.694C120.297 151.714 120.397 151.755 120.487 151.815C120.576 151.875 120.653 151.953 120.711 152.043C120.872 152.287 120.81 152.443 120.711 152.527C120.485 152.698 120.202 152.776 119.92 152.745ZM118.552 152.345C119.192 152.6 120.368 152.688 120.607 152.423C120.607 152.397 120.696 152.324 120.565 152.131C120.52 152.058 120.459 151.995 120.387 151.947C120.315 151.898 120.234 151.865 120.149 151.85C119.576 151.853 119.018 152.033 118.552 152.365V152.345Z" fill="#FA7387"/>
<path d="M107.971 77.8792L108.169 78.6701L108.393 79.5235C108.544 80.0959 108.716 80.6736 108.887 81.2512C109.234 82.4064 109.6 83.5599 109.985 84.7116C110.391 85.8565 110.782 87.0117 111.224 88.1513C111.437 88.7185 111.651 89.2961 111.874 89.8633L112.14 90.545C112.195 90.6625 112.265 90.7727 112.348 90.8729C112.997 91.526 113.785 92.0241 114.653 92.3299C115.718 92.7628 116.816 93.1108 117.937 93.3706C119.092 93.6412 120.278 93.865 121.48 94.0523C122.682 94.2397 123.916 94.3854 125.123 94.5155L125.165 96.9664C122.57 97.2363 119.954 97.2363 117.359 96.9664C116.001 96.8301 114.658 96.5706 113.347 96.1911C112.631 95.9782 111.935 95.7049 111.265 95.3741C110.498 95.003 109.795 94.511 109.184 93.917C108.83 93.5649 108.524 93.1678 108.273 92.7358C108.203 92.6231 108.139 92.5067 108.081 92.3871L107.961 92.1426L107.753 91.7107C107.472 91.133 107.191 90.5554 106.931 89.9674C106.41 88.7914 105.89 87.6101 105.432 86.4029C104.974 85.1956 104.532 83.9779 104.136 82.7602C103.944 82.1358 103.762 81.5061 103.616 80.8713L103.366 79.9034C103.293 79.5652 103.226 79.2737 103.153 78.8627L107.971 77.8792Z" fill="#E4897B"/>
<path d="M106.427 72.7221C108.378 73.2164 109.746 81.251 109.746 81.251L104.366 84.8936C104.366 84.8936 99.2089 76.7914 100.723 74.6422C102.274 72.4254 103.58 71.9935 106.427 72.7221Z" fill="#FA7387"/>
<path opacity="0.2" d="M106.427 72.7221C108.378 73.2164 109.746 81.251 109.746 81.251L104.366 84.8936C104.366 84.8936 99.2089 76.7914 100.723 74.6422C102.274 72.4254 103.58 71.9935 106.427 72.7221Z" fill="black"/>
<path d="M106.619 75.6414L102.456 76.6093L102.055 80.6942C102.764 82.138 103.545 83.5449 104.397 84.9092L107.66 82.6924C107.488 80.8139 107.139 76.9111 106.619 75.6414Z" fill="#FA7387"/>
<path opacity="0.3" d="M106.619 75.6414L102.456 76.6093L102.055 80.6942C102.764 82.138 103.545 83.5449 104.397 84.9092L107.66 82.6924C107.488 80.8139 107.139 76.9111 106.619 75.6414Z" fill="black"/>
<path d="M124.405 94.4633L127.761 91.0601L128.204 95.8527C128.204 95.8527 125.685 97.5595 123.942 96.6437L124.405 94.4633Z" fill="#E4897B"/>
<path d="M131.711 90.5454L131.862 94.5835L128.204 95.848L127.761 91.0554L131.711 90.5454Z" fill="#E4897B"/>
<path d="M107.644 158.901H112.379L113.904 147.932H109.164L107.644 158.901Z" fill="#E4897B"/>
<path d="M112.692 157.486L108.009 154.983C107.929 154.939 107.835 154.926 107.746 154.946C107.657 154.966 107.578 155.018 107.525 155.092L105.011 158.521C104.952 158.61 104.911 158.711 104.892 158.816C104.874 158.922 104.878 159.03 104.904 159.134C104.93 159.238 104.977 159.336 105.043 159.42C105.109 159.505 105.193 159.574 105.287 159.625C106.937 160.468 107.78 160.79 109.846 161.888C111.115 162.565 114.3 164.433 116.059 165.37C117.818 166.306 118.827 164.615 118.182 164.069C115.284 161.623 113.879 159.63 113.27 158.116C113.16 157.843 112.955 157.619 112.692 157.486Z" fill="#263238"/>
<path d="M86.558 54.2228C86.4383 59.4266 80.069 57.2774 79.3561 63.2721C78.9554 66.6389 74.8757 66.9876 74.1523 70.037C73.4446 72.9875 76.3223 75.1314 74.1523 78.8053C71.2487 83.7228 69.6251 92.2985 85.918 93.1884C98.0323 93.8492 102.294 81.5424 100.239 73.9814C98.1832 66.4204 97.0383 65.2547 99.2916 63.1733C101.545 61.0918 105.156 60.051 104.001 53.6921C103.106 48.7745 100.931 49.3522 100.931 49.3522C100.821 46.6358 86.8442 42.6446 86.558 54.2228Z" fill="#263238"/>
<path d="M124.635 142.832L121.455 147.52L117.365 145.132L120.545 140.438L124.635 142.832Z" fill="#CE6F64"/>
<path d="M109.163 147.937H113.904L113.113 153.588H108.377L109.163 147.937Z" fill="#CE6F64"/>
<path d="M106.426 72.7225C106.426 72.7225 108.684 73.5187 104.162 101.307H84.9083C85.2309 93.501 85.2361 88.6511 81.4946 72.582C84.1884 72.0277 86.9189 71.6694 89.6645 71.51C92.5731 71.3017 95.4929 71.3017 98.4015 71.51C102.169 71.8535 106.426 72.7225 106.426 72.7225Z" fill="#FA7387"/>
<path opacity="0.2" d="M106.426 72.7225C106.426 72.7225 108.684 73.5187 104.162 101.307H84.9083C85.2309 93.501 85.2361 88.6511 81.4946 72.582C84.1884 72.0277 86.9189 71.6694 89.6645 71.51C92.5731 71.3017 95.4929 71.3017 98.4015 71.51C102.169 71.8535 106.426 72.7225 106.426 72.7225Z" fill="black"/>
<path d="M90.5489 61.6797C91.1005 64.4897 91.6521 69.6362 89.6851 71.5147C89.6851 71.5147 90.4552 74.3664 95.6745 74.3664C100.701 74.3664 98.4221 71.5147 98.4221 71.5147C95.2999 70.7654 95.3675 68.4393 95.9139 66.2538L90.5489 61.6797Z" fill="#E4897B"/>
<path d="M92.7358 63.5425L95.9101 66.2484C95.7761 66.76 95.6873 67.2824 95.6447 67.8095C94.4427 67.6378 92.7983 66.3213 92.6734 65.0672C92.6031 64.5593 92.6243 64.0429 92.7358 63.5425Z" fill="#CE6F64"/>
<path d="M90.2214 54.27C89.7011 58.9533 89.3472 60.8995 91.2622 63.6887C94.1346 67.8829 99.9888 67.5291 101.914 63.1163C103.647 59.1459 104.245 52.1885 100.051 49.5294C99.1297 48.9403 98.0727 48.5967 96.9808 48.5314C95.889 48.4662 94.7986 48.6813 93.8134 49.1565C92.8282 49.6316 91.9809 50.3509 91.3522 51.246C90.7235 52.141 90.3342 53.182 90.2214 54.27Z" fill="#E4897B"/>
<path d="M90.1956 57.0276C90.8565 58.2557 100.973 52.6617 99.8225 49.6592C98.6725 46.6566 95.6595 47.7442 95.6595 47.7442C95.6595 47.7442 90.3153 48.9619 89.4151 51.7354C88.5148 54.509 90.1956 57.0276 90.1956 57.0276Z" fill="#263238"/>
<path d="M88.2494 57.5637C88.3432 58.465 88.7767 59.2968 89.4618 59.8898C90.3777 60.6652 91.2884 59.9731 91.4132 58.8491C91.5277 57.8447 91.1895 56.2472 90.0915 55.8829C88.9935 55.5187 88.1453 56.4762 88.2494 57.5637Z" fill="#E4897B"/>
<path d="M104.163 101.306C104.163 101.306 134.105 104.189 133.793 118.629C133.47 133.653 122.683 147.182 122.683 147.182L117.026 143.982C117.026 143.982 123.271 130.759 122.948 121.752C122.688 114.05 93.9737 112.572 93.9737 112.572L90.0137 101.306H104.163Z" fill="#FA7387"/>
<path opacity="0.6" d="M104.163 101.306C104.163 101.306 134.105 104.189 133.793 118.629C133.47 133.653 122.683 147.182 122.683 147.182L117.026 143.982C117.026 143.982 123.271 130.759 122.948 121.752C122.688 114.05 93.9737 112.572 93.9737 112.572L90.0137 101.306H104.163Z" fill="#FAFAFA"/>
<path d="M114.596 109.773L115.2 115.913C119.389 117.225 122.61 119.036 122.927 121.461C123.635 116.028 119.847 112.817 114.596 109.773Z" fill="#FA7387"/>
<path opacity="0.4" d="M114.596 109.773L115.2 115.913C119.389 117.225 122.61 119.036 122.927 121.461C123.635 116.028 119.847 112.817 114.596 109.773Z" fill="#FAFAFA"/>
<path d="M99.0843 101.306C99.0843 101.306 119.629 108.113 120.149 116.537C121.106 132.05 114.284 152.495 114.284 152.495H107.801C107.801 152.495 108.165 138.929 108.94 124.874C109.908 107.218 78.7586 124.629 84.9302 101.306H99.0843Z" fill="#FA7387"/>
<path opacity="0.6" d="M99.0843 101.306C99.0843 101.306 119.629 108.113 120.149 116.537C121.106 132.05 114.284 152.495 114.284 152.495H107.801C107.801 152.495 108.165 138.929 108.94 124.874C109.908 107.218 78.7586 124.629 84.9302 101.306H99.0843Z" fill="#FAFAFA"/>
<path d="M96.997 56.814C96.9294 57.1886 97.0751 57.5269 97.3197 57.5737C97.5643 57.6206 97.8401 57.3448 97.8869 56.9701C97.9337 56.5954 97.8088 56.252 97.5643 56.2104C97.3197 56.1687 97.0647 56.4341 96.997 56.814Z" fill="#263238"/>
<path d="M101.243 57.574C101.181 57.9487 101.321 58.2869 101.571 58.3337C101.821 58.3806 102.091 58.11 102.138 57.7301C102.185 57.3502 102.06 57.0172 101.81 56.9704C101.561 56.9235 101.311 57.1941 101.243 57.574Z" fill="#263238"/>
<path d="M101.702 56.9963L102.649 56.8975C102.649 56.8975 102.061 57.5167 101.702 56.9963Z" fill="#263238"/>
<path d="M100.005 58.0374C100.183 58.9406 100.483 59.8157 100.894 60.6392C100.677 60.7388 100.441 60.7904 100.202 60.7904C99.9635 60.7904 99.7274 60.7388 99.5103 60.6392L100.005 58.0374Z" fill="#DE5753"/>
<path d="M97.3663 61.6488H97.3351C96.5788 61.2932 95.9869 60.6622 95.6803 59.8847C95.6771 59.8759 95.6758 59.8664 95.6764 59.857C95.6771 59.8476 95.6797 59.8385 95.6841 59.8301C95.6885 59.8218 95.6946 59.8145 95.702 59.8087C95.7094 59.8028 95.718 59.7986 95.7271 59.7963C95.7356 59.793 95.7447 59.7915 95.7539 59.7918C95.763 59.7921 95.772 59.7943 95.7802 59.7982C95.7885 59.8021 95.7959 59.8076 95.802 59.8144C95.808 59.8212 95.8127 59.8292 95.8156 59.8379C96.1091 60.5726 96.6656 61.1718 97.3767 61.5187C97.3936 61.5267 97.4069 61.5408 97.4136 61.5582C97.4204 61.5757 97.4202 61.5951 97.4131 61.6124C97.4083 61.6214 97.4016 61.6293 97.3936 61.6356C97.3855 61.6418 97.3762 61.6464 97.3663 61.6488Z" fill="#263238"/>
<path d="M96.5236 55.1283C96.5034 55.1283 96.4835 55.1236 96.4655 55.1145C96.4474 55.1055 96.4317 55.0924 96.4196 55.0762C96.4053 55.064 96.3938 55.0489 96.386 55.0318C96.3781 55.0147 96.374 54.9962 96.374 54.9774C96.374 54.9586 96.3781 54.94 96.386 54.9229C96.3938 54.9059 96.4053 54.8907 96.4196 54.8785C96.671 54.6471 96.9741 54.4791 97.3035 54.3886C97.633 54.2981 97.9794 54.2876 98.3137 54.3581C98.3503 54.3678 98.3815 54.3916 98.4006 54.4243C98.4196 54.457 98.4249 54.4959 98.4152 54.5324C98.4055 54.569 98.3817 54.6003 98.349 54.6193C98.3164 54.6383 98.2774 54.6436 98.2409 54.6339C97.9505 54.5761 97.6505 54.589 97.3661 54.6714C97.0818 54.7538 96.8214 54.9034 96.6069 55.1075C96.5817 55.1223 96.5528 55.1295 96.5236 55.1283Z" fill="#263238"/>
<path d="M103.564 55.8832C103.536 55.8813 103.51 55.8721 103.487 55.8566C103.464 55.841 103.446 55.8197 103.434 55.7948C103.323 55.5215 103.15 55.2782 102.927 55.0847C102.705 54.8912 102.44 54.7529 102.154 54.6812C102.116 54.6748 102.082 54.6537 102.06 54.6225C102.037 54.5913 102.028 54.5526 102.034 54.5146C102.042 54.4777 102.063 54.4452 102.094 54.4238C102.125 54.4025 102.163 54.394 102.201 54.4001C102.534 54.4772 102.844 54.6339 103.104 54.8568C103.365 55.0797 103.567 55.3622 103.694 55.6803C103.703 55.6972 103.707 55.7157 103.708 55.7347C103.709 55.7536 103.706 55.7725 103.699 55.7901C103.692 55.8078 103.682 55.8238 103.668 55.8372C103.655 55.8505 103.639 55.8609 103.621 55.8676C103.604 55.8783 103.584 55.8837 103.564 55.8832Z" fill="#263238"/>
<path d="M114.466 159.171C113.909 159.171 113.154 158.589 112.733 158.214C112.72 158.205 112.711 158.192 112.706 158.177C112.701 158.162 112.702 158.145 112.707 158.131C112.712 158.116 112.72 158.102 112.732 158.092C112.744 158.082 112.759 158.076 112.774 158.073C112.967 158.073 114.658 157.917 115.012 158.38C115.05 158.429 115.074 158.487 115.083 158.548C115.091 158.61 115.083 158.672 115.059 158.729C115.03 158.829 114.976 158.921 114.903 158.994C114.829 159.068 114.738 159.122 114.637 159.151C114.581 159.163 114.523 159.17 114.466 159.171ZM112.977 158.219C113.664 158.792 114.257 159.083 114.596 158.994C114.671 158.973 114.739 158.933 114.794 158.877C114.849 158.822 114.888 158.753 114.908 158.677C114.928 158.648 114.938 158.613 114.938 158.578C114.938 158.543 114.928 158.509 114.908 158.479C114.658 158.177 113.565 158.183 112.977 158.219Z" fill="#FA7387"/>
<path d="M112.785 158.235C112.771 158.236 112.757 158.233 112.745 158.225C112.733 158.218 112.723 158.207 112.718 158.194C112.711 158.182 112.708 158.168 112.708 158.155C112.708 158.141 112.711 158.128 112.718 158.116C112.744 158.069 113.384 156.877 114.039 156.721C114.118 156.698 114.201 156.694 114.282 156.71C114.362 156.725 114.438 156.759 114.503 156.809C114.576 156.847 114.633 156.91 114.665 156.986C114.696 157.062 114.7 157.147 114.674 157.226C114.534 157.704 113.363 158.22 112.791 158.235H112.785ZM114.18 156.861H114.071C113.602 156.971 113.113 157.736 112.926 158.043C113.472 157.959 114.409 157.522 114.518 157.163C114.518 157.106 114.544 157.018 114.409 156.924C114.341 156.88 114.261 156.858 114.18 156.861Z" fill="#FA7387"/>
<path d="M97.4497 56.2107L98.402 56.1118C98.402 56.1118 97.8088 56.7363 97.4497 56.2107Z" fill="#263238"/>
<path d="M84.6385 100.188L84.4876 101.91C84.42 102.045 84.5761 102.181 84.7998 102.181H104.257C104.433 102.181 104.574 102.097 104.584 101.988L104.761 100.266C104.761 100.146 104.621 100.042 104.433 100.042H84.9507C84.8907 100.038 84.8308 100.05 84.7763 100.075C84.7218 100.101 84.6745 100.139 84.6385 100.188Z" fill="#263238"/>
<path d="M87.2566 102.358H86.7363C86.6322 102.358 86.5541 102.306 86.5593 102.238L86.8039 100C86.8039 99.9327 86.9028 99.8806 87.0068 99.8806H87.5272C87.6313 99.8806 87.7094 99.9327 87.7041 100L87.4596 102.238C87.4492 102.306 87.3659 102.358 87.2566 102.358Z" fill="#FA7387"/>
<path opacity="0.6" d="M87.2566 102.358H86.7363C86.6322 102.358 86.5541 102.306 86.5593 102.238L86.8039 100C86.8039 99.9327 86.9028 99.8806 87.0068 99.8806H87.5272C87.6313 99.8806 87.7094 99.9327 87.7041 100L87.4596 102.238C87.4492 102.306 87.3659 102.358 87.2566 102.358Z" fill="#FAFAFA"/>
<path d="M102.794 102.358H102.273C102.169 102.358 102.091 102.306 102.102 102.238L102.346 100C102.346 99.9327 102.44 99.8806 102.544 99.8806H103.064C103.168 99.8806 103.246 99.9327 103.236 100L102.991 102.238C102.976 102.306 102.898 102.358 102.794 102.358Z" fill="#FA7387"/>
<path opacity="0.6" d="M102.794 102.358H102.273C102.169 102.358 102.091 102.306 102.102 102.238L102.346 100C102.346 99.9327 102.44 99.8806 102.544 99.8806H103.064C103.168 99.8806 103.246 99.9327 103.236 100L102.991 102.238C102.976 102.306 102.898 102.358 102.794 102.358Z" fill="#FAFAFA"/>
<path d="M95.0248 102.358H94.5045C94.4004 102.358 94.3171 102.306 94.3275 102.238L94.5721 100C94.5721 99.9327 94.671 99.8806 94.7751 99.8806H95.2954C95.3995 99.8806 95.4776 99.9327 95.4724 100L95.2278 102.238C95.2174 102.306 95.1289 102.358 95.0248 102.358Z" fill="#FA7387"/>
<path opacity="0.6" d="M95.0248 102.358H94.5045C94.4004 102.358 94.3171 102.306 94.3275 102.238L94.5721 100C94.5721 99.9327 94.671 99.8806 94.7751 99.8806H95.2954C95.3995 99.8806 95.4776 99.9327 95.4724 100L95.2278 102.238C95.2174 102.306 95.1289 102.358 95.0248 102.358Z" fill="#FAFAFA"/>
<path d="M86.0437 80.0437L83.5615 82.1564C84.0819 84.9664 84.4462 87.3081 84.6751 89.3896C85.1383 87.3029 86.3247 81.6412 86.0437 80.0437Z" fill="#FA7387"/>
<path opacity="0.3" d="M86.0437 80.0437L83.5615 82.1564C84.0819 84.9664 84.4462 87.3081 84.6751 89.3896C85.1383 87.3029 86.3247 81.6412 86.0437 80.0437Z" fill="black"/>
<path d="M138.627 88.0107H104.87L99.9785 107.946H133.735L138.627 88.0107Z" fill="#FAFAFA"/>
<path d="M121.522 104.236L100.879 109.049L87.6299 105.334L87.7652 104.236H121.522Z" fill="#FAFAFA"/>
<path d="M84.3882 79.4345C83.9876 80.7614 83.5504 82.13 83.1602 83.483C82.7699 84.836 82.3588 86.1993 82.0049 87.5575C81.6511 88.9157 81.3128 90.2686 81.0526 91.5956C80.9278 92.2565 80.8081 92.9174 80.73 93.5418C80.6744 93.9802 80.6448 94.4216 80.6416 94.8635C80.756 95.218 80.952 95.5406 81.214 95.8054C81.6088 96.234 82.0465 96.6211 82.5201 96.9606C83.6035 97.7323 84.7467 98.4161 85.9389 99.0057C87.1618 99.6354 88.4419 100.208 89.7481 100.739C91.0542 101.269 92.3864 101.779 93.6925 102.3L93.0889 104.652C91.5954 104.418 90.1748 104.085 88.7281 103.725C87.2815 103.366 85.8713 102.893 84.4507 102.373C82.9828 101.836 81.5682 101.163 80.2253 100.364C79.479 99.9174 78.7814 99.3942 78.1438 98.8028C77.3428 98.0798 76.7362 97.1673 76.3797 96.1489C76.2817 95.8387 76.2137 95.5198 76.1768 95.1966V94.9468V94.7595V94.4264C76.1768 93.9893 76.1768 93.573 76.1768 93.1619C76.2184 92.3501 76.3069 91.6008 76.4213 90.8202C76.6347 89.3008 76.9417 87.8333 77.2643 86.3867C77.9288 83.5076 78.7399 80.6644 79.6945 77.8682L84.3882 79.4345Z" fill="#E4897B"/>
<path d="M81.5165 72.6077C79.5911 73.1957 76.6406 80.762 76.6406 80.762L84.1184 86.1062C84.1184 86.1062 87.48 79.638 86.6682 77.1454C85.8044 74.5279 83.7229 71.9156 81.5165 72.6077Z" fill="#FA7387"/>
<path opacity="0.2" d="M81.5165 72.6077C79.5911 73.1957 76.6406 80.762 76.6406 80.762L84.1184 86.1062C84.1184 86.1062 87.48 79.638 86.6682 77.1454C85.8044 74.5279 83.7229 71.9156 81.5165 72.6077Z" fill="black"/>
<path d="M92.7197 102.446L97.2157 101.306L95.0718 105.62C95.0718 105.62 92.038 105.75 91.0337 104.059L92.7197 102.446Z" fill="#E4897B"/>
<path d="M100.843 102.945L98.8554 106.463L95.0723 105.62L97.2162 101.306L100.843 102.945Z" fill="#E4897B"/>
<path d="M139.667 88.0107H105.911L101.019 107.946H134.776L139.667 88.0107Z" fill="#263238"/>
<path d="M134.776 107.946L134.641 109.049H100.879L101.015 107.946H134.776Z" fill="#263238"/>
<path d="M99.0164 51.4909C103.564 53.3122 103.939 55.9297 103.7 54.0928C103.356 51.4545 101.166 49.5552 99.594 48.9151C98.673 48.53 97.0286 50.6948 99.0164 51.4909Z" fill="#263238"/>
<path d="M90.5396 53.8743L90.2326 54.2333C90.1846 54.2828 90.1577 54.3491 90.1577 54.4181C90.1577 54.487 90.1846 54.5533 90.2326 54.6028L92.6887 56.8404C92.7377 56.8854 92.8018 56.9103 92.8682 56.9103C92.9347 56.9103 92.9988 56.8854 93.0478 56.8404L93.4693 56.4501C93.4971 56.4252 93.5193 56.3948 93.5346 56.3607C93.5498 56.3266 93.5577 56.2897 93.5577 56.2524C93.5577 56.2151 93.5498 56.1781 93.5346 56.1441C93.5193 56.11 93.4971 56.0795 93.4693 56.0546L90.8934 53.8483C90.8416 53.8082 90.7768 53.7886 90.7115 53.7934C90.6462 53.7982 90.585 53.827 90.5396 53.8743Z" fill="#FA7387"/>
<path opacity="0.3" d="M90.5396 53.8743L90.2326 54.2333C90.1846 54.2828 90.1577 54.3491 90.1577 54.4181C90.1577 54.487 90.1846 54.5533 90.2326 54.6028L92.6887 56.8404C92.7377 56.8854 92.8018 56.9103 92.8682 56.9103C92.9347 56.9103 92.9988 56.8854 93.0478 56.8404L93.4693 56.4501C93.4971 56.4252 93.5193 56.3948 93.5346 56.3607C93.5498 56.3266 93.5577 56.2897 93.5577 56.2524C93.5577 56.2151 93.5498 56.1781 93.5346 56.1441C93.5193 56.11 93.4971 56.0795 93.4693 56.0546L90.8934 53.8483C90.8416 53.8082 90.7768 53.7886 90.7115 53.7934C90.6462 53.7982 90.585 53.827 90.5396 53.8743Z" fill="black"/>
<path d="M89.9099 71.1816C89.962 71.5771 90.3991 73.5285 94.1145 74.2622C94.1145 74.2622 93.0113 75.4643 92.3869 78.342C92.3869 78.342 85.8718 75.7869 87.8492 71.6448C87.8649 71.6115 87.8881 71.5825 87.917 71.5599C87.9459 71.5373 87.9798 71.5218 88.0158 71.5147L89.8267 71.1296C89.8356 71.1273 89.8448 71.1268 89.8539 71.1282C89.863 71.1296 89.8717 71.1329 89.8795 71.1377C89.8873 71.1426 89.894 71.149 89.8992 71.1565C89.9045 71.1641 89.9081 71.1726 89.9099 71.1816Z" fill="#FA7387"/>
<path opacity="0.6" d="M89.9099 71.1816C89.962 71.5771 90.3991 73.5285 94.1145 74.2622C94.1145 74.2622 93.0113 75.4643 92.3869 78.342C92.3869 78.342 85.8718 75.7869 87.8492 71.6448C87.8649 71.6115 87.8881 71.5825 87.917 71.5599C87.9459 71.5373 87.9798 71.5218 88.0158 71.5147L89.8267 71.1296C89.8356 71.1273 89.8448 71.1268 89.8539 71.1282C89.863 71.1296 89.8717 71.1329 89.8795 71.1377C89.8873 71.1426 89.894 71.149 89.8992 71.1565C89.9045 71.1641 89.9081 71.1726 89.9099 71.1816Z" fill="#FAFAFA"/>
<path d="M98.2102 71.4836C98.6577 71.9571 99.8806 73.565 96.7896 74.304C96.7896 74.304 98.6681 75.3447 99.2925 78.2224C99.2925 78.2224 103.919 75.0429 99.7088 71.5876C99.704 71.5853 99.6986 71.5841 99.6932 71.5841C99.6878 71.5841 99.6825 71.5853 99.6776 71.5876L98.2674 71.3899C98.2567 71.3907 98.2464 71.394 98.2372 71.3996C98.2281 71.4052 98.2204 71.4129 98.2148 71.4221C98.2092 71.4312 98.2059 71.4416 98.2051 71.4523C98.2043 71.4629 98.206 71.4737 98.2102 71.4836Z" fill="#FA7387"/>
<path opacity="0.6" d="M98.2102 71.4836C98.6577 71.9571 99.8806 73.565 96.7896 74.304C96.7896 74.304 98.6681 75.3447 99.2925 78.2224C99.2925 78.2224 103.919 75.0429 99.7088 71.5876C99.704 71.5853 99.6986 71.5841 99.6932 71.5841C99.6878 71.5841 99.6825 71.5853 99.6776 71.5876L98.2674 71.3899C98.2567 71.3907 98.2464 71.394 98.2372 71.3996C98.2281 71.4052 98.2204 71.4129 98.2148 71.4221C98.2092 71.4312 98.2059 71.4416 98.2051 71.4523C98.2043 71.4629 98.206 71.4737 98.2102 71.4836Z" fill="#FAFAFA"/>
<path d="M142.373 41.5415C141.582 33.3665 134.396 26.7421 126.325 26.7473C118.254 26.7525 112.342 33.3769 113.149 41.5519C113.44 44.2045 114.362 46.7488 115.838 48.9722C117.313 51.1956 119.3 53.0335 121.631 54.3323L121.501 59.536L125.83 55.9715C126.934 56.227 128.064 56.358 129.197 56.3617C137.268 56.3461 143.169 49.7114 142.373 41.5415Z" fill="#FA7387"/>
<path opacity="0.6" d="M142.373 41.5415C141.582 33.3665 134.396 26.7421 126.325 26.7473C118.254 26.7525 112.342 33.3769 113.149 41.5519C113.44 44.2045 114.362 46.7488 115.838 48.9722C117.313 51.1956 119.3 53.0335 121.631 54.3323L121.501 59.536L125.83 55.9715C126.934 56.227 128.064 56.358 129.197 56.3617C137.268 56.3461 143.169 49.7114 142.373 41.5415Z" fill="#FAFAFA"/>
<path d="M128.995 38.9708C125.42 37.8936 122.896 34.0689 122.896 34.0689C122.896 34.0689 121.793 34.0064 121.855 35.0159C121.971 36.4137 122.613 37.7156 123.651 38.6586L121.975 38.5649C121.386 38.5315 120.795 38.5965 120.227 38.7574L119.706 38.9083C119.484 38.9761 119.277 39.0894 119.1 39.2409C118.924 39.3924 118.78 39.5789 118.679 39.7886C118.578 39.9983 118.521 40.2268 118.512 40.4595C118.504 40.6922 118.544 40.9242 118.629 41.1407L119.743 44.4243C120.112 45.4865 120.851 46.3805 121.824 46.9429C122.649 47.4346 123.616 47.631 124.567 47.4997C126.242 47.2447 128.849 46.8544 129.297 46.7712L130.499 46.6671L130.145 39.3038L128.995 38.9708Z" fill="#FAFAFA"/>
<path d="M135.281 47.6609H130.598C130.417 47.6546 130.245 47.584 130.113 47.4618C129.98 47.3396 129.895 47.1739 129.874 46.9948L129.063 38.6168C129.052 38.533 129.06 38.4479 129.085 38.3673C129.11 38.2867 129.152 38.2124 129.208 38.1494C129.264 38.0863 129.333 38.036 129.411 38.0017C129.488 37.9675 129.571 37.9501 129.656 37.9507H134.339C134.521 37.9559 134.695 38.0267 134.829 38.15C134.963 38.2734 135.048 38.441 135.068 38.622L135.879 46.9948C135.889 47.0789 135.881 47.164 135.855 47.2446C135.829 47.3252 135.787 47.3994 135.73 47.4624C135.673 47.5253 135.604 47.5756 135.527 47.6098C135.449 47.644 135.366 47.6614 135.281 47.6609Z" fill="#FA7387"/>
<path d="M66.493 81.5684L61.8096 77.1296C61.8771 76.2041 61.8666 75.2746 61.7784 74.3509C60.899 65.3172 52.9581 57.9955 44.0389 58.0007C35.1197 58.0059 28.6047 65.3328 29.4685 74.3665C30.3323 83.4001 38.2836 90.7218 47.2028 90.7166C49.952 90.7622 52.6563 90.0162 54.9933 88.5677C57.3303 87.1192 59.2015 85.0291 60.3838 82.5467L66.493 81.5684Z" fill="#FA7387"/>
<path d="M53.1133 68.5073C50.6727 66.2541 47.0718 66.2593 45.0735 68.5073C42.633 66.2593 39.032 66.2593 37.0286 68.5073C35.0251 70.7553 35.379 74.4083 37.8195 76.6563L46.6659 84.8002L53.9147 76.6511C55.9077 74.4031 55.5538 70.7553 53.1133 68.5073Z" fill="#FA7387"/>
<path opacity="0.6" d="M53.1133 68.5073C50.6727 66.2541 47.0718 66.2593 45.0735 68.5073C42.633 66.2593 39.032 66.2593 37.0286 68.5073C35.0251 70.7553 35.379 74.4083 37.8195 76.6563L46.6659 84.8002L53.9147 76.6511C55.9077 74.4031 55.5538 70.7553 53.1133 68.5073Z" fill="#FAFAFA"/>
</svg>
