<svg width="163" height="177" viewBox="0 0 163 177" fill="none" xmlns="http://www.w3.org/2000/svg">
<path d="M115.287 129.144H156.915C156.915 129.144 154.844 126.45 152.564 126.112C152.564 126.112 148.14 112.898 140.693 112.806C133.789 112.717 131.018 120.928 131.018 120.928C131.018 120.928 127.801 117.245 124.761 118.918C121.721 120.591 119.972 125.424 119.972 125.424C119.972 125.424 116.534 127.29 115.287 129.144Z" fill="#EBEBEB"/>
<path d="M52.6415 77.789H0C0 77.789 0 74.4273 7.23815 73.7678C7.23815 73.7678 13.857 59.0663 23.9663 61.0447C30.2635 62.2511 33.4805 70.9168 33.4805 70.9168C33.4805 70.9168 38.2376 64.1129 42.0416 65.4319C45.8457 66.7508 48.1056 73.989 48.1056 73.989C48.1056 73.989 52.0464 75.891 52.6415 77.789Z" fill="#EBEBEB"/>
<path d="M154.635 66.4335H118.846C118.846 66.4335 122.224 63.289 123.724 63.289C125.224 63.289 129.607 52.7333 135.204 53.1837C140.802 53.6341 143.774 61.4915 143.774 61.4915C143.774 61.4915 150.577 59.3602 154.635 66.4335Z" fill="#EBEBEB"/>
<path d="M75.0919 109.516H44.4785C44.4785 109.516 46.0025 107.534 47.6955 107.284C47.6955 107.284 50.9607 97.5691 56.4215 97.5008C61.5002 97.4364 63.539 103.476 63.539 103.476C63.539 103.476 65.8914 100.766 68.1392 102.005C70.3871 103.243 71.6618 106.79 71.6618 106.79C71.6618 106.79 74.171 108.153 75.0919 109.516Z" fill="#EBEBEB"/>
<path d="M48.4839 39.8086H90.1194C90.1194 39.8086 88.0525 37.1144 85.7684 36.7766C85.7684 36.7766 81.3451 23.5629 73.9019 23.4704C66.9935 23.382 64.2228 31.5933 64.2228 31.5933C64.2228 31.5933 61.0059 27.9098 57.9659 29.5827C54.9258 31.2555 53.1806 36.089 53.1806 36.089C53.1806 36.089 49.7305 37.9548 48.4839 39.8086Z" fill="#EBEBEB"/>
<path d="M123.535 18.6489C123.535 24.7289 119.027 31.1749 115.291 36.3421C113.792 38.4211 112.444 40.3432 111.463 41.7667C110.422 43.2707 109.778 44.2237 109.778 44.2237H102.745C102.745 44.2237 102.102 43.2707 101.06 41.7667C100.079 40.3432 98.7321 38.4211 97.2322 36.3421C93.4965 31.1669 88.9888 24.7209 88.9888 18.6489C88.9888 8.71651 96.3797 2.24239 104.583 1.45825H104.667C105.194 1.41402 105.729 1.38989 106.276 1.38989C106.823 1.38989 107.346 1.41402 107.884 1.45825H107.969C116.144 2.24239 123.535 8.71651 123.535 18.6489Z" fill="#EBEBEB"/>
<path d="M107.47 41.7754C107.337 42.5796 107.196 43.3838 107.068 44.2323H105.495C105.347 43.3959 105.206 42.5796 105.073 41.7754C99.3189 7.11265 106.28 1.37842 106.28 1.37842C106.28 1.37842 113.224 7.11265 107.47 41.7754Z" fill="white"/>
<path d="M103.667 41.7755C104.314 43.3197 104.749 44.2325 104.749 44.2325H103.828C103.828 44.2325 103.237 43.3156 102.288 41.7755C101.604 40.6536 100.731 39.202 99.7623 37.5211C96.5977 32.0121 92.5242 25.1841 93.2922 17.5639C94.3377 7.01227 103.261 2.12652 104.584 1.47911L104.749 1.39868L104.668 1.46704C103.912 2.15869 97.9608 7.94117 97.9608 18.6134C97.9608 27.1062 101.749 37.2115 103.667 41.7755Z" fill="white"/>
<path d="M112.763 37.5209C111.794 39.2018 110.921 40.6535 110.237 41.7754C109.288 43.3155 108.697 44.2323 108.697 44.2323H107.776C107.776 44.2323 108.211 43.3195 108.858 41.7754C110.776 37.2113 114.564 27.106 114.564 18.5932C114.564 7.9209 108.613 2.13842 107.857 1.44678L107.776 1.37842L107.941 1.45884C109.264 2.12636 118.187 7.01212 119.233 17.5637C119.989 25.1839 115.927 32.0119 112.763 37.5209Z" fill="white"/>
<path d="M111.463 41.7754C110.421 43.2793 109.778 44.2323 109.778 44.2323H102.745C102.745 44.2323 102.102 43.2793 101.06 41.7754H111.463Z" fill="#DBDBDB"/>
<path d="M95.7603 27.6652L95.3755 27.782L102.479 51.1929L102.864 51.0761L95.7603 27.6652Z" fill="#DBDBDB"/>
<path d="M102.874 27.7156L102.473 27.7427L104.052 51.1531L104.453 51.1261L102.874 27.7156Z" fill="#DBDBDB"/>
<path d="M116.759 27.6682L109.663 51.0815L110.048 51.1982L117.144 27.7848L116.759 27.6682Z" fill="#DBDBDB"/>
<path d="M109.644 27.7153L108.065 51.1257L108.466 51.1528L110.046 27.7423L109.644 27.7153Z" fill="#DBDBDB"/>
<path d="M121.42 27.5564H91.1001V28.3606H121.42V27.5564Z" fill="#DBDBDB"/>
<path d="M110.201 51.2332L110.032 53.2639L109.654 57.836H102.87L102.492 53.2639L102.323 51.2332H110.201Z" fill="#EBEBEB"/>
<path d="M110.201 51.2332L110.032 53.2639H102.492L102.323 51.2332H110.201Z" fill="#DBDBDB"/>
<path d="M110.593 50.658H101.928V51.808H110.593V50.658Z" fill="#EBEBEB"/>
<path d="M78.4575 177C117.107 177 148.438 173.491 148.438 169.163C148.438 164.834 117.107 161.325 78.4575 161.325C39.8081 161.325 8.47656 164.834 8.47656 169.163C8.47656 173.491 39.8081 177 78.4575 177Z" fill="#EBEBEB"/>
<path d="M32.7925 11.3392C32.6598 11.2427 26.1455 10.0002 21.875 15.3604C17.9463 20.2864 18.0066 27.6774 18.6942 27.6854C19.5346 27.6854 20.8657 23.821 24.5611 20.9539C25.872 19.9366 28.3813 19.9929 28.3813 19.9929L32.7925 11.3392Z" fill="#00AAFF"/>
<path d="M45.2462 20.2617C45.3789 20.3542 48.6481 26.1246 44.9486 31.891C41.5467 37.195 34.5257 39.5313 34.3005 38.8638C34.0271 38.0595 37.2601 35.5664 38.7882 31.1431C39.331 29.5748 38.4705 27.2184 38.4705 27.2184L45.2462 20.2617Z" fill="#00AAFF"/>
<path d="M34.0344 30.9139L26.3579 25.4129C26.3579 25.4129 26.6997 17.2821 31.8509 10.9849C34.436 7.93502 37.5247 5.35084 40.983 3.34461C45.3661 0.742896 49.3511 -0.471506 50.2318 0.167864C51.1124 0.807234 51.2531 4.9933 50.2036 9.95948C49.4168 13.8741 47.9686 17.626 45.921 21.054C41.6224 27.9744 34.0344 30.9139 34.0344 30.9139Z" fill="#EBEBEB"/>
<path d="M33.4509 30.489L26.9492 25.8308L25.5347 27.8052L32.0364 32.4634L33.4509 30.489Z" fill="#00AAFF"/>
<path d="M43.5688 17.5031C43.0315 18.2533 42.2839 18.8272 41.4204 19.1524C40.5569 19.4776 39.6163 19.5394 38.7177 19.33C37.819 19.1206 37.0027 18.6493 36.3719 17.9759C35.7412 17.3024 35.3243 16.457 35.1741 15.5466C35.0238 14.6362 35.147 13.7017 35.5279 12.8613C35.9089 12.0209 36.5305 11.3124 37.3142 10.8253C38.0979 10.3383 39.0085 10.0946 39.9307 10.1251C40.8529 10.1556 41.7453 10.459 42.4951 10.9968C42.9931 11.3533 43.4159 11.8044 43.7394 12.3245C44.0629 12.8445 44.2807 13.4232 44.3804 14.0274C44.4801 14.6317 44.4598 15.2496 44.3205 15.846C44.1812 16.4424 43.9258 17.0055 43.5688 17.5031Z" fill="#00AAFF"/>
<path d="M39.7804 18.022C41.566 18.022 43.0134 16.5745 43.0134 14.789C43.0134 13.0034 41.566 11.5559 39.7804 11.5559C37.9948 11.5559 36.5474 13.0034 36.5474 14.789C36.5474 16.5745 37.9948 18.022 39.7804 18.022Z" fill="#A6A6A6"/>
<path d="M50.216 9.97974L40.9673 3.36487C45.3504 0.763158 49.3354 -0.451243 50.216 0.188128C51.0967 0.827498 51.2656 4.99346 50.216 9.97974Z" fill="#00AAFF"/>
<path d="M42.9175 3.51344C42.8911 3.54997 42.8579 3.58093 42.8195 3.60456C42.7812 3.62818 42.7386 3.644 42.6941 3.6511C42.6496 3.65819 42.6042 3.65644 42.5604 3.64593C42.5166 3.63542 42.4753 3.61636 42.439 3.58984C42.3654 3.53652 42.316 3.45615 42.3017 3.36641C42.2873 3.27666 42.3092 3.18491 42.3626 3.11132C42.4159 3.03773 42.4963 2.98834 42.586 2.97401C42.6757 2.95969 42.7675 2.98159 42.8411 3.03492C42.878 3.0609 42.9094 3.09403 42.9334 3.13235C42.9573 3.17067 42.9733 3.21341 42.9804 3.25803C42.9875 3.30265 42.9856 3.34824 42.9748 3.39211C42.964 3.43598 42.9445 3.47724 42.9175 3.51344Z" fill="#EBEBEB"/>
<path d="M44.6787 4.78419C44.6524 4.82072 44.6191 4.85168 44.5808 4.87531C44.5424 4.89893 44.4998 4.91475 44.4553 4.92185C44.4109 4.92895 44.3654 4.92719 44.3216 4.91668C44.2779 4.90617 44.2366 4.88711 44.2002 4.86059C44.1637 4.83419 44.1329 4.80087 44.1093 4.76253C44.0858 4.72419 44.07 4.68159 44.0629 4.63716C44.0558 4.59272 44.0575 4.54732 44.068 4.50355C44.0784 4.45979 44.0974 4.41851 44.1238 4.38207C44.1502 4.34563 44.1835 4.31475 44.2218 4.29119C44.2602 4.26764 44.3028 4.25186 44.3472 4.24476C44.3917 4.23767 44.4371 4.2394 44.4808 4.24985C44.5246 4.2603 44.5659 4.27926 44.6023 4.30567C44.6393 4.33165 44.6707 4.36478 44.6946 4.4031C44.7185 4.44143 44.7345 4.48416 44.7417 4.52878C44.7488 4.5734 44.7469 4.61899 44.7361 4.66286C44.7253 4.70673 44.7058 4.74799 44.6787 4.78419Z" fill="#EBEBEB"/>
<path d="M46.4644 6.05885C46.438 6.09538 46.4047 6.12634 46.3664 6.14997C46.3281 6.17359 46.2854 6.18941 46.241 6.19651C46.1965 6.20361 46.1511 6.20185 46.1073 6.19134C46.0635 6.18082 46.0222 6.16176 45.9858 6.13525C45.9494 6.10885 45.9185 6.07553 45.895 6.03719C45.8714 5.99885 45.8556 5.95625 45.8485 5.91181C45.8414 5.86738 45.8432 5.82198 45.8536 5.77821C45.8641 5.73445 45.883 5.69317 45.9094 5.65673C45.9358 5.62029 45.9692 5.58941 46.0075 5.56585C46.0458 5.5423 46.0884 5.52652 46.1329 5.51942C46.1773 5.51233 46.2227 5.51405 46.2665 5.5245C46.3102 5.53495 46.3515 5.55392 46.388 5.58033C46.4245 5.60666 46.4554 5.63995 46.4791 5.67828C46.5027 5.71662 46.5185 5.75924 46.5256 5.80371C46.5327 5.84818 46.5309 5.89361 46.5204 5.93739C46.5099 5.98118 46.4909 6.02245 46.4644 6.05885Z" fill="#EBEBEB"/>
<path d="M48.2388 7.32545C48.2124 7.36198 48.1791 7.39294 48.1408 7.41657C48.1025 7.44019 48.0599 7.45601 48.0154 7.46311C47.9709 7.47021 47.9255 7.46845 47.8817 7.45794C47.8379 7.44743 47.7966 7.42837 47.7602 7.40185C47.7238 7.37545 47.6929 7.34213 47.6694 7.30379C47.6458 7.26545 47.63 7.22285 47.6229 7.17842C47.6158 7.13398 47.6176 7.08858 47.628 7.04481C47.6385 7.00105 47.6574 6.95977 47.6838 6.92333C47.7102 6.88689 47.7436 6.85601 47.7819 6.83245C47.8202 6.8089 47.8628 6.79312 47.9073 6.78602C47.9517 6.77893 47.9971 6.78066 48.0409 6.79111C48.0847 6.80156 48.1259 6.82052 48.1624 6.84693C48.1989 6.87326 48.2299 6.90655 48.2535 6.94488C48.2771 6.98322 48.2929 7.02584 48.3 7.07031C48.3071 7.11478 48.3054 7.16021 48.2949 7.20399C48.2843 7.24778 48.2653 7.28905 48.2388 7.32545Z" fill="#EBEBEB"/>
<path d="M50.0115 8.59613C49.9583 8.66966 49.8782 8.7193 49.7887 8.73435C49.6992 8.7494 49.6073 8.72864 49.533 8.67655C49.4592 8.62258 49.4094 8.54186 49.3944 8.45167C49.3794 8.36148 49.4002 8.269 49.4526 8.19401C49.5065 8.11997 49.5876 8.07034 49.678 8.05601C49.7685 8.04169 49.861 8.06384 49.9351 8.1176C49.9716 8.14393 50.0026 8.17722 50.0262 8.21556C50.0498 8.25389 50.0657 8.29652 50.0728 8.34099C50.0799 8.38545 50.0781 8.43088 50.0676 8.47467C50.0571 8.51845 50.038 8.55973 50.0115 8.59613Z" fill="#EBEBEB"/>
<path d="M45.5511 79.3211C45.5511 79.0476 45.5229 78.7742 45.5229 78.5168H45.8245C45.8245 78.7742 45.8245 79.0396 45.8527 79.3211H45.5511Z" fill="#263238"/>
<path d="M74.5429 101.007H74.0643V100.706C74.5992 100.706 75.134 100.706 75.6728 100.706V101.007C75.3069 100.999 74.9249 101.007 74.5429 101.007ZM72.0336 100.907C71.4948 100.863 70.9479 100.802 70.4251 100.73L70.4654 100.432C70.9962 100.505 71.535 100.561 72.0738 100.605L72.0336 100.907ZM77.7236 100.842L77.6915 100.545C78.2223 100.489 78.7611 100.42 79.2999 100.34L79.3442 100.637C78.8013 100.718 78.2584 100.79 77.7236 100.842ZM68.4025 100.392C67.8797 100.288 67.3449 100.163 66.8181 100.03L66.8905 99.7366C67.4133 99.8693 67.9441 99.994 68.4628 100.099L68.4025 100.392ZM81.3306 100.263L81.2663 99.9658C81.785 99.8532 82.3118 99.7245 82.8346 99.5637L82.911 99.8572C82.3882 100.014 81.8574 100.155 81.3347 100.263H81.3306ZM64.8437 99.4591C64.329 99.2943 63.8143 99.1093 63.3076 98.9163L63.4162 98.6348C63.9148 98.8278 64.4255 99.0088 64.9362 99.1736L64.8437 99.4591ZM84.8371 99.2782L84.7406 98.9927C85.2473 98.8238 85.758 98.6388 86.2566 98.4418L86.3692 98.7233C85.8866 98.9203 85.3719 99.1053 84.8612 99.2782H84.8371ZM61.4579 98.1442C60.9673 97.923 60.4767 97.6818 59.9942 97.4325L60.1349 97.163C60.6094 97.4123 61.1 97.6496 61.5825 97.8708L61.4579 98.1442ZM88.2632 97.9431L88.1385 97.6697C88.6211 97.4445 89.1036 97.2032 89.5701 96.9459L89.7148 97.2113C89.2403 97.4526 88.7538 97.6979 88.2632 97.9271V97.9431ZM58.2168 96.4392C57.7544 96.1577 57.2919 95.8642 56.8456 95.5666L57.0104 95.3133C57.4528 95.6109 57.9112 95.9044 58.3736 96.1819L58.2168 96.4392ZM91.46 96.1698L91.2952 95.9165C91.7335 95.6269 92.1798 95.3173 92.6141 94.9956L92.7951 95.2369C92.3527 95.5465 91.9064 95.8602 91.46 96.1537V96.1698ZM55.1888 94.3804C54.7626 94.0506 54.3363 93.7048 53.9222 93.355L54.1192 93.1258C54.5213 93.4756 54.9476 93.8134 55.3738 94.1391L55.1888 94.3804ZM94.3754 93.9783L94.1784 93.749C94.5805 93.4072 94.9826 93.0413 95.3847 92.6673L95.5938 92.8845C95.1837 93.2343 94.7775 93.6043 94.3754 93.9501V93.9783ZM52.4142 91.9998C52.0121 91.6218 51.6421 91.2278 51.2802 90.8337L51.5014 90.6286C51.8593 91.0307 52.2413 91.4087 52.6273 91.7827L52.4142 91.9998ZM97.0012 91.4328L96.7801 91.2277C97.1339 90.8256 97.4918 90.4235 97.8457 90.0214L98.0749 90.2184C97.717 90.6085 97.3551 91.0186 97.0012 91.4047V91.4328ZM49.9532 89.2895C49.6155 88.8593 49.2857 88.421 48.9801 87.9827L49.2254 87.8097C49.527 88.244 49.8527 88.6783 50.1905 89.1005L49.9532 89.2895ZM99.3657 88.6019L99.1284 88.4169C99.4461 88.0148 99.7678 87.5644 100.085 87.1181L100.331 87.291C99.993 87.7414 99.6673 88.1837 99.3657 88.6019ZM47.8944 86.2374C47.6169 85.7589 47.3596 85.2724 47.1304 84.7979L47.3998 84.6652C47.625 85.1356 47.8783 85.6142 48.1558 86.0887L47.8944 86.2374ZM101.473 85.6182L101.219 85.4493C101.513 85.0029 101.807 84.5485 102.092 84.0901L102.349 84.247C102.044 84.7094 101.75 85.1678 101.457 85.6182H101.473ZM46.3462 82.9119C46.1648 82.3976 46.0104 81.8741 45.8838 81.3437L46.1773 81.2713C46.3012 81.792 46.4515 82.306 46.6277 82.8114L46.3462 82.9119ZM103.395 82.5098L103.138 82.357C103.407 81.8946 103.676 81.4281 103.942 80.9536L104.203 81.1024C103.922 81.5769 103.652 82.0594 103.387 82.5098H103.395ZM105.184 79.325L104.919 79.1802C105.172 78.7098 105.426 78.2312 105.679 77.7527L105.944 77.8935L105.184 79.325ZM106.877 76.1081L106.608 75.9713L107.344 74.5277L107.613 74.6604C107.358 75.1376 107.108 75.6148 106.861 76.092L106.877 76.1081ZM108.522 72.8509L108.253 72.7142L108.976 71.2665L109.246 71.3992L108.522 72.8509ZM110.155 69.5897L109.885 69.453L110.613 68.0053L110.882 68.1421L110.155 69.5897ZM111.803 66.3365L111.538 66.1998C111.783 65.7213 112.032 65.2428 112.286 64.7602L112.555 64.901C112.286 65.3634 112.036 65.8419 111.787 66.3205L111.803 66.3365ZM113.508 63.1196L113.243 62.9748C113.5 62.5043 113.758 62.0298 114.023 61.5594L114.284 61.7081C114.007 62.1585 113.745 62.629 113.492 63.0995L113.508 63.1196ZM115.282 59.9509L115.02 59.8021C115.294 59.3356 115.567 58.8692 115.845 58.4067L116.102 58.5636C115.812 59.0113 115.534 59.471 115.266 59.9428L115.282 59.9509ZM117.164 56.8465L116.906 56.6857C117.196 56.2313 117.489 55.7769 117.787 55.3265L118.036 55.4954C117.726 55.9216 117.433 56.376 117.147 56.8264L117.164 56.8465ZM119.174 53.8226L118.929 53.6497C119.238 53.2073 119.552 52.765 119.874 52.3307L120.115 52.5076C119.788 52.9285 119.469 53.3601 119.158 53.8025L119.174 53.8226ZM121.338 50.8992L121.08 50.6941C121.414 50.2678 121.756 49.8496 122.102 49.4314L122.335 49.6244C121.993 50.0386 121.655 50.4568 121.321 50.8791L121.338 50.8992ZM123.67 48.1125L123.445 47.9114C123.804 47.5093 124.17 47.1072 124.542 46.7051L124.76 46.9101C124.374 47.2962 124.012 47.6903 123.654 48.0924L123.67 48.1125ZM126.175 45.4826L125.966 45.2695C126.368 44.8915 126.746 44.5175 127.144 44.1516L127.349 44.3728C126.935 44.7186 126.541 45.0885 126.159 45.4665L126.175 45.4826ZM128.861 43.0418L128.668 42.8125C129.07 42.4627 129.505 42.1209 129.927 41.7871L130.112 42.0244C129.677 42.334 129.255 42.6758 128.845 43.0216L128.861 43.0418ZM131.724 40.81L131.547 40.5647C131.986 40.251 132.436 39.9374 132.882 39.6398L133.051 39.8891C132.589 40.1666 132.142 40.4762 131.708 40.7899L131.724 40.81ZM134.752 38.7994L134.591 38.542C135.054 38.2646 135.528 37.9871 135.995 37.7378L136.144 38.0032C135.661 38.2284 135.195 38.5058 134.752 38.7833V38.7994Z" fill="#263238"/>
<path d="M137.97 36.9774L137.833 36.708C138.071 36.5873 138.312 36.4667 138.557 36.3501L138.69 36.6195L137.97 36.9774Z" fill="#263238"/>
<path d="M136.872 31.561L134.029 39.3742L140.001 34.7096L162.825 26.4299L136.872 31.561Z" fill="#00AAFF"/>
<path opacity="0.2" d="M136.872 31.561L134.029 39.3742L140.001 34.7096L162.825 26.4299L136.872 31.561Z" fill="#222221"/>
<path d="M140.765 36.5316L134.029 39.3746L140.001 34.71L140.765 36.5316Z" fill="#263238"/>
<path d="M140 34.7096L162.824 26.4299L144.102 44.7023L140 34.7096Z" fill="#00AAFF"/>
<path d="M136.873 31.5613L127.387 25.437L162.826 26.4302L136.873 31.5613Z" fill="#00AAFF"/>
<path d="M85.2656 72.0596C85.2656 72.0596 82.8086 93.9831 81.1238 108.214C80.8181 110.784 80.5407 113.104 80.3195 114.994C80.0018 117.551 79.7646 119.333 79.656 119.912C79.5595 120.406 79.5917 122.377 79.6118 125.139C79.6118 126.696 79.6118 128.505 79.6118 130.447C79.5233 137.947 79.5434 147.887 79.5635 154.12C79.5635 157.671 79.4429 160.019 79.4429 160.019H62.4574C62.4574 160.019 62.4091 157.735 62.3689 154.12C62.2603 144.316 62.196 124.737 63.2214 114.383C64.6449 100.007 69.2089 72.0596 69.2089 72.0596H85.2656Z" fill="#EB9481"/>
<path d="M50.4816 173.627C51.4024 173.932 77.685 173.856 78.6862 173.225C79.0642 172.987 79.2774 169.155 79.402 164.523C79.4288 163.52 79.4503 162.492 79.4663 161.439C79.4865 160.196 79.5025 158.937 79.5106 157.715C79.5427 152.226 79.4663 147.393 79.4663 147.393H62.3722V157.715V161.439L62.4607 164.523C62.4607 164.523 52.4077 169.055 51.3904 169.871C50.373 170.687 49.5647 173.341 50.4816 173.627Z" fill="#EB9481"/>
<path d="M50.4816 173.627C51.4024 173.933 77.685 173.856 78.6862 173.225C79.0642 172.988 79.2773 169.155 79.402 164.523C79.4288 163.52 79.4503 162.492 79.4663 161.439C79.4864 160.196 79.5025 158.938 79.5106 157.715H62.3722V161.439L62.4607 164.523C62.4607 164.523 52.4077 169.055 51.3904 169.871C50.373 170.687 49.5647 173.341 50.4816 173.627Z" fill="white"/>
<path d="M50.401 173.667C51.0002 173.864 77.1902 174.298 78.7625 173.265C79.2209 172.959 79.4461 167.346 79.5668 161.414H62.3721L62.4606 164.515C62.4606 164.515 52.3553 169.071 51.3259 169.891C50.2965 170.711 49.4802 173.341 50.401 173.667Z" fill="#00AAFF"/>
<path d="M50.7804 172.61C55.2037 172.485 73.086 172.413 77.4771 172.63C77.5133 172.63 77.5133 172.658 77.4771 172.658C73.086 172.875 55.2077 172.803 50.7804 172.682C50.6839 172.678 50.6839 172.61 50.7804 172.61Z" fill="#263238"/>
<path d="M61.8174 163.525C63.5586 163.192 65.6898 163.457 67.0449 164.692C67.0932 164.74 67.0248 164.812 66.9685 164.796C65.3016 164.265 63.5829 163.912 61.8415 163.743C61.8127 163.746 61.7838 163.737 61.7612 163.719C61.7386 163.701 61.7241 163.675 61.7209 163.646C61.7177 163.617 61.7261 163.588 61.7442 163.566C61.7622 163.543 61.7886 163.529 61.8174 163.525Z" fill="#263238"/>
<path d="M60.5582 164.286C62.3034 163.956 64.4347 164.217 65.7858 165.456C65.838 165.504 65.7858 165.576 65.7134 165.56C64.0409 165.021 62.3152 164.664 60.5663 164.495C60.545 164.487 60.5265 164.473 60.5131 164.455C60.4998 164.437 60.4922 164.415 60.4913 164.393C60.4904 164.37 60.4963 164.348 60.5083 164.329C60.5202 164.31 60.5376 164.295 60.5582 164.286Z" fill="#263238"/>
<path d="M59.3062 165.05C61.0473 164.716 63.1826 164.981 64.5337 166.216C64.586 166.264 64.5136 166.336 64.4573 166.32C62.7904 165.789 61.0718 165.435 59.3303 165.267C59.3015 165.27 59.2726 165.262 59.25 165.243C59.2274 165.225 59.2129 165.199 59.2097 165.17C59.2065 165.141 59.2148 165.113 59.2329 165.09C59.251 165.067 59.2774 165.053 59.3062 165.05Z" fill="#263238"/>
<path d="M58.0456 165.809C59.7908 165.48 61.9221 165.741 63.2732 166.979C63.3255 167.028 63.2732 167.1 63.2008 167.084C61.533 166.55 59.8129 166.197 58.0698 166.03C58.0429 166.029 58.0174 166.018 57.9979 166C57.9783 165.982 57.966 165.957 57.9631 165.93C57.9602 165.903 57.9669 165.877 57.982 165.854C57.9971 165.832 58.0197 165.816 58.0456 165.809Z" fill="#263238"/>
<path d="M59.3736 161.981C60.6081 162.938 62.2166 163.324 63.6562 163.855C63.6892 163.863 63.7237 163.863 63.7569 163.856C63.7901 163.848 63.8212 163.833 63.8476 163.812C63.8741 163.79 63.8952 163.763 63.9095 163.732C63.9237 163.701 63.9306 163.668 63.9296 163.634C63.9367 163.633 63.9437 163.632 63.9499 163.628C63.9562 163.625 63.9615 163.62 63.9654 163.614C63.9694 163.608 63.9718 163.601 63.9726 163.594C63.9734 163.587 63.9724 163.58 63.9698 163.573C63.4357 162.031 62.5067 160.656 61.2756 159.584C60.5438 158.977 59.265 158.555 58.5854 159.5C57.9059 160.445 58.6538 161.426 59.3736 161.981ZM58.9272 160.582C58.6136 158.667 60.6684 159.669 61.1912 160.139C61.522 160.449 61.831 160.78 62.116 161.132C62.6908 161.869 63.2277 162.634 63.7245 163.425C63.0329 163.123 62.3211 162.882 61.6214 162.62C60.7971 162.274 59.1001 161.635 58.9272 160.582Z" fill="#263238"/>
<path d="M69.7835 160.9C69.3572 159.814 68.0141 159.902 67.1576 160.308C65.6925 161.036 64.4444 162.135 63.5385 163.497C63.5344 163.503 63.5317 163.51 63.5307 163.517C63.5297 163.524 63.5304 163.531 63.5328 163.538C63.5352 163.544 63.5391 163.55 63.5443 163.555C63.5495 163.56 63.5558 163.564 63.5627 163.566C63.5345 163.698 63.6149 163.863 63.7718 163.847C65.2998 163.694 66.9525 163.722 68.3881 163.103C69.2366 162.745 70.1856 161.925 69.7835 160.9ZM66.0518 163.143C65.3038 163.236 64.5559 163.292 63.808 163.413C64.492 162.772 65.2088 162.166 65.9553 161.599C66.3203 161.328 66.7032 161.083 67.1013 160.863C67.7206 160.538 69.9644 160.087 69.1843 161.861C68.754 162.838 66.9485 163.031 66.0518 163.143Z" fill="#263238"/>
<path d="M85.266 72.0596C85.266 72.0596 82.809 93.9831 81.1241 108.214C80.8185 110.784 80.5411 113.104 80.3199 114.994C80.0022 117.551 79.765 119.333 79.6564 119.912C79.5599 120.406 79.592 122.377 79.6122 125.139C79.6122 126.696 79.6122 128.505 79.6122 130.447C79.5237 137.947 79.5438 147.887 79.5639 154.12H62.3733C62.2647 144.316 62.2004 124.737 63.2258 114.383C64.6453 100.007 69.2093 72.0596 69.2093 72.0596H85.266Z" fill="#455A64"/>
<path d="M79.595 125.147C79.5749 122.377 79.5427 120.406 79.6392 119.92C80.2826 116.53 85.2689 72.0674 85.2689 72.0674H71.5405L79.595 125.147Z" fill="#263238"/>
<path d="M138.973 119.771C138.973 119.771 138.398 120.004 137.364 120.398C136.463 120.748 135.209 121.202 133.685 121.769L133.09 121.978L132.981 122.018L132.607 122.151C122.152 125.859 101.596 132.26 92.1941 129.011C82.7926 125.762 69.4704 71.8821 69.209 72.059H91.9971C91.9971 72.059 96.2354 82.9927 92.6204 89.8729C92.2866 90.5083 100.715 112.955 105.814 112.339C109.795 111.857 120.897 107.691 127.902 105.535L129.044 105.186L130.319 104.784H130.339L132.511 104.116L133.974 103.666L138.973 119.771Z" fill="#EB9481"/>
<path d="M156.42 126.961C156.44 125.992 148.619 100.899 147.715 100.131C147.377 99.8377 143.653 100.767 139.194 102.013C138.228 102.279 137.219 102.52 136.226 102.858C134.979 103.284 123.061 107.168 123.061 107.168L127.962 123.728L137.396 120.511L141.264 119.196L144.184 118.206C144.184 118.206 151.478 126.47 152.556 127.206C153.634 127.942 156.4 127.926 156.42 126.961Z" fill="#EB9481"/>
<path d="M156.421 126.961C156.441 125.992 148.62 100.899 147.715 100.131C147.377 99.8377 143.653 100.767 139.194 102.013C138.229 102.279 137.22 102.52 136.226 102.858C134.98 103.284 133.705 103.642 132.511 104.064C133.999 108.966 136.11 116.103 137.396 120.495L141.265 119.18L144.184 118.19C144.184 118.19 151.479 126.454 152.556 127.19C153.634 127.926 156.401 127.926 156.421 126.961Z" fill="white"/>
<path d="M156.469 127.025C156.489 126.052 148.623 100.819 147.715 100.047C147.312 99.6888 141.86 101.14 136.162 102.789L141.228 119.216L144.164 118.218C144.164 118.218 151.498 126.534 152.584 127.274C153.67 128.014 156.469 127.998 156.469 127.025Z" fill="#00AAFF"/>
<path d="M155.358 126.981C153.935 122.783 148.595 105.717 147.509 101.462C147.509 101.426 147.509 101.418 147.537 101.462C149.037 105.592 154.236 122.698 155.427 126.965C155.451 127.049 155.386 127.069 155.358 126.981Z" fill="#263238"/>
<path d="M143.424 119.107C142.596 117.543 142.218 115.424 143.022 113.783C143.05 113.719 143.143 113.763 143.143 113.824C143.121 115.579 143.291 117.332 143.649 119.051C143.657 119.081 143.652 119.113 143.636 119.139C143.621 119.165 143.595 119.184 143.565 119.192C143.535 119.199 143.503 119.195 143.477 119.179C143.451 119.163 143.432 119.137 143.424 119.107Z" fill="#263238"/>
<path d="M144.521 120.084C143.693 118.516 143.315 116.401 144.119 114.76C144.151 114.696 144.24 114.74 144.24 114.801C144.221 116.556 144.39 118.309 144.747 120.028C144.754 120.058 144.749 120.09 144.733 120.116C144.718 120.142 144.692 120.161 144.662 120.169C144.632 120.176 144.601 120.172 144.574 120.156C144.548 120.14 144.529 120.114 144.521 120.084Z" fill="#263238"/>
<path d="M145.612 121.066C144.783 119.497 144.405 117.382 145.21 115.742C145.242 115.677 145.33 115.721 145.33 115.782C145.313 117.537 145.483 119.29 145.837 121.009C145.844 121.039 145.84 121.071 145.824 121.097C145.808 121.124 145.782 121.143 145.752 121.15C145.723 121.158 145.691 121.153 145.665 121.137C145.638 121.121 145.619 121.096 145.612 121.066Z" fill="#263238"/>
<path d="M146.717 122.035C145.889 120.466 145.511 118.351 146.315 116.711C146.347 116.646 146.436 116.69 146.436 116.751C146.418 118.506 146.588 120.259 146.942 121.978C146.95 122.008 146.945 122.04 146.929 122.066C146.913 122.093 146.888 122.112 146.858 122.119C146.828 122.127 146.796 122.122 146.77 122.106C146.744 122.09 146.725 122.065 146.717 122.035Z" fill="#263238"/>
<path d="M143.147 117.117C143.115 117.088 143.077 117.067 143.036 117.057C142.994 117.046 142.951 117.046 142.909 117.057C142.905 117.051 142.899 117.047 142.893 117.045C142.887 117.042 142.88 117.04 142.873 117.04C142.866 117.04 142.86 117.042 142.853 117.045C142.847 117.047 142.842 117.051 142.837 117.057L142.712 117.149H142.688L142.64 117.185C142.578 117.231 142.518 117.279 142.459 117.33C141.953 117.743 141.492 118.208 141.084 118.717C140.895 118.951 140.714 119.196 140.549 119.445C140.265 119.87 140.021 120.321 139.821 120.792C139.455 121.669 139.419 123.012 140.533 123.386C141.647 123.76 142.35 122.755 142.672 121.902C143.017 120.827 143.18 119.702 143.155 118.573C143.155 118.138 143.175 117.708 143.199 117.286C143.208 117.256 143.208 117.223 143.199 117.193C143.19 117.163 143.171 117.137 143.147 117.117ZM142.656 118.725C142.656 118.999 142.62 119.268 142.6 119.53C142.531 120.426 142.423 122.24 141.466 122.714C139.729 123.579 140.078 121.319 140.376 120.684C140.574 120.275 140.8 119.88 141.052 119.501C141.12 119.393 141.192 119.288 141.265 119.184C141.703 118.561 142.194 117.977 142.672 117.39L142.74 117.302C142.74 117.302 142.74 117.33 142.74 117.342C142.739 117.369 142.739 117.396 142.74 117.423C142.696 117.861 142.668 118.295 142.644 118.729L142.656 118.725Z" fill="#263238"/>
<path d="M143.155 117.133C142.962 116.666 142.777 116.18 142.584 115.697C142.24 114.708 141.736 113.783 141.092 112.959C140.601 112.38 139.785 111.825 139.033 112.05C138.867 112.097 138.713 112.178 138.579 112.287C137.666 113.011 138.145 114.27 138.788 114.969C139.249 115.465 139.769 115.902 140.336 116.272C140.998 116.718 141.714 117.077 142.467 117.342C142.544 117.37 142.616 117.394 142.692 117.414L142.761 117.434H142.789L142.894 117.466C142.901 117.469 142.908 117.47 142.916 117.469C142.923 117.468 142.931 117.465 142.937 117.461C142.943 117.456 142.948 117.451 142.952 117.444C142.956 117.437 142.958 117.43 142.958 117.422C142.992 117.421 143.025 117.412 143.055 117.395C143.085 117.379 143.111 117.356 143.13 117.327C143.149 117.299 143.161 117.267 143.166 117.233C143.17 117.199 143.166 117.165 143.155 117.133ZM142.64 117.181C141.857 116.734 141.097 116.247 140.364 115.721L140.099 115.516C139.829 115.306 139.571 115.08 139.327 114.841C138.88 114.394 137.943 112.709 139.186 112.557C139.345 112.536 139.506 112.536 139.665 112.557C140.722 112.677 141.442 114.346 141.812 115.166C142.109 115.826 142.371 116.493 142.688 117.141C142.702 117.172 142.716 117.203 142.733 117.233L142.64 117.181Z" fill="#263238"/>
<path d="M133.685 121.769L133.09 121.978L132.981 122.018L132.607 122.151C122.152 125.859 101.596 132.26 92.1941 129.011C82.7926 125.762 69.4704 71.8821 69.209 72.059H91.9971C91.9971 72.059 96.2354 82.9927 92.6204 89.8729C92.2866 90.5083 100.715 112.955 105.814 112.339C109.795 111.857 120.897 107.691 127.902 105.535L129.044 105.186L133.685 121.769Z" fill="#455A64"/>
<path d="M68.7663 51.1571C68.7679 51.2125 68.7896 51.2655 68.8273 51.3062C68.8651 51.3469 68.9162 51.3725 68.9714 51.3783L69.8601 51.3139C70.3828 48.9937 71.0182 47.1158 70.8774 47.8316C70.6725 48.9589 70.6252 50.1092 70.7367 51.2496L72.4899 51.0928C72.699 47.1038 73.2258 44.0959 73.2942 44.9926C73.5153 48.6117 73.8531 49.7457 74.2392 50.944C78.4735 50.5419 84.0187 49.995 88.0198 49.4923C88.2168 47.2726 88.3375 44.8881 88.4219 45.0409C89.1176 46.1829 89.4795 47.9241 89.6604 49.2792C90.9311 49.1103 91.9445 48.9495 92.5597 48.8168C92.5597 48.8168 92.6361 46.967 92.604 46.3679C92.533 44.8304 92.1942 43.3172 91.6027 41.8963C90.951 40.5051 90.1602 39.1834 89.2422 37.9515L89.2181 37.9234C88.6479 37.0961 88.1756 36.2055 87.8107 35.2694C87.5575 34.5826 87.3598 33.8766 87.2196 33.1582C86.7089 30.5284 85.032 28.4253 82.6153 28.0513C77.6773 24.2272 73.4993 26.7163 72.5864 30.3072C72.498 30.6571 72.4216 31.0551 72.3532 31.4894C72.0918 33.0979 71.9511 35.1407 71.75 36.717C71.6857 37.3405 71.5837 37.9596 71.4444 38.5708C70.6442 41.5223 68.2958 43.4565 68.7663 51.1571Z" fill="#263238"/>
<path d="M83.6852 28.6061C84.4923 28.8865 85.213 29.3714 85.7768 30.0135C86.3406 30.6555 86.7284 31.4328 86.9021 32.2694C87.1086 33.3793 87.4502 34.4596 87.9195 35.4864C88.4916 36.4705 89.2042 37.3659 90.0346 38.1444C91.2893 39.4271 92.2182 40.7501 92.6203 42.628C93.0224 44.5059 93.2194 46.8302 92.8334 48.7201C93.0481 46.6015 92.8557 44.4613 92.2664 42.4149C91.6753 40.3601 90.4006 39.1979 89.0696 37.7503C87.9976 36.61 87.2409 35.2103 86.874 33.6889C86.6408 32.7479 86.5322 31.7467 86.0697 30.8741C85.5108 29.8567 84.5698 29.2937 83.657 28.8031C83.4881 28.7509 83.5726 28.578 83.6852 28.6061Z" fill="#263238"/>
<path d="M69.2084 41.9283C70.1011 40.2716 71.0661 38.828 71.4683 36.8697C71.8382 35.0842 71.9428 33.2506 72.3208 31.4571C72.3208 31.429 72.369 31.433 72.361 31.4571C71.8302 34.6017 72.0312 37.6779 70.5233 40.4727C69.7191 41.9927 68.8706 43.4081 68.4242 45.1573C67.9761 46.9903 67.8563 48.8881 68.0704 50.7629C68.0704 50.8313 67.998 50.8353 67.9819 50.7629C67.3435 47.7653 67.7775 44.6387 69.2084 41.9283Z" fill="#263238"/>
<path d="M76.1531 50.3249C72.5943 53.7791 59.4289 60.201 54.7322 58.5523C51.668 57.4786 42.8817 48.9014 41.1526 46.36C39.142 43.3924 45.4352 37.6421 47.2085 38.7881C49.4242 40.2237 56.2924 47.7152 58.3794 48.9054C59.5857 49.5931 67.9981 46.8385 76.0968 45.1577C79.2373 44.5022 78.2803 48.2821 76.1531 50.3249Z" fill="#EB9481"/>
<path d="M47.3255 41.8843C47.3255 41.8843 42.0336 38.1486 41.6958 38.0561C41.3581 37.9636 41.2254 38.418 41.0967 38.7679C41.0665 38.9917 41.0584 39.218 41.0725 39.4434C41.0725 40.5091 41.0725 42.391 39.7254 42.1618C37.9802 41.8602 38.0365 37.6299 38.1491 36.9704C38.2382 36.6858 38.3878 36.4238 38.5875 36.2024C39.259 35.37 40.598 34.3285 41.8647 34.5255C43.618 34.7949 45.2425 35.8646 46.7183 36.6929L47.3255 41.8843Z" fill="#EB9481"/>
<path d="M47.324 41.8843C47.324 41.8843 42.0321 38.1486 41.6943 38.0561C41.3565 37.9636 41.2238 38.418 41.0952 38.7679C41.0649 38.9917 41.0569 39.218 41.071 39.4434C40.1823 38.2934 39.2052 37.0307 38.5859 36.2024C39.2575 35.37 40.5965 34.3285 41.8632 34.5255C43.6165 34.7949 45.241 35.8646 46.7168 36.6929L47.324 41.8843Z" fill="#263238"/>
<path d="M44.8311 50.4772C44.6099 50.1676 42.3219 47.8313 40.5968 46.0539C40.838 44.168 40.8782 40.3518 40.8903 39.3425C41.0994 38.2206 40.8903 35.7234 40.7938 35.7234C40.5847 35.7234 39.8448 35.7234 38.9441 35.635C37.7377 35.5264 36.2981 35.2932 35.4215 34.7865C35.2051 34.6922 35.0187 34.5404 34.8826 34.3475C34.7464 34.1547 34.6658 33.9282 34.6494 33.6927C34.6494 32.8885 36.467 32.8041 38.6063 32.5427C41.5176 32.1848 45.1166 31.9033 46.2747 32.977C47.9837 34.5854 48.7437 37.9994 49.0895 39.0088C49.4354 40.0181 51.5585 42.7324 51.5585 42.7324C49.9863 48.1891 45.1246 50.8874 44.8311 50.4772Z" fill="#EB9481"/>
<path d="M29.8576 32.5188C29.8576 32.5188 33.6938 33.8297 37.7231 35.0119C41.7523 36.1942 49.8832 40.4888 49.9274 40.8346C49.9716 41.1805 40.9762 38.5305 37.1681 36.8979C33.3601 35.2653 29.6123 33.3713 29.6123 33.3713L29.8576 32.5188Z" fill="#455A64"/>
<path d="M29.7878 32.4468L32.47 33.2309L31.907 34.6343L29.438 33.4119L29.7878 32.4468Z" fill="#EBEBEB"/>
<path d="M29.8015 32.4465C29.5894 32.1677 29.3139 31.9435 28.9978 31.7924C28.6817 31.6413 28.3342 31.5678 27.984 31.578C27.6906 31.599 27.3961 31.5587 27.1192 31.4597C26.8423 31.3607 26.589 31.2051 26.3755 31.0029C26.3755 31.0029 27.1355 33.5765 29.4316 33.4156L29.8015 32.4465Z" fill="#455A64"/>
<path d="M26.3023 30.9262C26.4632 30.9262 26.9055 31.461 27.5087 31.5133C28.1119 31.5656 27.8625 33.2545 27.2996 32.6955C26.6562 32.0642 26.0128 30.9101 26.3023 30.9262Z" fill="#00AAFF"/>
<path d="M40.5968 46.0746C40.0056 45.4754 39.4748 44.9527 39.1049 44.6028C37.9535 43.5911 37.2338 42.1764 37.0943 40.65C36.9093 39.3029 33.9417 36.48 36.1734 36.2709C38.4052 36.0618 40.1665 40.1675 40.6852 39.8659C40.7817 39.8096 40.8541 39.6246 40.9024 39.3632C40.8782 40.3725 40.838 44.1886 40.5968 46.0746Z" fill="#EB9481"/>
<path d="M40.9684 38.6309C40.9684 38.5786 40.9322 38.5867 40.9242 38.6309C40.9242 38.8159 40.7995 39.6483 40.6105 39.6483C40.2728 39.6483 39.1026 37.9835 38.4873 37.3723C38.4512 37.3401 38.4029 37.3723 38.4391 37.4125C38.612 37.5653 39.1307 38.2931 39.2634 38.466C39.5168 38.8038 40.2165 39.8815 40.6387 39.8815C40.9202 39.9056 40.9885 38.844 40.9684 38.6309Z" fill="#263238"/>
<path d="M64.1338 47.3328L65.9152 52.9022C66.5747 55.0013 67.1859 56.9234 67.2261 57.1446C70.4403 55.3726 73.4981 53.3305 76.3663 51.0404C80.2347 47.8998 79.8285 45.266 77.5726 44.8598C77.2297 44.8039 76.8809 44.793 76.5352 44.8276C73.463 45.1132 64.1338 47.3328 64.1338 47.3328Z" fill="#00AAFF"/>
<path d="M70.5242 47.9401H70.2105C70.1326 47.9422 70.0551 47.9287 69.9825 47.9004C69.9098 47.8721 69.8437 47.8295 69.7878 47.7751C69.7319 47.7207 69.6875 47.6557 69.6572 47.5839C69.6269 47.5121 69.6113 47.435 69.6114 47.357C69.6062 47.2539 69.5616 47.1567 69.4867 47.0856C69.4119 47.0145 69.3125 46.9749 69.2092 46.975H68.8795V46.7739H69.2092C69.2862 46.7734 69.3624 46.7881 69.4336 46.8172C69.5048 46.8462 69.5696 46.8891 69.6241 46.9433C69.6787 46.9975 69.722 47.0619 69.7516 47.1329C69.7811 47.204 69.7963 47.2801 69.7963 47.357C69.7928 47.4107 69.8008 47.4646 69.8197 47.515C69.8387 47.5654 69.8682 47.6112 69.9062 47.6492C69.9443 47.6873 69.9901 47.7168 70.0405 47.7358C70.0909 47.7547 70.1447 47.7627 70.1985 47.7591H70.5121L70.5242 47.9401ZM67.0861 51.4546C67.1602 51.3868 67.257 51.3492 67.3575 51.3492C67.458 51.3492 67.5548 51.3868 67.6289 51.4546C67.7398 51.561 67.8874 51.6204 68.0411 51.6204C68.1947 51.6204 68.3424 51.561 68.4533 51.4546L68.6865 51.2174L68.5458 51.0766L68.3085 51.3098C68.2346 51.3765 68.1386 51.4135 68.0391 51.4135C67.9395 51.4135 67.8435 51.3765 67.7697 51.3098C67.6608 51.2075 67.517 51.1505 67.3675 51.1505C67.2181 51.1505 67.0743 51.2075 66.9654 51.3098L66.7402 51.535L66.885 51.6758L67.0861 51.4546Z" fill="white"/>
<path d="M65.915 52.9025C66.5745 55.0016 67.1857 56.9237 67.226 57.1449C70.4402 55.3729 73.4979 53.3308 76.3661 51.0407C80.2345 47.9001 79.8284 45.2662 77.5725 44.8601L65.915 52.9025Z" fill="#263238"/>
<path d="M98.7854 104.269H63.1777L63.3828 102.99L67.8423 75.0914L67.9026 74.7255L69.9977 61.6083C69.9977 61.6083 68.156 58.8216 68.7149 56.3044C68.9964 55.0296 71.9319 49.9388 73.4921 47.8599C73.9891 47.1647 74.5418 46.5111 75.1448 45.9056C76.8578 44.2971 79.166 44.092 80.8107 44.3333C81.1007 44.3782 81.3861 44.4496 81.6632 44.5464C84.0276 45.3506 86.935 48.1253 88.4992 52.3153C89.0421 53.771 89.5809 55.468 90.1077 57.3459C90.1318 57.4383 90.1559 57.5308 90.1841 57.6233C91.7403 63.2088 93.2281 70.3182 94.5109 77.295C95.2387 81.2398 95.9022 85.1444 96.4773 88.7031L96.5496 89.1736C97.9289 97.7951 98.7854 104.269 98.7854 104.269Z" fill="#00AAFF"/>
<path d="M81.0752 73.5915H80.7576C80.6029 73.5915 80.4546 73.5301 80.3453 73.4207C80.2359 73.3114 80.1745 73.1631 80.1745 73.0084C80.1745 72.9018 80.1321 72.7995 80.0567 72.7241C79.9813 72.6487 79.879 72.6063 79.7724 72.6063H79.4386V72.4093H79.7724C79.9274 72.4103 80.0757 72.4727 80.1849 72.5826C80.2941 72.6926 80.3554 72.8414 80.3554 72.9964C80.3603 73.0961 80.4021 73.1905 80.4727 73.2611C80.5434 73.3317 80.6377 73.3735 80.7374 73.3784H81.0551L81.0752 73.5915ZM86.0696 91.2647H85.7559C85.6562 91.2598 85.5618 91.218 85.4912 91.1474C85.4206 91.0767 85.3788 90.9824 85.3739 90.8826C85.3739 90.728 85.3125 90.5797 85.2031 90.4704C85.0938 90.361 84.9455 90.2996 84.7908 90.2996H84.4571V90.5006H84.7908C84.8906 90.5055 84.9849 90.5473 85.0555 90.6179C85.1261 90.6885 85.168 90.7829 85.1728 90.8826C85.1728 91.0373 85.2343 91.1856 85.3436 91.2949C85.453 91.4043 85.6013 91.4657 85.7559 91.4657H86.0696V91.2647ZM92.2903 74.3756H91.9767C91.8736 74.3705 91.7764 74.3258 91.7053 74.251C91.6342 74.1761 91.5946 74.0768 91.5947 73.9735C91.5936 73.8185 91.5313 73.6702 91.4213 73.561C91.3113 73.4517 91.1626 73.3904 91.0076 73.3904H90.6738V73.5915H91.0076C91.1108 73.5914 91.2102 73.631 91.285 73.7021C91.3599 73.7732 91.4045 73.8704 91.4097 73.9735C91.4097 74.1282 91.4711 74.2765 91.5805 74.3858C91.6898 74.4952 91.8381 74.5566 91.9928 74.5566H92.3064L92.2903 74.3756ZM76.3905 65.2837H76.0729C75.9731 65.2788 75.8788 65.237 75.8081 65.1664C75.7375 65.0958 75.6957 65.0014 75.6908 64.9017C75.6908 64.7471 75.6294 64.5988 75.5201 64.4894C75.4107 64.3801 75.2624 64.3186 75.1078 64.3186H74.774V64.5197H75.1078C75.211 64.5196 75.3104 64.5591 75.3852 64.6303C75.4601 64.7014 75.5047 64.7986 75.5099 64.9017C75.5099 65.0563 75.5713 65.2046 75.6807 65.314C75.79 65.4233 75.9383 65.4848 76.093 65.4848H76.4106L76.3905 65.2837ZM70.5236 57.7641H70.21C70.1067 57.7642 70.0074 57.7246 69.9325 57.6535C69.8576 57.5824 69.813 57.4852 69.8078 57.3821C69.8078 57.3052 69.7926 57.229 69.7631 57.158C69.7335 57.087 69.6902 57.0225 69.6356 56.9683C69.5811 56.9141 69.5163 56.8713 69.4451 56.8422C69.3739 56.8131 69.2977 56.7985 69.2207 56.799H68.891V57H69.2207C69.3274 57 69.4297 57.0424 69.5051 57.1178C69.5805 57.1932 69.6229 57.2955 69.6229 57.4022C69.6229 57.5568 69.6843 57.7051 69.7936 57.8145C69.903 57.9238 70.0513 57.9852 70.2059 57.9852H70.5196L70.5236 57.7641ZM86.1781 65.0786H85.8605C85.7572 65.0788 85.6579 65.0392 85.583 64.968C85.5081 64.8969 85.4635 64.7997 85.4583 64.6966C85.4583 64.542 85.3969 64.3937 85.2876 64.2843C85.1782 64.175 85.0299 64.1135 84.8753 64.1135H84.5415V64.3146H84.8913C84.9945 64.3198 85.0917 64.3644 85.1628 64.4393C85.2339 64.5141 85.2735 64.6135 85.2734 64.7167C85.2734 64.8714 85.3348 65.0197 85.4441 65.129C85.5535 65.2384 85.7018 65.2998 85.8564 65.2998H86.1741L86.1781 65.0786ZM80.3876 54.8487H80.0659C79.9662 54.8438 79.8718 54.802 79.8012 54.7314C79.7306 54.6608 79.6888 54.5664 79.6839 54.4667C79.6839 54.3121 79.6225 54.1637 79.5131 54.0544C79.4038 53.945 79.2555 53.8836 79.1008 53.8836H78.7671V54.0847H79.1008C79.204 54.0898 79.3011 54.1345 79.3723 54.2093C79.4434 54.2842 79.483 54.3835 79.4828 54.4868C79.4828 54.6414 79.5443 54.7897 79.6536 54.8991C79.763 55.0084 79.9113 55.0699 80.0659 55.0699H80.3836L80.3876 54.8487ZM73.9859 80.8538H73.6722C73.5691 80.8486 73.4719 80.804 73.4008 80.7291C73.3297 80.6543 73.2901 80.5549 73.2902 80.4517C73.2891 80.2967 73.2268 80.1484 73.1168 80.0391C73.0068 79.9299 72.8581 79.8686 72.7031 79.8686H72.3693V80.0697H72.7031C72.8097 80.0697 72.912 80.112 72.9874 80.1874C73.0629 80.2628 73.1052 80.3651 73.1052 80.4718C73.1052 80.6268 73.1665 80.7755 73.2758 80.8855C73.385 80.9955 73.5333 81.0578 73.6883 81.0589H74.0019L73.9859 80.8538ZM82.1087 97.6141H81.791C81.6844 97.6141 81.5821 97.5718 81.5067 97.4964C81.4312 97.4209 81.3889 97.3187 81.3889 97.212C81.3889 97.0574 81.3274 96.9091 81.2181 96.7997C81.1088 96.6904 80.9605 96.6289 80.8058 96.6289H80.472V96.83H80.8058C80.9056 96.8349 80.9999 96.8767 81.0705 96.9473C81.1411 97.0179 81.183 97.1123 81.1878 97.212C81.1878 97.3666 81.2493 97.515 81.3586 97.6243C81.4679 97.7337 81.6163 97.7951 81.7709 97.7951H82.0886L82.1087 97.6141ZM92.6563 103.32H92.3386C92.2355 103.315 92.1383 103.27 92.0672 103.196C91.9961 103.121 91.9565 103.021 91.9566 102.918C91.9566 102.763 91.8952 102.615 91.7858 102.506C91.6765 102.396 91.5282 102.335 91.3735 102.335H91.0398V102.536H91.3735C91.4733 102.541 91.5676 102.583 91.6382 102.653C91.7088 102.724 91.7507 102.818 91.7555 102.918C91.7555 103.073 91.8168 103.222 91.9261 103.332C92.0353 103.442 92.1836 103.504 92.3386 103.505H92.6563V103.32ZM70.4914 99.3513H70.1738C70.0705 99.3514 69.9712 99.3118 69.8963 99.2407C69.8214 99.1696 69.7768 99.0724 69.7716 98.9693C69.7716 98.8146 69.7102 98.6663 69.6009 98.557C69.4915 98.4476 69.3432 98.3862 69.1886 98.3862H68.8548V98.5873H69.2087C69.3084 98.5921 69.4028 98.6339 69.4734 98.7046C69.544 98.7752 69.5858 98.8695 69.5907 98.9693C69.5907 99.1239 69.6521 99.2722 69.7615 99.3816C69.8708 99.4909 70.0191 99.5523 70.1738 99.5523H70.4914V99.3513ZM79.4064 88.4378H79.0888C78.989 88.4329 78.8947 88.3911 78.824 88.3205C78.7534 88.2498 78.7116 88.1555 78.7067 88.0557C78.7067 87.9011 78.6453 87.7528 78.536 87.6435C78.4266 87.5341 78.2783 87.4727 78.1237 87.4727H77.7899V87.6737H78.1237C78.2269 87.6736 78.3263 87.7132 78.4011 87.7843C78.476 87.8554 78.5206 87.9526 78.5258 88.0557C78.5258 88.2104 78.5872 88.3587 78.6966 88.468C78.8059 88.5774 78.9542 88.6388 79.1089 88.6388H79.4265L79.4064 88.4378ZM69.6832 90.0462H69.3655C69.2658 90.0414 69.1714 89.9996 69.1008 89.9289C69.0302 89.8583 68.9884 89.764 68.9835 89.6642C68.9835 89.5092 68.9222 89.3605 68.813 89.2505C68.7037 89.1405 68.5554 89.0782 68.4004 89.0771H68.0667V89.2782H68.4044C68.5076 89.2834 68.6048 89.328 68.6759 89.4029C68.747 89.4777 68.7866 89.5771 68.7865 89.6803C68.7865 89.835 68.8479 89.9833 68.9572 90.0926C69.0666 90.202 69.2149 90.2634 69.3695 90.2634H69.6872L69.6832 90.0462ZM83.882 81.083H83.5644C83.4646 81.0781 83.3702 81.0363 83.2996 80.9657C83.229 80.8951 83.1872 80.8007 83.1823 80.701C83.1823 80.5463 83.1209 80.398 83.0116 80.2887C82.9022 80.1793 82.7539 80.1179 82.5993 80.1179H82.2655V80.319H82.5993C82.7024 80.3241 82.7996 80.3688 82.8707 80.4436C82.9418 80.5185 82.9814 80.6178 82.9813 80.7211C82.9813 80.8757 83.0427 81.024 83.1521 81.1334C83.2614 81.2427 83.4097 81.3042 83.5644 81.3042H83.882V81.083ZM96.3156 93.1466H95.9979C95.8948 93.1414 95.7976 93.0968 95.7265 93.0219C95.6553 92.9471 95.6158 92.8477 95.6159 92.7445C95.6148 92.5901 95.5531 92.4424 95.4439 92.3333C95.3348 92.2242 95.1871 92.1624 95.0328 92.1614H94.6991V92.3624H95.0328C95.1325 92.3673 95.2269 92.4091 95.2975 92.4798C95.3681 92.5504 95.41 92.6447 95.4148 92.7445C95.4148 92.8995 95.4761 93.0482 95.5854 93.1582C95.6946 93.2682 95.8429 93.3305 95.9979 93.3316H96.3156V93.1466ZM74.0824 69.7955C74.1563 69.7288 74.2523 69.6919 74.3518 69.6919C74.4513 69.6919 74.5473 69.7288 74.6212 69.7955C74.7301 69.8978 74.8739 69.9548 75.0233 69.9548C75.1728 69.9548 75.3166 69.8978 75.4255 69.7955L75.6627 69.5582L75.522 69.4175L75.2847 69.6547C75.2106 69.7226 75.1137 69.7602 75.0133 69.7602C74.9128 69.7602 74.816 69.7226 74.7418 69.6547C74.631 69.5483 74.4833 69.4889 74.3297 69.4889C74.176 69.4889 74.0283 69.5483 73.9175 69.6547L73.6963 69.8759L73.8371 70.0167L74.0824 69.7955ZM70.4633 63.7637C70.5372 63.697 70.6332 63.6601 70.7327 63.6601C70.8322 63.6601 70.9282 63.697 71.0021 63.7637C71.056 63.8183 71.1202 63.8616 71.1909 63.8912C71.2617 63.9208 71.3376 63.936 71.4143 63.936C71.491 63.936 71.5669 63.9208 71.6377 63.8912C71.7084 63.8616 71.7726 63.8183 71.8265 63.7637L72.0637 63.5305L71.923 63.3857L71.6857 63.623C71.6118 63.6896 71.5159 63.7266 71.4163 63.7266C71.3168 63.7266 71.2208 63.6896 71.1469 63.623C71.0354 63.5163 70.887 63.4567 70.7327 63.4567C70.5784 63.4567 70.43 63.5163 70.3185 63.623L70.0974 63.8481L70.2381 63.9889L70.4633 63.7637ZM88.6833 80.3149C88.7572 80.2483 88.8532 80.2113 88.9528 80.2113C89.0523 80.2113 89.1483 80.2483 89.2222 80.3149C89.3319 80.4155 89.4754 80.4713 89.6243 80.4713C89.7732 80.4713 89.9167 80.4155 90.0264 80.3149L90.2637 80.0777L90.1229 79.937L89.8857 80.1742C89.8118 80.2409 89.7158 80.2778 89.6163 80.2778C89.5167 80.2778 89.4207 80.2409 89.3468 80.1742C89.2926 80.1195 89.2281 80.0761 89.157 80.0464C89.0859 80.0168 89.0097 80.0015 88.9326 80.0015C88.8556 80.0015 88.7794 80.0168 88.7083 80.0464C88.6372 80.0761 88.5727 80.1195 88.5185 80.1742L88.2973 80.3954L88.438 80.5401L88.6833 80.3149ZM79.5673 60.7438C79.6412 60.6771 79.7372 60.6402 79.8367 60.6402C79.9362 60.6402 80.0322 60.6771 80.1061 60.7438C80.217 60.8502 80.3646 60.9096 80.5183 60.9096C80.6719 60.9096 80.8196 60.8502 80.9305 60.7438L81.1677 60.5065L81.027 60.3658L80.7897 60.599C80.7156 60.6668 80.6188 60.7044 80.5183 60.7044C80.4178 60.7044 80.321 60.6668 80.2469 60.599C80.1351 60.4944 79.9878 60.4362 79.8347 60.4362C79.6816 60.4362 79.5343 60.4944 79.4225 60.599L79.2014 60.8242L79.3421 60.9649L79.5673 60.7438ZM77.4682 48.1695C77.5423 48.1017 77.6392 48.0641 77.7396 48.0641C77.8401 48.0641 77.937 48.1017 78.0111 48.1695C78.1209 48.2778 78.269 48.3385 78.4232 48.3385C78.5775 48.3385 78.7256 48.2778 78.8354 48.1695L79.0727 47.9322L78.9279 47.7915L78.6947 48.0247C78.6206 48.0926 78.5237 48.1302 78.4232 48.1302C78.3228 48.1302 78.226 48.0926 78.1518 48.0247C78.0429 47.9224 77.8991 47.8654 77.7497 47.8654C77.6003 47.8654 77.4565 47.9224 77.3476 48.0247L77.1224 48.2499L77.2672 48.3907L77.4682 48.1695ZM73.3626 55.0256C73.4365 54.959 73.5325 54.922 73.632 54.922C73.7315 54.922 73.8275 54.959 73.9014 55.0256C73.9553 55.0802 74.0195 55.1236 74.0902 55.1532C74.161 55.1827 74.2369 55.198 74.3136 55.198C74.3903 55.198 74.4662 55.1827 74.537 55.1532C74.6077 55.1236 74.6719 55.0802 74.7258 55.0256L74.963 54.7924L74.8223 54.6476L74.585 54.8849C74.5109 54.9527 74.4141 54.9903 74.3136 54.9903C74.2131 54.9903 74.1163 54.9527 74.0422 54.8849C73.9333 54.7825 73.7895 54.7256 73.64 54.7256C73.4906 54.7256 73.3468 54.7825 73.2379 54.8849L73.0168 55.1101L73.1575 55.2508L73.3626 55.0256ZM79.8769 67.4149C79.8818 67.3152 79.9236 67.2208 79.9942 67.1502C80.0648 67.0796 80.1592 67.0378 80.2589 67.0329C80.4136 67.0329 80.5619 66.9715 80.6712 66.8622C80.7806 66.7528 80.842 66.6045 80.842 66.4499V66.1161H80.6409V66.4499C80.6411 66.5531 80.6015 66.6525 80.5304 66.7273C80.4592 66.8022 80.3621 66.8468 80.2589 66.852C80.1043 66.852 79.956 66.9134 79.8466 67.0228C79.7373 67.1321 79.6759 67.2804 79.6759 67.4351V67.7527H79.8769V67.4149ZM77.7336 83.2665C77.7388 83.1634 77.7834 83.0662 77.8583 82.9951C77.9331 82.924 78.0325 82.8844 78.1357 82.8845C78.2904 82.8845 78.4387 82.8231 78.548 82.7137C78.6574 82.6044 78.7188 82.4561 78.7188 82.3014V81.9677H78.5177V82.3014C78.5179 82.4047 78.4783 82.504 78.4072 82.5789C78.3361 82.6537 78.2389 82.6984 78.1357 82.7035C78.0592 82.7009 77.9828 82.7133 77.911 82.7401C77.8392 82.767 77.7735 82.8077 77.7175 82.86C77.6614 82.9123 77.6163 82.9751 77.5845 83.0448C77.5528 83.1146 77.5352 83.1899 77.5326 83.2665V83.5842H77.7336V83.2665ZM88.9125 95.0969C88.9177 94.9937 88.9623 94.8965 89.0372 94.8254C89.1121 94.7543 89.2114 94.7147 89.3147 94.7148C89.4693 94.7148 89.6176 94.6534 89.727 94.5441C89.8363 94.4347 89.8977 94.2864 89.8977 94.1318V93.798H89.6967V94.1237C89.6968 94.227 89.6572 94.3263 89.5861 94.4012C89.515 94.4761 89.4178 94.5207 89.3147 94.5259C89.1597 94.5258 89.0109 94.5871 88.9009 94.6964C88.7909 94.8056 88.7286 94.9539 88.7276 95.1089V95.4266H88.9286L88.9125 95.0969ZM96.6453 102.801C96.6502 102.702 96.692 102.607 96.7626 102.537C96.8332 102.466 96.9276 102.424 97.0273 102.419C97.182 102.419 97.3303 102.358 97.4396 102.249C97.549 102.139 97.6104 101.991 97.6104 101.836V101.503H97.4093V101.836C97.4042 101.94 97.3595 102.037 97.2847 102.108C97.2098 102.179 97.1105 102.219 97.0072 102.218C96.8526 102.218 96.7043 102.28 96.5949 102.389C96.4856 102.499 96.4241 102.647 96.4241 102.801V103.119H96.6252L96.6453 102.801ZM93.8305 80.4959C93.8271 80.4439 93.8346 80.3918 93.8523 80.3429C93.8701 80.2939 93.8978 80.2492 93.9336 80.2114C93.9695 80.1736 94.0128 80.1437 94.0608 80.1235C94.1088 80.1032 94.1604 80.0931 94.2125 80.0938C94.3675 80.0927 94.5158 80.0304 94.625 79.9204C94.7343 79.8104 94.7956 79.6617 94.7956 79.5067V79.1729H94.5945V79.5067C94.5946 79.6099 94.555 79.7093 94.4839 79.7841C94.4128 79.859 94.3156 79.9036 94.2125 79.9088C94.0578 79.9088 93.9095 79.9702 93.8002 80.0796C93.6908 80.1889 93.6294 80.3372 93.6294 80.4919V80.8055H93.8305V80.4959ZM68.9714 83.8456C68.9766 83.7424 69.0212 83.6452 69.0961 83.5741C69.1709 83.503 69.2703 83.4634 69.3736 83.4635C69.5282 83.4635 69.6765 83.4021 69.7858 83.2928C69.8952 83.1834 69.9566 83.0351 69.9566 82.8805V82.5467H69.7556V82.8644C69.7589 82.9164 69.7514 82.9685 69.7337 83.0174C69.7159 83.0664 69.6883 83.1111 69.6524 83.1489C69.6165 83.1866 69.5732 83.2166 69.5253 83.2368C69.4773 83.2571 69.4256 83.2672 69.3736 83.2665C69.2189 83.2665 69.0706 83.3279 68.9613 83.4373C68.8519 83.5466 68.7905 83.6949 68.7905 83.8496V84.1673H68.9915L68.9714 83.8456ZM69.454 69.5944C69.4588 69.4947 69.5007 69.4003 69.5713 69.3297C69.6419 69.2591 69.7362 69.2173 69.836 69.2124C69.9899 69.2114 70.1372 69.1495 70.2457 69.0402C70.3542 68.931 70.415 68.7833 70.415 68.6293V68.2956H70.214V68.6293C70.214 68.736 70.1716 68.8383 70.0962 68.9137C70.0208 68.9891 69.9185 69.0315 69.8119 69.0315C69.6572 69.0315 69.5089 69.0929 69.3996 69.2022C69.2902 69.3116 69.2288 69.4599 69.2288 69.6145V69.9322H69.4298L69.454 69.5944ZM74.6534 60.3457C74.6532 60.2424 74.6928 60.1431 74.764 60.0682C74.8351 59.9934 74.9323 59.9487 75.0354 59.9436C75.19 59.9436 75.3383 59.8821 75.4477 59.7728C75.557 59.6634 75.6185 59.5151 75.6185 59.3605V59.0267H75.4174V59.3605C75.4125 59.4602 75.3707 59.5546 75.3001 59.6252C75.2295 59.6958 75.1351 59.7376 75.0354 59.7425C74.8808 59.7425 74.7324 59.8039 74.6231 59.9133C74.5138 60.0226 74.4523 60.1709 74.4523 60.3256V60.6433H74.6534V60.3457ZM72.687 51.0286C72.6922 50.9254 72.7368 50.8283 72.8117 50.7571C72.8865 50.686 72.9859 50.6464 73.0891 50.6466C73.2441 50.6455 73.3924 50.5832 73.5017 50.4732C73.6109 50.3632 73.6722 50.2145 73.6722 50.0595V49.7257H73.4712V50.0595C73.4713 50.1627 73.4317 50.2621 73.3606 50.3369C73.2894 50.4118 73.1923 50.4564 73.0891 50.4616C72.9345 50.4616 72.7862 50.523 72.6768 50.6324C72.5675 50.7417 72.5061 50.89 72.5061 51.0447V51.3583H72.7071L72.687 51.0286ZM73.258 74.6692C73.2579 74.5659 73.2975 74.4666 73.3686 74.3917C73.4397 74.3169 73.5369 74.2722 73.64 74.2671C73.7947 74.2671 73.943 74.2056 74.0523 74.0963C74.1617 73.9869 74.2231 73.8386 74.2231 73.684V73.3502H74.0341V73.684C74.0292 73.7837 73.9874 73.8781 73.9168 73.9487C73.8462 74.0193 73.7518 74.0611 73.6521 74.066C73.4975 74.066 73.3492 74.1274 73.2398 74.2368C73.1305 74.3461 73.069 74.4944 73.069 74.6491V74.9668H73.2701L73.258 74.6692ZM85.7921 76.5953C85.792 76.4921 85.8316 76.3927 85.9027 76.3179C85.9738 76.243 86.071 76.1984 86.1741 76.1932C86.3288 76.1932 86.4771 76.1318 86.5864 76.0224C86.6957 75.9131 86.7572 75.7648 86.7572 75.6101V75.2764H86.5561V75.6262C86.5513 75.726 86.5094 75.8203 86.4388 75.8909C86.3682 75.9616 86.2739 76.0034 86.1741 76.0082C86.0195 76.0082 85.8712 76.0697 85.7618 76.179C85.6525 76.2884 85.591 76.4367 85.591 76.5913V76.909H85.7921V76.5953ZM74.207 92.6801C74.2119 92.5804 74.2537 92.486 74.3243 92.4154C74.3949 92.3448 74.4893 92.303 74.589 92.2981C74.7437 92.2981 74.892 92.2367 75.0013 92.1273C75.1107 92.018 75.1721 91.8697 75.1721 91.715V91.3813H74.9711V91.711C74.9659 91.8141 74.9213 91.9113 74.8464 91.9824C74.7715 92.0536 74.6722 92.0932 74.5689 92.093C74.4143 92.093 74.266 92.1545 74.1566 92.2638C74.0473 92.3732 73.9859 92.5215 73.9859 92.6761V92.9938H74.1869L74.207 92.6801ZM65.3322 96.9386C65.3321 96.8353 65.3717 96.736 65.4428 96.6611C65.5139 96.5862 65.6111 96.5416 65.7143 96.5364C65.8689 96.5364 66.0172 96.475 66.1266 96.3657C66.2359 96.2563 66.2973 96.108 66.2973 95.9534V95.6196H66.0963V95.9534C66.0914 96.0531 66.0496 96.1475 65.979 96.2181C65.9084 96.2887 65.814 96.3305 65.7143 96.3354C65.5596 96.3354 65.4113 96.3968 65.302 96.5062C65.1926 96.6155 65.1312 96.7638 65.1312 96.9185V97.2361H65.3322V96.9386ZM76.9254 101.764C76.9302 101.664 76.972 101.57 77.0427 101.499C77.1133 101.429 77.2076 101.387 77.3074 101.382C77.462 101.382 77.6103 101.321 77.7197 101.211C77.829 101.102 77.8904 100.954 77.8904 100.799V100.465H77.6894V100.799C77.6842 100.902 77.6396 100.999 77.5647 101.07C77.4899 101.141 77.3905 101.181 77.2873 101.181C77.1326 101.181 76.9843 101.242 76.875 101.352C76.7656 101.461 76.7042 101.609 76.7042 101.764V102.082H76.9053L76.9254 101.764ZM89.9902 85.7275C89.9901 85.6242 90.0297 85.5249 90.1008 85.45C90.1719 85.3751 90.2691 85.3305 90.3722 85.3254C90.4492 85.3254 90.5253 85.3101 90.5963 85.2806C90.6673 85.251 90.7318 85.2077 90.786 85.1532C90.8402 85.0986 90.883 85.0338 90.9121 84.9626C90.9412 84.8914 90.9558 84.8152 90.9553 84.7383V84.4045H90.7542V84.7383C90.7544 84.8415 90.7148 84.9409 90.6437 85.0157C90.5725 85.0906 90.4754 85.1352 90.3722 85.1404C90.2176 85.1404 90.0693 85.2018 89.9599 85.3112C89.8506 85.4205 89.7892 85.5688 89.7892 85.7235V86.0371H89.9902V85.7275ZM84.6581 69.9966C84.7323 69.9287 84.8291 69.8911 84.9295 69.8911C85.03 69.8911 85.1268 69.9287 85.201 69.9966C85.2548 70.0511 85.319 70.0945 85.3898 70.1241C85.4605 70.1537 85.5365 70.1689 85.6132 70.1689C85.6898 70.1689 85.7658 70.1537 85.8365 70.1241C85.9073 70.0945 85.9715 70.0511 86.0253 69.9966L86.2505 69.7714L86.1057 69.6306L85.8846 69.8558C85.8105 69.9236 85.7136 69.9612 85.6132 69.9612C85.5127 69.9612 85.4158 69.9236 85.3417 69.8558C85.2879 69.8012 85.2237 69.7579 85.1529 69.7283C85.0822 69.6987 85.0062 69.6835 84.9295 69.6835C84.8529 69.6835 84.7769 69.6987 84.7062 69.7283C84.6354 69.7579 84.5712 69.8012 84.5174 69.8558L84.2801 70.089L84.4209 70.2338L84.6581 69.9966ZM77.5084 77.1865C77.5826 77.1186 77.6794 77.081 77.7799 77.081C77.8803 77.081 77.9772 77.1186 78.0513 77.1865C78.1611 77.2871 78.3045 77.3429 78.4534 77.3429C78.6023 77.3429 78.7458 77.2871 78.8555 77.1865L79.0767 76.9613L78.936 76.8205L78.7108 77.0457C78.6369 77.1124 78.5409 77.1493 78.4413 77.1493C78.3418 77.1493 78.2458 77.1124 78.1719 77.0457C78.1181 76.9911 78.0539 76.9478 77.9831 76.9182C77.9124 76.8886 77.8364 76.8734 77.7598 76.8734C77.6831 76.8734 77.6071 76.8886 77.5364 76.9182C77.4656 76.9478 77.4015 76.9911 77.3476 77.0457L77.1103 77.2789L77.2511 77.4237L77.5084 77.1865ZM72.5543 86.9419C72.6284 86.8741 72.7253 86.8364 72.8257 86.8364C72.9262 86.8364 73.023 86.8741 73.0972 86.9419C73.151 86.9965 73.2152 87.0398 73.286 87.0694C73.3567 87.099 73.4327 87.1142 73.5094 87.1142C73.586 87.1142 73.662 87.099 73.7327 87.0694C73.8035 87.0398 73.8677 86.9965 73.9215 86.9419L74.1467 86.7167L74.0019 86.5759L73.7808 86.8011C73.7066 86.8689 73.6098 86.9066 73.5094 86.9066C73.4089 86.9066 73.312 86.8689 73.2379 86.8011C73.1841 86.7465 73.1199 86.7032 73.0491 86.6736C72.9784 86.644 72.9024 86.6288 72.8257 86.6288C72.7491 86.6288 72.6731 86.644 72.6024 86.6736C72.5316 86.7032 72.4674 86.7465 72.4136 86.8011L72.1763 87.0344L72.3211 87.1791L72.5543 86.9419ZM74.6976 97.0793C74.7715 97.0126 74.8675 96.9757 74.967 96.9757C75.0666 96.9757 75.1626 97.0126 75.2365 97.0793C75.3462 97.1799 75.4897 97.2357 75.6386 97.2357C75.7875 97.2357 75.9309 97.1799 76.0407 97.0793L76.2659 96.8541L76.1251 96.7134L75.9 96.9345C75.8651 96.9708 75.8232 96.9996 75.7769 97.0193C75.7306 97.039 75.6808 97.0492 75.6305 97.0492C75.5802 97.0492 75.5304 97.039 75.4841 97.0193C75.4378 96.9996 75.396 96.9708 75.3611 96.9345C75.2506 96.826 75.1019 96.7652 74.9469 96.7652C74.792 96.7652 74.6433 96.826 74.5327 96.9345L74.2995 97.1718L74.4403 97.3166L74.6976 97.0793ZM81.6744 103.019C81.7485 102.951 81.8453 102.913 81.9458 102.913C82.0463 102.913 82.1431 102.951 82.2173 103.019C82.3286 103.124 82.4761 103.183 82.6294 103.183C82.7828 103.183 82.9303 103.124 83.0416 103.019L83.2668 102.793L83.122 102.653L82.9009 102.874C82.8267 102.942 82.7299 102.979 82.6294 102.979C82.529 102.979 82.4321 102.942 82.358 102.874C82.2481 102.766 82.1001 102.705 81.9458 102.705C81.7916 102.705 81.6435 102.766 81.5336 102.874L81.2964 103.111L81.4412 103.252L81.6744 103.019ZM84.2962 85.9446C84.3703 85.8768 84.4672 85.8392 84.5676 85.8392C84.6681 85.8392 84.7649 85.8768 84.8391 85.9446C84.9504 86.0501 85.0979 86.1089 85.2512 86.1089C85.4046 86.1089 85.5521 86.0501 85.6634 85.9446L85.8846 85.7194L85.7438 85.5787L85.5227 85.7999C85.4485 85.8677 85.3517 85.9053 85.2512 85.9053C85.1508 85.9053 85.0539 85.8677 84.9798 85.7999C84.87 85.6916 84.7219 85.6308 84.5676 85.6308C84.4134 85.6308 84.2653 85.6916 84.1555 85.7999L83.9182 86.0371L84.063 86.1778L84.2962 85.9446ZM86.0696 99.2709C86.1437 99.203 86.2405 99.1654 86.341 99.1654C86.4415 99.1654 86.5383 99.203 86.6124 99.2709C86.7218 99.3801 86.87 99.4415 87.0246 99.4415C87.1792 99.4415 87.3274 99.3801 87.4368 99.2709L87.662 99.0457L87.5172 98.9049L87.296 99.1301C87.2219 99.1979 87.1251 99.2356 87.0246 99.2356C86.9241 99.2356 86.8273 99.1979 86.7532 99.1301C86.6434 99.0295 86.4999 98.9737 86.351 98.9737C86.2022 98.9737 86.0587 99.0295 85.9489 99.1301L85.6956 99.3513L85.8403 99.496L86.0696 99.2709ZM93.5128 98.4385C93.5867 98.3718 93.6827 98.3349 93.7822 98.3349C93.8817 98.3349 93.9777 98.3718 94.0516 98.4385C94.1625 98.5449 94.3102 98.6043 94.4638 98.6043C94.6174 98.6043 94.7651 98.5449 94.876 98.4385L95.1012 98.2133L94.9604 98.0726L94.7352 98.2977C94.6614 98.3644 94.5653 98.4013 94.4658 98.4013C94.3663 98.4013 94.2703 98.3644 94.1964 98.2977C94.1422 98.243 94.0777 98.1996 94.0066 98.17C93.9355 98.1403 93.8592 98.1251 93.7822 98.1251C93.7052 98.1251 93.6289 98.1403 93.5578 98.17C93.4868 98.1996 93.4222 98.243 93.368 98.2977L93.1348 98.531L93.2755 98.6757L93.5128 98.4385ZM94.1079 85.9446C94.1432 85.9083 94.1854 85.8793 94.232 85.8596C94.2786 85.8399 94.3287 85.8297 94.3794 85.8297C94.43 85.8297 94.4801 85.8399 94.5267 85.8596C94.5734 85.8793 94.6155 85.9083 94.6508 85.9446C94.7597 86.047 94.9035 86.104 95.0529 86.104C95.2023 86.104 95.3461 86.047 95.455 85.9446L95.6762 85.7194L95.5355 85.5787L95.3143 85.7999C95.2402 85.8677 95.1433 85.9053 95.0429 85.9053C94.9424 85.9053 94.8456 85.8677 94.7714 85.7999C94.6606 85.6934 94.5129 85.634 94.3593 85.634C94.2056 85.634 94.0579 85.6934 93.9471 85.7999L93.7098 86.0371L93.8506 86.1778L94.1079 85.9446ZM90.891 89.9658C90.9649 89.8991 91.0609 89.8622 91.1604 89.8622C91.2599 89.8622 91.3559 89.8991 91.4298 89.9658C91.5387 90.0682 91.6825 90.1252 91.8319 90.1252C91.9814 90.1252 92.1252 90.0682 92.2341 89.9658L92.4592 89.7406L92.3185 89.5999L92.0933 89.821C92.0194 89.8877 91.9234 89.9247 91.8239 89.9247C91.7244 89.9247 91.6284 89.8877 91.5545 89.821C91.4439 89.7125 91.2952 89.6517 91.1403 89.6517C90.9854 89.6517 90.8366 89.7125 90.7261 89.821L90.4929 90.0583L90.6336 90.199L90.891 89.9658ZM79.7925 93.03C79.8666 92.9622 79.9634 92.9245 80.0639 92.9245C80.1644 92.9245 80.2612 92.9622 80.3353 93.03C80.4452 93.1383 80.5932 93.199 80.7475 93.199C80.9018 93.199 81.0498 93.1383 81.1597 93.03L81.3849 92.8048L81.2401 92.664L81.0189 92.8852C80.9448 92.953 80.848 92.9906 80.7475 92.9906C80.647 92.9906 80.5502 92.953 80.4761 92.8852C80.3643 92.7806 80.217 92.7224 80.0639 92.7224C79.9108 92.7224 79.7635 92.7806 79.6517 92.8852L79.4145 93.1225L79.5592 93.2632L79.7925 93.03ZM69.5826 94.4253C69.6565 94.3586 69.7525 94.3217 69.8521 94.3217C69.9516 94.3217 70.0476 94.3586 70.1215 94.4253C70.2313 94.5259 70.3747 94.5817 70.5236 94.5817C70.6725 94.5817 70.816 94.5259 70.9257 94.4253L71.1509 94.2001L71.0102 94.0594L70.785 94.2846C70.7111 94.3513 70.6151 94.3882 70.5156 94.3882C70.416 94.3882 70.32 94.3513 70.2461 94.2846C70.1346 94.1779 69.9863 94.1184 69.832 94.1184C69.6777 94.1184 69.5293 94.1779 69.4178 94.2846L69.2087 94.5259L69.3494 94.6706L69.5826 94.4253ZM71.3198 103.557C71.3937 103.491 71.4897 103.454 71.5892 103.454C71.6888 103.454 71.7848 103.491 71.8586 103.557C71.9685 103.666 72.1166 103.726 72.2708 103.726C72.4251 103.726 72.5731 103.666 72.683 103.557L72.9082 103.332L72.7634 103.192L72.5422 103.413C72.507 103.449 72.4648 103.478 72.4182 103.498C72.3716 103.517 72.3215 103.528 72.2708 103.528C72.2202 103.528 72.1701 103.517 72.1234 103.498C72.0768 103.478 72.0346 103.449 71.9994 103.413C71.8905 103.31 71.7467 103.253 71.5973 103.253C71.4478 103.253 71.304 103.31 71.1952 103.413L70.9579 103.65L71.1027 103.791L71.3198 103.557ZM64.8859 102.351C64.9598 102.284 65.0558 102.247 65.1553 102.247C65.2548 102.247 65.3508 102.284 65.4247 102.351C65.5336 102.453 65.6774 102.51 65.8269 102.51C65.9763 102.51 66.1201 102.453 66.229 102.351L66.4542 102.126L66.3134 101.985L66.0882 102.21C66.0141 102.278 65.9173 102.316 65.8168 102.316C65.7163 102.316 65.6195 102.278 65.5454 102.21C65.4915 102.156 65.4273 102.112 65.3566 102.083C65.2858 102.053 65.2099 102.038 65.1332 102.038C65.0565 102.038 64.9806 102.053 64.9098 102.083C64.8391 102.112 64.7749 102.156 64.721 102.21L64.4878 102.444L64.6285 102.588L64.8859 102.351ZM68.7704 77.3956C68.8443 77.3289 68.9403 77.292 69.0398 77.292C69.1393 77.292 69.2353 77.3289 69.3092 77.3956C69.419 77.4961 69.5624 77.552 69.7113 77.552C69.8602 77.552 70.0037 77.4961 70.1134 77.3956L70.3386 77.1704L70.1979 77.0296L69.9727 77.2548C69.8986 77.3226 69.8017 77.3602 69.7013 77.3602C69.6008 77.3602 69.504 77.3226 69.4298 77.2548C69.376 77.2002 69.3118 77.1569 69.241 77.1273C69.1703 77.0977 69.0944 77.0825 69.0177 77.0825C68.941 77.0825 68.8651 77.0977 68.7943 77.1273C68.7235 77.1569 68.6594 77.2002 68.6055 77.2548L68.3723 77.488L68.513 77.6328L68.7704 77.3956Z" fill="white"/>
<path d="M98.7845 104.269H92.9095L81.6743 44.5623C84.0388 45.3665 86.9461 48.1411 88.5104 52.3312C89.0532 53.7869 89.5921 55.4838 90.1188 57.3617C90.143 57.4542 90.1671 57.5467 90.1952 57.6392C91.7514 63.2246 93.2393 70.3341 94.522 77.3109C95.2499 81.2557 95.9134 85.1603 96.4884 88.719L96.5608 89.1895C97.928 97.7949 98.7845 104.269 98.7845 104.269Z" fill="#263238"/>
<path d="M101.98 92.3261C102.708 93.9667 102.31 96.7253 103.637 96.5684C104.815 96.4277 104.908 94.4895 104.908 94.4895C104.908 94.4895 105.511 96.7092 106.737 96.1945C107.964 95.6798 107.63 93.5365 107.63 93.5365C107.63 93.5365 108.052 95.4063 109.238 94.8031C110.425 94.2 110.477 92.3301 110.477 92.3301C110.477 92.3301 110.964 92.7805 111.611 91.9803C112.54 90.8342 111.832 87.7299 111.076 86.1938C110.32 84.6577 106.424 79.599 105.8 78.843L95.9082 83.6001C95.9082 83.6001 95.9927 86.9497 96.242 88.6427C96.4913 90.3356 98.8598 95.6838 100.227 95.1852C101.594 94.6865 99.857 90.9388 99.6318 89.9254C99.4066 88.9121 99.6037 88.6909 100.058 89.0689C100.368 89.2981 101.659 91.5983 101.98 92.3261Z" fill="#EB9481"/>
<path d="M104.868 94.3973C104.799 91.683 104.305 90.5088 102.825 88.2851C102.797 88.2409 102.853 88.1886 102.889 88.2328C104.534 90.2756 105.37 91.6629 104.996 94.4014C104.996 94.526 104.868 94.526 104.868 94.3973Z" fill="#263238"/>
<path d="M107.608 93.649C107.294 90.8342 106.767 89.5595 105.388 87.1186C105.368 87.0824 105.424 87.0462 105.448 87.0784C107.001 89.3624 107.805 90.7618 107.748 93.6128C107.744 93.7415 107.624 93.7777 107.608 93.649Z" fill="#263238"/>
<path d="M110.45 92.3021C109.951 89.6039 109.433 88.1764 107.792 85.9768C107.786 85.9664 107.783 85.9541 107.785 85.9422C107.787 85.9303 107.793 85.9193 107.802 85.9113C107.811 85.9032 107.823 85.8985 107.835 85.898C107.847 85.8975 107.859 85.9012 107.868 85.9084C109.758 87.9914 110.422 89.7688 110.53 92.278C110.538 92.4509 110.482 92.471 110.45 92.3021Z" fill="#263238"/>
<path d="M85.2934 47.3567C92.9337 55.2905 104.708 76.3978 106.087 79.281C107.024 81.2393 96.794 86.4146 96.3557 84.9911C95.7968 83.1655 87.0708 62.5086 84.6942 54.0279C83.3793 49.3351 83.7171 45.7161 85.2934 47.3567Z" fill="#EB9481"/>
<path d="M81.8267 48.3262C82.3374 51.2214 85.7835 60.8763 85.7835 60.8763L92.129 59.3523L92.2416 59.3282L96.2829 58.3631C96.2829 58.3631 88.534 49.3194 84.9029 46.5327C81.2718 43.746 81.2718 45.065 81.8267 48.3262Z" fill="#00AAFF"/>
<path d="M92.0889 57.933H91.7712C91.6165 57.933 91.4682 57.8715 91.3589 57.7622C91.2495 57.6528 91.1881 57.5045 91.1881 57.3499C91.1881 57.2432 91.1457 57.141 91.0703 57.0655C90.9949 56.9901 90.8926 56.9478 90.786 56.9478H90.4522V56.7467H90.786C90.9406 56.7467 91.0889 56.8081 91.1983 56.9175C91.3076 57.0268 91.3691 57.1751 91.3691 57.3298C91.3739 57.4295 91.4157 57.5239 91.4864 57.5945C91.557 57.6651 91.6513 57.7069 91.7511 57.7118H92.0688L92.0889 57.933ZM86.7608 52.826C86.8349 52.7582 86.9317 52.7206 87.0322 52.7206C87.1327 52.7206 87.2295 52.7582 87.3036 52.826C87.4145 52.9325 87.5622 52.9919 87.7158 52.9919C87.8694 52.9919 88.0171 52.9325 88.128 52.826L88.3652 52.5888L88.2205 52.448L87.9872 52.6853C87.9131 52.7531 87.8163 52.7907 87.7158 52.7907C87.6153 52.7907 87.5185 52.7531 87.4444 52.6853C87.3905 52.6307 87.3263 52.5874 87.2556 52.5578C87.1848 52.5282 87.1089 52.513 87.0322 52.513C86.9555 52.513 86.8796 52.5282 86.8088 52.5578C86.7381 52.5874 86.6739 52.6307 86.62 52.6853L86.3948 52.9065L86.5396 53.0512L86.7608 52.826ZM84.9874 57.3579C84.9923 57.2582 85.0341 57.1638 85.1047 57.0932C85.1753 57.0226 85.2697 56.9808 85.3694 56.9759C85.5241 56.9759 85.6724 56.9145 85.7817 56.8051C85.8911 56.6958 85.9525 56.5475 85.9525 56.3928V56.0591H85.7515V56.3928C85.7516 56.4961 85.712 56.5954 85.6409 56.6703C85.5697 56.7452 85.4726 56.7898 85.3694 56.795C85.2148 56.795 85.0665 56.8564 84.9571 56.9657C84.8478 57.0751 84.7864 57.2234 84.7864 57.378V57.6957H84.9874V57.3579ZM82.6873 50.1922C82.6866 50.1401 82.6967 50.0884 82.717 50.0405C82.7372 49.9925 82.7672 49.9492 82.8049 49.9133C82.8427 49.8774 82.8874 49.8498 82.9364 49.832C82.9854 49.8143 83.0374 49.8068 83.0894 49.8101C83.2441 49.8101 83.3924 49.7487 83.5017 49.6394C83.6111 49.53 83.6725 49.3817 83.6725 49.2271V48.8933H83.4714V49.2271C83.4716 49.3303 83.432 49.4297 83.3609 49.5045C83.2897 49.5794 83.1925 49.624 83.0894 49.6292C82.9348 49.6292 82.7865 49.6906 82.6771 49.8C82.5678 49.9093 82.5063 50.0576 82.5063 50.2123V50.5259H82.7074L82.6873 50.1922Z" fill="white"/>
<path d="M85.2578 46.8145C85.3382 46.6295 80.2112 51.2378 75.9849 50.4336C73.8738 50.0315 73.4757 45.3226 73.725 45.2744C77.2797 44.5546 80.6535 42.6164 85.2578 46.8145Z" fill="#EB9481"/>
<path d="M81.232 45.1216C81.0752 45.5237 78.6987 47.9364 76.8087 47.5825C76.1935 47.4619 76.6961 44.072 76.6961 44.072L76.676 43.8106L76.3945 40.1916L80.8983 38.1367L81.5417 37.8713C81.5417 37.8713 81.5417 38.8686 81.5417 40.1071V40.2841C81.5417 40.3564 81.5417 40.4208 81.5417 40.4891C81.5417 40.6741 81.5417 40.8631 81.5417 41.0521C81.5417 41.2411 81.5417 41.3336 81.5417 41.4864V41.9327C81.5124 43.0016 81.4089 44.0671 81.232 45.1216Z" fill="#EB9481"/>
<path d="M81.5538 40.1071C81.0581 41.0421 80.3645 41.8577 79.5215 42.4973C78.6784 43.1369 77.706 43.5851 76.6721 43.8106L76.3906 40.1916L80.8944 38.1367L81.5378 37.8713C81.5378 37.8713 81.5498 38.8686 81.5538 40.1071Z" fill="#263238"/>
<path d="M72.4246 33.8944C70.9488 40.0991 74.4955 41.6834 75.8346 41.9971C77.0409 42.2866 81.223 43.111 83.3301 37.0953C85.4372 31.0795 83.0245 28.4296 80.278 27.6253C77.5315 26.8211 73.8923 27.6897 72.4246 33.8944Z" fill="#EB9481"/>
<path d="M73.7848 33.2227C73.9322 33.2308 74.0798 33.2308 74.2272 33.2227C74.3821 33.2377 74.5377 33.201 74.6695 33.1182C74.7063 33.0841 74.731 33.039 74.7397 32.9896C74.7484 32.9402 74.7407 32.8893 74.7177 32.8447C74.6579 32.7639 74.5775 32.7007 74.4847 32.6617C74.392 32.6228 74.2905 32.6096 74.191 32.6235C73.9858 32.621 73.7869 32.694 73.632 32.8286C73.6043 32.8617 73.586 32.9017 73.5789 32.9443C73.5719 32.9869 73.5764 33.0306 73.592 33.0708C73.6076 33.1111 73.6337 33.1464 73.6676 33.1731C73.7016 33.1998 73.742 33.217 73.7848 33.2227Z" fill="#263238"/>
<path d="M78.1198 34.0748C77.9826 34.0293 77.8484 33.9756 77.7176 33.914C77.5608 33.8798 77.4195 33.795 77.3155 33.6727C77.2919 33.6283 77.2837 33.5772 77.2925 33.5277C77.3012 33.4781 77.3263 33.4329 77.3638 33.3993C77.4461 33.3425 77.5421 33.3088 77.6418 33.3017C77.7415 33.2946 77.8413 33.3144 77.9308 33.359C78.127 33.42 78.2925 33.5538 78.3932 33.733C78.4137 33.7742 78.422 33.8204 78.4171 33.8661C78.4122 33.9119 78.3943 33.9553 78.3656 33.9912C78.3368 34.0271 78.2984 34.0541 78.2549 34.0689C78.2113 34.0837 78.1644 34.0858 78.1198 34.0748Z" fill="#263238"/>
<path d="M77.0177 35.5229C77.0177 35.5229 77.0458 35.5511 77.0418 35.5672C76.9493 35.9934 76.9131 36.4921 77.271 36.7092C77.271 36.7092 77.271 36.7374 77.271 36.7293C76.8046 36.5765 76.8488 35.909 77.0177 35.5229Z" fill="#263238"/>
<path d="M77.4839 35.1491C78.1795 35.2296 77.9704 36.6129 77.3271 36.5445C76.6837 36.4761 76.9008 35.0848 77.4839 35.1491Z" fill="#263238"/>
<path d="M77.7459 35.2653C77.8545 35.3618 77.951 35.5186 78.0957 35.5548C78.2405 35.591 78.4134 35.4704 78.5421 35.3457C78.5421 35.3457 78.5662 35.3457 78.5421 35.3457C78.5099 35.6111 78.3652 35.8685 78.0756 35.8644C77.7861 35.8604 77.6735 35.599 77.6333 35.3216C77.6534 35.2934 77.7017 35.2251 77.7459 35.2653Z" fill="#263238"/>
<path d="M74.3561 34.9272C74.3561 34.9272 74.3199 34.9272 74.3199 34.9594C74.2716 35.3937 74.143 35.8803 73.7368 35.9647V35.9888C74.2194 35.9929 74.3802 35.3414 74.3561 34.9272Z" fill="#263238"/>
<path d="M74.0337 34.4253C73.346 34.2725 73.0967 35.6316 73.7321 35.7925C74.3674 35.9533 74.6087 34.5499 74.0337 34.4253Z" fill="#263238"/>
<path d="M73.733 34.4613C73.6124 34.5176 73.4797 34.6302 73.3309 34.6141C73.1821 34.598 73.0936 34.4292 73.0212 34.2683C73.0212 34.2683 73.0011 34.2683 72.9971 34.2683C72.9448 34.5337 72.9971 34.8232 73.2263 34.9197C73.4555 35.0163 73.6606 34.8112 73.7692 34.5619C73.8054 34.5216 73.7812 34.4412 73.733 34.4613Z" fill="#263238"/>
<path d="M74.7746 36.9502C74.7746 36.9502 74.5816 37.5735 74.5334 37.875C74.5334 37.9032 74.5977 37.9313 74.7023 37.9514C74.9539 38.0407 75.2252 38.0586 75.4864 38.0033C75.7475 37.9479 75.9883 37.8214 76.1821 37.6378C76.2062 37.6137 76.1821 37.5775 76.1419 37.5895C75.7147 37.7917 75.2335 37.8496 74.7706 37.7544C74.7706 37.6659 75.1366 36.6928 75.0883 36.6807C74.8501 36.6647 74.6109 36.6795 74.3765 36.725C74.7385 35.41 75.3095 34.1635 75.6472 32.8486C75.6515 32.8384 75.6516 32.827 75.6474 32.8168C75.6433 32.8066 75.6353 32.7985 75.6251 32.7943C75.615 32.79 75.6036 32.7899 75.5934 32.7941C75.5832 32.7982 75.5751 32.8062 75.5708 32.8164C74.9233 34.1359 74.4087 35.5166 74.0347 36.9381C73.9865 37.107 74.646 36.9823 74.7746 36.9502Z" fill="#263238"/>
<path d="M74.7627 37.7263C74.877 38.0088 75.061 38.2578 75.2975 38.4501C75.4321 38.5489 75.5932 38.6049 75.76 38.611C76.1219 38.611 76.2184 38.3094 76.2304 38.0239C76.2363 37.8728 76.2242 37.7216 76.1942 37.5735C75.7457 37.7763 75.2439 37.8299 74.7627 37.7263Z" fill="#263238"/>
<path d="M75.2959 38.4503C75.4304 38.549 75.5915 38.6051 75.7583 38.6111C76.1202 38.6111 76.2168 38.3095 76.2288 38.024C76.048 37.98 75.8577 37.9981 75.6885 38.0754C75.5192 38.1527 75.3809 38.2848 75.2959 38.4503Z" fill="#FF9BBC"/>
<path d="M83.2834 37.1151C82.5716 36.9543 81.0235 34.6662 81.5382 31.1798C81.5382 31.1798 81.2929 34.3405 81.4497 34.8391C81.6065 35.3378 80.5852 33.5483 80.9632 30.7335C79.9758 31.2205 78.9235 31.5631 77.8387 31.7508C76.4554 31.9037 75.6471 31.7508 75.5667 31.6463C75.4863 31.5417 77.5371 31.2442 78.1644 30.7214C78.1644 30.7214 74.3724 31.779 72.7277 31.6342C72.5387 31.6342 72.9529 27.7176 75.7316 26.4911C78.5102 25.2647 82.1977 27.6975 83.0944 28.9038C83.0944 28.9038 84.3209 29.306 85.3824 31.3729C86.444 33.4397 84.0394 37.2921 83.2834 37.1151Z" fill="#263238"/>
<path d="M82.2256 37.3361C82.2256 37.3361 83.8944 35.5708 84.7147 36.1941C85.5351 36.8173 84.0794 39.5156 82.9695 39.7528C82.8298 39.7926 82.6835 39.8038 82.5394 39.7856C82.3953 39.7674 82.2563 39.7203 82.1308 39.6471C82.0054 39.5738 81.896 39.476 81.8094 39.3594C81.7227 39.2428 81.6605 39.1099 81.6265 38.9687L82.2256 37.3361Z" fill="#EB9481"/>
<path d="M84.2754 36.958C84.2754 36.958 84.2754 36.9821 84.2754 36.9861C83.4952 37.1751 83.0047 37.7903 82.6307 38.4659C82.6842 38.3985 82.7517 38.3435 82.8285 38.3047C82.9053 38.2659 82.9896 38.2442 83.0756 38.2412C83.1617 38.2381 83.2473 38.2538 83.3267 38.287C83.4061 38.3202 83.4773 38.3703 83.5355 38.4337C83.5393 38.4375 83.5418 38.4425 83.5425 38.4479C83.5431 38.4532 83.542 38.4587 83.5392 38.4633C83.5364 38.468 83.5322 38.4715 83.5271 38.4735C83.522 38.4754 83.5165 38.4756 83.5113 38.4739C83.3887 38.4117 83.2495 38.3898 83.1137 38.4115C82.9779 38.4332 82.8525 38.4973 82.7553 38.5946C82.5911 38.7547 82.4454 38.9327 82.321 39.1254C82.2768 39.1857 82.1642 39.1254 82.2004 39.061C82.3331 38.108 83.254 36.9017 84.2754 36.958Z" fill="#263238"/>
<path opacity="0.5" d="M27.8252 32.2168C25.6819 37.4444 19.7828 58.5315 23.6392 72.7947C27.017 85.2323 34.8623 91.7386 38.4211 93.8457C43.6486 96.942 49.226 98.9084 49.0008 100.087C48.7757 101.265 43.2827 98.7153 43.0334 99.1697C42.7841 99.6241 54.9804 111.362 76.6667 113.759C110.183 117.462 129.867 105.411 132.762 104.892C135.658 104.373 121.829 121.081 111.675 124.998C109.339 125.895 117.844 123.594 123.618 120.136C125.786 118.837 119.814 136.346 99.865 140.677C96.0287 141.509 104.316 141.461 107.272 141.111C110.228 140.761 98.735 149.041 68.8535 146.66C45.6029 144.79 23.9407 126.647 15.0418 106.641C14.0406 104.389 11.9777 105.861 11.3182 104.269C9.91079 100.871 10.5622 94.3001 9.8746 93.0093C9.18697 91.7185 6.93108 93.0093 6.25552 89.5671C5.57996 86.125 5.94186 75.7985 11.5112 59.2393C12.1707 57.2769 11.2619 57.9404 10.0716 59.6937C8.88136 61.4469 7.47394 63.0071 6.14695 62.9428C4.81995 62.8784 5.52366 58.0088 11.1373 49.0455C20.76 33.6443 29.7715 27.4919 27.8252 32.2168Z" fill="#00AAFF"/>
<path opacity="0.5" d="M50.7498 102.141C50.8061 100.501 57.1435 101.309 56.5685 103.508C55.9935 105.708 50.6734 104.369 50.7498 102.141Z" fill="#00AAFF"/>
<path opacity="0.5" d="M109.914 140.564C110.316 142.1 115.841 141.03 115.403 138.955C114.964 136.88 109.447 138.714 109.914 140.564Z" fill="#00AAFF"/>
<path opacity="0.5" d="M4.84461 64.7927C3.78704 64.66 3.06322 66.936 4.33392 67.3582C5.60462 67.7804 6.2279 64.9736 4.84461 64.7927Z" fill="#00AAFF"/>
<path opacity="0.5" d="M134.375 103.858C135.179 104.892 140.712 101.498 138.416 99.8895C136.816 98.7636 133.579 102.825 134.375 103.858Z" fill="#00AAFF"/>
<path d="M86.0326 134.327L83.837 134.733L83.3464 137.05L82.8558 134.733L80.6562 134.327L82.8438 133.793L83.3464 131.605L83.8451 133.793L86.0326 134.327Z" fill="#FEFEFE"/>
<path d="M33.3593 100.802L31.1637 101.208L30.6731 103.525L30.1825 101.208L27.9829 100.802L30.1704 100.267L30.6731 98.0798L31.1717 100.267L33.3593 100.802Z" fill="#FEFEFE"/>
<path d="M22.2122 39.7885L20.0166 40.1947L19.526 42.5109L19.0354 40.1947L16.8398 39.7885L19.0234 39.2537L19.526 37.0662L20.0246 39.2537L22.2122 39.7885Z" fill="#FEFEFE"/>
<path d="M127.458 110.67L126.227 110.9L125.954 112.194L125.681 110.9L124.454 110.67L125.677 110.373L125.954 109.15L126.235 110.373L127.458 110.67Z" fill="#FEFEFE"/>
<path d="M59.8421 117.458L58.6156 117.687L58.3422 118.978L58.0688 117.687L56.8423 117.458L58.0607 117.161L58.3422 115.938L58.6237 117.161L59.8421 117.458Z" fill="#FEFEFE"/>
<path d="M112.066 133.125L110.839 133.354L110.566 134.649L110.288 133.354L109.062 133.125L110.284 132.827L110.566 131.605L110.843 132.827L112.066 133.125Z" fill="#FEFEFE"/>
<path d="M72.7065 142.486L71.48 142.711L71.2025 144.006L70.9291 142.711L69.7026 142.486L70.9251 142.184L71.2025 140.962L71.484 142.184L72.7065 142.486Z" fill="#FEFEFE"/>
<path d="M25.2997 110.67L24.0692 110.9L23.7958 112.194L23.5224 110.9L22.2959 110.67L23.5183 110.373L23.7958 109.15L24.0773 110.373L25.2997 110.67Z" fill="#FEFEFE"/>
<path d="M23.7958 74.3951L22.5694 74.6203L22.2959 75.9151L22.0225 74.6203L20.792 74.3951L22.0144 74.0935L22.2959 72.8711L22.5734 74.0935L23.7958 74.3951Z" fill="#FEFEFE"/>
<path d="M89.9401 120.619C89.8523 120.628 89.771 120.67 89.7119 120.735C89.6528 120.801 89.6201 120.886 89.6201 120.975C89.6201 121.063 89.6528 121.148 89.7119 121.214C89.771 121.28 89.8523 121.321 89.9401 121.33C90.028 121.321 90.1093 121.28 90.1684 121.214C90.2274 121.148 90.2601 121.063 90.2601 120.975C90.2601 120.886 90.2274 120.801 90.1684 120.735C90.1093 120.67 90.028 120.628 89.9401 120.619Z" fill="#FEFEFE"/>
<path d="M14.5197 53.6218C14.4318 53.6312 14.3506 53.6727 14.2915 53.7384C14.2324 53.8041 14.1997 53.8893 14.1997 53.9777C14.1997 54.0661 14.2324 54.1513 14.2915 54.217C14.3506 54.2827 14.4318 54.3242 14.5197 54.3336C14.6076 54.3242 14.6889 54.2827 14.7479 54.217C14.807 54.1513 14.8397 54.0661 14.8397 53.9777C14.8397 53.8893 14.807 53.8041 14.7479 53.7384C14.6889 53.6727 14.6076 53.6312 14.5197 53.6218Z" fill="#FEFEFE"/>
<path d="M112.316 121.576C112.228 121.585 112.146 121.627 112.087 121.692C112.028 121.758 111.996 121.843 111.996 121.932C111.996 122.02 112.028 122.105 112.087 122.171C112.146 122.237 112.228 122.278 112.316 122.287C112.403 122.278 112.485 122.237 112.544 122.171C112.603 122.105 112.636 122.02 112.636 121.932C112.636 121.843 112.603 121.758 112.544 121.692C112.485 121.627 112.403 121.585 112.316 121.576Z" fill="#FEFEFE"/>
<path d="M16.8405 103.509C16.7526 103.518 16.6714 103.56 16.6123 103.625C16.5532 103.691 16.5205 103.776 16.5205 103.865C16.5205 103.953 16.5532 104.038 16.6123 104.104C16.6714 104.17 16.7526 104.211 16.8405 104.221C16.9284 104.211 17.0097 104.17 17.0687 104.104C17.1278 104.038 17.1605 103.953 17.1605 103.865C17.1605 103.776 17.1278 103.691 17.0687 103.625C17.0097 103.56 16.9284 103.518 16.8405 103.509Z" fill="#FEFEFE"/>
<path d="M8.31865 81.7261C8.25747 81.7338 8.20122 81.7636 8.16044 81.8099C8.11967 81.8562 8.09717 81.9157 8.09717 81.9774C8.09717 82.0391 8.11967 82.0986 8.16044 82.1449C8.20122 82.1912 8.25747 82.221 8.31865 82.2287C8.37983 82.221 8.43609 82.1912 8.47686 82.1449C8.51764 82.0986 8.54013 82.0391 8.54013 81.9774C8.54013 81.9157 8.51764 81.8562 8.47686 81.8099C8.43609 81.7636 8.37983 81.7338 8.31865 81.7261Z" fill="#FEFEFE"/>
<path d="M64.5115 127.097C64.4503 127.105 64.3941 127.134 64.3533 127.181C64.3125 127.227 64.29 127.287 64.29 127.348C64.29 127.41 64.3125 127.469 64.3533 127.516C64.3941 127.562 64.4503 127.592 64.5115 127.6C64.5727 127.592 64.629 127.562 64.6697 127.516C64.7105 127.469 64.733 127.41 64.733 127.348C64.733 127.287 64.7105 127.227 64.6697 127.181C64.629 127.134 64.5727 127.105 64.5115 127.097Z" fill="#FEFEFE"/>
<path d="M39.6795 126.192C39.6183 126.2 39.5621 126.23 39.5213 126.276C39.4805 126.322 39.458 126.382 39.458 126.444C39.458 126.505 39.4805 126.565 39.5213 126.611C39.5621 126.657 39.6183 126.687 39.6795 126.695C39.7407 126.687 39.7969 126.657 39.8377 126.611C39.8785 126.565 39.901 126.505 39.901 126.444C39.901 126.382 39.8785 126.322 39.8377 126.276C39.7969 126.23 39.7407 126.2 39.6795 126.192Z" fill="#FEFEFE"/>
<path d="M82.3695 124.122C82.1978 124.135 82.0374 124.212 81.9203 124.339C81.8033 124.465 81.7383 124.631 81.7383 124.803C81.7383 124.975 81.8033 125.141 81.9203 125.268C82.0374 125.394 82.1978 125.472 82.3695 125.485C82.5412 125.472 82.7016 125.394 82.8187 125.268C82.9357 125.141 83.0007 124.975 83.0007 124.803C83.0007 124.631 82.9357 124.465 82.8187 124.339C82.7016 124.212 82.5412 124.135 82.3695 124.122Z" fill="#FEFEFE"/>
<path d="M42.9061 123.88C42.7344 123.893 42.574 123.971 42.4569 124.097C42.3399 124.223 42.2749 124.389 42.2749 124.561C42.2749 124.734 42.3399 124.9 42.4569 125.026C42.574 125.152 42.7344 125.23 42.9061 125.243C43.0778 125.23 43.2383 125.152 43.3553 125.026C43.4723 124.9 43.5373 124.734 43.5373 124.561C43.5373 124.389 43.4723 124.223 43.3553 124.097C43.2383 123.971 43.0778 123.893 42.9061 123.88Z" fill="#FEFEFE"/>
<path d="M44.1968 73.5147C44.1161 73.9381 43.9116 74.328 43.6092 74.6352C43.3068 74.9424 42.9201 75.153 42.4981 75.2404C42.076 75.3279 41.6375 75.2882 41.2379 75.1264C40.8384 74.9646 40.4958 74.688 40.2535 74.3316C40.0112 73.9751 39.88 73.5548 39.8765 73.1238C39.8731 72.6927 39.9975 72.2704 40.234 71.9101C40.4706 71.5498 40.8087 71.2677 41.2056 71.0995C41.6024 70.9313 42.0403 70.8846 42.4637 70.9652C42.7449 71.0188 43.0128 71.1272 43.2521 71.2843C43.4914 71.4415 43.6974 71.6442 43.8584 71.8809C44.0193 72.1177 44.1321 72.3838 44.1901 72.6641C44.2482 72.9445 44.2505 73.2335 44.1968 73.5147Z" fill="#455A64"/>
<path d="M46.2414 62.7327L44.606 62.4216L42.559 73.1824L44.1945 73.4935L46.2414 62.7327Z" fill="#455A64"/>
<path d="M51.7166 71.7171C51.6366 72.1408 51.4326 72.5313 51.1306 72.8391C50.8285 73.1469 50.442 73.3581 50.0198 73.4462C49.5977 73.5342 49.1589 73.495 48.759 73.3335C48.3592 73.1721 48.0162 72.8956 47.7735 72.5392C47.5308 72.1827 47.3993 71.7623 47.3956 71.3311C47.3919 70.8999 47.5163 70.4773 47.7529 70.1167C47.9895 69.7562 48.3277 69.474 48.7248 69.3057C49.1218 69.1375 49.5599 69.0909 49.9835 69.1717C50.5506 69.2799 51.0516 69.6087 51.3765 70.0859C51.7015 70.5631 51.8238 71.1498 51.7166 71.7171Z" fill="#455A64"/>
<path d="M53.7619 60.9366L52.1265 60.6255L50.0795 71.3863L51.715 71.6974L53.7619 60.9366Z" fill="#455A64"/>
<path d="M53.7631 60.9564L44.3374 63.8557L44.6108 62.4202L54.0365 59.5168L53.7631 60.9564Z" fill="#455A64"/>
<path d="M53.2489 63.6669L43.8232 66.5662L44.0967 65.1306L53.5224 62.2273L53.2489 63.6669Z" fill="#455A64"/>
<path d="M138.125 15.855C138.042 16.2777 137.837 16.6665 137.534 16.9725C137.231 17.2785 136.844 17.4878 136.422 17.5741C136 17.6603 135.562 17.6197 135.163 17.4573C134.764 17.2949 134.423 17.0179 134.181 16.6614C133.939 16.305 133.809 15.8849 133.806 15.4543C133.803 15.0237 133.927 14.6018 134.164 14.2419C134.4 13.882 134.738 13.6002 135.134 13.4322C135.531 13.2641 135.968 13.2172 136.391 13.2975C136.674 13.3505 136.943 13.4589 137.183 13.6164C137.423 13.7739 137.63 13.9774 137.791 14.2151C137.952 14.4529 138.064 14.7202 138.122 15.0017C138.179 15.2831 138.18 15.5731 138.125 15.855Z" fill="#C7C7C7"/>
<path d="M140.176 5.07526L138.541 4.76416L136.494 15.525L138.129 15.8361L140.176 5.07526Z" fill="#C7C7C7"/>
<path d="M146.254 3.36454L144.618 3.05347L144.027 6.1624L145.662 6.47347L146.254 3.36454Z" fill="#C7C7C7"/>
<path d="M146.178 3.77089L138.269 6.19567L138.542 4.7601L146.452 2.3313L146.178 3.77089Z" fill="#C7C7C7"/>
<path d="M145.664 6.48109L137.754 8.9099L138.027 7.47031L145.937 5.0415L145.664 6.48109Z" fill="#C7C7C7"/>
<path d="M141.05 80.9292C137.902 87.8818 132.839 87.729 131.448 89.4058C130.669 90.4926 129.953 91.6231 129.304 92.7917L121.761 90.379C121.909 89.0505 121.98 87.7146 121.974 86.3779C121.817 84.2064 117.595 81.3956 119.062 73.9122C120.019 68.9902 125.979 62.6528 133.941 65.1862C141.903 67.7195 143.117 76.3611 141.05 80.9292Z" fill="#00AAFF"/>
<path d="M124.919 78.7434L123.317 91.4585L123.716 91.5088L125.318 78.7937L124.919 78.7434Z" fill="white"/>
<path d="M133.135 81.3016L127.056 92.5833L127.41 92.774L133.489 81.4924L133.135 81.3016Z" fill="white"/>
<path d="M128.32 84.1263C128.183 84.1304 128.047 84.1113 127.918 84.07C127.326 83.881 126.88 83.2215 126.659 82.2122C126.659 82.168 126.659 82.1197 126.631 82.0755C126.521 82.1509 126.397 82.2028 126.266 82.2277C126.135 82.2526 126.001 82.2501 125.871 82.2202C124.741 81.8583 125.03 79.3853 125.042 79.2807L125.243 79.3049C125.243 79.329 124.958 81.7176 125.931 82.0272C126.048 82.0491 126.167 82.0449 126.282 82.015C126.397 81.9851 126.504 81.9302 126.595 81.8543C126.43 80.7203 126.57 79.3531 127.093 78.8746C127.175 78.797 127.276 78.7432 127.386 78.7191C127.496 78.695 127.61 78.7015 127.716 78.7379C128.211 78.8947 128.372 79.3853 128.151 80.0769C127.891 80.8158 127.428 81.4665 126.816 81.9548C126.816 82.0272 126.84 82.0956 126.856 82.168C126.977 82.7108 127.278 83.6558 127.978 83.877C128.448 84.0298 129.035 83.8086 129.639 83.2617C129.687 83.2175 129.739 83.1692 129.787 83.117C129.509 82.4005 129.492 81.6089 129.739 80.8812C130.009 80.0408 130.487 79.6225 130.998 79.7834C131.096 79.8162 131.183 79.875 131.251 79.9537C131.318 80.0323 131.363 80.1277 131.38 80.2297C131.529 80.9174 130.901 82.2403 130.025 83.1612C130.166 83.4231 130.402 83.6214 130.684 83.7161C131.376 83.9373 132.514 82.4816 132.896 81.9026L133.061 82.0111C133.004 82.1036 131.601 84.2228 130.624 83.9091C130.312 83.8042 130.049 83.5899 129.884 83.306L129.771 83.4105C129.386 83.8119 128.872 84.0652 128.32 84.1263ZM130.813 79.9523C130.411 79.9523 130.113 80.463 129.96 80.9415C129.749 81.595 129.749 82.2986 129.96 82.9521C130.765 82.0835 131.344 80.8611 131.211 80.2539C131.202 80.1863 131.173 80.1227 131.129 80.0707C131.085 80.0187 131.027 79.9804 130.962 79.9603C130.909 79.9486 130.854 79.9459 130.801 79.9523H130.813ZM127.544 78.9068C127.491 78.9065 127.438 78.9166 127.389 78.9366C127.34 78.9566 127.296 78.9861 127.258 79.0234C126.856 79.4014 126.659 80.5917 126.808 81.7216C127.343 81.266 127.749 80.6781 127.986 80.0166C128.094 79.6788 128.195 79.0918 127.68 78.9269C127.627 78.9121 127.571 78.9053 127.515 78.9068H127.544Z" fill="white"/>
<path d="M130.282 92.761L120.973 89.7886L120.392 91.6081L129.701 94.5806L130.282 92.761Z" fill="#A6A6A6"/>
<path d="M129.603 94.8718L120.295 91.8992L119.714 93.7187L129.022 96.6914L129.603 94.8718Z" fill="#A6A6A6"/>
<path d="M128.928 96.9869L119.62 94.0144L119.039 95.8339L128.347 98.8064L128.928 96.9869Z" fill="#A6A6A6"/>
<path d="M135.598 59.006L134.636 62.0251L135.019 62.1472L135.981 59.128L135.598 59.006Z" fill="#DBDBDB"/>
<path d="M126.752 58.5941L126.359 58.6797L127.033 61.7758L127.426 61.6902L126.752 58.5941Z" fill="#DBDBDB"/>
<path d="M118.479 62.713L118.181 62.9836L120.314 65.3273L120.611 65.0567L118.479 62.713Z" fill="#DBDBDB"/>
<path d="M113.389 70.4556L113.267 70.8386L116.286 71.8025L116.408 71.4194L113.389 70.4556Z" fill="#DBDBDB"/>
<path d="M115.925 79.013L112.829 79.6875L112.915 80.0804L116.011 79.4059L115.925 79.013Z" fill="#DBDBDB"/>
<path d="M140.371 86.8608L140.073 87.1313L142.205 89.4755L142.503 89.2049L140.371 86.8608Z" fill="#DBDBDB"/>
<path d="M144.415 80.4097L144.292 80.7927L147.311 81.7568L147.433 81.3737L144.415 80.4097Z" fill="#DBDBDB"/>
<path d="M147.772 72.1041L144.676 72.7786L144.761 73.1715L147.857 72.497L147.772 72.1041Z" fill="#DBDBDB"/>
<path d="M143.439 63.9322L141.097 66.0667L141.368 66.3638L143.71 64.2293L143.439 63.9322Z" fill="#DBDBDB"/>
</svg>
