<svg width="191" height="177" viewBox="0 0 191 177" fill="none" xmlns="http://www.w3.org/2000/svg">
<path d="M130.231 40.4963L166.681 40.4423C166.681 40.4423 164.867 38.0833 162.866 37.7921C162.866 37.7921 158.963 26.2302 152.465 26.1429C146.416 26.0721 144.002 33.2697 144.002 33.2697C144.002 33.2697 141.194 30.0453 138.519 31.5265C135.844 33.0076 134.334 37.2304 134.334 37.2304C134.334 37.2304 131.321 38.8738 130.231 40.4963Z" fill="#EBEBEB"/>
<path d="M72.5177 56.0108L26.4243 56.0815C26.4243 56.0815 26.4243 53.1359 32.769 52.5493C32.769 52.5493 38.5478 39.652 47.4012 41.3869C52.9138 42.4519 55.7429 50.0156 55.7429 50.0156C55.7429 50.0156 59.9033 44.0537 63.2317 45.202C66.56 46.3503 68.5529 52.6908 68.5529 52.6908C68.5529 52.6908 71.9935 54.3466 72.5177 56.0108Z" fill="#EBEBEB"/>
<path d="M125.339 15.7666L93.998 15.8123C93.998 15.8123 96.952 13.054 98.2666 13.054C99.5813 13.054 103.405 3.80531 108.306 4.18807C113.207 4.57083 115.82 11.4522 115.82 11.4522C115.82 11.4522 121.777 9.57583 125.339 15.7666Z" fill="#EBEBEB"/>
<path d="M38.032 33.286L11.2305 33.3276C11.2305 33.3276 12.5576 31.5885 14.0263 31.3722C14.0263 31.3722 16.872 22.8599 21.6565 22.7933C26.104 22.7268 27.8972 28.0147 27.8972 28.0147C27.8972 28.0147 29.9566 25.6391 31.9245 26.7208C33.8923 27.8025 35.0073 30.9062 35.0073 30.9062C35.0073 30.9062 37.2248 32.0919 38.032 33.286Z" fill="#EBEBEB"/>
<path d="M146.258 67.5056C146 69.8936 146.274 72.309 147.06 74.5784C148.691 79.3254 153.081 82.5123 154.766 87.172C154.766 87.7669 154.766 88.3702 154.716 88.9818C154.716 88.9818 154.716 88.9818 154.716 89.0109C154.716 89.04 154.716 89.0109 154.716 89.0109C154.721 89.022 154.728 89.0319 154.738 89.0398C154.747 89.0477 154.758 89.0535 154.77 89.0566C154.795 88.9818 154.811 88.911 154.828 88.8403C154.845 88.7696 154.895 88.5782 154.92 88.4492C154.945 88.3203 155.003 88.079 155.032 87.8917C155.032 87.8917 155.057 87.8044 155.032 87.7794C155.91 82.5123 153.251 77.3409 151.491 72.4857C150.485 69.7065 150.152 66.7775 149.195 64.0067C148.966 63.3452 148.733 62.0513 147.801 62.4923C146.769 63.0082 146.366 66.5362 146.258 67.5056Z" fill="#EBEBEB"/>
<path d="M147.755 71.5829C148.545 77.5781 154.982 81.7594 154.807 87.9251C154.807 88.104 154.786 88.2746 154.774 88.4493C154.761 88.6241 154.753 88.6906 154.736 88.8113C154.736 88.857 154.736 88.907 154.736 88.9611C154.736 89.0151 154.736 88.9611 154.736 88.9902C154.736 89.0193 154.736 88.9902 154.736 88.9902C154.741 89.0013 154.749 89.0112 154.758 89.0191C154.767 89.027 154.778 89.0328 154.79 89.0359H154.815C154.825 89.0323 154.834 89.0262 154.842 89.0182C154.849 89.0102 154.854 89.0006 154.857 88.9902C154.894 88.803 154.919 88.6116 154.94 88.4285C155.002 87.9751 155.023 87.517 155.002 87.0597C155.094 84.343 154.474 81.776 153.413 79.1341C152.111 75.889 150.646 72.7811 149.402 69.4861C149.249 69.07 148.941 67.4059 148.304 67.7637C147.476 68.2255 147.668 70.8881 147.755 71.5829ZM147.884 70.6468C147.884 70.3015 147.884 67.9883 148.491 68.1215C148.849 68.1963 149.203 69.8772 149.298 70.106C149.665 70.9922 150.031 71.8658 150.397 72.752C151.175 74.6034 151.965 76.4506 152.739 78.302C153.728 80.5361 154.395 82.8992 154.719 85.3207C153.455 80.1784 148.017 76.1969 147.884 70.6468Z" fill="white"/>
<path d="M155.381 124.787C155.381 124.866 155.481 124.961 155.572 124.874C159.537 121.13 165.582 122.465 169.764 119.02C171.399 117.578 172.833 115.923 174.028 114.098C174.99 112.806 175.788 111.398 176.404 109.909C176.478 109.709 176.911 108.869 176.753 108.519C175.526 105.877 169.189 111.906 168.103 112.788C163.868 116.233 159.991 119.374 156.454 123.434C156.084 123.85 155.722 124.267 155.364 124.728C155.368 124.741 155.373 124.762 155.381 124.787Z" fill="#EBEBEB"/>
<path d="M155.381 124.787L155.797 124.371C158.614 122.316 161.963 121.155 165.129 119.69C168.295 118.226 170.933 116.283 172.975 113.387C173.337 112.876 174.86 110.891 174.165 110.159C173.545 109.506 171.973 111.282 171.569 111.619C168.569 114.115 165.649 116.612 162.458 118.883C160.415 120.327 158.347 121.775 156.454 123.418C156.084 123.834 155.722 124.25 155.364 124.712C155.368 124.741 155.373 124.762 155.381 124.787ZM157.249 123.144C159.454 121.313 161.825 119.686 164.164 117.997C165.769 116.841 167.324 115.62 168.827 114.336C169.659 113.629 170.467 112.909 171.299 112.21C171.715 111.861 172.131 111.511 172.547 111.174C172.759 110.999 173.45 110.413 173.712 110.758C174.419 111.623 170.159 117.481 163.985 119.936C161.646 120.797 159.392 121.871 157.249 123.144Z" fill="white"/>
<path d="M161.288 114.885C161.284 114.888 161.28 114.893 161.278 114.898C161.276 114.903 161.274 114.908 161.274 114.914C161.274 114.92 161.276 114.925 161.278 114.93C161.28 114.935 161.284 114.94 161.288 114.943C161.297 114.951 161.309 114.956 161.322 114.956C161.334 114.956 161.346 114.951 161.355 114.943L161.584 114.619C161.862 114.202 162.129 113.82 162.387 113.412L162.524 113.192C162.543 113.187 162.56 113.177 162.574 113.162C165.486 108.823 170.724 106.693 173.004 101.863C173.958 99.6902 174.538 97.372 174.718 95.0063C174.822 93.9911 175.658 90.7959 174.302 90.255C173.245 89.839 172.01 91.3992 171.494 92.0607C169.859 94.1617 168.919 96.8493 167.966 99.304C167.013 101.759 166.223 104.155 165.353 106.581C164.537 108.781 163.54 110.91 162.374 112.946C162.033 113.578 161.663 114.227 161.288 114.885Z" fill="#EBEBEB"/>
<path d="M161.288 114.885C161.284 114.888 161.28 114.893 161.278 114.898C161.276 114.903 161.274 114.908 161.274 114.914C161.274 114.92 161.276 114.925 161.278 114.93C161.28 114.935 161.284 114.94 161.288 114.943C161.525 114.577 161.763 114.215 162.004 113.857L161.588 114.602C161.867 114.186 162.133 113.803 162.391 113.395C162.511 113.183 162.636 112.979 162.765 112.763C164.464 110.386 166.339 108.14 168.374 106.044C169.384 105.024 170.209 103.836 170.812 102.533C171.918 100.095 173.308 94.5778 172.721 93.8955C172.135 93.2132 171.473 95.0063 171.294 95.4057C169.73 98.6467 168.607 102.062 166.863 105.22C165.69 107.346 164.496 109.46 163.302 111.577C162.986 112.018 162.674 112.472 162.383 112.929C162.033 113.578 161.663 114.228 161.288 114.885ZM164.242 110.308C165.445 108.303 166.626 106.285 167.7 104.218C168.586 102.499 169.301 100.71 170.038 98.9254C170.404 98.0309 170.774 97.1406 171.174 96.2669C171.282 96.0256 172.043 94.0494 172.422 94.1326C172.8 94.2158 172.497 95.6969 172.422 96.088C171.992 97.9844 171.465 99.8576 170.845 101.7C170.179 103.639 168.981 105.058 167.566 106.502C166.384 107.708 165.274 108.984 164.242 110.321V110.308Z" fill="white"/>
<path d="M138.694 142.514C138.694 142.519 138.696 142.524 138.698 142.529C138.701 142.534 138.705 142.538 138.709 142.541C138.713 142.544 138.718 142.546 138.724 142.547C138.729 142.549 138.734 142.548 138.74 142.547C138.76 142.547 138.777 142.547 138.781 142.506C138.781 142.385 138.781 142.268 138.781 142.152C138.781 141.715 138.781 141.287 138.76 140.858C138.76 140.779 138.76 140.704 138.76 140.625C138.772 140.613 138.78 140.597 138.781 140.579C138.74 135.916 141.519 131.709 140.762 127.008C140.369 124.927 139.627 122.928 138.565 121.096C138.149 120.297 137.138 117.522 135.869 117.809C134.883 118.03 134.758 119.806 134.712 120.551C134.567 122.922 135.232 125.373 135.765 127.661C136.297 129.949 136.93 132.109 137.512 134.318C138.021 136.35 138.362 138.421 138.532 140.509C138.602 141.178 138.644 141.844 138.694 142.514Z" fill="#EBEBEB"/>
<path d="M138.694 142.514C138.694 142.52 138.696 142.525 138.698 142.53C138.701 142.534 138.705 142.538 138.709 142.541C138.713 142.545 138.718 142.547 138.724 142.548C138.729 142.549 138.734 142.549 138.739 142.548C138.739 142.161 138.739 141.774 138.719 141.391C138.739 141.645 138.76 141.899 138.785 142.152C138.785 141.716 138.785 141.287 138.764 140.859C138.764 140.642 138.735 140.422 138.723 140.201C138.776 137.597 139.024 135.001 139.463 132.434C139.691 131.173 139.698 129.882 139.484 128.619C139.068 126.264 137.321 121.504 136.539 121.296C135.756 121.088 136.189 122.736 136.247 123.131C136.73 126.301 137.624 129.372 137.936 132.588C138.145 134.743 138.353 136.902 138.519 139.061C138.519 139.548 138.519 140.035 138.519 140.522C138.602 141.179 138.644 141.845 138.694 142.514ZM138.569 137.667C138.444 135.587 138.298 133.507 138.045 131.427C137.828 129.717 137.454 128.036 137.096 126.351C136.913 125.519 136.738 124.687 136.593 123.822C136.551 123.593 136.114 121.741 136.435 121.621C136.755 121.5 137.267 122.736 137.412 123.068C138.032 124.67 138.627 126.33 139.076 127.99C139.563 129.754 139.397 131.406 139.076 133.178C138.819 134.663 138.65 136.162 138.569 137.667Z" fill="white"/>
<path d="M138.868 146.358C138.992 146.327 139.104 146.262 139.193 146.171C143.47 143.558 148.487 142.551 152.789 139.93C154.705 138.823 156.323 137.269 157.507 135.4C157.994 134.568 159.687 131.776 159.005 130.744C156.975 127.64 143.407 141.112 139.006 145.867C138.926 145.923 138.857 145.992 138.802 146.071C138.673 146.246 138.723 146.375 138.868 146.358Z" fill="#EBEBEB"/>
<path d="M138.868 146.359C139.172 146.109 139.48 145.851 139.792 145.606C140.828 144.948 141.872 144.312 142.958 143.737C144.672 142.826 146.486 142.14 148.25 141.329C151.015 140.09 153.422 138.17 155.244 135.749C155.639 135.225 156.841 133.79 156.384 133.029C155.968 132.334 154.936 133.282 154.561 133.553C149.24 137.422 144.16 141.674 139.072 145.868L138.802 146.076C138.673 146.246 138.723 146.375 138.868 146.359ZM141.302 144.374C143.299 142.757 145.298 141.148 147.297 139.548C148.867 138.294 150.441 137.046 152.019 135.804C152.802 135.192 153.571 134.555 154.366 133.969C154.678 133.732 155.88 132.808 156.097 133.266C156.313 133.723 155.556 134.788 155.419 134.988C153.297 138.171 150.189 140.184 146.727 141.645C144.857 142.426 143.044 143.338 141.302 144.374Z" fill="white"/>
<path d="M153.721 103.402C153.707 103.43 153.7 103.46 153.7 103.491C153.7 103.522 153.707 103.553 153.721 103.581C153.744 103.618 153.778 103.647 153.818 103.666C153.858 103.684 153.902 103.691 153.946 103.685C153.993 103.687 154.039 103.674 154.079 103.647C154.094 103.648 154.108 103.644 154.122 103.636C154.135 103.629 154.146 103.619 154.154 103.606C155.934 101.08 158.884 98.4885 160.744 96.0339C162.146 94.1278 163.26 92.0249 164.047 89.7932C164.979 87.3254 165.608 84.7534 165.919 82.1339C166.052 80.8857 166.552 77.9194 165.378 76.9417C162.974 74.9197 160.606 84.3223 160.215 85.3998C158.039 91.395 155.851 97.386 153.721 103.402Z" fill="#EBEBEB"/>
<path d="M153.734 103.581C153.757 103.618 153.791 103.648 153.831 103.666C153.871 103.684 153.915 103.691 153.959 103.685C154.054 103.481 154.146 103.269 154.241 103.065C154.907 101.909 155.573 100.752 156.322 99.6328C157.512 97.8063 158.947 96.1547 160.066 94.2908C162.03 91.0456 165.038 81.3144 163.54 80.6737C162.758 80.3408 162.234 82.3379 162.059 82.808C161.377 84.701 160.936 86.6689 160.224 88.5577C159.488 90.5422 158.631 92.4768 157.782 94.4156C156.467 97.3945 155.144 100.369 153.863 103.369C153.809 103.44 153.775 103.51 153.734 103.581ZM155.119 101.085C156.293 98.447 157.437 95.801 158.593 93.1591C159.388 91.3286 160.166 89.4896 160.832 87.6091C161.198 86.5565 161.506 85.4831 161.813 84.4097C161.963 83.8897 162.113 83.3655 162.3 82.8538C162.462 82.4127 163.024 80.5946 163.548 81.1272C164.073 81.6597 163.357 84.4805 163.191 85.1378C162.92 86.2112 162.637 87.2763 162.317 88.333C161.711 90.4296 160.843 92.4411 159.733 94.3199C158.589 96.1754 157.158 97.8313 155.989 99.6744C155.689 100.157 155.398 100.623 155.119 101.101V101.085Z" fill="white"/>
<path d="M128.471 112.538C133.268 116.145 139.942 116.158 143.703 123.334C143.703 123.364 143.753 123.355 143.761 123.334C143.769 123.314 143.761 123.314 143.761 123.305C143.484 122.565 143.168 121.832 142.812 121.109C140.958 117.184 138.366 113.653 135.178 110.707C133.281 108.963 131.131 107.517 128.8 106.418C127.61 105.865 124.977 104.384 123.716 104.924C121.004 106.094 127.594 111.885 128.471 112.538Z" fill="#EBEBEB"/>
<path d="M128.201 109.821C130.394 112.68 133.968 114.136 136.863 116.145C138.883 117.5 140.725 119.101 142.347 120.913C142.833 121.708 143.308 122.511 143.774 123.33C143.774 123.33 143.774 123.31 143.774 123.301C143.496 122.561 143.18 121.828 142.825 121.105C142.792 121.071 142.767 121.03 142.734 120.996C141.433 118.834 139.909 116.815 138.186 114.972C135.83 112.408 133.124 110.188 130.148 108.378C129.637 108.062 127.864 106.61 127.194 107.188C126.525 107.766 127.906 109.422 128.201 109.821ZM127.477 107.421C127.989 107.113 131.026 109.185 132.22 110.038C134.803 111.875 137.138 114.037 139.168 116.47C140.043 117.52 140.853 118.624 141.594 119.773C140.493 118.652 139.303 117.621 138.036 116.69C135.395 114.735 132.287 113.362 129.824 111.186C129.172 110.624 128.593 109.982 128.101 109.276C127.918 108.994 127.024 107.7 127.49 107.421H127.477Z" fill="white"/>
<path d="M129.033 87.9209C129.159 90.0924 129.54 92.2416 130.169 94.3238C131.41 98.3475 133.57 102.027 136.48 105.07C136.53 105.124 136.58 105.183 136.634 105.237C136.709 105.432 136.784 105.628 136.871 105.815C136.871 105.861 136.905 105.902 136.925 105.948V105.977C136.934 105.984 136.945 105.987 136.956 105.987C136.967 105.987 136.978 105.983 136.987 105.977C136.996 105.971 137.003 105.962 137.007 105.951C137.011 105.941 137.011 105.93 137.009 105.919C136.963 105.669 136.917 105.42 136.875 105.166C136.006 100.007 136.043 94.7939 134.379 89.7723C134.017 88.6781 131.925 81.4514 129.582 83.1822C128.534 83.9851 128.975 86.8226 129.033 87.9209Z" fill="#EBEBEB"/>
<path d="M130.282 88.7655C130.698 91.969 132.154 95.2183 133.377 98.1889C134.305 100.535 135.352 102.831 136.514 105.07C136.606 105.253 136.705 105.436 136.805 105.615C136.836 105.682 136.869 105.748 136.905 105.815C136.923 105.871 136.946 105.926 136.976 105.977C136.985 105.984 136.996 105.987 137.007 105.987C137.018 105.987 137.029 105.983 137.038 105.977C137.047 105.971 137.054 105.962 137.058 105.951C137.061 105.941 137.062 105.93 137.059 105.919C137.013 105.669 136.967 105.42 136.926 105.166C136.843 104.987 136.755 104.808 136.668 104.629C135.845 101.88 135.217 99.0754 134.787 96.2376C134.517 94.7024 134.213 93.1797 133.797 91.6819C133.381 90.1842 133.036 88.6698 132.32 87.3426C132.004 86.7643 131.368 85.6285 130.585 86.2359C129.911 86.7518 130.178 88.0873 130.282 88.7655ZM131.975 87.3468C132.828 88.9111 133.269 90.854 133.71 92.5764C134.126 94.2198 134.425 95.9048 134.717 97.569C135.029 99.3413 135.345 101.147 135.832 102.89C134.812 100.772 133.81 98.6465 132.953 96.4373C132.283 94.7066 131.65 92.9634 131.11 91.1952C130.809 90.2871 130.604 89.3501 130.498 88.3994C130.459 88.0625 130.442 87.7233 130.448 87.3842C130.461 86.3191 131.571 86.6395 131.946 87.3468H131.975Z" fill="white"/>
<path d="M158.156 68.7166C158.156 68.804 158.156 68.8872 158.156 68.9704C158.156 68.9969 158.163 69.0229 158.176 69.046C158.189 69.0691 158.207 69.0885 158.23 69.1023C158.253 69.1161 158.278 69.1239 158.305 69.1248C158.331 69.1257 158.357 69.1199 158.381 69.1077C158.407 69.0946 158.429 69.0744 158.445 69.0494C158.46 69.0244 158.468 68.9956 158.468 68.9662C158.468 68.8123 158.468 68.6542 158.489 68.5003C158.489 68.3755 158.489 68.2548 158.489 68.1258C158.56 67.9049 158.643 67.6883 158.739 67.4768C159.721 65.1594 161.763 62.9752 163.041 60.9158C164.241 59.0603 165.253 57.0896 166.061 55.0329C166.898 52.9485 167.294 50.7129 167.222 48.4678C167.189 47.8604 167.193 46.321 166.39 46.0839C165.37 45.7885 164.276 47.8396 163.86 48.3971C162.441 50.3572 161.289 52.4979 160.436 54.7625C158.693 59.2641 158.231 63.9155 158.156 68.7166Z" fill="#EBEBEB"/>
<path d="M158.389 67.6141C158.293 67.9772 158.217 68.3452 158.161 68.7166C158.161 68.804 158.161 68.8872 158.161 68.9704C158.161 68.9969 158.167 69.0229 158.18 69.046C158.193 69.0691 158.212 69.0885 158.234 69.1023C158.257 69.1161 158.283 69.1239 158.309 69.1248C158.336 69.1257 158.362 69.1199 158.385 69.1077C158.385 69.0453 158.385 68.9829 158.385 68.9205C158.419 68.779 158.444 68.6417 158.473 68.5044C158.548 68.1591 158.639 67.8221 158.739 67.481C159.101 66.2564 159.573 65.0672 160.149 63.928C161.135 61.9393 162.196 59.9839 163.107 57.9577C163.565 56.9426 167.076 49.1168 165.067 48.8048C164.688 48.7424 164.435 49.2832 164.281 49.5121C163.764 50.3476 163.332 51.2326 162.991 52.1539C162.134 54.2341 161.36 56.3976 160.653 58.5527C159.672 61.5121 158.915 64.5411 158.389 67.6141ZM160.495 59.8174C161.085 57.912 161.743 56.0315 162.446 54.1676C162.791 53.2606 163.128 52.3411 163.523 51.4508C163.715 51.0098 164.738 49.0003 165.15 49.1667C165.753 49.4039 164.98 52.3828 164.734 53.1899C164.439 54.1177 164.106 55.0246 163.748 55.9233C163.02 57.7331 162.175 59.4929 161.293 61.232C160.52 62.7714 159.554 64.4272 158.885 66.1579C159.311 64.018 159.848 61.9016 160.495 59.8174Z" fill="white"/>
<path d="M146.149 95.9009L146.273 96.1255C146.287 96.1479 146.305 96.1665 146.328 96.1794C146.351 96.1924 146.376 96.1991 146.402 96.1991C146.428 96.1991 146.454 96.1924 146.477 96.1794C146.499 96.1665 146.518 96.1479 146.531 96.1255C146.548 96.1009 146.557 96.0719 146.557 96.0423C146.557 96.0127 146.548 95.9837 146.531 95.9591C146.461 95.8218 146.39 95.6845 146.315 95.543C146.257 95.4307 146.203 95.3225 146.14 95.2102C146.094 94.9814 146.057 94.7526 146.032 94.5196C145.716 92.0233 146.39 89.111 146.448 86.6897C146.555 84.484 146.437 82.2733 146.099 80.0912C145.775 77.8754 144.996 75.7506 143.81 73.8506C143.478 73.3471 142.708 72.0117 141.892 72.2114C140.861 72.4651 140.944 74.7867 140.865 75.4815C140.618 77.8839 140.692 80.3086 141.085 82.6915C141.863 87.4593 143.806 91.7196 146.149 95.9009Z" fill="#EBEBEB"/>
<path d="M145.792 94.8354C145.889 95.1974 146.009 95.5531 146.15 95.9004L146.274 96.1251C146.288 96.1475 146.306 96.1661 146.329 96.179C146.352 96.1919 146.377 96.1987 146.403 96.1987C146.429 96.1987 146.455 96.1919 146.478 96.179C146.5 96.1661 146.519 96.1475 146.532 96.1251C146.507 96.0669 146.482 96.0086 146.462 95.9504L146.324 95.5343C146.216 95.1932 146.125 94.8562 146.041 94.5109C145.74 93.2712 145.552 92.0068 145.48 90.7332C145.334 88.5157 145.272 86.294 145.064 84.0765C144.947 82.9698 144.061 74.4409 142.151 75.1773C141.794 75.3146 141.843 75.9096 141.827 76.1842C141.8 77.1663 141.87 78.1487 142.035 79.1173C142.351 81.3639 142.755 83.6064 143.225 85.8239C143.855 88.8874 144.713 91.8995 145.792 94.8354ZM143.711 87.0346C143.27 85.093 142.889 83.1362 142.567 81.1642C142.409 80.2073 142.243 79.2421 142.151 78.2768C142.097 77.7984 141.977 75.5476 142.413 75.481C143.054 75.3853 143.878 78.3517 144.078 79.1797C144.29 80.1241 144.456 81.081 144.593 82.0379C144.876 83.9642 145.01 85.9112 145.139 87.8625C145.238 89.5849 145.238 91.4987 145.521 93.3334C144.806 91.2667 144.197 89.1642 143.699 87.0346H143.711Z" fill="white"/>
<path d="M135.561 101.43C137.037 105.759 138.756 110.001 140.711 114.136C142.246 117.331 143.798 120.576 144.576 124.054C145.504 128.215 145.155 133.086 143.773 137.492C144.747 135.895 145.704 134.279 146.644 132.645C148.562 129.317 150.451 125.918 151.566 122.244C151.674 121.878 151.77 121.512 151.861 121.146C151.842 121.124 151.832 121.096 151.832 121.067C151.979 116.435 151.429 111.807 150.201 107.338C149.009 105.123 147.6 103.033 145.995 101.097C144.352 99.0916 142.775 97.1403 141.664 94.7814C141.602 94.6441 141.785 94.5234 141.868 94.6566C143.723 97.7062 146.885 100.423 149.028 103.543C148.837 102.998 148.641 102.453 148.433 101.908C146.453 96.7076 143.59 91.6444 144.564 85.8947C144.597 85.7033 144.876 85.7782 144.855 85.9654C144.106 92.3059 148.25 98.3677 150.214 104.167C151.678 108.478 152.776 113.208 152.523 117.822C152.858 115.23 153.057 112.622 153.118 110.009C153.708 94.2738 154.848 78.5224 159.654 63.4325C159.704 63.2869 159.937 63.3368 159.891 63.4908C155.127 79.783 155.144 96.5288 154.195 113.312C154.195 113.503 154.17 113.695 154.158 113.882C155.108 111.548 156.339 109.337 157.823 107.3C157.838 107.283 157.859 107.271 157.881 107.267C157.904 107.263 157.927 107.267 157.947 107.278C157.967 107.29 157.983 107.308 157.991 107.329C158 107.35 158.001 107.374 157.994 107.396C156.35 110.554 155.264 113.878 153.858 117.119C153.584 119.5 153.042 121.844 152.244 124.104C151.214 126.792 149.962 129.389 148.5 131.867C151.091 128.73 153.717 125.627 156.084 122.298C159.688 117.267 162.953 112.001 165.857 106.535C165.898 106.456 166.015 106.535 165.977 106.601C163.288 112.457 160.115 118.08 156.492 123.409C153.376 127.911 150.001 132.537 145.957 136.307C142.513 142.16 138.764 148.093 133.892 152.811C133.847 152.858 133.785 152.885 133.72 152.886C133.655 152.887 133.592 152.863 133.545 152.817C133.498 152.772 133.471 152.71 133.47 152.645C133.469 152.58 133.493 152.517 133.539 152.47C134.371 151.376 135.203 150.273 136.035 149.162C136.597 146.849 137.558 144.648 137.999 142.277C138.514 139.504 138.697 136.68 138.544 133.864C138.544 133.656 138.839 133.652 138.864 133.864C139.33 137.671 139.342 142.456 137.999 146.421C139.144 144.773 140.254 143.109 141.327 141.428C143.911 135.267 145.046 128.298 143.041 121.874C142.013 118.571 140.437 115.484 139.035 112.33C137.522 108.825 136.281 105.209 135.323 101.513C135.32 101.484 135.327 101.455 135.342 101.43C135.358 101.405 135.381 101.387 135.409 101.377C135.436 101.367 135.466 101.367 135.494 101.377C135.521 101.386 135.545 101.405 135.561 101.43Z" fill="#EBEBEB"/>
<path d="M64.9621 86.0407C65.2783 88.175 64.6335 90.5963 64.13 92.6474C63.5353 94.9975 62.7791 97.3037 61.8668 99.5496C61.0347 101.63 60.0944 103.71 59.1209 105.728L59.0918 105.786L58.9004 106.202C58.8421 106.373 58.7839 106.543 58.7173 106.714C58.7093 106.736 58.6944 106.754 58.675 106.767C58.6555 106.78 58.6324 106.786 58.6091 106.785C58.5939 106.787 58.5784 106.784 58.5643 106.778C58.5501 106.773 58.5378 106.763 58.5285 106.751C58.5192 106.738 58.5133 106.724 58.5114 106.709C58.5095 106.694 58.5116 106.678 58.5176 106.664C58.5467 106.572 58.58 106.477 58.605 106.385C59.7699 102.437 58.1889 98.2973 58.8629 94.2866C59.2291 92.0899 60.1984 90.0097 61.0388 87.9628C61.5048 86.827 61.8709 85.3126 62.5532 84.2933C62.7363 84.0229 62.8278 83.715 63.1898 83.6235C64.3089 83.3322 64.8581 85.296 64.9621 86.0407Z" fill="#EBEBEB"/>
<path d="M63.7147 87.3385C63.1905 86.6895 62.5248 88.0541 62.321 88.4244C60.9564 90.9207 59.8497 93.9744 59.7665 96.816C59.6708 99.9405 59.6042 103.057 58.7596 106.085L58.6099 106.368C58.5849 106.46 58.5516 106.556 58.5225 106.647C58.5165 106.661 58.5144 106.677 58.5163 106.692C58.5182 106.707 58.5241 106.722 58.5334 106.734C58.5427 106.746 58.555 106.756 58.5692 106.762C58.5833 106.768 58.5988 106.77 58.614 106.768C58.614 106.71 58.6598 106.651 58.6764 106.593C58.8221 106.327 58.9635 106.056 59.0925 105.786L59.1216 105.728C60.0073 103.756 60.7851 101.738 61.4514 99.6825C62.5228 96.8502 63.2817 93.9094 63.7147 90.9124C63.8063 90.1876 63.8605 89.4585 63.877 88.7281C63.8978 88.362 63.9727 87.6547 63.7147 87.3385ZM63.7147 89.1983C63.6778 89.9686 63.6015 90.7365 63.4859 91.499C63.0536 94.1215 62.3738 96.6973 61.4556 99.1916C60.761 101.387 59.9386 103.541 58.9926 105.64C59.4663 103.92 59.7454 102.152 59.8247 100.369C59.9121 99.0294 59.8954 97.6897 59.9662 96.3459C60.0964 94.8511 60.4498 93.3842 61.0146 91.9941C61.4366 90.6406 62.0088 89.3386 62.7204 88.1124C62.8743 87.8711 63.282 87.3593 63.4984 87.4467C63.877 87.5965 63.7147 88.8779 63.7147 89.1983Z" fill="white"/>
<path d="M51.1419 144.095C51.1603 144.111 51.1725 144.132 51.1763 144.156C51.1802 144.18 51.1753 144.204 51.1627 144.224C51.1539 144.243 51.1398 144.259 51.122 144.27C51.1043 144.281 51.0838 144.287 51.0629 144.287C51.0347 144.286 51.0072 144.278 50.9838 144.262C48.7788 142.519 46.8234 140.064 44.0109 139.34C41.8059 138.77 39.8505 138.658 37.9034 137.314C35.9456 135.932 34.2977 134.156 33.0649 132.101C32.5043 131.166 32.0321 130.182 31.6545 129.159C31.4714 128.669 30.8224 127.404 31.0512 126.871C32.1579 124.375 38.956 130.616 39.8713 131.448C43.8695 135.146 47.876 139.211 50.9173 143.75C50.9213 143.757 50.9234 143.765 50.9234 143.773C50.9234 143.781 50.9213 143.789 50.9173 143.796C50.9149 143.805 50.9107 143.813 50.905 143.82C50.8992 143.827 50.8921 143.833 50.884 143.837L51.1419 144.095Z" fill="#EBEBEB"/>
<path d="M51.1414 144.095L50.8834 143.829C50.8916 143.824 50.8987 143.818 50.9044 143.811C50.9102 143.804 50.9144 143.796 50.9167 143.787C48.7866 141.366 46.4651 139.086 44.1186 136.868C41.5974 134.493 39.0179 132.059 36.2138 130.028C35.8268 129.75 34.2792 128.339 33.7716 128.947C33.264 129.554 34.7784 131.493 35.0946 131.921C36.9793 134.447 39.7876 135.999 42.5168 137.438C44.2892 138.374 46.0324 139.281 47.5093 140.663C48.7575 141.823 49.8475 143.121 51.0748 144.29C51.0957 144.291 51.1163 144.285 51.134 144.274C51.1517 144.263 51.1658 144.247 51.1747 144.228C50.5465 143.625 49.9557 142.98 49.3607 142.343C49.9682 142.967 50.5728 143.594 51.1747 144.224C51.186 144.202 51.1888 144.177 51.1827 144.153C51.1765 144.129 51.1618 144.109 51.1414 144.095ZM45.5747 138.924C42.9786 137.259 40.0455 136.148 37.6075 134.206C36.42 133.287 35.4105 132.159 34.6286 130.877C34.4789 130.628 33.7466 129.521 34.0295 129.213C34.2168 128.993 34.9074 129.367 35.0031 129.434C35.745 129.897 36.4578 130.405 37.1374 130.956C39.5213 132.849 41.7887 134.909 44.0021 136.993C45.2502 138.154 46.4235 139.34 47.6009 140.546C46.9774 139.943 46.2991 139.4 45.5747 138.924Z" fill="white"/>
<path d="M50.9125 87.7171C50.7378 90.1343 49.7642 92.5016 48.6617 94.6401C46.103 99.5827 42.2338 103.876 40.2244 109.102C40.1453 109.31 40.0704 109.518 39.9955 109.722C39.9955 110.009 39.9664 109.934 39.9414 109.589C39.8374 108.07 39.7584 101.447 41.3102 97.0199C42.2796 94.2573 43.8065 91.7735 45.3292 89.2939C46.2029 87.8794 47.0599 86.4565 47.9419 85.0503C48.2249 84.5968 48.774 83.253 49.5312 83.2987C51.004 83.3695 50.9791 86.7686 50.9125 87.7171Z" fill="#EBEBEB"/>
<path d="M48.3207 87.6839C48.2252 87.604 48.1028 87.5634 47.9784 87.5703C47.854 87.5773 47.737 87.6313 47.6509 87.7213C47.4279 87.9732 47.2581 88.2676 47.1516 88.5867C46.8937 89.1192 46.6358 89.6434 46.3778 90.1718C44.6055 93.8122 42.4712 97.4651 41.2938 101.355C40.5461 103.951 40.1117 106.627 39.9999 109.326C39.9999 109.41 39.9707 109.497 39.9541 109.584C39.9791 109.93 39.9999 110 40.0082 109.718C40.0831 109.51 40.158 109.301 40.237 109.098C40.2953 108.802 40.366 108.511 40.445 108.216C41.0509 106.219 41.9093 104.308 42.9995 102.528C44.9425 99.0751 46.7439 95.5263 47.9921 91.7528C48.29 90.9163 48.4964 90.0501 48.6078 89.1692C48.6452 88.7698 48.7077 87.9793 48.3207 87.6839ZM48.4123 88.9944C48.4075 89.1911 48.388 89.3872 48.354 89.581C48.2838 89.9936 48.1908 90.402 48.0753 90.8042C47.7937 91.7736 47.4618 92.7276 47.0809 93.6624C45.7621 97.0199 44.0563 100.136 42.3255 103.29C41.4393 104.83 40.7409 106.471 40.2453 108.178C40.3928 106.692 40.6164 105.215 40.9152 103.751C41.689 100.007 43.453 96.6787 45.1047 93.2672C45.5208 92.4351 45.9368 91.5781 46.3528 90.7376C46.5567 90.3216 46.7689 89.9056 46.9686 89.4687L47.2723 88.8363C47.4762 88.4203 47.4512 88.2123 47.9754 88.1748C48.6161 88.1291 48.4497 88.4619 48.4289 88.9944H48.4123Z" fill="white"/>
<path d="M50.1929 110.416C50.4861 112.293 50.5989 114.193 50.5299 116.091C50.3968 119.898 48.9656 124.038 49.1861 127.903C49.2235 128.161 49.2527 128.423 49.2693 128.681C49.2693 128.776 49.2693 128.876 49.2693 128.972C49.2693 129.068 49.1861 129.034 49.1736 128.972C49.132 128.801 49.0862 128.631 49.0363 128.456L48.9614 128.186C47.8797 124.242 46.1989 120.497 46.2405 116.337C46.2655 113.774 46.8812 106.814 48.6161 106.63C49.3816 106.543 50.0099 109.264 50.1929 110.416Z" fill="#EBEBEB"/>
<path d="M48.6366 110.475C48.2206 110.579 48.0708 111.344 47.9835 111.656C47.7739 112.496 47.6347 113.352 47.5674 114.215C47.4176 115.815 47.4176 117.425 47.5674 119.025C47.7695 122.113 48.2513 125.176 49.0069 128.178L49.0818 128.448C49.1317 128.623 49.1775 128.793 49.2191 128.964C49.2191 129.014 49.319 129.005 49.3148 128.964C49.3106 128.922 49.3148 128.768 49.3148 128.673C48.7531 125.282 48.9237 121.874 49.1858 118.438C49.2025 117.681 50.1053 110.096 48.6366 110.475ZM49.2399 113.741C49.2149 114.469 49.1692 115.189 49.1193 115.917C49.0069 117.606 48.8571 119.299 48.7615 120.988C48.6422 122.836 48.6561 124.689 48.8031 126.534C48.3579 124.378 48.0233 122.201 47.8004 120.011C47.6534 118.566 47.5978 117.114 47.634 115.663C47.6583 114.875 47.7347 114.09 47.8628 113.312C47.9252 112.942 48.1998 110.779 48.6949 110.687C49.2732 110.571 49.2566 113.425 49.2399 113.741Z" fill="white"/>
<path d="M67.2296 106.31C67.9036 107.596 67.0299 109.717 66.3059 110.783C65.2742 112.305 63.7348 113.349 62.1122 114.173C59.7616 115.363 57.2445 116.141 55.1352 117.772C53.0258 119.403 53.7082 118.912 52.0107 121.184C51.9774 121.229 51.9317 121.217 51.9025 121.184C51.8706 121.119 51.854 121.048 51.854 120.976C51.854 120.903 51.8706 120.832 51.9025 120.768C51.9081 120.745 51.9151 120.723 51.9233 120.701C53.8579 116.794 56.6371 113.969 60.1027 111.315C62.0665 109.813 63.5018 107.691 65.5113 106.268C66.2768 105.723 66.7636 105.42 67.2296 106.31Z" fill="#EBEBEB"/>
<path d="M65.8321 108.286C65.2829 107.87 64.2678 108.956 63.8684 109.339C62.7455 110.482 61.5215 111.52 60.2114 112.443C59.0088 113.182 57.8566 114.001 56.7624 114.893C55.1196 116.306 53.7026 117.961 52.5603 119.802C52.3315 120.102 52.1152 120.422 51.9113 120.751C51.8794 120.816 51.8628 120.887 51.8628 120.959C51.8628 121.031 51.8794 121.102 51.9113 121.167C51.9113 121.125 51.9571 121.084 51.982 121.042C53.5131 118.588 55.6141 116.882 58.3017 115.6C60.9894 114.319 63.548 112.809 65.3329 110.371C65.6407 109.938 66.3397 108.669 65.8321 108.286ZM65.3786 110.025C65.0843 110.448 64.7633 110.851 64.4176 111.232C63.7857 111.92 63.0891 112.545 62.3374 113.1C60.9864 114.043 59.5488 114.855 58.0438 115.525C56.3076 116.338 54.7331 117.459 53.3966 118.833C54.4892 117.303 55.7758 115.921 57.2242 114.722C58.5264 113.657 60.0158 112.879 61.3389 111.856C61.9504 111.382 62.5121 110.853 63.0738 110.329C63.3775 110.042 63.677 109.751 63.9807 109.468C64.2844 109.185 65.1249 108.295 65.5492 108.474C66.1026 108.673 65.4993 109.855 65.3786 110.025Z" fill="white"/>
<path d="M31.4913 88.1912C34.3079 93.0589 36.825 98.0847 39.1506 103.202C39.1656 103.23 39.1705 103.262 39.1644 103.293C39.1584 103.324 39.1417 103.352 39.1174 103.373C39.1193 103.382 39.1193 103.392 39.1174 103.402C39.1337 103.432 39.1476 103.464 39.159 103.497C39.1645 103.513 39.1637 103.531 39.1567 103.546C39.1498 103.562 39.1372 103.574 39.1215 103.581H39.0924C39.0802 103.58 39.0684 103.576 39.0577 103.571C39.0469 103.565 39.0375 103.557 39.03 103.547C37.2077 100.856 35.4895 98.3301 32.9225 96.2707C30.5718 94.386 28.217 92.7385 26.3282 90.3587C24.7181 88.3243 20.8447 79.1006 22.1345 77.3532C22.9832 76.1758 29.2488 84.322 31.4913 88.1912Z" fill="#EBEBEB"/>
<path d="M27.5178 84.5177C27.135 83.9602 26.1074 81.8634 25.138 82.0506C24.1687 82.2378 25.2212 84.3596 25.4085 84.8007C26.0643 86.4355 26.8795 88.0019 27.8423 89.477C28.8283 90.929 30.1306 92.0232 31.3662 93.2505C34.395 96.2793 36.8746 99.9072 39.063 103.585H39.0921C39.1078 103.579 39.1204 103.566 39.1273 103.551C39.1343 103.535 39.1351 103.518 39.1296 103.502C39.1182 103.469 39.1043 103.437 39.088 103.406C39.0899 103.396 39.0899 103.387 39.088 103.377C35.8719 96.7411 31.6782 90.5961 27.5178 84.5177ZM38.8342 103.132C37.353 100.575 35.6842 98.1315 33.8417 95.8216C31.7074 93.1423 28.8783 91.1203 27.185 88.104C26.3009 86.6476 25.602 85.0864 25.1048 83.4568C25.0465 83.2405 24.8177 82.5083 25.1048 82.3002C25.3918 82.0922 25.9368 82.5291 26.5817 83.4069C27.1101 84.1391 27.601 84.9005 28.1086 85.6494C30.1056 88.5866 32.086 91.5364 33.9665 94.5569C35.6972 97.3527 37.3226 100.211 38.8425 103.132H38.8342Z" fill="white"/>
<path d="M40.5534 121.517C40.5531 121.539 40.5441 121.56 40.5284 121.575C40.5154 121.597 40.4942 121.614 40.4694 121.621C40.4446 121.628 40.418 121.625 40.3953 121.612L40.0666 121.429C40.0624 121.432 40.0573 121.434 40.0521 121.434C40.0468 121.434 40.0418 121.432 40.0375 121.429C37.4913 120.564 35.278 120.572 32.6361 120.706C30.6846 120.796 28.7414 120.398 26.9821 119.549C25.064 118.592 23.3157 117.327 21.8065 115.805C21.1824 115.197 19.0939 113.703 19.7263 112.518C20.7622 110.575 27.1776 114.685 28.3051 115.318C30.2947 116.477 32.3538 117.512 34.4709 118.417C36.5719 119.283 38.6812 120.081 40.5243 121.446C40.5354 121.454 40.5441 121.465 40.5492 121.477C40.5544 121.49 40.5558 121.503 40.5534 121.517Z" fill="#EBEBEB"/>
<path d="M39.2299 120.913C38.0233 120.368 36.8376 119.773 35.6103 119.291C34.2332 118.754 32.7687 118.488 31.3874 117.951C28.8038 116.944 26.4532 115.455 23.9278 114.327C23.595 114.182 22.9418 113.911 23.0042 114.531C23.0291 114.802 23.3578 115.084 23.5201 115.263C24.0303 115.802 24.5872 116.295 25.1842 116.736C27.1771 118.238 29.5777 119.524 32.0656 119.915C34.9529 120.364 37.8403 120.393 40.5404 121.579C40.5561 121.564 40.565 121.543 40.5654 121.521C40.137 121.283 39.6905 121.08 39.2299 120.913ZM32.9892 119.832C29.806 119.403 26.8247 118.029 24.4312 115.887C24.0822 115.571 23.7503 115.236 23.4369 114.885C23.2538 114.656 23.0208 114.194 23.8529 114.469C24.0444 114.542 24.2306 114.628 24.4104 114.727C25.0594 115.039 25.7001 115.363 26.3408 115.696C27.7055 116.403 29.0659 117.131 30.4763 117.743C31.7341 118.264 33.0288 118.691 34.3497 119.02C35.9304 119.5 37.4728 120.098 38.9636 120.809C37.0581 120.185 35.007 120.081 33.0059 119.836L32.9892 119.832Z" fill="white"/>
<path d="M34.1745 114.323C34.1867 114.363 34.1867 114.405 34.1745 114.444C34.1659 114.465 34.1547 114.484 34.1412 114.502C34.125 114.523 34.1053 114.542 34.083 114.556H34.058C34.0297 114.573 33.9973 114.582 33.9644 114.582C33.9314 114.582 33.8991 114.573 33.8708 114.556C33.5087 114.343 33.1625 114.104 32.8348 113.841C28.8408 111.311 24.7594 108.665 21.8596 104.896C20.3938 102.957 19.1764 100.842 18.2359 98.601C17.7699 97.5068 16.3512 95.1228 17.2291 93.8997C18.1069 92.6765 19.1137 93.7832 19.8127 94.4946C21.6419 96.3277 23.3552 98.273 24.9425 100.319C26.4986 102.346 27.8242 104.539 28.8949 106.859C30.1722 109.639 31.362 112.488 34.0622 114.178C34.0908 114.192 34.1158 114.212 34.1353 114.237C34.1548 114.263 34.1682 114.292 34.1745 114.323Z" fill="#EBEBEB"/>
<path d="M27.4225 106.581C25.4861 103.504 23.328 100.573 20.9655 97.8105C20.6659 97.4485 19.7714 96.4958 19.4386 97.2946C19.0517 98.2348 20.2707 99.6827 20.6867 100.377C22.3176 103.032 24.1642 105.548 26.2076 107.9C28.4683 110.513 31.1379 112.743 34.1124 114.502C34.1259 114.484 34.1371 114.465 34.1457 114.444C29.3071 111.436 25.4379 107.105 22.276 102.42C21.5105 101.289 20.7367 100.144 20.0668 98.9546C19.9628 98.7632 19.3804 97.5068 19.7548 97.2904C20.1292 97.0741 21.0279 98.2057 21.1402 98.3472C21.6644 98.9962 22.1845 99.6494 22.7087 100.307C24.6347 102.779 26.4276 105.353 28.0798 108.016C29.6391 110.554 31.7056 112.742 34.1499 114.444C34.1621 114.405 34.1621 114.363 34.1499 114.323C31.2833 112.28 29.278 109.584 27.4225 106.581Z" fill="white"/>
<path d="M35.3567 67.689C36.4093 69.9814 37.2497 72.3362 37.4369 74.8699C37.7531 78.7349 36.9127 82.55 36.6797 86.3943C36.6778 86.4094 36.6778 86.4248 36.6797 86.44C36.6152 87.4847 36.6152 88.5323 36.6797 89.577C36.6797 89.8016 36.6964 90.0263 36.7296 90.251C36.7331 90.2743 36.7304 90.2982 36.7216 90.3201C36.7128 90.3421 36.6984 90.3613 36.6797 90.3758C36.6526 90.3941 36.6209 90.4042 36.5882 90.4049C36.5558 90.4064 36.5238 90.3977 36.4967 90.3799C36.4743 90.3678 36.4551 90.3505 36.4406 90.3295C36.4262 90.3086 36.4169 90.2845 36.4134 90.2593C36.3677 89.9348 36.3386 89.6144 36.3094 89.2941C36.2996 89.2894 36.291 89.2825 36.2845 89.2738C36.278 89.2651 36.2737 89.2549 36.272 89.2442C34.9864 84.1227 33.4055 78.8888 31.8078 73.7549C31.0608 71.4855 30.5287 69.1509 30.2186 66.782C30.0605 65.3799 29.9481 63.2456 31.1547 62.2263C31.1906 62.1878 31.2361 62.1594 31.2865 62.1441C31.3369 62.1287 31.3904 62.127 31.4417 62.1389C33.4762 62.9294 34.5246 65.875 35.3567 67.689Z" fill="#EBEBEB"/>
<path d="M32.965 67.51C32.0206 66.9774 31.9831 68.2172 32.0248 68.8538C32.1992 70.5623 32.4771 72.2588 32.8568 73.9337C33.2119 75.817 33.5932 77.6961 34.001 79.5711C34.779 83.1074 36.1228 86.7437 36.4972 90.3632C36.5243 90.381 36.5564 90.3897 36.5887 90.3882C36.6214 90.3875 36.6532 90.3773 36.6803 90.3591V89.5603C36.6803 88.516 36.6803 87.4801 36.6803 86.4233C36.6784 86.4081 36.6784 86.3927 36.6803 86.3775C36.7052 81.3393 36.6304 76.3259 34.987 71.3667C34.6209 70.2309 34.1258 68.1632 32.965 67.51ZM35.1284 72.361C36.0244 75.4576 36.4988 78.6609 36.5388 81.8843C36.5971 84.4471 36.4681 87.0058 36.4764 89.5686C36.1769 87.4509 35.5278 85.3665 35.0286 83.2739C34.2437 79.9899 33.5502 76.6893 32.9484 73.372C32.7986 72.5732 32.6599 71.773 32.5323 70.9715C32.4117 70.2642 32.0747 69.1284 32.2203 68.4086C32.4949 67.0107 33.4684 68.1964 33.7638 68.6832C34.0041 69.1203 34.2073 69.5768 34.3712 70.0478C34.6333 70.8092 34.8955 71.583 35.1284 72.361Z" fill="white"/>
<path d="M61.1179 99.1458C59.58 103.573 57.7424 107.89 55.6179 112.068C53.6583 115.921 51.6488 119.723 50.2467 123.825C48.3829 129.234 47.6465 135.45 49.502 140.883C45.8909 134.358 43.395 127.275 42.1173 119.927C39.8789 107.512 38.1316 94.8647 34.8282 82.6705C34.7741 82.4708 34.487 82.5623 34.5203 82.7578C35.5687 89.2606 37.0457 95.6968 38.1524 102.191C39.259 108.686 40.166 115.138 41.3767 121.566C41.5098 122.265 41.6554 122.952 41.7927 123.647C39.1425 118.533 34.5994 114.24 29.8773 111.328C29.819 111.29 29.7733 111.382 29.8273 111.423C33.1121 113.765 35.9869 116.634 38.3354 119.915C40.4156 122.773 41.7844 125.877 43.2697 129.034C46.2004 138.224 51.4372 146.508 58.4802 153.098C58.4951 153.113 58.5153 153.122 58.5364 153.122C58.5575 153.122 58.5777 153.113 58.5926 153.098C58.6075 153.083 58.6158 153.063 58.6158 153.042C58.6158 153.021 58.6075 153.001 58.5926 152.986C55.8039 150.152 53.3217 147.033 51.187 143.679C47.8587 136.71 49.2732 128.606 52.1231 121.554C53.6167 117.855 55.3974 114.29 57.0823 110.674C58.7673 107.059 60.6104 103.206 61.3218 99.1999C61.3197 99.177 61.3106 99.1552 61.2957 99.1377C61.2809 99.1201 61.261 99.1075 61.2388 99.1016C61.2165 99.0957 61.193 99.0968 61.1714 99.1047C61.1498 99.1126 61.1311 99.1269 61.1179 99.1458Z" fill="#EBEBEB"/>
<path d="M95.3341 177C116.032 177 132.811 174.349 132.811 171.08C132.811 167.81 116.032 165.159 95.3341 165.159C74.636 165.159 57.8569 167.81 57.8569 171.08C57.8569 174.349 74.636 177 95.3341 177Z" fill="#EBEBEB"/>
<path d="M68.5406 152.736H32.2075C32.2075 152.736 32.2907 147.328 35.8645 145.897C36.8334 145.475 37.9131 145.38 38.9406 145.627C39.968 145.873 40.8875 146.447 41.5602 147.261C41.5602 147.261 43.0163 137.318 49.673 137.318C56.3297 137.318 59.5124 145.897 59.5124 145.897C59.5124 145.897 61.0019 143.305 64.6963 143.787C68.3908 144.27 68.5406 152.736 68.5406 152.736Z" fill="#37474F"/>
<path d="M185.448 152.737C185.448 152.737 184.333 147.54 182.12 146.741C179.907 145.943 178.542 148.272 178.542 148.272C178.542 148.272 178.018 143.305 174.864 141.82C171.711 140.334 169.335 143.38 169.335 143.38C169.335 143.38 166.914 137.077 162.591 137.077C158.268 137.077 156.076 146.292 156.076 146.292C156.076 146.292 153.525 143.542 150.908 145.094C148.291 146.646 148.292 152.732 148.292 152.732L185.448 152.737Z" fill="#37474F"/>
<path d="M38.7185 152.737H5.21875C5.21875 152.737 6.32126 148.015 8.5471 147.682C10.7729 147.349 11.8047 149.537 11.8047 149.537C11.8047 149.537 11.709 142.964 15.8695 141.828C20.0299 140.692 23.4955 146.525 23.4955 146.525C23.4955 146.525 26.0958 143.197 29.6405 143.417C33.1852 143.638 34.088 149.113 34.088 149.113C34.088 149.113 37.2957 147.212 38.7185 152.737Z" fill="#455A64"/>
<path d="M150.705 152.736H130.119C130.119 152.736 130.169 149.674 132.199 148.863C132.748 148.624 133.36 148.569 133.942 148.708C134.525 148.847 135.046 149.171 135.428 149.633C135.428 149.633 136.26 144.004 140.004 144.004C143.749 144.004 145.579 148.863 145.579 148.863C145.579 148.863 146.411 147.394 148.521 147.665C150.63 147.935 150.705 152.736 150.705 152.736Z" fill="#455A64"/>
<path d="M0.342773 152.737L24.0905 152.637L47.8383 152.6L95.3338 152.529L142.829 152.6L166.577 152.637L190.325 152.737L166.577 152.841L142.829 152.874L95.3338 152.945L47.8383 152.874L24.0905 152.841L0.342773 152.737Z" fill="#263238"/>
<path d="M148.459 116.579C148.476 127.801 144.922 138.738 138.312 147.807C132.969 155.162 125.828 161.023 117.573 164.83C109.317 168.636 100.223 170.261 91.16 169.548C82.0971 168.835 73.3688 165.808 65.81 160.758C58.2512 155.707 52.1148 148.802 47.9879 140.702C43.8609 132.601 41.8814 123.578 42.2388 114.494C42.5962 105.41 45.2786 96.5701 50.0292 88.8192C54.7798 81.0684 61.4398 74.6662 69.3721 70.2252C77.3043 65.7841 86.2435 63.4528 95.3343 63.4541C96.7905 63.4541 98.2328 63.5123 99.6612 63.6288C107.891 64.2884 115.852 66.8675 122.906 71.1592C130.008 75.4844 136.002 81.4097 140.408 88.4625C145.682 96.8914 148.472 106.636 148.459 116.579Z" fill="#FA7387"/>
<g opacity="0.2">
<path opacity="0.2" d="M106.769 141.296C106.099 143.085 107.219 143.16 107.289 143.901C107.36 144.641 107.289 146.06 105.134 148.219C102.979 150.378 99.4053 149.929 98.6605 150.824C97.9158 151.718 96.6511 155.508 94.8829 156.756C93.1147 158.004 92.8027 157.276 90.269 157.801C87.7353 158.325 85.8048 161.595 85.0601 163.155C84.3154 164.715 85.2099 167.316 83.4251 167.399C81.6402 167.482 80.8206 163.6 79.1856 161.52C77.5505 159.44 76.993 157.588 76.4896 155.138C75.9862 152.687 76.785 147.549 76.4896 145.54C76.1942 143.53 70.8356 139.961 68.901 137.502C66.9664 135.043 64.2871 130.138 64.4368 128.499C64.6634 126.911 65.4552 125.459 66.6668 124.409C67.5613 123.739 67.1869 123.369 67.3367 122.77C67.4864 122.171 68.2311 122.029 68.3768 121.285C68.5224 120.54 67.9316 118.306 67.1869 117.935C66.4422 117.565 65.9388 118.83 65.4769 118.605C65.0151 118.381 63.6921 116.82 63.1721 116.671C62.652 116.521 62.7976 117.64 62.0529 116.225C61.3082 114.811 60.9379 111.233 60.343 110.642C59.748 110.051 59.3029 111.686 57.8883 110.642C56.4738 109.598 55.8788 107.593 55.2839 107.314C54.689 107.035 53.8693 107.389 53.2578 106.195C52.6462 105.001 53.7945 102.866 53.2578 103.07C52.7211 103.274 51.5645 105.005 51.2649 103.37C50.9654 101.735 52.7543 96.2262 52.4548 93.2515C52.219 90.113 53.2362 87.0088 55.2839 84.6186C55.2839 84.6186 55.5793 82.9836 55.8788 81.9393C56.1784 80.895 62.5771 76.7346 63.3177 75.5447C63.6275 74.8791 63.8069 74.1602 63.8461 73.4271C72.9535 66.7047 83.9792 63.0849 95.2989 63.1009C96.7551 63.1009 98.1974 63.1591 99.6258 63.2756L99.7756 63.4712C100.42 64.3032 101.115 64.8108 103 65.5056C104.885 66.2004 105.33 67.0949 104.934 67.8355C104.539 68.576 103.894 68.7299 103.15 68.7799C102.405 68.8298 101.71 68.4304 100.92 68.9296C100.129 69.4289 99.3304 72.1041 98.2903 72.258C97.2502 72.4119 95.4113 69.8741 95.016 69.1335C94.6208 68.393 95.9063 66.7995 95.2989 66.0548C94.6915 65.3101 93.6347 65.4598 91.9373 65.3101C90.2398 65.1603 86.3332 65.8093 86.483 66.4542C86.6327 67.0991 92.2368 66.3543 92.3866 67.6441C92.5364 68.9338 88.2678 71.1139 87.5272 70.9183C86.7867 70.7228 85.7882 69.4289 84.6981 69.2791C83.6081 69.1294 82.7136 70.0238 82.0271 70.1112C81.3407 70.1986 80.5335 69.3665 79.4893 69.5662C78.445 69.7659 78.1995 70.6562 77.6545 71.0057C77.1095 71.3552 75.8198 71.351 75.67 72.1457C75.5202 72.9403 77.3051 73.3938 77.7502 73.8806C78.1954 74.3673 77.201 76.0648 77.6504 76.4101C78.0997 76.7554 80.8747 74.3299 81.5695 73.7308C82.2643 73.1317 82.8592 70.5564 84.3445 70.6063C85.8298 70.6562 86.329 73.1858 86.8408 73.4354C87.3525 73.685 88.4259 72.8405 90.0651 73.1858C91.7043 73.5311 92.8401 77.1049 93.1397 78.1783C93.4392 79.2517 94.1298 80.3625 93.5557 80.8077C92.9816 81.2528 90.2814 80.5123 89.9361 79.8175C89.5908 79.1227 91.7209 78.0784 91.5712 77.833C91.4214 77.5875 90.1816 77.238 89.5367 77.625C88.8919 78.0119 88.5965 78.8232 87.9017 79.0229C87.2069 79.2226 85.3721 77.1382 84.877 77.7331C84.3819 78.3281 85.3721 80.2294 85.8672 80.6454C86.3623 81.0615 88.1971 81.3361 88.3635 81.8353C88.5299 82.3346 87.1154 83.4204 85.4512 83.3206C83.787 83.2207 82.3766 81.931 81.7276 82.4885C81.0786 83.046 81.4322 84.4689 80.987 84.9848C80.5419 85.5006 78.108 85.1345 76.9181 86.4201C75.7283 87.7057 75.1832 89.6444 74.0058 90.7386C72.8284 91.8328 72.2709 90.4391 70.6775 91.9868C69.084 93.5344 68.8427 96.946 68.7928 98.1359C68.7429 99.3258 68.7928 100.27 68.3976 100.12C68.0023 99.9706 67.4532 98.9305 67.3034 98.2857C67.1536 97.6408 67.6529 96.5466 67.6529 96.1513C67.6529 95.7561 65.3688 93.7217 64.0291 93.522C62.6895 93.3223 61.4996 94.4165 60.5094 95.2111C59.5192 96.0057 57.7302 95.856 57.0854 96.5008C56.4405 97.1457 55.9454 102.85 56.4405 104.189C56.9356 105.529 57.5804 105.529 59.1697 104.834C60.759 104.139 59.8645 102.8 60.8089 103.095C61.2316 103.254 61.5955 103.539 61.852 103.911C62.1085 104.282 62.2454 104.724 62.2443 105.175C62.2443 105.97 60.3596 107.855 60.6092 108.4C60.8589 108.945 62.4939 108.3 63.2844 108.549C64.0749 108.799 64.4784 109.294 64.2288 111.324C63.9792 113.355 64.129 114.948 65.3189 115.618C66.5087 116.288 67.1786 114.649 67.7028 114.873C68.227 115.098 68.9509 116.288 69.7081 116.213C70.4653 116.138 70.0825 115.468 71.4971 115.023C72.9116 114.578 72.3874 114.278 72.687 113.384C72.9865 112.489 73.8769 111.749 74.8421 112.194C75.8073 112.639 75.1416 113.309 75.2165 114.054C75.2914 114.798 77.0013 114.886 78.341 115.302C79.6807 115.718 80.4212 115.302 83.1005 116.196C85.7799 117.091 85.9296 119.766 87.0446 120.211C88.1596 120.656 91.8832 119.916 94.5625 121.85C97.2418 123.785 96.493 127.355 97.8326 128.399C99.1723 129.443 104.156 130.854 106.091 131.224C108.026 131.594 108.325 130.259 109.885 130.629C111.446 130.999 112.344 131.461 112.864 133.604C113.255 135.538 107.439 139.511 106.769 141.296Z" fill="black"/>
<path opacity="0.2" d="M66.8277 103.606C66.8776 104.022 68.1175 104.201 69.6069 105.045C71.0963 105.89 71.6372 108.374 72.4318 108.32C73.2265 108.265 72.9768 107.13 73.2639 106.83C73.551 106.531 74.0586 105.886 73.2639 105.241C72.4693 104.596 71.6954 103.211 70.2476 103.011C68.7998 102.811 68.5501 102.216 67.9053 102.266C67.7415 102.27 67.5805 102.309 67.4336 102.381C67.2866 102.454 67.1573 102.558 67.0547 102.685C66.952 102.813 66.8785 102.961 66.8393 103.12C66.8001 103.279 66.7961 103.445 66.8277 103.606Z" fill="black"/>
<path opacity="0.2" d="M75.011 107.775C74.7905 108.382 75.011 108.815 76.6003 109.21C78.1896 109.605 79.6748 108.815 79.1797 108.49C78.6846 108.166 77.9316 108.32 78.2353 107.775C78.539 107.23 78.4309 106.435 77.1411 106.58C75.8514 106.726 75.2107 107.225 75.011 107.775Z" fill="black"/>
<path opacity="0.2" d="M80.5648 107.941C80.0239 108.02 79.7327 108.964 80.2694 109.559C80.8061 110.154 80.8144 110.054 81.4593 109.559C82.1041 109.064 83.0943 108.814 82.8489 108.311C82.6034 107.808 81.114 107.862 80.5648 107.941Z" fill="black"/>
<path opacity="0.2" d="M84.8836 109.967C85.1249 109.226 86.3689 109.967 86.9139 110.749C87.4589 111.531 87.2134 112.684 86.9139 113.528C86.6143 114.373 86.4188 115.363 85.724 114.964C85.0292 114.564 85.7739 113.378 85.6741 112.684C85.5742 111.989 84.6839 110.578 84.8836 109.967Z" fill="black"/>
<path opacity="0.2" d="M106.26 68.587C106.002 69.2111 107.204 69.4191 107.899 69.8351C108.594 70.2512 109.147 70.48 109.534 69.8351C109.921 69.1903 109.384 68.4456 108.839 68.2958C108.294 68.146 106.509 67.9921 106.26 68.587Z" fill="black"/>
<path opacity="0.2" d="M115.633 74.3911C116.095 74.8737 116.881 74.7863 117.422 75.4811C117.963 76.1759 117.767 77.3658 118.462 77.7153C119.157 78.0647 119.652 77.7153 119.71 77.216C119.769 76.7168 118.72 75.4811 118.816 75.2357C118.912 74.9902 120.255 75.581 120.555 76.3257C120.855 77.0704 120.255 78.1105 120.95 78.3102C121.645 78.5099 121.495 77.6154 121.782 77.4157C122.069 77.216 122.723 77.3159 122.673 76.7209C122.623 76.126 121.841 74.8363 121.187 74.3911C120.534 73.9459 120.047 73.4467 118.953 73.2012C117.859 72.9557 116.823 73.1513 116.274 73.6173C115.725 74.0832 115.354 74.0915 115.633 74.3911Z" fill="black"/>
<path opacity="0.2" d="M137.097 83.7396C137.064 83.94 136.964 84.1234 136.814 84.2597C135.774 85.0044 134.534 82.4249 133.094 81.9298C131.655 81.4347 131.014 79.6 130.714 79.9952C130.415 80.3905 130.515 80.9396 130.07 81.5803C129.624 82.2211 128.98 82.0796 128.68 83.3194C128.38 84.5592 130.07 86.8391 129.674 87.5838C129.279 88.3286 128.78 88.0789 127.985 88.0332C127.191 87.9874 127.34 88.6739 126.3 88.3785C125.26 88.0831 126.15 86.7892 124.515 85.254C122.88 83.7188 122.331 83.4193 122.681 82.7245C123.03 82.0297 122.531 81.0395 123.276 80.9396C124.02 80.8398 124.611 81.9298 125.11 82.2294C125.61 82.5289 126.25 81.6344 126.3 80.8398C126.35 80.0451 124.561 78.9551 123.916 78.3435C123.271 77.7319 123.222 75.4853 123.471 75.0401C123.721 74.595 124.465 74.7406 124.661 73.6506C124.778 73.0098 123.762 71.9365 122.905 71.1543C128.348 74.4696 133.155 78.7318 137.097 83.7396Z" fill="black"/>
<path opacity="0.2" d="M144.503 128.211C144.652 126.621 143.858 126.521 144.652 123.597C145.447 120.672 143.82 117.543 143.213 116.898C142.606 116.253 141.328 116.453 140.301 117.098C139.273 117.743 140.001 118.238 139.306 118.488C138.612 118.737 137.921 118.338 137.276 118.388C136.631 118.438 136.028 120.073 134.647 120.023C133.265 119.973 132.363 117.993 131.318 116.578C130.274 115.163 128.144 114.269 127.449 112.534C126.754 110.799 128.094 108.12 127.794 106.085C127.495 104.051 126.159 104.5 125.91 103.36C125.66 102.22 126.109 102.765 126.455 101.671C126.8 100.577 126.06 99.9862 126.754 98.1015C127.449 96.2168 128.689 95.2724 128.389 94.432C128.09 93.5916 127.141 92.1978 127.1 91.2077C127.058 90.2175 128.044 90.2632 129.929 88.8737C131.813 87.4841 132.308 87.5839 133.748 88.079C134.781 88.4604 135.842 88.7595 136.922 88.9735C137.754 89.1233 138.907 91.3033 139.252 91.2035C139.598 91.1036 139.668 90.4629 139.801 89.5393C139.896 89.1298 140.111 88.7576 140.417 88.4701C146.019 97.4469 148.813 107.892 148.443 118.466C148.072 129.041 144.553 139.264 138.337 147.827C143.371 140.084 144.353 129.796 144.503 128.211Z" fill="black"/>
</g>
<path opacity="0.1" d="M136.49 150.17C130.823 157.114 123.49 162.511 115.176 165.858C106.861 169.206 97.835 170.396 88.937 169.316C80.0391 168.237 71.5588 164.924 64.2858 159.686C57.0127 154.447 51.1834 147.454 47.3403 139.356C43.4973 131.259 41.7655 122.32 42.3062 113.373C42.847 104.427 45.6427 95.762 50.433 88.1862C55.2233 80.6105 61.8526 74.37 69.7036 70.0456C77.5546 65.7213 86.3722 63.4536 95.3353 63.4539C96.7915 63.4539 98.2352 63.5121 99.6664 63.6286C100.062 63.6577 100.457 63.6952 100.848 63.7368C93.3406 64.555 86.1266 67.1088 79.7765 71.1961C73.4264 75.2834 68.1144 80.7921 64.2606 87.2865C60.4068 93.781 58.1169 101.083 57.572 108.615C57.0272 116.147 58.2422 123.703 61.1212 130.684C64.0002 137.666 68.464 143.882 74.1597 148.84C79.8554 153.799 86.6268 157.365 93.9382 159.255C101.25 161.145 108.901 161.308 116.286 159.731C123.671 158.155 130.588 154.881 136.49 150.17Z" fill="black"/>
<path opacity="0.3" d="M148.46 116.578C148.479 127.801 144.925 138.739 138.312 147.806C133.33 154.652 126.79 160.214 119.233 164.032C125.815 160.268 131.525 155.152 135.987 149.021C142.241 140.411 145.783 130.13 146.159 119.494C146.534 108.859 143.727 98.3532 138.096 89.323C133.66 82.2338 127.631 76.2776 120.489 71.9282C113.399 67.6024 105.394 65.0004 97.1157 64.3312C95.6803 64.2147 94.2242 64.1565 92.7639 64.1565C88.442 64.1591 84.1364 64.6858 79.9414 65.725C84.9329 64.2147 90.12 63.4492 95.335 63.4534C96.7912 63.4534 98.2348 63.5116 99.666 63.6281C107.895 64.2853 115.855 66.8646 122.906 71.1585C128.349 74.4724 133.155 78.7332 137.097 83.7396C144.464 93.0998 148.466 104.667 148.46 116.578Z" fill="white"/>
<path d="M118.804 97.2403H145.638C145.638 97.2403 144.303 95.5012 142.83 95.2848C142.83 95.2848 139.972 86.7684 135.183 86.7102C130.728 86.6519 128.943 91.9482 128.943 91.9482C128.943 91.9482 126.883 89.5726 124.911 90.6584C122.939 91.7443 121.824 94.8522 121.824 94.8522C121.824 94.8522 119.607 96.0462 118.804 97.2403Z" fill="white"/>
<path d="M94.2984 122.836H60.3867C60.3867 122.836 60.3867 120.668 65.063 120.244C65.063 120.244 69.3316 110.766 75.8469 112.039C79.9033 112.834 81.9794 118.405 81.9794 118.405C81.9794 118.405 85.0456 114.02 87.5003 114.868C89.9549 115.717 91.4069 120.385 91.4069 120.385C91.4069 120.385 93.9156 121.608 94.2984 122.836Z" fill="white"/>
<path d="M126.483 84.6137H103.41C103.41 84.6137 105.586 82.5876 106.555 82.5876C107.524 82.5876 110.345 75.7852 113.956 76.0765C117.568 76.3677 119.465 81.431 119.465 81.431C119.465 81.431 123.867 80.0538 126.483 84.6137Z" fill="white"/>
<path d="M64.7637 132.463H45.0308C45.0308 132.463 46.0126 131.185 47.111 131.027C47.111 131.027 49.2162 124.766 52.7359 124.72C56.0101 124.678 57.3124 128.568 57.3124 128.568C57.3124 128.568 58.8268 126.825 60.2787 127.624C61.7307 128.423 62.5462 130.707 62.5462 130.707C62.5462 130.707 64.1729 131.585 64.7637 132.463Z" fill="white"/>
<path d="M106.351 148.646H133.194C133.194 148.646 131.859 146.912 130.386 146.695C130.386 146.695 127.528 138.179 122.739 138.116C118.287 138.062 116.498 143.354 116.498 143.354C116.498 143.354 114.418 140.979 112.463 142.065C110.507 143.15 109.376 146.258 109.376 146.258C109.376 146.258 107.154 147.452 106.351 148.646Z" fill="white"/>
<path d="M92.0308 0.67681C98.8581 3.90114 103.127 17.1313 99.686 27.886C95.9666 39.5103 84.0678 41.7278 77.2197 39.244C69.9556 36.5938 67.7672 28.5517 71.0664 23.7714C74.2575 19.1325 79.4955 17.7595 80.9183 13.5242C81.6048 11.4939 81.5049 7.74954 82.3828 4.70827C83.3605 1.31752 87.9037 -1.28691 92.0308 0.67681Z" fill="#263238"/>
<path d="M94.6648 2.50732C97.3447 5.3797 99.4127 8.76694 100.743 12.4632C101.41 14.3173 101.842 16.2475 102.029 18.2088C102.113 19.1911 102.132 20.1778 102.087 21.1627C102.036 22.1455 101.93 23.1247 101.771 24.0958C101.113 27.9608 99.5325 31.7635 96.8074 34.6425C95.4536 36.0771 93.8563 37.2603 92.0895 38.1373C90.3304 39.0055 88.4344 39.5629 86.4854 39.7848C90.3673 39.2131 93.9334 37.3206 96.5827 34.4262C99.2038 31.5596 100.743 27.8402 101.367 24.0251C101.53 23.0693 101.641 22.1055 101.7 21.1377C101.749 20.1671 101.735 19.1943 101.658 18.2254C101.481 16.2926 101.074 14.3877 100.448 12.5506C99.822 10.7098 99.0121 8.93682 98.0306 7.25854C97.0652 5.5695 95.938 3.97828 94.6648 2.50732Z" fill="#263238"/>
<path d="M81.6798 8.5813C81.6245 9.66628 81.4714 10.7441 81.2221 11.8015C80.9584 12.8701 80.5259 13.8897 79.9407 14.8219C79.3421 15.7525 78.5727 16.5614 77.6733 17.2059C76.783 17.8299 75.9051 18.454 75.0647 19.1155C73.3404 20.3841 71.8864 21.9838 70.7878 23.821C69.7245 25.7044 69.3272 27.8913 69.6603 30.0283C69.4219 28.9636 69.3698 27.8657 69.5064 26.7832C69.5764 26.2401 69.6991 25.705 69.8725 25.1856C70.043 24.6643 70.2559 24.1578 70.509 23.6712C71.5283 21.7116 73.1301 20.139 74.8192 18.7827C75.6721 18.1045 76.5791 17.4971 77.4611 16.8855C78.3308 16.2731 79.0834 15.5093 79.6828 14.6306C80.8893 12.8749 81.3802 10.7114 81.6798 8.5813Z" fill="#263238"/>
<path d="M90.5536 24.0793C88.6065 29.0261 77.5813 47.9061 66.4688 46.4874C62.6953 46.0048 63.9726 30.865 72.2934 16.3825C72.5389 15.9665 83.7471 18.4627 83.4808 21.2045C83.4517 21.4957 80.5394 27.7155 80.8639 27.7946C80.9139 27.7946 82.2868 26.5464 88.2986 21.3168C91.2941 18.6916 91.6644 21.2627 90.5536 24.0793Z" fill="#EB9481"/>
<path d="M80.8609 27.7404C79.6294 31.3461 78.3175 34.9351 76.9252 38.5076C76.5341 39.4978 76.1513 40.4921 75.7686 41.4823C75.7686 41.5197 75.8102 41.5405 75.8268 41.5072C76.7088 39.8107 77.5018 38.0692 78.2024 36.2901C78.9014 34.5302 79.567 32.7329 80.0871 30.9148C80.3866 29.8664 80.6695 28.8346 80.9192 27.757C80.9171 27.7515 80.9138 27.7465 80.9095 27.7425C80.9052 27.7384 80.9 27.7355 80.8943 27.7339C80.8886 27.7322 80.8826 27.732 80.8768 27.7331C80.871 27.7342 80.8656 27.7367 80.8609 27.7404Z" fill="#263238"/>
<path d="M81.426 26.5588C81.426 26.5588 80.5939 27.341 81.0931 27.9068C81.5924 28.4726 82.6907 27.9068 82.6907 27.9068C82.6907 27.9068 82.1499 28.8554 82.7365 29.3588C83.3231 29.8622 84.3008 29.0884 84.3008 29.0884C84.3008 29.0884 83.7683 30.0578 84.3466 30.5653C84.9249 31.0729 85.8651 30.2491 85.8651 30.2491C85.8651 30.2491 85.3784 31.2518 85.8651 31.7178C86.3519 32.1837 87.2214 31.335 87.2214 31.335C87.2214 31.335 86.743 32.3294 87.2714 32.7204C87.7997 33.1115 88.6651 32.1255 88.6651 32.1255L81.426 26.5588Z" fill="white"/>
<path d="M81.0234 26.7417L88.6287 32.5663C88.6287 32.5663 91.8572 25.5851 92.2233 22.6687C92.5894 19.7522 91.8073 18.296 87.5761 21.2666C85.222 22.8781 83.0278 24.7115 81.0234 26.7417Z" fill="#FA7387"/>
<path d="M92.2226 22.6608C91.8565 25.5731 88.628 32.5585 88.628 32.5585L83.2402 28.4397L90.5792 19.7028C92.1727 19.3325 92.4722 20.6472 92.2226 22.6608Z" fill="#263238"/>
<path d="M70.9995 19.0868C70.9995 19.0868 72.7802 14.5103 75.5177 12.0141C77.4149 10.2833 80.0942 7.48751 87.4041 9.73415C89.1432 10.2667 91.9806 13.2123 90.8739 14.2316C89.7672 15.2509 87.5455 12.1514 84.9702 11.8643C84.9702 11.8643 87.3417 14.5686 86.7426 16.2868C86.2144 17.7827 85.5819 19.2397 84.8496 20.647C84.5599 20.5699 84.2751 20.4754 83.9967 20.364C83.9967 20.364 83.3851 21.9575 81.0012 22.9893L70.9995 19.0868Z" fill="#EB9481"/>
<path d="M77.5903 10.6368C78.9383 10.6077 81.7882 10.591 84.1264 11.3857C86.7183 12.2719 91.482 14.6808 90.808 16.5904C90.3129 17.9883 88.4158 17.2311 88.4158 17.2311C88.4158 17.2311 90.1756 18.6373 89.4517 19.8064C88.7944 20.8715 87.3715 20.1933 87.3715 20.1933C87.3715 20.1933 88.291 21.2334 87.4589 22.1362C86.4604 23.2221 84.0556 20.3597 82.0919 20.5802C81.6384 20.6468 77.5903 10.6368 77.5903 10.6368Z" fill="#EB9481"/>
<path d="M82.7326 13.9905C84.9056 14.4548 86.8853 15.5709 88.4074 17.1899C88.4407 17.2315 88.4282 17.2855 88.4074 17.2523C86.6529 15.9376 84.7444 14.8422 82.7242 13.9905C82.7242 13.9905 82.7159 13.9905 82.7326 13.9905Z" fill="#263238"/>
<path d="M83.9845 11.1274C86.1576 11.5917 88.1373 12.7079 89.6594 14.3268C89.6926 14.3684 89.6843 14.4183 89.6385 14.3892C87.8893 13.0848 85.9879 11.9978 83.9762 11.1524C83.9762 11.1524 83.9679 11.1274 83.9845 11.1274Z" fill="#263238"/>
<path d="M81.9131 16.6196C82.9907 16.8859 85.8031 18.1964 87.3882 20.1518C87.4215 20.1976 87.3882 20.2475 87.3674 20.2142C85.6862 18.8232 83.8538 17.6258 81.9048 16.6446L81.9131 16.6196Z" fill="#263238"/>
<path d="M83.81 20.9299C82.8978 20.3274 81.8195 20.0262 80.7271 20.0686C80.7183 20.0686 80.7098 20.0722 80.7036 20.0784C80.6973 20.0846 80.6938 20.0931 80.6938 20.1019C80.6938 20.1108 80.6973 20.1192 80.7036 20.1255C80.7098 20.1317 80.7183 20.1352 80.7271 20.1352C81.6091 20.3308 82.3289 20.5513 82.3414 20.5513C81.2181 21.9076 79.2294 22.4609 78.3765 22.6315C78.3224 22.6315 78.3432 22.723 78.3765 22.723C79.9408 22.723 81.6715 22.0116 82.4371 20.597C82.876 20.7592 83.3231 20.8981 83.7767 21.0131C83.81 20.9715 83.8266 20.9465 83.81 20.9299Z" fill="#263238"/>
<path d="M52.0248 76.5301C52.3202 75.569 68.6666 52.903 69.8232 52.4453C69.9563 52.3871 77.6157 57.5834 77.6157 57.5834C77.936 57.9995 92.198 54.6379 92.198 54.6379L92.7347 71.9245L66.6155 71.9577C66.6155 71.9577 63.1332 74.1128 59.9588 75.8727C58.6043 76.6726 57.204 77.3922 55.7651 78.0278C54.442 78.3939 51.7253 77.4828 52.0248 76.5301Z" fill="#EB9481"/>
<path d="M55.7396 78.032C57.1798 77.3991 58.5802 76.6794 59.9333 75.8769C63.1202 74.117 66.59 71.9619 66.59 71.9619H72.4146L81.1889 57.0676C79.2002 57.4836 77.715 57.7124 77.6151 57.5793C77.6151 57.5793 69.9558 52.3871 69.8226 52.4453C68.6827 52.903 52.3197 75.569 52.0243 76.5301C51.7289 77.4911 54.4373 78.3981 55.7396 78.032Z" fill="#EBEBEB"/>
<path d="M51.8702 76.5631C52.1822 75.577 68.6201 52.9193 69.7933 52.4326C70.2385 52.2537 73.9787 54.4462 77.6149 57.5624L66.9975 72.1572C66.9975 72.1572 57.0125 77.7322 55.6853 78.1066C54.3581 78.481 51.5623 77.5449 51.8702 76.5631Z" fill="#455A64"/>
<path d="M53.0143 76.8957C55.8642 73.1513 67.0017 57.8493 69.5354 53.9468C69.5354 53.9135 69.5354 53.8969 69.5104 53.9468C66.5981 57.5788 55.5896 72.9849 52.9519 76.8666C52.8978 76.9332 52.9519 76.9748 53.0143 76.8957Z" fill="#263238"/>
<path d="M57.5577 77.2617C57.8748 76.8472 58.1025 76.3714 58.2264 75.8644C58.3503 75.3574 58.3677 74.8302 58.2774 74.3162C58.124 73.3895 57.6188 72.5578 56.867 71.9946C56.8421 71.9946 56.813 72.0196 56.8338 72.0404C57.4928 72.7155 57.9148 73.5864 58.0364 74.522C58.1579 75.4576 57.9724 76.4073 57.5077 77.2285C57.4745 77.2576 57.5327 77.2909 57.5577 77.2617Z" fill="#263238"/>
<path d="M65.7534 73.093C66.8767 71.5869 67.6214 69.4359 67.0639 67.5887C67.039 67.518 66.9391 67.5471 66.9308 67.5887C66.6613 69.4233 66.1969 71.2238 65.5454 72.9598C65.5366 72.9735 65.5306 72.9887 65.5278 73.0047C65.525 73.0207 65.5253 73.037 65.5288 73.0529C65.5322 73.0687 65.5388 73.0837 65.5481 73.097C65.5573 73.1103 65.5691 73.1217 65.5828 73.1304C65.5965 73.1391 65.6117 73.1451 65.6277 73.148C65.6436 73.1508 65.66 73.1505 65.6758 73.147C65.6917 73.1435 65.7067 73.137 65.72 73.1277C65.7333 73.1184 65.7446 73.1066 65.7534 73.093Z" fill="#263238"/>
<path d="M64.443 73.9334C65.5705 72.4273 66.311 70.2764 65.7536 68.4292C65.7327 68.3584 65.6287 68.3876 65.6204 68.45C65.3544 70.2848 64.8913 72.0856 64.2392 73.8211C64.2258 73.848 64.2234 73.879 64.2324 73.9076C64.2414 73.9363 64.261 73.9603 64.2873 73.9748C64.3136 73.9893 64.3445 73.9931 64.3735 73.9854C64.4025 73.9777 64.4274 73.959 64.443 73.9334Z" fill="#263238"/>
<path d="M63.1373 74.7745C64.2606 73.2684 65.0012 71.1174 64.4437 69.2702C64.4229 69.1995 64.323 69.2328 64.3105 69.2952C64.0439 71.1299 63.5808 72.9306 62.9293 74.6663C62.9228 74.6926 62.9254 74.7202 62.9365 74.7448C62.9477 74.7695 62.9668 74.7896 62.9908 74.8021C63.0148 74.8146 63.0422 74.8186 63.0688 74.8136C63.0954 74.8086 63.1195 74.7948 63.1373 74.7745Z" fill="#263238"/>
<path d="M61.826 75.6145C62.9493 74.1125 63.694 71.9574 63.1365 70.1144C63.1116 70.0395 63.0117 70.0728 63.0034 70.1144C62.7388 71.955 62.28 73.7624 61.6346 75.5063C61.6304 75.53 61.6336 75.5545 61.6439 75.5764C61.6542 75.5982 61.671 75.6163 61.692 75.6282C61.713 75.6401 61.7372 75.6451 61.7612 75.6427C61.7852 75.6402 61.8078 75.6303 61.826 75.6145Z" fill="#263238"/>
<path d="M72.4515 57.5291C73.6996 55.8234 71.0286 53.9012 69.7971 55.6153C68.5657 57.3294 71.2034 59.2432 72.4515 57.5291Z" fill="#263238"/>
<path d="M68.6165 77.6781C69.8147 77.3702 69.8938 75.9473 69.5776 74.9946C68.9998 73.3652 68.0041 71.9162 66.6902 70.7926C66.686 70.7866 66.6804 70.7817 66.6739 70.7783C66.6674 70.7749 66.6601 70.7731 66.6528 70.7731C66.6454 70.7731 66.6382 70.7749 66.6317 70.7783C66.6252 70.7817 66.6196 70.7866 66.6153 70.7926C66.5823 70.7771 66.5461 70.7698 66.5097 70.7712C66.4733 70.7725 66.4377 70.7826 66.4059 70.8005C66.3742 70.8184 66.3472 70.8437 66.3272 70.8741C66.3071 70.9046 66.2947 70.9394 66.2908 70.9756C66.2575 72.6024 66.0162 74.3331 66.478 75.9224C66.7485 76.8668 67.489 77.9651 68.6165 77.6781ZM66.7402 73.4844C66.7402 72.6856 66.7776 71.8909 66.7402 71.088C67.3018 71.92 67.8968 72.7022 68.3752 73.5842C68.611 74.0038 68.8181 74.4389 68.9951 74.8864C69.2572 75.5771 69.4444 77.9943 67.6846 76.9666C66.7152 76.3467 66.7443 74.4205 66.7402 73.4844Z" fill="#263238"/>
<path d="M68.8698 66.6072C67.7049 67.7804 67.0892 69.4196 66.3486 70.8675C66.3347 70.901 66.3289 70.9374 66.3318 70.9736C66.3347 71.0098 66.3462 71.0448 66.3653 71.0757C66.3844 71.1066 66.4106 71.1325 66.4417 71.1513C66.4728 71.1701 66.5079 71.1812 66.5442 71.1837C66.5432 71.1912 66.5441 71.1989 66.5468 71.206C66.5495 71.2131 66.554 71.2195 66.5597 71.2244C66.5655 71.2294 66.5725 71.2328 66.5799 71.2344C66.5874 71.236 66.5951 71.2357 66.6024 71.2336C68.2934 70.8704 69.8589 70.0683 71.1414 68.9079C71.8778 68.2214 72.4853 66.9317 71.5783 66.0913C70.6713 65.2509 69.5397 65.9207 68.8698 66.6072ZM70.4009 66.316C72.4478 66.2327 71.1331 68.2672 70.5715 68.754C70.2033 69.0585 69.814 69.3365 69.4065 69.5861C68.5573 70.1015 67.6825 70.5736 66.7855 71.0006C67.2015 70.31 67.5385 69.5944 67.9213 68.8913C68.3789 68.0758 69.2692 66.3617 70.4009 66.316Z" fill="#263238"/>
<path d="M92.8675 50.4896L104.587 49.0501C104.587 49.0501 121.358 43.3919 131.285 45.5428C142.664 48.0058 144.823 61.0862 133.615 66.8525C122.523 72.5565 72.6104 72.802 72.6104 72.802L82.5954 56.518C82.5954 56.518 98.8211 51.9416 113.229 52.108L92.9965 55.3323L92.8675 50.4896Z" fill="#263238"/>
<path d="M93.1336 53.8305C94.8685 53.4686 96.6325 53.2481 98.3924 52.9984C100.152 52.7488 101.941 52.5491 103.722 52.3577C107.272 51.9687 110.839 51.7605 114.41 51.7337C114.743 51.7337 115.076 51.7337 115.413 51.7337C115.483 51.7087 115.558 51.6921 115.629 51.6713L116.141 51.5464C116.461 51.4757 116.786 51.4216 117.11 51.3634C117.78 51.2469 118.458 51.1595 119.124 51.0181C119.165 51.0181 119.182 51.0721 119.145 51.0805C118.471 51.2469 117.813 51.4549 117.139 51.6172C116.944 51.6671 116.752 51.7129 116.557 51.7545C117.867 51.7961 119.174 51.8668 120.484 51.9542C120.526 51.9542 120.526 52.0207 120.484 52.0207C118.708 51.9542 116.915 51.9833 115.138 52.054C113.362 52.1247 111.606 52.2038 109.842 52.3452C106.281 52.6282 102.719 53.0317 99.1746 53.481C97.1859 53.7348 95.1889 54.0302 93.1877 54.1592C92.9922 54.1883 92.9381 53.8721 93.1336 53.8305Z" fill="#455A64"/>
<path d="M76.6836 72.2362C77.2994 71.2003 77.8194 70.0978 78.3769 69.0327L80.0661 65.825C81.1935 63.6907 85.2458 56.5181 85.6494 56.0105C85.6743 55.9814 85.7284 56.0105 85.7159 56.0522C85.5329 56.6055 83.0075 61.3525 82.4292 62.4093C81.2643 64.527 80.0411 66.6072 78.8346 68.6999C78.4893 69.2948 78.1315 69.8856 77.782 70.4805C77.4325 71.0755 77.0581 71.6579 76.7377 72.2695C76.7211 72.2862 76.6628 72.2362 76.6836 72.2362Z" fill="#455A64"/>
<path d="M134.592 76.7715C134.276 75.8187 117.406 53.5271 116.253 53.0986C116.12 53.0404 108.581 58.4073 108.581 58.4073C108.269 58.8234 93.9325 55.7946 93.9325 55.7946L93.791 73.0895L119.906 72.532C119.906 72.532 123.43 74.6122 126.658 76.2764C128.029 77.0554 129.447 77.7501 130.902 78.3566C132.221 78.6894 134.913 77.7201 134.592 76.7715Z" fill="#EB9481"/>
<path d="M130.914 78.3561C130.411 78.2272 128.655 77.3452 126.67 76.2759C123.446 74.5868 119.918 72.5315 119.918 72.5315L114.093 72.6564L104.995 57.9742C106.992 58.3278 108.481 58.54 108.581 58.3902C108.581 58.3902 116.12 53.0233 116.253 53.0815C117.405 53.4976 134.276 75.8016 134.592 76.7544C134.908 77.7071 132.22 78.6931 130.914 78.3561Z" fill="#EBEBEB"/>
<path d="M134.746 76.8128C134.413 75.8351 117.468 53.556 116.282 53.0983C115.837 52.9277 112.147 55.2077 108.581 58.4029L119.523 72.7522C119.523 72.7522 129.62 78.1025 130.968 78.4478C132.316 78.7932 135.079 77.778 134.746 76.8128Z" fill="#455A64"/>
<path d="M133.61 77.1578C130.697 73.4925 119.198 58.4359 116.577 54.5875C116.556 54.5584 116.577 54.5417 116.598 54.5875C119.585 58.1572 130.947 73.3094 133.656 77.1287C133.73 77.1911 133.672 77.2286 133.61 77.1578Z" fill="#263238"/>
<path d="M129.079 77.6448C128.754 77.2399 128.516 76.7722 128.38 76.2711C128.244 75.77 128.213 75.2462 128.289 74.7325C128.423 73.8031 128.91 72.9611 129.649 72.3818C129.649 72.3818 129.703 72.4068 129.683 72.4276C129.04 73.1166 128.637 73.9957 128.537 74.9328C128.436 75.8699 128.643 76.8143 129.125 77.624C129.146 77.6448 129.1 77.6448 129.079 77.6448Z" fill="#263238"/>
<path d="M120.787 73.6467C119.631 72.1656 118.84 70.0313 119.356 68.1716C119.377 68.1009 119.477 68.13 119.489 68.1924C119.8 70.0198 120.303 71.8092 120.991 73.5302C120.999 73.5563 120.998 73.5842 120.987 73.6094C120.977 73.6346 120.959 73.6556 120.935 73.6691C120.912 73.6825 120.884 73.6877 120.858 73.6836C120.831 73.6796 120.806 73.6666 120.787 73.6467Z" fill="#263238"/>
<path d="M122.115 74.4581C120.958 72.977 120.168 70.8427 120.683 68.983C120.704 68.9123 120.804 68.9414 120.817 68.983C121.127 70.8104 121.63 72.5997 122.318 74.3208C122.327 74.3342 122.334 74.3492 122.337 74.3651C122.34 74.3809 122.34 74.3972 122.337 74.413C122.334 74.4289 122.328 74.4439 122.319 74.4574C122.31 74.4708 122.299 74.4824 122.285 74.4914C122.272 74.5004 122.257 74.5067 122.241 74.5099C122.225 74.5131 122.209 74.5132 122.193 74.5101C122.177 74.507 122.162 74.5008 122.149 74.4919C122.135 74.483 122.124 74.4715 122.115 74.4581Z" fill="#263238"/>
<path d="M123.447 75.269C122.286 73.7879 121.496 71.6536 122.011 69.7939C122.032 69.7232 122.136 69.7523 122.145 69.8147C122.455 71.6407 122.959 73.4286 123.647 75.1484C123.654 75.1615 123.66 75.176 123.662 75.1912C123.664 75.2063 123.664 75.2218 123.66 75.2367C123.656 75.2515 123.65 75.2655 123.641 75.2779C123.632 75.2902 123.62 75.3006 123.607 75.3086C123.594 75.3165 123.579 75.3218 123.564 75.3241C123.549 75.3264 123.534 75.3256 123.519 75.322C123.504 75.3183 123.49 75.3117 123.478 75.3027C123.465 75.2936 123.455 75.2822 123.447 75.269Z" fill="#263238"/>
<path d="M124.773 76.0803C123.613 74.5992 122.822 72.4649 123.338 70.6094C123.359 70.5345 123.463 70.5636 123.471 70.6094C123.779 72.4487 124.284 74.2495 124.977 75.9805C124.98 76.0052 124.975 76.0301 124.963 76.0518C124.951 76.0736 124.933 76.0911 124.91 76.102C124.888 76.1129 124.863 76.1167 124.839 76.1128C124.814 76.1089 124.791 76.0976 124.773 76.0803Z" fill="#263238"/>
<path d="M113.753 58.2403C112.505 56.5762 115.093 54.5791 116.366 56.2641C117.639 57.9491 115.026 59.9211 113.753 58.2403Z" fill="#263238"/>
<path d="M120.131 76.5089C120.547 74.9113 120.276 73.1805 120.202 71.558C120.202 71.3915 120.01 71.3333 119.877 71.3832C119.873 71.3772 119.867 71.3723 119.861 71.3689C119.854 71.3655 119.847 71.3638 119.84 71.3638C119.832 71.3638 119.825 71.3655 119.819 71.3689C119.812 71.3723 119.806 71.3772 119.802 71.3832C118.514 72.5368 117.551 74.0088 117.011 75.6518C116.715 76.6129 116.827 78.0316 118.03 78.3103C119.166 78.56 119.881 77.4408 120.131 76.5089ZM118.945 77.5199C117.206 78.6099 117.339 76.1927 117.585 75.4896C117.752 75.0399 117.949 74.602 118.175 74.179C118.658 73.3096 119.184 72.4653 119.752 71.6495C119.752 72.4483 119.794 73.2429 119.81 74.0417C119.831 74.9986 119.902 76.9208 118.945 77.5199Z" fill="#263238"/>
<path d="M114.809 66.7862C113.923 67.6433 114.556 68.9164 115.309 69.5904C116.611 70.7208 118.188 71.4897 119.881 71.8204C119.918 71.8204 119.939 71.7995 119.939 71.7663C120.076 71.7413 120.21 71.5957 120.126 71.4501C119.353 70.0189 118.703 68.3922 117.514 67.2439C116.835 66.5616 115.646 65.9708 114.809 66.7862ZM118.525 69.5072C118.941 70.2019 119.286 70.9134 119.71 71.5874C118.816 71.1713 117.909 70.7553 117.056 70.2311C116.643 69.9812 116.249 69.7032 115.874 69.399C115.3 68.9288 113.94 66.9235 115.991 66.961C117.123 66.9984 118.05 68.6792 118.525 69.5072Z" fill="#263238"/>
<path d="M93.1417 50.4897H81.4218C81.4218 50.4897 69.161 44.5985 59.2841 46.9699C47.9636 49.695 46.5158 63.9154 54.9781 68.9412C65.6995 75.3108 113.411 74.0793 113.411 74.0793L103.098 56.6055C103.098 56.6055 87.2298 53.2772 72.843 53.7514L93.1417 56.5181V50.4897Z" fill="#263238"/>
<path d="M103.784 57.7248C103.773 57.6968 103.766 57.6674 103.763 57.6374C103.763 57.6125 103.763 57.5875 103.763 57.5626L103.717 57.392C103.683 57.2762 103.643 57.1623 103.597 57.0508C103.551 56.9385 103.505 56.8303 103.451 56.718C103.386 56.6166 103.315 56.5194 103.239 56.4268C103.239 56.4268 103.218 56.4268 103.21 56.406H103.185C103.185 56.406 103.185 56.406 103.156 56.406C101.412 56.0814 89.5551 54.384 87.7911 54.1843C86.027 53.9846 84.2339 53.814 82.4491 53.6642C78.8908 53.3578 75.3195 53.23 71.7484 53.2815C71.4156 53.2815 71.0828 53.2815 70.7458 53.3106L70.5294 53.2565C70.3547 53.2149 70.1883 53.1733 70.0135 53.14C69.6932 53.0776 69.3687 53.0318 69.0442 52.9819C68.366 52.8779 67.692 52.8072 67.018 52.6824C66.9764 52.6824 66.9598 52.7365 67.018 52.7448C67.6962 52.8946 68.3577 53.0901 69.0358 53.2357C69.2314 53.2815 69.4228 53.3231 69.6183 53.3605C68.3119 53.4313 67.0055 53.5311 65.6992 53.6476C65.6576 53.6476 65.6576 53.7183 65.6992 53.7142C67.4757 53.6101 69.2647 53.5977 71.0453 53.6268C72.826 53.6559 74.5817 53.6975 76.3457 53.7974C79.9154 54.0012 83.4809 54.3216 87.038 54.6919C89.0309 54.904 101.121 56.6681 103.126 56.7513H103.151C103.151 56.797 103.185 56.8428 103.205 56.8886C103.26 56.9967 103.318 57.1049 103.376 57.2089C103.434 57.3129 103.488 57.4128 103.555 57.5126L103.651 57.6583L103.701 57.729C103.721 57.7519 103.739 57.777 103.755 57.8039C103.738 57.7955 103.809 57.7664 103.784 57.7248Z" fill="#455A64"/>
<path d="M109.692 73.0187C109.055 71.9952 108.51 70.9052 107.924 69.8526L106.152 66.6823C104.978 64.5771 100.764 57.4961 100.348 57.001C100.323 56.9677 100.269 57.001 100.281 57.0384C100.481 57.5876 103.11 62.2764 103.713 63.3248C104.924 65.4051 106.21 67.4645 107.458 69.5281C107.816 70.1188 108.186 70.7013 108.552 71.2879C108.918 71.8745 109.301 72.4487 109.634 73.0519C109.659 73.0894 109.713 73.0686 109.692 73.0187Z" fill="#455A64"/>
<path d="M83.8976 37.6094L81.5054 51.6259C81.5054 51.6259 94.0199 56.5103 109.164 51.5635C109.164 51.5635 104.679 26.9754 98.7628 20.5558C95.8048 17.344 92.3308 17.5853 90.1175 19.8278C89.5558 20.3977 83.7062 28.3982 83.0031 31.7724C82.3874 34.7512 83.8976 37.6094 83.8976 37.6094Z" fill="#FA7387"/>
<path d="M100.431 20.5096C112.463 28.4893 123.135 39.9139 122.402 43.7748C121.629 47.8562 113.378 53.3438 107.1 55.0579C105.698 55.4406 100.29 45.1061 101.738 44.5361C102.865 44.091 107.325 41.7445 107.908 40.9914C108.324 40.4672 99.7323 29.4462 96.7409 23.6466C93.6081 17.5724 97.2069 18.3753 100.431 20.5096Z" fill="#EB9481"/>
<path d="M104.395 44.0908C104.395 44.0908 100.027 44.7898 97.1895 45.3847C95.6044 45.7175 92.9459 46.5247 91.8933 47.2985C90.3206 48.4593 84.4835 54.313 85.8731 55.7567C87.1213 57.0672 88.7854 54.779 88.7854 54.779C88.7854 54.779 86.7551 57.1088 88.3985 58.0241C90.0419 58.9394 91.9141 55.7608 91.9141 55.7608C91.9141 55.7608 89.5842 58.0823 91.4356 58.8936C93.0374 59.5967 95.5711 56.1602 95.5711 56.1602C95.5711 56.1602 92.8585 58.3278 94.4353 59.2098C96.1744 60.1834 100.618 55.507 100.618 55.507C104.408 55.7026 106.709 55.3115 109.317 54.4087C109.783 54.2464 104.395 44.0908 104.395 44.0908Z" fill="#EB9481"/>
<path d="M91.2824 56.535C91.4405 56.2937 91.6027 56.0524 91.7608 55.807C92.0592 55.3287 92.3842 54.8675 92.7344 54.4257C93.0838 54.0097 93.4541 53.5936 93.8327 53.1984C94.2113 52.8031 94.6648 52.3996 95.0808 51.9503C95.1141 51.917 95.164 51.9503 95.1308 51.996C94.7376 52.415 94.3695 52.8568 94.0283 53.319C93.6788 53.76 93.3335 54.2052 92.9923 54.6462C92.6511 55.0872 92.2892 55.4783 91.9397 55.8943C91.7691 56.1065 91.6027 56.3104 91.4405 56.5475C91.2959 56.7651 91.1346 56.971 90.9578 57.1633C90.9535 57.1662 90.9483 57.1677 90.9431 57.1675C90.9378 57.1673 90.9327 57.1655 90.9286 57.1623C90.9244 57.159 90.9214 57.1546 90.9199 57.1495C90.9185 57.1445 90.9186 57.1391 90.9204 57.1342C91.0208 56.9229 91.1421 56.7222 91.2824 56.535Z" fill="#263238"/>
<path d="M88.3614 55.2741C88.8833 54.3659 89.4686 53.4956 90.1129 52.6697C90.7672 51.8485 91.5017 51.0945 92.3054 50.4189C92.3346 50.3939 92.3762 50.4189 92.3554 50.4605C91.7022 51.2926 91.0323 52.0997 90.3708 52.9152C90.0422 53.3104 88.6235 55.1659 88.4487 55.3407C88.4071 55.3823 88.3405 55.324 88.3614 55.2741Z" fill="#263238"/>
<path d="M93.9988 57.7956C94.5091 56.952 95.0747 56.1431 95.6921 55.3742C96.3905 54.6488 97.1414 53.9758 97.9387 53.3606C97.972 53.3606 98.0136 53.3814 97.9886 53.4064C97.2897 54.1303 96.5865 54.8417 95.9084 55.6031C95.5839 55.9692 94.3857 57.5169 94.0487 57.8414C94.0362 57.8747 93.9821 57.8331 93.9988 57.7956Z" fill="#263238"/>
<path d="M100.072 30.6694C100.072 30.6694 100.651 31.6595 101.32 31.2893C101.99 30.919 101.682 29.7333 101.682 29.7333C101.682 29.7333 102.485 30.4738 103.109 30.012C103.733 29.5502 103.188 28.4269 103.188 28.4269C103.188 28.4269 104.021 29.1591 104.64 28.7098C105.26 28.2605 104.67 27.1579 104.67 27.1579C104.67 27.1579 105.539 27.8569 106.105 27.4783C106.671 27.0997 106.03 26.0679 106.03 26.0679C106.03 26.0679 106.891 26.7544 107.39 26.3259C107.89 25.8973 107.12 24.8364 107.12 24.8364L100.072 30.6694Z" fill="white"/>
<path d="M100.165 31.1019L107.52 24.9736C107.52 24.9736 101.429 20.2806 98.6627 19.278C95.896 18.2753 94.3025 18.7246 96.2621 23.4967C97.3183 26.15 98.625 28.6966 100.165 31.1019Z" fill="#FA7387"/>
<path d="M96.8611 25.2235C96.8557 25.2188 96.849 25.216 96.842 25.2154C96.8349 25.2149 96.8279 25.2166 96.8218 25.2203C96.8158 25.224 96.8111 25.2295 96.8084 25.2361C96.8058 25.2426 96.8053 25.2499 96.807 25.2568C96.9152 25.5272 97.7473 27.104 97.9262 27.4493C97.8638 27.3869 96.9609 26.5881 96.8236 26.4342C96.7945 26.4009 96.7488 26.4342 96.7779 26.4799C96.9235 26.6339 98.1675 27.9652 98.234 28.0151C98.3796 28.2856 99.7859 30.7111 100.073 31.0814C100.152 31.1812 100.189 31.0814 100.16 30.969C100.048 30.5447 97.1107 25.5313 96.8611 25.2235Z" fill="#263238"/>
<path d="M93.0292 17.5599C90.1793 17.8969 88.5359 22.5524 89.2224 23.2306C89.9089 23.9087 91.5481 22.3985 91.5481 22.3985C91.5481 22.3985 92.609 24.3789 94.0235 23.8047C96.4199 22.8312 96.8693 17.1023 93.0292 17.5599Z" fill="white"/>
<path d="M95.0267 18.4461C94.9351 19.1034 93.4915 22.1197 91.4986 22.1239C90.4752 22.1239 90.3295 18.5418 90.3295 18.5418L90.2671 18.2796L89.4351 14.6143L94.3568 11.4607C94.3568 11.4607 95.0558 18.2588 95.0267 18.4461Z" fill="#EB9481"/>
<path d="M94.6106 13.9903C94.2241 14.9666 93.6382 15.8517 92.8903 16.5888C92.1424 17.3259 91.249 17.899 90.2671 18.2713L89.4351 14.606L94.3568 11.4524C94.3568 11.4524 94.4733 12.6215 94.6106 13.9903Z" fill="#263238"/>
<path d="M83.5889 10.6034C84.7538 17.0979 88.777 17.1311 90.1749 16.8774C91.448 16.6485 95.7457 15.7041 95.2548 9.12647C94.7638 2.54883 91.3772 1.03443 88.4441 1.40887C85.511 1.78331 82.4365 4.10899 83.5889 10.6034Z" fill="#EB9481"/>
<path d="M85.4451 8.69832C85.5907 8.64423 85.7197 8.56934 85.8612 8.50278C86.0164 8.45539 86.1512 8.35722 86.2439 8.22403C86.2648 8.17666 86.2695 8.12379 86.2575 8.07346C86.2455 8.02313 86.2173 7.97812 86.1774 7.94528C86.0877 7.89302 85.9858 7.86548 85.882 7.86548C85.7782 7.86548 85.6762 7.89302 85.5866 7.94528C85.3894 8.0218 85.2287 8.17057 85.1372 8.36132C85.1178 8.40558 85.1117 8.45453 85.1195 8.50222C85.1274 8.54992 85.1489 8.5943 85.1815 8.62998C85.2141 8.66567 85.2564 8.69112 85.3032 8.70325C85.35 8.71538 85.3993 8.71367 85.4451 8.69832Z" fill="#263238"/>
<path d="M89.8337 7.64955C89.6827 7.65994 89.5312 7.65994 89.3802 7.64955C89.2209 7.67767 89.0568 7.65129 88.9143 7.57466C88.8731 7.54273 88.844 7.49769 88.8319 7.447C88.8198 7.39631 88.8254 7.34301 88.8477 7.29591C88.9033 7.20872 88.9812 7.13802 89.0734 7.09119C89.1656 7.04436 89.2687 7.02311 89.3719 7.02965C89.5832 7.01107 89.7938 7.07188 89.9627 7.20022C90.0035 7.2305 90.0341 7.27251 90.0504 7.32064C90.0667 7.36877 90.0679 7.42073 90.0539 7.46958C90.0399 7.51842 90.0113 7.56183 89.972 7.59399C89.9326 7.62615 89.8844 7.64553 89.8337 7.64955Z" fill="#263238"/>
<path d="M89.3721 9.47632C89.3721 9.47632 89.4095 9.47632 89.4137 9.50544C89.4927 9.95061 89.6591 10.4415 90.0918 10.4998V10.5247C89.5926 10.5622 89.3762 9.90484 89.3721 9.47632Z" fill="#263238"/>
<path d="M89.6632 8.93133C90.358 8.72747 90.72 10.1295 90.0793 10.3209C89.4386 10.5123 89.0932 9.10607 89.6632 8.93133Z" fill="#263238"/>
<path d="M89.9585 8.93541C90.1 8.98117 90.2581 9.0935 90.4078 9.06854C90.5576 9.04358 90.6783 8.86052 90.7532 8.68994C90.7532 8.68994 90.7532 8.68994 90.7781 8.68994C90.8336 8.81239 90.84 8.95148 90.7958 9.07846C90.7517 9.20545 90.6604 9.31063 90.541 9.37225C90.2872 9.47626 90.0376 9.28904 89.9003 9.03526C89.8753 8.99781 89.9003 8.9146 89.9585 8.93541Z" fill="#263238"/>
<path d="M86.6764 10.0918C86.6764 10.0918 86.6473 10.1209 86.6556 10.1417C86.7846 10.5578 86.8595 11.0861 86.5059 11.3358C86.5059 11.3358 86.5059 11.3649 86.5059 11.3358C86.976 11.161 86.8678 10.4787 86.6764 10.0918Z" fill="#263238"/>
<path d="M86.181 9.74241C85.4696 9.87555 85.7857 11.2901 86.4473 11.1694C87.1088 11.0488 86.7634 9.63008 86.181 9.74241Z" fill="#263238"/>
<path d="M85.8943 9.90057C85.7986 10.0004 85.7196 10.1627 85.5864 10.2043C85.4533 10.2459 85.2869 10.1211 85.1704 9.99626C85.1704 9.99626 85.1496 9.99626 85.1704 10.0171C85.2245 10.2875 85.3742 10.5496 85.6488 10.5413C85.9234 10.533 86.0149 10.2667 86.0191 9.98378C85.99 9.92969 85.9317 9.86312 85.8943 9.90057Z" fill="#263238"/>
<path d="M87.6793 11.9101C87.6793 11.9101 87.75 12.5841 87.8249 12.8919C88.1301 12.8904 88.4293 12.8069 88.6913 12.6503C88.9532 12.4937 89.1684 12.2697 89.3143 12.0016C89.3143 11.9683 89.281 11.9434 89.2561 11.9683C88.9295 12.3362 88.4908 12.5862 88.0079 12.6798C87.9663 12.6007 87.9289 11.5232 87.879 11.5315C87.6445 11.6104 87.422 11.721 87.2175 11.8602C87.0344 10.4581 87.0718 9.04355 86.868 7.6498C86.868 7.60404 86.7848 7.60404 86.7848 7.6498C86.6933 9.16789 86.7546 10.6913 86.9678 12.1972C87.0136 12.3761 87.5711 11.9891 87.6793 11.9101Z" fill="#263238"/>
<path d="M88.2368 12.7421C88.4591 12.9122 88.7212 13.0224 88.9982 13.0625C89.1507 13.0809 89.3052 13.0503 89.4392 12.9751C89.7304 12.8129 89.6597 12.5216 89.539 12.2928C89.474 12.1712 89.3944 12.0581 89.3019 11.9558C89.0386 12.3236 88.6658 12.5988 88.2368 12.7421Z" fill="#263238"/>
<path d="M88.998 13.0749C89.1505 13.0933 89.305 13.0627 89.439 12.9875C89.7302 12.8252 89.6595 12.534 89.5389 12.3052C89.3759 12.355 89.2342 12.4577 89.1362 12.5971C89.0383 12.7366 88.9896 12.9047 88.998 13.0749Z" fill="#FF9BBC"/>
<path d="M94.3154 9.82983C94.3154 9.82983 95.1475 7.4667 96.2043 7.72049C97.261 7.97427 96.9739 11.1362 96.0212 11.8144C95.9051 11.9105 95.7708 11.9822 95.6262 12.025C95.4817 12.0678 95.33 12.0808 95.1803 12.0633C95.0306 12.0458 94.8859 11.9981 94.7552 11.9232C94.6244 11.8482 94.5102 11.7475 94.4194 11.6271L94.3154 9.82983Z" fill="#EB9481"/>
<path d="M96.104 8.60229C96.104 8.60229 96.129 8.60229 96.104 8.63142C95.4425 9.13067 95.2386 9.92531 95.1596 10.7116C95.1809 10.6258 95.2205 10.5456 95.2757 10.4766C95.331 10.4075 95.4006 10.3513 95.4797 10.3118C95.5588 10.2722 95.6455 10.2503 95.7339 10.2475C95.8223 10.2447 95.9102 10.2611 95.9917 10.2956C95.9972 10.2956 96.0025 10.2978 96.0064 10.3017C96.0103 10.3056 96.0125 10.3109 96.0125 10.3164C96.0125 10.3219 96.0103 10.3272 96.0064 10.3311C96.0025 10.335 95.9972 10.3372 95.9917 10.3372C95.8509 10.3299 95.7113 10.3659 95.5915 10.4402C95.4718 10.5146 95.3777 10.6238 95.3218 10.7532C95.2362 10.9751 95.1734 11.2051 95.1346 11.4397C95.1346 11.5146 94.989 11.5104 94.9932 11.4397C94.7352 10.4953 95.1138 8.97257 96.104 8.60229Z" fill="#263238"/>
<path d="M95.8373 11.5893C95.8381 11.6463 95.822 11.7022 95.7909 11.7499C95.7599 11.7977 95.7154 11.8351 95.663 11.8575C95.6106 11.8799 95.5528 11.8861 95.4968 11.8755C95.4409 11.8649 95.3893 11.8379 95.3487 11.798C95.3082 11.758 95.2804 11.7068 95.269 11.651C95.2576 11.5953 95.263 11.5373 95.2846 11.4846C95.3062 11.4319 95.343 11.3868 95.3903 11.3551C95.4376 11.3234 95.4933 11.3064 95.5502 11.3064C95.5877 11.3059 95.625 11.3128 95.6598 11.3268C95.6946 11.3407 95.7263 11.3615 95.753 11.3878C95.7797 11.4141 95.8009 11.4455 95.8154 11.4801C95.8298 11.5147 95.8373 11.5518 95.8373 11.5893Z" fill="#455A64"/>
<path d="M95.6876 11.5897C95.6884 11.6171 95.6811 11.644 95.6665 11.6671C95.652 11.6902 95.6308 11.7085 95.6058 11.7195C95.5808 11.7305 95.5531 11.7339 95.5262 11.729C95.4993 11.7242 95.4744 11.7115 95.4548 11.6925C95.4352 11.6734 95.4217 11.649 95.416 11.6223C95.4104 11.5955 95.4129 11.5677 95.4231 11.5424C95.4334 11.517 95.451 11.4953 95.4736 11.4801C95.4963 11.4648 95.523 11.4566 95.5503 11.4566C95.5681 11.4561 95.5859 11.4591 95.6025 11.4655C95.6192 11.472 95.6343 11.4817 95.6472 11.4941C95.66 11.5065 95.6701 11.5214 95.6771 11.5378C95.684 11.5542 95.6876 11.5719 95.6876 11.5897Z" fill="#263238"/>
<path d="M96.0244 11.3274C96.1347 11.3274 96.2241 11.238 96.2241 11.1277C96.2241 11.0174 96.1347 10.928 96.0244 10.928C95.9141 10.928 95.8247 11.0174 95.8247 11.1277C95.8247 11.238 95.9141 11.3274 96.0244 11.3274Z" fill="#455A64"/>
<path d="M89.6677 16.9356C88.8469 16.9756 88.0295 16.8056 87.2927 16.4416C86.5559 16.0776 85.9242 15.5316 85.4573 14.8553C84.5254 13.5198 84.0553 11.8598 83.7183 10.2789C83.6101 9.77961 83.5227 9.27204 83.452 8.76446C83.3683 8.2824 83.3321 7.79329 83.3438 7.30415C83.3438 7.26255 83.2773 7.26255 83.2814 7.30415C83.323 7.77428 83.3022 8.24857 83.323 8.7187C83.3438 9.18883 83.3938 9.6548 83.4645 10.1208C83.5959 11.0121 83.809 11.8895 84.101 12.7418C84.6294 14.2604 85.4657 15.7332 86.9218 16.5278C87.7653 16.9681 88.7316 17.1145 89.6677 16.9439C89.6927 16.9647 89.6885 16.9314 89.6677 16.9356Z" fill="#263238"/>
<path d="M95.2181 9.16842C94.4734 9.31403 92.0562 7.77883 91.1035 4.25911C91.1035 4.25911 92.181 7.36279 92.5346 7.76635C92.8883 8.16992 91.1742 6.91762 90.3754 4.07605C89.6449 4.9453 88.7929 5.70475 87.8458 6.331C86.5977 7.05076 85.7656 7.2463 85.6491 7.16309C85.5326 7.07988 87.3507 5.96073 87.7293 5.20769C87.7293 5.20769 84.5716 7.77884 82.949 8.32385C82.7618 8.38626 81.5428 4.51706 83.6729 2.20386C85.8031 -0.109345 90.3005 0.668656 91.6526 1.4425C91.6526 1.4425 92.9756 1.30104 94.8395 2.8404C96.7034 4.37976 96.0169 9.01864 95.2181 9.16842Z" fill="#263238"/>
</svg>
