<svg width="176" height="170" viewBox="0 0 176 170" fill="none" xmlns="http://www.w3.org/2000/svg">
<path d="M120.616 14.0569C121.564 8.18992 117.577 2.66512 111.71 1.71693C105.843 0.768735 100.318 4.75621 99.3697 10.6232C98.4215 16.4902 102.409 22.015 108.276 22.9632C114.143 23.9114 119.668 19.9239 120.616 14.0569Z" fill="#EBEBEB"/>
<path d="M120.664 14.6672C121.577 9.08608 117.792 3.82162 112.211 2.90867C106.63 1.99572 101.366 5.77999 100.453 11.3611C99.5399 16.9422 103.324 22.2066 108.905 23.1196C114.486 24.0325 119.751 20.2483 120.664 14.6672Z" fill="#DBDBDB"/>
<path d="M114.779 21.7134C119.706 19.7003 122.068 14.0744 120.055 9.14756C118.042 4.22075 112.416 1.85872 107.489 3.87181C102.562 5.88491 100.2 11.5108 102.213 16.4376C104.227 21.3644 109.852 23.7265 114.779 21.7134Z" fill="white"/>
<path d="M110.687 4.11694H110.442V5.57287H110.687V4.11694Z" fill="#EBEBEB"/>
<path d="M106.226 5.25968L106.014 5.38232L106.741 6.64338L106.954 6.52074L106.226 5.25968Z" fill="#EBEBEB"/>
<path d="M103.039 8.00604L102.917 8.21948L104.183 8.94747L104.306 8.73403L103.039 8.00604Z" fill="#EBEBEB"/>
<path d="M103.126 12.8923H101.67V13.1377H103.126V12.8923Z" fill="#EBEBEB"/>
<path d="M104.063 16.6353L102.802 17.3633L102.924 17.5757L104.185 16.8477L104.063 16.6353Z" fill="#EBEBEB"/>
<path d="M106.738 19.3948L106.011 20.656L106.223 20.7786L106.951 19.5173L106.738 19.3948Z" fill="#EBEBEB"/>
<path d="M110.687 20.4575H110.442V21.9134H110.687V20.4575Z" fill="#EBEBEB"/>
<path d="M114.396 19.4091L114.184 19.5317L114.912 20.7926L115.124 20.6699L114.396 19.4091Z" fill="#EBEBEB"/>
<path d="M117.067 16.6303L116.944 16.8428L118.202 17.5688L118.324 17.3563L117.067 16.6303Z" fill="#EBEBEB"/>
<path d="M119.463 12.8923H118.007V13.1377H119.463V12.8923Z" fill="#EBEBEB"/>
<path d="M118.204 8.45827L116.946 9.18408L117.069 9.39654L118.326 8.67073L118.204 8.45827Z" fill="#EBEBEB"/>
<path d="M114.915 5.25388L114.188 6.51514L114.401 6.63769L115.128 5.37644L114.915 5.25388Z" fill="#EBEBEB"/>
<path d="M111.986 9.93666L107.777 18.2104L107.996 18.3217L112.204 10.0479L111.986 9.93666Z" fill="#EBEBEB"/>
<path d="M110.073 9.71731L109.754 9.78125L111.548 18.7452L111.868 18.6812L110.073 9.71731Z" fill="#DBDBDB"/>
<path d="M79.0466 82.2459H9.99854V2.50757H79.0466V82.2459ZM11.6033 80.6371H77.4378V4.11633H11.6073L11.6033 80.6371Z" fill="#EBEBEB"/>
<path d="M44.6996 4.53882H43.0908V81.4417H44.6996V4.53882Z" fill="#EBEBEB"/>
<path d="M80.5106 5.76147H8.53857V8.00168H80.5106V5.76147Z" fill="#EBEBEB"/>
<path d="M80.5106 8.28369H8.53857V10.5239H80.5106V8.28369Z" fill="#EBEBEB"/>
<path d="M80.5106 10.8013H8.53857V13.0415H80.5106V10.8013Z" fill="#EBEBEB"/>
<path d="M80.5106 13.323H8.53857V15.5632H80.5106V13.323Z" fill="#EBEBEB"/>
<path d="M80.5106 15.8447H8.53857V18.0849H80.5106V15.8447Z" fill="#EBEBEB"/>
<path d="M80.5106 18.3625H8.53857V20.6028H80.5106V18.3625Z" fill="#EBEBEB"/>
<path d="M80.5106 20.8843H8.53857V23.1245H80.5106V20.8843Z" fill="#EBEBEB"/>
<path d="M80.5106 23.4058H8.53857V25.646H80.5106V23.4058Z" fill="#EBEBEB"/>
<path d="M80.5106 25.9233H8.53857V28.1635H80.5106V25.9233Z" fill="#EBEBEB"/>
<path d="M75.7323 5.30737H75.3301V56.9446H75.7323V5.30737Z" fill="#263238"/>
<path d="M76.2437 58.8188H74.8159L75.1739 56.7676H75.8857L76.2437 58.8188Z" fill="#263238"/>
<path d="M77.181 5.30737H76.7788V80.0062H77.181V5.30737Z" fill="#263238"/>
<path d="M77.6904 81.5146H76.2666L76.6205 79.4634H77.3364L77.6904 81.5146Z" fill="#263238"/>
<path d="M83.0042 2.19409H6.04102V6.87961H83.0042V2.19409Z" fill="#DBDBDB"/>
<path d="M172.548 20.647H129.16V75.2846H172.548V20.647Z" fill="#EBEBEB"/>
<path d="M167.026 31.936H134.533V32.9697H167.026V31.936Z" fill="#DBDBDB"/>
<path d="M162.047 34.1001H134.533V35.1337H162.047V34.1001Z" fill="#DBDBDB"/>
<path d="M155.515 36.2598H134.533V37.2934H155.515V36.2598Z" fill="#DBDBDB"/>
<path d="M165.892 38.4238H134.533V39.4575H165.892V38.4238Z" fill="#DBDBDB"/>
<path d="M163.225 40.5835H134.533V41.6171H163.225V40.5835Z" fill="#DBDBDB"/>
<path d="M164.307 44.9067H134.533V45.9404H164.307V44.9067Z" fill="#DBDBDB"/>
<path d="M145.939 47.0703H134.533V48.1039H145.939V47.0703Z" fill="#DBDBDB"/>
<path d="M157.534 49.2307H134.533V50.2643H157.534V49.2307Z" fill="#DBDBDB"/>
<path d="M165.892 51.3945H134.533V52.4282H165.892V51.3945Z" fill="#DBDBDB"/>
<path d="M161.572 53.5537H134.533V54.5873H161.572V53.5537Z" fill="#DBDBDB"/>
<path d="M163.833 57.8774H134.533V58.9111H163.833V57.8774Z" fill="#DBDBDB"/>
<path d="M152.27 60.041H134.533V61.0746H152.27V60.041Z" fill="#DBDBDB"/>
<path d="M152.27 66.5852H134.533V67.6188H152.27V66.5852Z" fill="#DBDBDB"/>
<path d="M164.287 70.9046C166.102 70.9046 167.573 69.4334 167.573 67.6187C167.573 65.8039 166.102 64.3328 164.287 64.3328C162.472 64.3328 161.001 65.8039 161.001 67.6187C161.001 69.4334 162.472 70.9046 164.287 70.9046Z" fill="#00AAFF"/>
<path d="M139.375 24.8577C139.77 24.8579 140.153 24.9895 140.465 25.2317C140.478 25.2412 140.489 25.2531 140.497 25.2669C140.505 25.2807 140.51 25.296 140.512 25.3118C140.513 25.3276 140.512 25.3437 140.507 25.359C140.503 25.3742 140.495 25.3884 140.485 25.4006C140.476 25.4132 140.464 25.4238 140.451 25.4318C140.438 25.4398 140.423 25.4451 140.408 25.4473C140.392 25.4496 140.377 25.4488 140.362 25.4449C140.347 25.441 140.332 25.4342 140.32 25.4248C140.051 25.211 139.718 25.0947 139.375 25.095C138.984 25.095 138.608 25.2505 138.331 25.5273C138.054 25.8041 137.899 26.1795 137.899 26.571C137.899 26.9625 138.054 27.3379 138.331 27.6147C138.608 27.8915 138.984 28.047 139.375 28.047C139.716 28.0522 140.048 27.9368 140.312 27.7213C140.325 27.7108 140.339 27.7032 140.355 27.6989C140.371 27.6946 140.387 27.6937 140.403 27.6964C140.419 27.6991 140.434 27.7052 140.448 27.7144C140.461 27.7235 140.473 27.7355 140.481 27.7494C140.493 27.76 140.503 27.773 140.509 27.7875C140.516 27.8021 140.519 27.8179 140.519 27.8339C140.519 27.8499 140.516 27.8656 140.509 27.8802C140.503 27.8948 140.493 27.9078 140.481 27.9183C140.168 28.1566 139.785 28.2852 139.391 28.2843C139.166 28.2843 138.943 28.24 138.735 28.1539C138.528 28.0678 138.339 27.9416 138.18 27.7825C138.02 27.6234 137.894 27.4345 137.808 27.2267C137.722 27.0188 137.678 26.796 137.678 26.571C137.678 26.346 137.722 26.1232 137.808 25.9153C137.894 25.7075 138.02 25.5186 138.18 25.3595C138.339 25.2004 138.528 25.0742 138.735 24.9881C138.943 24.902 139.166 24.8577 139.391 24.8577H139.375Z" fill="#A6A6A6"/>
<path d="M142.861 24.8578C143.204 24.8401 143.545 24.9256 143.839 25.1034C144.132 25.2813 144.366 25.5431 144.51 25.8552C144.653 26.1673 144.7 26.5152 144.644 26.8541C144.588 27.1929 144.431 27.5072 144.194 27.7561C143.958 28.0051 143.652 28.1773 143.316 28.2506C142.981 28.3239 142.631 28.2949 142.312 28.1673C141.993 28.0397 141.719 27.8194 141.527 27.5349C141.335 27.2503 141.232 26.9146 141.232 26.5711C141.225 26.3513 141.262 26.1323 141.34 25.9268C141.419 25.7213 141.537 25.5334 141.689 25.374C141.84 25.2146 142.022 25.0869 142.223 24.9983C142.424 24.9097 142.641 24.8619 142.861 24.8578ZM142.861 28.0471C143.156 28.064 143.449 27.992 143.703 27.8405C143.956 27.6889 144.159 27.4647 144.284 27.1969C144.408 26.9291 144.45 26.6301 144.403 26.3384C144.356 26.0468 144.222 25.7759 144.02 25.561C143.817 25.346 143.554 25.1968 143.266 25.1327C142.978 25.0685 142.677 25.0924 142.402 25.2012C142.127 25.31 141.892 25.4987 141.725 25.7429C141.559 25.9872 141.47 26.2757 141.47 26.5711C141.459 26.9513 141.599 27.3202 141.86 27.5969C142.121 27.8736 142.481 28.0356 142.861 28.0471Z" fill="#A6A6A6"/>
<path d="M145.606 25.405V28.1681C145.609 28.1849 145.608 28.2022 145.604 28.2188C145.6 28.2354 145.592 28.2509 145.581 28.2641C145.57 28.2773 145.556 28.2879 145.541 28.2952C145.525 28.3025 145.508 28.3063 145.491 28.3063C145.474 28.3063 145.457 28.3025 145.442 28.2952C145.426 28.2879 145.412 28.2773 145.401 28.2641C145.39 28.2509 145.383 28.2354 145.378 28.2188C145.374 28.2022 145.373 28.1849 145.377 28.1681V25.0712C145.368 25.0483 145.368 25.0234 145.375 25.0002C145.382 24.977 145.397 24.9567 145.417 24.9425C145.443 24.925 145.474 24.9181 145.505 24.9234C145.536 24.9286 145.563 24.9456 145.582 24.9706L147.629 27.786V25.039C147.629 25.0088 147.641 24.9797 147.662 24.9579C147.683 24.9362 147.711 24.9234 147.741 24.9224C147.757 24.9218 147.773 24.9245 147.787 24.9301C147.802 24.9357 147.815 24.9442 147.826 24.9551C147.838 24.966 147.847 24.979 147.853 24.9934C147.859 25.0079 147.862 25.0234 147.862 25.039V28.1479C147.862 28.1636 147.859 28.1791 147.853 28.1935C147.847 28.208 147.838 28.221 147.826 28.2319C147.815 28.2428 147.802 28.2513 147.787 28.2569C147.773 28.2625 147.757 28.2651 147.741 28.2646C147.724 28.2644 147.707 28.2604 147.692 28.2527C147.677 28.245 147.663 28.234 147.653 28.2203C147.648 28.2188 147.644 28.2161 147.641 28.2126C147.637 28.2091 147.634 28.2049 147.633 28.2002L145.606 25.405Z" fill="#A6A6A6"/>
<path d="M149.904 25.1435H148.887C148.855 25.1425 148.826 25.1293 148.804 25.1068C148.782 25.0843 148.77 25.0542 148.77 25.0229C148.771 24.9923 148.784 24.9632 148.805 24.9415C148.827 24.9199 148.856 24.9073 148.887 24.9062H151.155C151.186 24.9073 151.215 24.9199 151.236 24.9415C151.258 24.9632 151.271 24.9923 151.272 25.0229C151.272 25.0542 151.26 25.0843 151.238 25.1068C151.216 25.1293 151.186 25.1425 151.155 25.1435H150.137V28.168C150.137 28.1989 150.125 28.2286 150.103 28.2505C150.081 28.2724 150.052 28.2847 150.021 28.2847C149.99 28.2847 149.96 28.2724 149.938 28.2505C149.916 28.2286 149.904 28.1989 149.904 28.168V25.1435Z" fill="#A6A6A6"/>
<path d="M153.854 27.5203C153.854 27.4191 153.829 27.3196 153.781 27.2304C153.734 27.1413 153.665 27.0654 153.58 27.0095C153.458 26.9285 153.322 26.8712 153.178 26.8406H153.154H152.35V28.1758C152.344 28.2036 152.33 28.2286 152.308 28.2466C152.286 28.2647 152.259 28.2745 152.231 28.2745C152.203 28.2745 152.175 28.2647 152.154 28.2466C152.132 28.2286 152.117 28.2036 152.112 28.1758V25.0307C152.114 25.0022 152.125 24.9751 152.144 24.9539C152.163 24.9327 152.189 24.9186 152.217 24.9141H153.182C153.401 24.9163 153.612 24.9926 153.781 25.1305C153.951 25.2683 154.068 25.4595 154.115 25.6729C154.162 25.8863 154.135 26.1092 154.038 26.3053C153.942 26.5013 153.782 26.6588 153.584 26.7521C153.599 26.7625 153.615 26.7706 153.633 26.7762C153.769 26.8495 153.883 26.958 153.962 27.0902C154.042 27.2225 154.085 27.3738 154.087 27.5283C154.08 27.6636 154.094 27.7992 154.127 27.9305C154.136 27.961 154.153 27.9887 154.176 28.0109C154.203 28.0078 154.231 28.0135 154.255 28.0272C154.278 28.041 154.297 28.0621 154.308 28.0873C154.316 28.1183 154.312 28.1509 154.298 28.1795C154.284 28.2082 154.261 28.2311 154.232 28.2442H154.163C154.117 28.2397 154.072 28.2227 154.034 28.1952C153.995 28.1676 153.965 28.1304 153.946 28.0873C153.868 27.9092 153.836 27.7141 153.854 27.5203ZM153.178 25.1433H152.346V26.5992H153.198C153.391 26.5966 153.575 26.5173 153.71 26.3789C153.845 26.2405 153.919 26.0543 153.916 25.8612C153.913 25.6682 153.834 25.4841 153.696 25.3494C153.557 25.2148 153.371 25.1406 153.178 25.1433Z" fill="#A6A6A6"/>
<path d="M157.024 27.4115H155.484L155.186 28.2159C155.178 28.2381 155.163 28.2574 155.144 28.271C155.124 28.2847 155.101 28.2921 155.077 28.2923H155.033C155.004 28.2798 154.981 28.2566 154.968 28.2274C154.955 28.1983 154.954 28.1654 154.965 28.1354L156.135 25.0064C156.146 24.9845 156.162 24.9661 156.183 24.9533C156.204 24.9405 156.228 24.9338 156.252 24.934C156.276 24.9328 156.301 24.939 156.321 24.952C156.342 24.9649 156.359 24.9839 156.369 25.0064L157.539 28.1354C157.55 28.1644 157.55 28.1965 157.539 28.2255C157.528 28.2546 157.506 28.2784 157.479 28.2923H157.434C157.41 28.2918 157.387 28.2844 157.367 28.2708C157.347 28.2572 157.331 28.2381 157.322 28.2159L157.024 27.4115ZM155.572 27.1742H156.94L156.256 25.3603L155.572 27.1742Z" fill="#A6A6A6"/>
<path d="M159.706 24.8577C160.101 24.8579 160.484 24.9895 160.796 25.2317C160.809 25.2412 160.82 25.2531 160.828 25.2669C160.836 25.2807 160.841 25.296 160.843 25.3118C160.844 25.3276 160.843 25.3437 160.839 25.359C160.834 25.3742 160.826 25.3884 160.816 25.4006C160.807 25.4132 160.795 25.4238 160.782 25.4318C160.769 25.4398 160.754 25.4451 160.739 25.4473C160.723 25.4496 160.708 25.4488 160.693 25.4449C160.678 25.441 160.664 25.4342 160.651 25.4248C160.383 25.211 160.049 25.0947 159.706 25.095C159.315 25.095 158.939 25.2505 158.662 25.5273C158.386 25.8041 158.23 26.1795 158.23 26.571C158.23 26.9625 158.386 27.3379 158.662 27.6147C158.939 27.8915 159.315 28.047 159.706 28.047C160.047 28.0522 160.379 27.9368 160.643 27.7213C160.656 27.7108 160.67 27.7032 160.686 27.6989C160.702 27.6946 160.718 27.6937 160.734 27.6964C160.75 27.6991 160.765 27.7052 160.779 27.7144C160.792 27.7235 160.804 27.7355 160.812 27.7494C160.824 27.76 160.834 27.773 160.84 27.7875C160.847 27.8021 160.85 27.8179 160.85 27.8339C160.85 27.8499 160.847 27.8656 160.84 27.8802C160.834 27.8948 160.824 27.9078 160.812 27.9183C160.499 28.1566 160.116 28.2852 159.722 28.2843C159.497 28.2843 159.274 28.24 159.066 28.1539C158.859 28.0678 158.67 27.9416 158.511 27.7825C158.352 27.6234 158.225 27.4345 158.139 27.2267C158.053 27.0188 158.009 26.796 158.009 26.571C158.009 26.346 158.053 26.1232 158.139 25.9153C158.225 25.7075 158.352 25.5186 158.511 25.3595C158.67 25.2004 158.859 25.0742 159.066 24.9881C159.274 24.902 159.497 24.8577 159.722 24.8577H159.706Z" fill="#A6A6A6"/>
<path d="M162.703 25.1435H161.685C161.654 25.1425 161.624 25.1293 161.602 25.1068C161.581 25.0843 161.568 25.0542 161.568 25.0229C161.569 24.9923 161.582 24.9632 161.604 24.9415C161.625 24.9199 161.654 24.9073 161.685 24.9062H163.953C163.984 24.9073 164.013 24.9199 164.035 24.9415C164.056 24.9632 164.069 24.9923 164.07 25.0229C164.071 25.0385 164.068 25.0541 164.062 25.0688C164.057 25.0834 164.048 25.0967 164.037 25.108C164.026 25.1192 164.013 25.1282 163.999 25.1343C163.985 25.1404 163.969 25.1436 163.953 25.1435H162.936V28.168C162.936 28.1989 162.924 28.2286 162.902 28.2505C162.88 28.2724 162.85 28.2847 162.819 28.2847C162.788 28.2847 162.759 28.2724 162.737 28.2505C162.715 28.2286 162.703 28.1989 162.703 28.168V25.1435Z" fill="#A6A6A6"/>
<path d="M91.1082 127.019H170.786L172.443 94.3286H89.4512L91.1082 127.019Z" fill="#EBEBEB"/>
<path d="M167.01 109.294H133.697L133.073 97.9438H167.738L167.01 109.294ZM134.079 108.891H166.632L167.308 98.346H133.5L134.079 108.891Z" fill="#DBDBDB"/>
<path d="M166.395 122.349H135.004L134.493 112.105H167.034L166.395 122.349ZM135.386 121.947H166.017L166.608 112.507H134.915L135.386 121.947Z" fill="#DBDBDB"/>
<path d="M153.56 104.841H147.962L147.612 102.103H153.914L153.56 104.841ZM148.332 104.439H153.222L153.472 102.505H148.082L148.332 104.439Z" fill="#DBDBDB"/>
<path d="M153.56 118.596H147.962L147.612 115.857H153.914L153.56 118.596ZM148.332 118.194H153.222L153.472 116.259H148.082L148.332 118.194Z" fill="#DBDBDB"/>
<path d="M127.828 109.294H94.515L93.8916 97.9438H128.556L127.828 109.294ZM94.8971 108.891H127.45L128.114 98.346H94.33L94.8971 108.891Z" fill="#DBDBDB"/>
<path d="M127.214 122.349H95.8228L95.312 112.105H127.853L127.214 122.349ZM96.2049 121.947H126.836L127.427 112.507H95.7343L96.2049 121.947Z" fill="#DBDBDB"/>
<path d="M114.38 104.841H108.781L108.431 102.103H114.733L114.38 104.841ZM109.151 104.439H114.038L114.287 102.505H108.898L109.151 104.439Z" fill="#DBDBDB"/>
<path d="M114.38 118.596H108.781L108.431 115.857H114.733L114.38 118.596ZM109.151 118.194H114.038L114.287 116.259H108.898L109.151 118.194Z" fill="#DBDBDB"/>
<path d="M98.2552 127.018L97.7525 130.581L96.747 137.736H94.7803V127.018H98.2552Z" fill="#EBEBEB"/>
<path d="M98.2552 127.018L97.7525 130.581H94.7803V127.018H98.2552Z" fill="#DBDBDB"/>
<path d="M163.64 127.018L164.138 130.581L165.148 137.736H167.115V127.018H163.64Z" fill="#EBEBEB"/>
<path d="M163.64 127.018L164.138 130.581H167.115V127.018H163.64Z" fill="#DBDBDB"/>
<path d="M88.2973 169.96C128.377 169.96 160.869 165.726 160.869 160.504C160.869 155.282 128.377 151.049 88.2973 151.049C48.2173 151.049 15.7261 155.282 15.7261 160.504C15.7261 165.726 48.2173 169.96 88.2973 169.96Z" fill="#EBEBEB"/>
<path d="M21.7263 150.156C33.7255 150.156 43.4527 147.826 43.4527 144.952C43.4527 142.077 33.7255 139.747 21.7263 139.747C9.72721 139.747 0 142.077 0 144.952C0 147.826 9.72721 150.156 21.7263 150.156Z" fill="#EBEBEB"/>
<path d="M1.18262 137.736L22.9612 137.64L44.7398 137.603L88.2971 137.539L131.854 137.603L153.633 137.64L175.412 137.736L153.633 137.837L131.854 137.873L88.2971 137.937L44.7398 137.873L22.9612 137.837L1.18262 137.736Z" fill="#263238"/>
<path d="M22.3648 68.0853C22.3648 68.0853 11.5499 66.573 14.0757 53.5139C14.0757 53.5139 26.1615 56.2287 22.3648 68.0853Z" fill="#00AAFF"/>
<path opacity="0.1" d="M22.3648 68.0853C22.3648 68.0853 11.5499 66.573 14.0757 53.5139C14.0757 53.5139 26.1615 56.2287 22.3648 68.0853Z" fill="black"/>
<path d="M21.8186 65.3584C21.6073 64.6985 21.3616 64.05 21.0826 63.4158C21.0826 63.3313 21.0826 63.2469 21.0544 63.1664C21.0544 62.9855 21.0222 62.8085 21.0102 62.6275C20.978 62.2253 20.9539 61.8473 20.9297 61.4571C20.8855 60.6769 20.8372 59.8966 20.8252 59.1164C20.8252 59.0721 20.7568 59.0762 20.7568 59.1164C20.7568 59.9007 20.7568 60.6809 20.7568 61.4612C20.7568 61.8633 20.797 62.2414 20.8212 62.6315C20.8212 62.72 20.8212 62.8045 20.8212 62.893C20.2133 61.5925 19.4862 60.3511 18.6493 59.1848C18.2967 58.6649 17.9168 58.1642 17.5111 57.6846C17.0808 57.1899 16.6263 56.7193 16.1879 56.2327C16.1598 56.2005 16.1155 56.2327 16.1437 56.2809C16.9203 57.1399 17.6176 58.0674 18.227 59.052C18.5568 59.5467 18.8665 60.0575 19.1641 60.5763L19.0636 60.5401L18.6614 60.3833L17.7766 60.0495C17.1974 59.8323 16.6183 59.6231 16.0391 59.4019C16.0029 59.4019 15.9788 59.4502 16.015 59.4623C16.5901 59.6915 17.1572 59.9328 17.7283 60.1782L18.5649 60.5401L18.9872 60.7131C19.0778 60.7585 19.1737 60.7922 19.2727 60.8136C19.4899 61.2158 19.7071 61.5979 19.9082 62.0001C20.4098 63.0118 20.8503 64.0527 21.2274 65.1171C21.2555 65.1895 21.2797 65.2659 21.3078 65.3423C21.0221 65.1779 20.7251 65.0341 20.419 64.912L19.3009 64.4052C18.5407 64.0553 17.7886 63.7014 17.0607 63.2911C17.0532 63.2869 17.0443 63.2857 17.0361 63.288C17.0278 63.2903 17.0207 63.2957 17.0164 63.3032C17.0122 63.3107 17.011 63.3195 17.0133 63.3278C17.0156 63.3361 17.021 63.3432 17.0285 63.3474C17.7726 63.7496 18.5005 64.188 19.2446 64.5902C19.6186 64.7913 19.9926 64.9924 20.3747 65.1734C20.6891 65.3602 21.0312 65.496 21.3882 65.5756C21.7511 66.5652 21.9902 67.5959 22.1001 68.6443C22.2208 70.1203 22.2087 71.6084 22.2449 73.0885H22.2811C22.3897 71.7452 22.45 70.3898 22.4581 69.0424C22.4423 67.7882 22.2264 66.5446 21.8186 65.3584Z" fill="#263238"/>
<path d="M20.1536 57.6805C20.0492 58.444 20.0129 59.2152 20.045 59.9851C20.045 60.0052 20.0772 60.0052 20.0772 59.9851C20.1214 59.2209 20.1295 58.4567 20.218 57.6966C20.222 57.6564 20.1576 57.6403 20.1536 57.6805Z" fill="#263238"/>
<path d="M17.0602 58.3361C16.5767 58.1506 16.1109 57.9218 15.6686 57.6523C15.6325 57.6282 15.6003 57.6885 15.6365 57.7086C16.0698 58.0011 16.5442 58.2275 17.0441 58.3803C17.0683 58.3883 17.1085 58.3481 17.0602 58.3361Z" fill="#263238"/>
<path d="M22.7116 88.8144C22.7116 87.6078 22.6795 86.4254 22.6674 85.2309C22.6433 81.2612 22.6111 77.2916 22.5387 73.322C22.4824 70.1688 22.4086 67.0183 22.3175 63.8705C22.3172 63.8623 22.3149 63.8543 22.3106 63.8473C22.3064 63.8402 22.3005 63.8344 22.2934 63.8303C22.2934 62.9696 22.2934 62.1089 22.2934 61.2482C22.2934 61.2241 22.2692 61.2161 22.2411 61.2161C22.2129 61.2161 22.1888 61.2161 22.1928 61.2482C22.1928 62.1116 22.1928 62.9736 22.1928 63.8343C22.1928 63.8343 22.1647 63.8544 22.1647 63.8705C22.0078 69.5012 21.867 75.0876 21.8308 80.6982C21.8308 81.8404 21.8308 82.9786 21.8308 84.1208C21.7906 87.7754 21.7759 91.4326 21.7866 95.0926C21.7866 95.6717 21.7866 96.2549 21.7866 96.8381C21.7866 100.184 21.8228 103.531 21.8228 106.893C21.8228 107.07 22.0239 107.162 22.225 107.17C22.4261 107.178 22.7277 107.082 22.7277 106.877C22.7277 103.189 22.7518 99.4966 22.7518 95.8085C22.7398 93.4677 22.7398 91.139 22.7116 88.8144Z" fill="#263238"/>
<path d="M18.1947 85.1825C18.1947 85.1825 12.9903 81.3295 8.05546 83.9277C3.12058 86.5258 2.34033 96.5725 2.34033 96.5725C2.34033 96.5725 9.57976 97.6102 14.1567 93.2625C18.5567 89.0797 18.1947 85.1825 18.1947 85.1825Z" fill="#00AAFF"/>
<path d="M19.6102 85.4199C18.6547 85.039 17.6197 84.9008 16.5977 85.0177C16.3878 84.9803 16.1754 84.9588 15.9623 84.9533L15.2263 84.897L13.71 84.7924C12.6844 84.716 11.6548 84.6517 10.6292 84.5471C10.6221 84.5496 10.616 84.5542 10.6116 84.5603C10.6073 84.5665 10.6049 84.5738 10.6049 84.5813C10.6049 84.5888 10.6073 84.5962 10.6116 84.6023C10.616 84.6084 10.6221 84.613 10.6292 84.6155C11.6428 84.7442 12.6402 84.889 13.6658 84.9895C14.1886 85.0418 14.7115 85.0981 15.2383 85.1343L15.6164 85.1705C15.4636 85.2067 15.3067 85.2429 15.1539 85.2871C14.3376 85.5248 13.5479 85.8455 12.797 86.2444C12.3949 86.3168 11.9927 86.4334 11.5905 86.5259C10.947 86.6787 10.3075 86.8436 9.668 87.0125C8.40513 87.3423 7.15431 87.7164 5.89948 88.0824C5.85926 88.0824 5.87937 88.1548 5.89948 88.1427C7.15029 87.837 8.41317 87.5555 9.668 87.2579L11.4939 86.8195L11.9726 86.7069C10.5766 87.5751 9.32874 88.6614 8.27643 89.9244C7.26369 91.1709 6.40235 92.5331 5.71045 93.9825C5.71045 94.0187 5.74262 94.0549 5.76676 94.0187C6.62324 92.5373 7.66827 91.1732 8.87569 89.9606C8.85156 90.029 8.83145 90.1014 8.80732 90.1697L8.51774 91.0867C8.32469 91.7021 8.11555 92.3134 7.94663 92.9288C7.94663 92.969 7.99891 92.9811 8.01098 92.9288C8.23218 92.3335 8.44132 91.7222 8.65046 91.139C8.75101 90.8454 8.85558 90.5558 8.95613 90.2622C9.01243 90.1094 9.06472 89.9566 9.11298 89.8037C9.11298 89.7595 9.14918 89.7112 9.16527 89.663C9.74507 89.1 10.3603 88.5747 11.0073 88.0904C11.8663 87.4619 12.7931 86.9317 13.7703 86.5098C13.7703 86.5983 13.7382 86.6908 13.7181 86.7752C13.6658 87.0125 13.6135 87.2498 13.5652 87.4871C13.4647 87.9778 13.3682 88.4725 13.2716 88.9672C13.0746 89.9727 12.9539 90.9781 12.7649 91.9997C12.7649 92.0439 12.8212 92.06 12.8292 91.9997C13.0625 90.9862 13.3641 89.9887 13.5894 88.9752C13.702 88.4685 13.8146 87.9617 13.9232 87.4549L14.068 86.7391C14.0921 86.6063 14.1243 86.4736 14.1404 86.3369L14.4219 86.2202C15.7853 85.7135 17.2935 85.3475 18.7495 85.629C19.4381 85.7566 20.0846 86.0524 20.6312 86.4903C21.1779 86.9282 21.6077 87.4945 21.8825 88.1387C21.9308 88.2513 22.1078 88.1789 22.0796 88.0623C21.7981 86.8316 20.7564 85.9025 19.6102 85.4199Z" fill="#263238"/>
<path d="M11.647 89.7072C11.5022 90.3668 11.3534 91.0264 11.2087 91.6859C11.0443 92.3178 10.9234 92.9601 10.8467 93.6084C10.8467 93.6366 10.8789 93.6366 10.8869 93.6084C11.0784 92.9744 11.2263 92.3281 11.3293 91.6739C11.458 91.0223 11.5867 90.3708 11.7114 89.7192C11.7194 89.683 11.6551 89.6669 11.647 89.7072Z" fill="#263238"/>
<path d="M6.61585 91.3843C5.95223 91.7182 5.31275 92.1002 4.60489 92.3778C4.60093 92.3793 4.59732 92.3817 4.59427 92.3847C4.59122 92.3876 4.58878 92.3912 4.5871 92.3951C4.58542 92.399 4.58453 92.4033 4.58448 92.4075C4.58442 92.4118 4.58521 92.416 4.5868 92.42C4.58838 92.4239 4.59073 92.4276 4.59371 92.4306C4.59669 92.4337 4.60024 92.4361 4.60416 92.4378C4.60808 92.4395 4.6123 92.4404 4.61656 92.4404C4.62083 92.4405 4.62506 92.4397 4.62903 92.4381C5.32136 92.1315 5.99668 91.7878 6.65204 91.4085C6.65204 91.4085 6.65204 91.3763 6.61585 91.3843Z" fill="#263238"/>
<path d="M19.3652 78.1038C19.3652 78.1038 13.0066 78.506 10.0465 74.3192C7.08633 70.1324 7.75397 64.1357 7.75397 64.1357C7.75397 64.1357 14.4344 64.9401 17.0848 67.9606C19.7352 70.981 19.3652 78.1038 19.3652 78.1038Z" fill="#00AAFF"/>
<path d="M22.3368 84.3782C22.1156 83.6985 21.8421 83.0268 21.5847 82.3673C21.3273 81.7077 21.0739 81.0883 20.7803 80.4609C20.214 79.1794 19.579 77.9295 18.878 76.7165C18.4275 75.9443 17.9449 75.1922 17.4502 74.4521C17.4502 74.3395 17.418 74.2269 17.4019 74.1143C17.3738 73.9172 17.3456 73.7121 17.3134 73.5231C17.2491 73.1209 17.1807 72.7187 17.1123 72.3165C16.9676 71.4357 16.7866 70.563 16.6458 69.6862C16.6458 69.646 16.5734 69.646 16.5815 69.6862C16.7061 70.5549 16.7946 71.4277 16.9153 72.2964C16.9756 72.7227 17.0319 73.149 17.0963 73.5754L17.1686 74.0379C16.1988 72.6184 15.1487 71.2554 14.0235 69.9557L13.5851 69.4489C13.5851 69.4006 13.5449 69.3524 13.5248 69.3041C13.4765 69.1834 13.4323 69.0628 13.3881 68.9381C13.2915 68.6888 13.2031 68.4354 13.1105 68.182C12.9336 67.6833 12.7727 67.1805 12.636 66.6698C12.636 66.6295 12.5636 66.6496 12.5756 66.6698C12.7043 67.1926 12.8371 67.7114 12.9778 68.2262C13.0542 68.4756 13.1347 68.7209 13.2232 68.9663C13.2232 69.0065 13.2513 69.0467 13.2674 69.0869C12.463 68.2021 11.6064 67.3495 10.7497 66.5049C10.7215 66.4767 10.6773 66.5049 10.7054 66.5531C12.3485 68.2723 13.8546 70.1172 15.21 72.0712C15.0557 72.0224 14.8986 71.9834 14.7394 71.9545C14.2487 71.858 13.7581 71.7896 13.2634 71.7253C12.2257 71.5926 11.1921 71.4639 10.1625 71.299C10.1182 71.299 10.1022 71.3553 10.1625 71.3633C11.1479 71.5564 12.1212 71.7655 13.1025 72.0068C13.565 72.1114 14.0275 72.1999 14.4901 72.2924C14.8694 72.3732 15.243 72.4793 15.6081 72.6101C15.7087 72.7589 15.8173 72.9037 15.9178 73.0525C16.3844 73.7282 16.8308 74.424 17.2692 75.1198L16.6217 74.9951C16.131 74.8986 15.6363 74.8101 15.1456 74.7297C14.1764 74.5688 13.2031 74.3999 12.2458 74.1827C12.2056 74.1827 12.1895 74.239 12.2458 74.247C13.2191 74.4763 14.1804 74.7417 15.1456 74.9991C15.6122 75.1238 16.0827 75.2364 16.5533 75.341L17.2571 75.4938C17.352 75.5187 17.4489 75.5348 17.5467 75.5421C18.4758 77.0463 19.3445 78.5907 20.1529 80.1632C20.5068 80.855 20.8487 81.5548 21.1785 82.2546C21.5083 82.9545 21.8099 83.7146 22.1236 84.4466C22.1679 84.5994 22.3971 84.5391 22.3368 84.3782Z" fill="#263238"/>
<path d="M15.8373 69.7667C15.7166 69.1593 15.5879 68.5601 15.4351 67.9488C15.4351 67.9085 15.3627 67.9286 15.3707 67.9488C15.4914 68.544 15.608 69.1553 15.7166 69.7385C15.8053 70.3381 15.9248 70.9328 16.0746 71.5202C16.0366 70.9309 15.9573 70.3449 15.8373 69.7667Z" fill="#263238"/>
<path d="M12.1296 69.5894C11.836 69.4406 11.5223 69.324 11.2166 69.1872L10.734 68.9982L10.4887 68.9017C10.3947 68.8714 10.3043 68.831 10.2192 68.781C10.171 68.7488 10.1428 68.8293 10.1911 68.8373C10.2854 68.863 10.376 68.9008 10.4605 68.9499L10.7018 69.0585L11.1684 69.2636C11.4731 69.4066 11.7861 69.5315 12.1055 69.6377C12.1417 69.6658 12.1658 69.6055 12.1296 69.5894Z" fill="#263238"/>
<path d="M25.8721 73.1044C25.8721 73.1044 29.721 65.9173 35.5729 64.8032C41.4248 63.6891 45.0123 69.714 45.0123 69.714C45.0123 69.714 40.7411 75.1677 35.3597 76.1208C29.9784 77.074 25.8721 73.1044 25.8721 73.1044Z" fill="#00AAFF"/>
<path d="M39.4985 68.0253C37.973 67.8185 36.4254 67.8375 34.9055 68.0816L35.1669 67.9408L36.466 67.2732C37.3585 66.7796 38.2753 66.3313 39.2129 65.9299C39.2572 65.9097 39.2129 65.8494 39.1888 65.8695C38.2718 66.2958 37.3226 66.6739 36.4056 67.0761C35.9431 67.2852 35.4927 67.5064 35.0462 67.7437C34.7566 67.8966 34.4389 68.0414 34.1534 68.2264C32.8675 68.4843 31.618 68.899 30.4331 69.4611L31.1651 68.6567C31.708 68.0574 32.247 67.43 32.8462 66.8871C32.8784 66.8589 32.8462 66.8147 32.798 66.8428C32.1867 67.3978 31.5391 67.9126 30.9439 68.4918C30.6583 68.7733 30.3808 69.0629 30.1113 69.3646C29.9786 69.5134 29.8419 69.6662 29.7092 69.8271C27.6986 70.9035 25.9518 72.4122 24.5943 74.2447C23.2368 76.0772 22.3024 78.1879 21.8584 80.4248C21.8584 80.465 21.9107 80.4851 21.9228 80.4449C22.7473 77.7048 24.2239 75.2055 26.2262 73.1612C28.384 70.9703 31.0982 69.4088 34.0769 68.6446C35.8439 68.1944 37.6713 68.0288 39.4904 68.154C39.5075 68.155 39.5243 68.1493 39.5371 68.138C39.5499 68.1266 39.5577 68.1107 39.5588 68.0936C39.5599 68.0766 39.5541 68.0598 39.5428 68.047C39.5315 68.0341 39.5155 68.0263 39.4985 68.0253Z" fill="#263238"/>
<path opacity="0.1" d="M45.0127 69.7144C45.0127 69.7144 40.7415 75.1681 35.3602 76.1212C31.2618 76.8452 27.8915 74.7096 26.512 73.6558L26.2144 73.1692C26.2144 73.1692 28.9854 70.8365 34.23 69.4891C39.4746 68.1418 45.0127 69.7144 45.0127 69.7144Z" fill="black"/>
<path d="M36.0959 65.4631C35.6478 65.7251 35.2142 66.0111 34.7968 66.3197C34.3901 66.63 34.0119 66.9759 33.6667 67.3534C33.6622 67.3605 33.6603 67.369 33.6615 67.3774C33.6626 67.3858 33.6666 67.3935 33.6728 67.3992C33.679 67.4049 33.687 67.4083 33.6954 67.4088C33.7039 67.4092 33.7122 67.4067 33.719 67.4016C34.1211 67.0638 34.4952 66.726 34.9014 66.4082C35.2926 66.0865 35.7037 65.7896 36.1321 65.5194C36.1358 65.517 36.139 65.5139 36.1415 65.5103C36.144 65.5067 36.1458 65.5026 36.1467 65.4983C36.1476 65.494 36.1477 65.4896 36.1469 65.4853C36.1461 65.481 36.1445 65.4768 36.1421 65.4731C36.1398 65.4694 36.1367 65.4662 36.1331 65.4637C36.1295 65.4612 36.1254 65.4595 36.1211 65.4585C36.1168 65.4576 36.1124 65.4575 36.108 65.4583C36.1037 65.4591 36.0996 65.4607 36.0959 65.4631Z" fill="#263238"/>
<path d="M39.3097 66.6776C39.0925 66.7701 38.8713 66.8465 38.6541 66.939L38.0026 67.2085C37.9583 67.2085 37.9784 67.305 38.0267 67.2849L38.6783 67.0195C38.8995 66.931 39.1126 66.8304 39.3298 66.742C39.37 66.7259 39.3499 66.6615 39.3097 66.6776Z" fill="#263238"/>
<path d="M25.1035 82.1495C25.1035 82.1495 26.1331 89.2804 31.4943 91.774C36.8555 94.2675 43.3911 91.774 43.3911 91.774C43.3911 91.774 40.8372 76.35 25.1035 82.1495Z" fill="#00AAFF"/>
<path d="M39.6952 87.1449C39.2046 87.0886 38.7099 87.0041 38.2232 86.9156L37.4993 86.7789L37.1252 86.7025C36.9805 86.5698 36.8397 86.433 36.6909 86.3003C35.6726 85.4084 34.574 84.6127 33.409 83.9233C32.7755 83.5479 32.1201 83.2108 31.4463 82.9138H31.5469L33.3125 82.9903C34.4869 83.0466 35.6653 83.0707 36.8397 83.1471C36.8839 83.1471 36.8799 83.0868 36.8397 83.0828C35.6572 83.0023 34.4829 82.8736 33.3044 82.7731L31.5911 82.6202L30.7063 82.5438L30.4811 82.5197C30.1754 82.4031 29.8697 82.2945 29.556 82.1979C28.0947 81.6963 26.5228 81.61 25.0153 81.9486C23.668 82.2945 22.3206 83.1793 21.9707 84.599C21.9707 84.6473 22.0351 84.6835 22.0552 84.6352C22.5579 83.4286 23.8771 82.8455 25.0676 82.6001C25.8636 82.4491 26.6793 82.4328 27.4807 82.5519C27.5348 82.9192 27.625 83.2802 27.7502 83.6297C27.899 84.1325 28.0438 84.6352 28.1966 85.1339C28.5023 86.1354 28.8361 87.1449 29.1337 88.1303C29.1337 88.1388 29.1371 88.147 29.1431 88.153C29.1492 88.159 29.1574 88.1624 29.1659 88.1624C29.1744 88.1624 29.1826 88.159 29.1886 88.153C29.1947 88.147 29.1981 88.1388 29.1981 88.1303C28.9487 87.1288 28.7355 86.1193 28.4942 85.1138C28.3776 84.6232 28.2529 84.1325 28.1323 83.6418C28.0622 83.299 27.9722 82.9606 27.8628 82.6283C28.3325 82.7102 28.7971 82.8189 29.2544 82.9541C30.0769 83.2003 30.8829 83.4985 31.6675 83.8469C31.7439 84.3537 31.8606 84.8564 31.9772 85.3592C32.122 85.9866 32.2869 86.61 32.484 87.2253C32.4863 87.2315 32.4904 87.2368 32.4958 87.2405C32.5012 87.2443 32.5076 87.2463 32.5141 87.2463C32.5207 87.2463 32.5271 87.2443 32.5325 87.2405C32.5379 87.2368 32.542 87.2315 32.5443 87.2253L32.5202 87.1087C32.3995 86.5255 32.2708 85.9423 32.1461 85.3592C32.0496 84.8886 31.9571 84.418 31.8565 83.9515C32.5243 84.2482 33.1767 84.5784 33.8112 84.9409C33.8112 85.0857 33.8595 85.2345 33.8796 85.3672C33.9198 85.6085 33.964 85.8539 34.0083 86.0992C34.1088 86.6462 34.2174 87.1972 34.3501 87.7401C34.5928 88.7918 34.9004 89.8274 35.2711 90.841C35.2666 90.8467 35.2641 90.8538 35.2641 90.8611C35.2641 90.8684 35.2666 90.8755 35.2711 90.8812L35.3033 90.9174C35.3275 90.9456 35.3636 90.9174 35.3556 90.8853C35.1103 89.8275 34.8247 88.7778 34.5914 87.72C34.4788 87.1891 34.3622 86.6582 34.2536 86.1113C34.2013 85.8458 34.1531 85.5804 34.1008 85.3069L34.0646 85.0696C34.7867 85.4927 35.4837 85.9573 36.1519 86.4612C37.3092 87.3278 38.38 88.3043 39.3494 89.377C39.3856 89.4213 39.462 89.377 39.4258 89.3127C39.0278 88.7723 38.6022 88.2528 38.1508 87.7562C37.8814 87.4666 37.5998 87.1851 37.3143 86.9116H37.4028C37.6561 86.9559 37.9055 86.9921 38.1589 87.0242C38.6536 87.0926 39.1523 87.1409 39.651 87.1972C39.7234 87.2052 39.7395 87.1449 39.6952 87.1449Z" fill="#263238"/>
<path d="M35.9312 89.5583C35.9312 89.498 35.9312 89.4336 35.899 89.3733C35.8668 89.313 35.8467 89.2205 35.8347 89.14C35.7261 88.6614 35.6336 88.1828 35.5451 87.7002C35.5451 87.668 35.4888 87.676 35.4888 87.7002C35.5214 88.3385 35.6573 88.9674 35.891 89.5623C35.891 89.5824 35.9352 89.5623 35.9312 89.5623V89.5583Z" fill="#263238"/>
<path d="M31.4427 89.4418C31.4427 89.4418 31.4427 89.4097 31.4106 89.4097C31.2577 88.7782 31.1129 88.1468 30.9842 87.5113C30.9159 87.1775 30.8475 86.8437 30.7831 86.5099C30.747 86.3289 30.7148 86.1479 30.6826 85.9669C30.6686 85.8075 30.6292 85.6514 30.566 85.5044C30.5637 85.4982 30.5596 85.4929 30.5542 85.4892C30.5488 85.4854 30.5424 85.4834 30.5358 85.4834C30.5292 85.4834 30.5228 85.4854 30.5174 85.4892C30.512 85.4929 30.5079 85.4982 30.5056 85.5044C30.5014 85.8286 30.5475 86.1515 30.6424 86.4616C30.7067 86.8075 30.7751 87.1574 30.8515 87.5033C31.0084 88.2071 31.1813 88.9069 31.3824 89.5987C31.3849 89.6058 31.3895 89.6119 31.3956 89.6163C31.4018 89.6206 31.4091 89.623 31.4166 89.623C31.4241 89.623 31.4314 89.6206 31.4376 89.6163C31.4437 89.6119 31.4483 89.6058 31.4508 89.5987L31.4427 89.4418Z" fill="#263238"/>
<path d="M39.2289 85.0819C38.2476 84.9492 37.2702 84.8084 36.2889 84.6797C36.2487 84.6797 36.2326 84.74 36.2889 84.744C37.2662 84.8888 38.2476 85.0095 39.2289 85.1462C39.2289 85.1543 39.249 85.0899 39.2289 85.0819Z" fill="#263238"/>
<path d="M22.3578 65.4269C22.3578 65.4269 19.0759 51.0365 34.5401 45.2087C34.5401 45.2087 38.8275 64.1559 22.3578 65.4269Z" fill="#00AAFF"/>
<path d="M25.6949 57.266L25.8598 57.1655L26.7366 56.6748L28.5304 55.6733C29.7088 55.0097 30.8751 54.326 32.0616 53.6624C32.1018 53.6624 32.0616 53.586 32.0294 53.6061C30.8228 54.2536 29.6163 54.8609 28.4298 55.4924L26.6561 56.4295L25.9322 56.8317C26.447 55.8543 26.998 54.8971 27.6053 53.9721C28.4097 52.7374 29.2985 51.5589 30.2196 50.4167C30.2292 50.4066 30.2343 50.393 30.234 50.3791C30.2336 50.3651 30.2277 50.3519 30.2175 50.3423C30.2074 50.3327 30.1939 50.3275 30.1799 50.3279C30.166 50.3283 30.1527 50.3342 30.1431 50.3443C28.7852 51.6619 27.5853 53.1331 26.5677 54.7282C26.5677 54.6759 26.5677 54.6236 26.5677 54.5754C26.5677 54.2174 26.5958 53.8595 26.5998 53.5015C26.5998 52.7977 26.5757 52.0938 26.5998 51.394C26.5998 51.3498 26.5355 51.3538 26.5315 51.394C26.5033 52.0858 26.4189 52.7776 26.3786 53.4693C26.3786 53.8112 26.3465 54.1571 26.3344 54.503C26.3344 54.688 26.3344 54.9052 26.3344 55.1063C26.018 55.613 25.7137 56.1265 25.4214 56.6466C24.9031 57.5849 24.4411 58.5533 24.0379 59.5464C24.0379 59.1885 24.0017 58.8305 23.9816 58.4726C23.9333 57.6682 23.8408 56.9 23.8046 56.1117C23.8046 56.1032 23.8012 56.095 23.7952 56.089C23.7892 56.0829 23.781 56.0796 23.7724 56.0796C23.7639 56.0796 23.7557 56.0829 23.7497 56.089C23.7437 56.095 23.7403 56.1032 23.7403 56.1117C23.7403 56.9161 23.7403 57.6883 23.7403 58.4766C23.7403 58.8788 23.7644 59.281 23.7885 59.659C23.7885 59.8038 23.7885 59.9526 23.8167 60.0974C23.325 61.3841 22.935 62.7073 22.6503 64.055C22.3821 65.4931 22.1901 66.9443 22.0752 68.4027C22.0752 68.4027 22.0752 68.4027 22.0752 68.4027C22.2311 67.0908 22.5002 65.795 22.8796 64.5296C23.0686 63.8499 23.2818 63.1742 23.4909 62.5186C24.1344 62.217 24.7498 61.8389 25.3691 61.493L27.3117 60.4313C28.6027 59.7234 29.8898 59.0035 31.221 58.3801C31.2572 58.3801 31.221 58.3037 31.1848 58.3238C29.8375 58.9311 28.4781 59.5303 27.1629 60.1779C26.5033 60.5117 25.8558 60.8656 25.2123 61.2276C24.6774 61.5292 24.1223 61.8309 23.6035 62.1808C23.7523 61.7303 23.9092 61.2839 24.0821 60.8455C24.5567 59.6249 25.095 58.4301 25.6949 57.266Z" fill="#263238"/>
<path d="M24.3926 53.9723C24.3901 53.9652 24.3855 53.959 24.3794 53.9547C24.3732 53.9503 24.3659 53.948 24.3584 53.948C24.3509 53.948 24.3436 53.9503 24.3374 53.9547C24.3313 53.959 24.3267 53.9652 24.3242 53.9723C24.3805 54.7767 24.4087 55.6132 24.4972 56.4337C24.4972 56.4433 24.501 56.4525 24.5078 56.4593C24.5146 56.4661 24.5238 56.4699 24.5334 56.4699C24.543 56.4699 24.5522 56.4661 24.559 56.4593C24.5657 56.4525 24.5696 56.4433 24.5696 56.4337C24.5414 55.6132 24.4529 54.7968 24.3926 53.9723Z" fill="#263238"/>
<path d="M31.8053 56.723C30.84 57.1252 29.8627 57.4832 28.8974 57.8853C28.8733 57.8853 28.8974 57.9417 28.8974 57.9296C29.8748 57.5636 30.836 57.1654 31.8093 56.7874C31.8656 56.7713 31.8455 56.7069 31.8053 56.723Z" fill="#263238"/>
<path d="M33.277 50.0835C32.3303 50.5179 31.4115 51.0109 30.5261 51.5596C30.5197 51.5666 30.5157 51.5756 30.5148 51.5851C30.514 51.5946 30.5162 51.6041 30.5211 51.6123C30.5261 51.6204 30.5336 51.6267 30.5424 51.6303C30.5513 51.6338 30.5611 51.6344 30.5703 51.632C31.4672 51.1051 32.3802 50.6024 33.3092 50.1398C33.3494 50.1439 33.3132 50.0674 33.277 50.0835Z" fill="#263238"/>
<path d="M33.0397 96.5527H10.7383V120.061H33.0397V96.5527Z" fill="#455A64"/>
<path d="M10.3478 104.874H9.20557V145.141H10.3478V104.874Z" fill="#263238"/>
<path d="M34.4586 104.874H33.3164V145.141H34.4586V104.874Z" fill="#263238"/>
<path d="M23.0084 104.874H21.8662V145.141H23.0084V104.874Z" fill="#263238"/>
<path d="M33.8877 118.556H9.77637V121.81H33.8877V118.556Z" fill="#263238"/>
<path d="M122.737 131.989C122.737 131.989 122.737 149.311 122.737 149.323C122.737 152.633 122.709 155.537 122.544 157.037C122.546 157.041 122.547 157.045 122.547 157.049C122.547 157.053 122.546 157.058 122.544 157.061C122.544 157.417 122.461 157.768 122.302 158.087L122.282 158.107C121.301 158.779 94.8368 159.688 93.9037 159.406C92.9706 159.125 93.6905 156.446 94.7081 155.589C95.7256 154.733 105.688 149.858 105.688 149.858L105.853 132.544L122.737 131.989Z" fill="#AD6359"/>
<path d="M122.733 145.764V149.323C122.733 152.633 122.705 155.537 122.54 157.037C122.542 157.041 122.543 157.045 122.543 157.049C122.543 157.054 122.542 157.058 122.54 157.061C122.499 157.411 122.418 157.755 122.299 158.087L122.279 158.107C121.297 158.779 94.8333 159.688 93.9003 159.406C92.9672 159.125 93.6871 156.446 94.7046 155.589C95.7222 154.733 105.684 149.858 105.684 149.858L105.636 146.238L122.733 145.764Z" fill="#C7C7C7"/>
<path d="M93.9 159.406C94.8331 159.687 121.297 158.782 122.283 158.107C122.661 157.857 122.753 153.992 122.733 149.323V149.174L105.652 149.576L105.672 149.866C105.672 149.866 95.6978 154.744 94.6923 155.601C93.6869 156.458 92.9629 159.136 93.9 159.406Z" fill="#263238"/>
<path d="M94.1611 158.373C98.6214 158.107 116.623 157.472 121.048 157.568C121.084 157.568 121.084 157.593 121.048 157.597C116.623 157.951 98.6295 158.445 94.1652 158.461C94.0727 158.445 94.0686 158.377 94.1611 158.373Z" fill="#455A64"/>
<path d="M104.232 149.959C105.977 149.557 108.133 149.766 109.516 150.972C109.573 151.02 109.516 151.093 109.448 151.077C107.751 150.594 106.008 150.293 104.248 150.18C104.221 150.177 104.197 150.165 104.178 150.146C104.16 150.127 104.149 150.102 104.147 150.076C104.145 150.05 104.152 150.023 104.168 150.002C104.183 149.981 104.206 149.965 104.232 149.959Z" fill="#455A64"/>
<path d="M102.994 150.767C104.735 150.365 106.895 150.574 108.278 151.781C108.331 151.825 108.278 151.901 108.206 151.885C106.509 151.401 104.766 151.101 103.006 150.988C102.979 150.985 102.955 150.973 102.937 150.953C102.919 150.934 102.909 150.909 102.907 150.883C102.906 150.856 102.914 150.83 102.93 150.809C102.945 150.788 102.968 150.773 102.994 150.767Z" fill="#455A64"/>
<path d="M101.751 151.572C103.497 151.17 105.652 151.383 107.036 152.585C107.092 152.634 107.036 152.71 106.967 152.694C105.271 152.21 103.528 151.908 101.767 151.793C101.741 151.79 101.716 151.779 101.698 151.76C101.679 151.741 101.668 151.716 101.666 151.689C101.664 151.663 101.672 151.637 101.687 151.615C101.703 151.594 101.725 151.578 101.751 151.572Z" fill="#455A64"/>
<path d="M124.253 67.7713L124.237 68.9175L123.589 119.537L123.585 119.73L123.203 150.051L104.678 149.681L108.254 67.8316L108.302 66.7377L108.483 57.2419H124.128L124.253 67.7713Z" fill="#455A64"/>
<path d="M105.455 146.592C108.346 146.564 107.514 146.532 110.406 146.54C111.821 146.54 121.124 146.576 122.443 146.809C122.471 146.809 122.471 146.866 122.443 146.87C121.116 147.071 111.817 146.87 110.402 146.845C107.51 146.785 108.342 146.769 105.451 146.677C105.442 146.673 105.434 146.667 105.429 146.66C105.424 146.652 105.421 146.642 105.421 146.633C105.422 146.623 105.425 146.614 105.431 146.607C105.437 146.6 105.445 146.594 105.455 146.592Z" fill="#263238"/>
<path d="M113.752 73.0959C113.752 73.0874 113.748 73.0792 113.742 73.0731C113.736 73.0671 113.728 73.0637 113.72 73.0637C113.711 73.0637 113.703 73.0671 113.697 73.0731C113.691 73.0792 113.687 73.0874 113.687 73.0959C113.687 77.9423 113.49 80.6571 113.374 85.4995C113.257 90.3418 113.116 95.1842 112.972 100.023C112.71 109.703 112.32 119.376 111.962 129.053C111.761 134.48 111.51 139.904 111.21 145.325C111.21 145.333 111.213 145.34 111.218 145.345C111.223 145.35 111.231 145.353 111.238 145.353C111.246 145.353 111.253 145.35 111.258 145.345C111.263 145.34 111.266 145.333 111.266 145.325C111.97 135.673 112.642 125.988 113.028 116.307C113.414 106.627 113.687 96.9498 113.732 87.2691C113.772 81.8355 113.74 78.5295 113.752 73.0959Z" fill="#263238"/>
<path d="M124.249 67.7713L123.589 119.537L111.174 57.2419H124.124L124.249 67.7713Z" fill="#263238"/>
<path d="M143.515 131.052C143.515 131.052 145.847 148.213 145.847 148.225C146.314 151.507 146.652 154.391 146.7 155.899C146.7 155.899 146.7 155.899 146.7 155.923C146.747 156.274 146.714 156.632 146.603 156.969C146.603 156.977 146.603 156.985 146.603 156.993C145.719 157.797 119.616 162.262 118.655 162.109C117.694 161.956 118.048 159.205 118.921 158.219C119.793 157.234 129.028 151.06 129.028 151.06L126.856 133.883L143.515 131.052Z" fill="#AD6359"/>
<path d="M145.369 144.702C145.369 144.702 145.847 148.213 145.847 148.225C146.314 151.507 146.652 154.391 146.7 155.899C146.7 155.899 146.7 155.899 146.7 155.923C146.707 156.274 146.675 156.625 146.603 156.969C146.603 156.977 146.603 156.985 146.603 156.993C145.719 157.797 119.616 162.262 118.655 162.109C117.694 161.956 118.048 159.205 118.921 158.22C119.793 157.234 129.028 151.061 129.028 151.061L128.477 147.473L145.369 144.702Z" fill="#C7C7C7"/>
<path d="M118.639 162.109C119.604 162.262 145.702 157.794 146.587 156.993C146.929 156.692 146.499 152.855 145.847 148.226L145.823 148.081L128.955 150.775L129.011 151.061C129.011 151.061 119.785 157.239 118.904 158.224C118.024 159.209 117.658 161.952 118.639 162.109Z" fill="#263238"/>
<path d="M118.759 161.047C123.143 160.186 140.879 157.126 145.303 156.623C145.34 156.623 145.344 156.643 145.303 156.651C140.98 157.6 123.207 160.516 118.783 161.136C118.678 161.148 118.666 161.067 118.759 161.047Z" fill="#455A64"/>
<path d="M127.603 151.354C129.28 150.735 131.444 150.638 132.976 151.644C133.037 151.684 132.976 151.768 132.92 151.76C131.174 151.508 129.407 151.445 127.647 151.571C127.621 151.572 127.595 151.563 127.575 151.547C127.554 151.53 127.54 151.507 127.534 151.481C127.529 151.455 127.533 151.428 127.546 151.405C127.558 151.382 127.579 151.364 127.603 151.354Z" fill="#455A64"/>
<path d="M126.481 152.32C128.158 151.7 130.321 151.604 131.854 152.613C131.914 152.649 131.854 152.734 131.798 152.726C130.052 152.476 128.284 152.412 126.525 152.537C126.498 152.537 126.473 152.529 126.452 152.512C126.431 152.496 126.417 152.472 126.412 152.447C126.407 152.421 126.411 152.394 126.423 152.371C126.436 152.347 126.456 152.329 126.481 152.32Z" fill="#455A64"/>
<path d="M125.363 153.289C127.04 152.669 129.2 152.573 130.736 153.578C130.796 153.619 130.736 153.703 130.68 153.695C128.934 153.441 127.166 153.378 125.407 153.506C125.381 153.506 125.355 153.498 125.334 153.481C125.314 153.465 125.3 153.442 125.294 153.416C125.289 153.39 125.293 153.363 125.306 153.34C125.318 153.317 125.338 153.298 125.363 153.289Z" fill="#455A64"/>
<path d="M110.076 57.2258C110.145 57.5476 111.238 62.6232 112.373 66.983C113.197 70.1683 114.046 72.9676 114.532 73.2571C115.083 73.5829 117.77 74.7734 118.671 75.1474L122.785 114.494L128.348 150.924L146.535 148.109L133.592 68.3786L131.485 57.2258H110.076Z" fill="#455A64"/>
<path d="M128.456 147.268C131.312 146.81 130.467 146.898 133.347 146.464C134.746 146.255 143.948 144.891 145.288 144.927C145.316 144.927 145.324 144.976 145.288 144.984C144.009 145.386 134.783 146.593 133.379 146.769C130.511 147.14 131.332 147.003 128.46 147.345C128.453 147.341 128.447 147.336 128.443 147.329C128.439 147.323 128.437 147.315 128.436 147.308C128.436 147.3 128.437 147.292 128.441 147.285C128.444 147.278 128.45 147.272 128.456 147.268Z" fill="#263238"/>
<path d="M138.973 136.388C138.519 133.863 138.068 131.337 137.602 128.811C136.671 123.76 135.733 118.709 134.786 113.661C132.888 103.555 131.011 93.4411 129.156 83.3193C128.118 77.6082 128.142 78.1431 127.237 72.4038C127.237 72.3676 127.165 72.3717 127.173 72.4038C128.042 77.5036 127.631 76.3855 128.452 81.4933C129.272 86.6012 130.133 91.6004 131.038 96.6398C132.856 106.771 134.762 116.886 136.689 126.997C137.225 129.834 137.773 132.667 138.334 135.495C138.897 138.383 139.54 141.255 140.136 144.135C140.136 144.199 140.252 144.195 140.24 144.135C139.822 141.556 139.444 138.966 138.973 136.388Z" fill="#263238"/>
<path d="M133.974 72.782C133.491 72.6573 132.972 72.6171 132.482 72.5407C132.079 72.4763 131.677 72.4039 131.275 72.3195C130.518 72.1841 129.801 71.8818 129.176 71.4346C128.492 70.9038 128.142 70.0954 127.812 69.3191C127.614 68.8606 127.413 68.4021 127.209 67.9436L126.907 67.28C126.767 67.0195 126.642 66.7509 126.533 66.4756C126.533 66.4354 126.457 66.4756 126.473 66.4756C126.541 66.6636 126.598 66.8557 126.642 67.0508C126.71 67.272 126.771 67.4932 126.839 67.7144C126.964 68.1166 127.084 68.5188 127.213 68.921C127.409 69.6466 127.691 70.346 128.054 71.0043C128.786 72.1626 130.089 72.6332 131.392 72.7981C131.766 72.8423 132.144 72.8705 132.522 72.8906C132.996 72.9328 133.472 72.9328 133.946 72.8906C133.957 72.8877 133.967 72.8819 133.975 72.8738C133.983 72.8657 133.989 72.8556 133.991 72.8445C133.994 72.8335 133.994 72.8218 133.991 72.8109C133.988 72.7999 133.982 72.7899 133.974 72.782Z" fill="#263238"/>
<path d="M113.105 72.5615C115.023 73.2582 116.876 74.1222 118.643 75.1435C118.658 75.1505 118.669 75.1631 118.675 75.1785C118.68 75.194 118.68 75.2111 118.673 75.226C118.666 75.2409 118.653 75.2525 118.638 75.2582C118.622 75.2638 118.605 75.2631 118.59 75.2562C116.724 74.4518 114.822 73.6876 113.004 72.7867C112.979 72.7706 112.96 72.7461 112.952 72.7174C112.943 72.6888 112.945 72.658 112.957 72.6307C112.969 72.6034 112.991 72.5814 113.018 72.5687C113.045 72.556 113.076 72.5534 113.105 72.5615Z" fill="#263238"/>
<path d="M112.541 59.7957C112.541 59.7313 112.662 59.7152 112.662 59.7957C112.661 61.8776 112.765 63.9583 112.976 66.0296C113.06 66.9909 113.832 72.2998 115.502 71.9137C115.779 71.8493 115.904 71.5718 115.964 71.1535C115.958 70.6035 115.884 70.0564 115.743 69.5247C115.558 68.4106 115.409 67.2965 115.317 66.1744C115.12 64.0837 115.143 61.9782 115.385 59.8922C115.385 59.8783 115.39 59.865 115.4 59.8552C115.41 59.8454 115.423 59.8399 115.437 59.8399C115.451 59.8399 115.464 59.8454 115.474 59.8552C115.484 59.865 115.489 59.8783 115.489 59.8922C115.443 62.7925 115.612 65.6923 115.996 68.5674C116.205 69.947 116.901 72.0263 115.457 72.2394C114.013 72.4526 113.044 68.9737 112.855 68.0205C112.394 65.3041 112.289 62.5393 112.541 59.7957Z" fill="#263238"/>
<path d="M115.457 72.0344C115.604 72.3938 115.729 72.7619 115.831 73.1364C115.939 73.4258 115.992 73.7326 115.988 74.0413C115.986 74.0539 115.98 74.0655 115.971 74.0746C115.962 74.0837 115.95 74.09 115.938 74.0926C115.925 74.0951 115.912 74.094 115.9 74.0891C115.889 74.0843 115.878 74.0761 115.871 74.0655C115.692 73.7948 115.556 73.4976 115.469 73.1847C115.34 72.8468 115.208 72.505 115.091 72.1631C115.074 72.1146 115.077 72.0613 115.099 72.0149C115.121 71.9685 115.161 71.9328 115.21 71.9158C115.258 71.8987 115.312 71.9016 115.358 71.9239C115.404 71.9461 115.44 71.9859 115.457 72.0344Z" fill="#263238"/>
<path d="M133.781 69.5486C131.577 69.4038 108.302 66.7333 108.302 66.7333L108.483 57.2375H110.092H131.5L133.608 68.3903L133.781 69.5486Z" fill="#263238"/>
<path d="M117.48 35.4308C114.818 43.7642 110.309 52.3671 109.006 54.0603C105.511 58.6131 95.0097 63.0975 91.8043 63.6767C90.4167 63.926 87.0906 54.9773 87.9513 53.7466C88.812 52.5159 101.863 47.5287 102.503 46.8651C102.945 46.4026 108.451 39.308 112.155 35.0287C116.784 29.7077 118.18 33.251 117.48 35.4308Z" fill="#AD6359"/>
<path d="M90.7383 52.0093L95.8944 62.4663C95.8944 62.4663 106.854 57.7164 109.464 54.3259C112.074 50.9355 116.804 39.4449 117.508 35.7849C118.212 32.125 116.997 29.5108 112.095 34.8599C107.192 40.209 103.13 45.5381 102.253 46.4309C101.376 47.3238 90.7383 52.0093 90.7383 52.0093Z" fill="#EBEBEB"/>
<path d="M91.1724 51.4783L97.35 62.3133C97.35 62.3133 107.003 57.7002 109.464 54.6717C111.925 51.6432 115.983 42.3446 117.254 37.3252C118.525 32.3059 117.781 28.7465 112.098 34.888C106.415 41.0294 103.202 45.4897 102.044 46.4911C101.493 46.9255 91.1724 51.4783 91.1724 51.4783Z" fill="#37474F"/>
<path d="M93.7746 52.4796C94.0878 52.4796 94.3417 52.2257 94.3417 51.9125C94.3417 51.5993 94.0878 51.3455 93.7746 51.3455C93.4614 51.3455 93.2075 51.5993 93.2075 51.9125C93.2075 52.2257 93.4614 52.4796 93.7746 52.4796Z" fill="#263238"/>
<path d="M96.4499 51.2489C96.7631 51.2489 97.017 50.995 97.017 50.6818C97.017 50.3686 96.7631 50.1147 96.4499 50.1147C96.1367 50.1147 95.8828 50.3686 95.8828 50.6818C95.8828 50.995 96.1367 51.2489 96.4499 51.2489Z" fill="#263238"/>
<path d="M117.255 37.309C115.984 42.3284 111.93 51.6109 109.465 54.6555C108.411 55.9546 106.054 57.5392 103.693 58.9308L116.133 31.6864C118.06 31.1636 118.12 33.8985 117.255 37.309Z" fill="#263238"/>
<path d="M134.995 65.5633C134.931 65.6356 107.107 65.7201 106.842 65.4346C106.484 65.0324 112.77 34.8681 115.626 31.1639C116.233 30.3595 118.248 30.1464 119.961 30.3595C120.408 30.4099 120.85 30.5001 121.28 30.629H121.329C121.676 30.7315 122.004 30.8919 122.298 31.1036C127.06 34.9083 131.074 48.2087 132.011 52.2025C133.579 58.7944 135.224 65.3018 134.995 65.5633Z" fill="#EBEBEB"/>
<path d="M122.218 30.7493C122.218 30.7493 119.954 43.0965 119.56 46.306C119.166 49.5155 119.745 66.4678 119.745 66.4678L137.216 67.7588C137.216 67.7588 133.439 56.5377 133.395 55.8258C133.395 55.8258 130.258 42.3846 127.318 36.7701C126.034 34.445 124.3 32.3984 122.218 30.7493Z" fill="#37474F"/>
<path d="M137.216 67.7588L129.292 67.1716L123.638 31.9919V32.0161L127.185 36.5608C127.225 36.6332 127.265 36.7056 127.302 36.778C130.242 42.4087 133.379 55.8338 133.379 55.8338C133.439 56.5376 137.216 67.7588 137.216 67.7588Z" fill="#263238"/>
<path d="M115.457 31.0188C115.457 31.0188 113.603 43.5229 113.402 44.5565C113.201 45.5902 110.393 65.9812 110.393 65.9812L106.021 66.118L108.302 56.7952C108.302 56.7952 113.374 33.6813 115.457 31.0188Z" fill="#37474F"/>
<path d="M118.011 37.8802L116.773 35.467L115.172 37.2126L115.566 38.95L117.143 39.1551L118.011 37.8802Z" fill="#263238"/>
<path d="M117.143 39.1551L117.899 56.9078L114.573 62.7797L112.843 56.1718L115.566 38.95L117.143 39.1551Z" fill="#263238"/>
<path d="M116.446 88.22L116.424 109.07L150.835 109.106L150.857 88.2561L116.446 88.22Z" fill="#00AAFF"/>
<path opacity="0.1" d="M116.444 88.2228L116.434 98.0403L150.845 98.0763L150.855 88.2589L116.444 88.2228Z" fill="black"/>
<path d="M115.624 94.8802L151.665 94.918L151.675 85.189L115.634 85.1512L115.624 94.8802Z" fill="#00AAFF"/>
<path d="M126.071 79.6152L126.063 85.1614L128.673 85.1655L128.677 82.0083L138.631 82.0203L138.627 85.1775H141.238L141.242 79.6273L126.071 79.6152Z" fill="#263238"/>
<path d="M144.364 97.2302L146.712 97.2327L146.717 92.5833L144.368 92.5809L144.364 97.2302Z" fill="#263238"/>
<path d="M120.567 97.2107L122.916 97.2131L122.92 92.5638L120.572 92.5614L120.567 97.2107Z" fill="#263238"/>
<path d="M126.063 34.4577C133.825 41.5 138.752 51.5588 139.086 53.5899C139.89 58.5006 140.908 67.1075 140.735 70.8841C140.67 72.2837 130.064 70.5864 130.085 69.0903C130.153 64.4088 129.53 54.1127 129.501 53.9317C129.312 52.6729 127.004 47.0141 124.675 40.8766C122.346 34.7392 122.797 31.5016 126.063 34.4577Z" fill="#AD6359"/>
<path d="M128.966 83.7623C129.276 83.9029 129.621 83.9456 129.955 83.8845C130.289 83.8234 130.597 83.6614 130.836 83.4204C131.139 83.912 131.604 84.282 132.152 84.4661C133.129 84.7476 133.998 83.3359 133.998 83.3359C134.419 83.7806 134.964 84.0888 135.562 84.2208C136.523 84.3937 137.605 83.0946 137.605 83.0946C138.217 83.2873 138.877 83.2559 139.467 83.0061C140.469 82.5356 141.318 79.6639 141.527 78.0109C141.736 76.3579 140.775 71.4713 140.686 70.5221L130.084 69.0984C130.084 69.0984 127.044 76.2493 127.076 78.2281C127.104 79.9052 127.8 83.1831 128.966 83.7623Z" fill="#AD6359"/>
<path d="M130.676 83.3237C130.221 81.558 130.314 79.7522 130.306 77.9504C130.306 77.9419 130.309 77.9337 130.315 77.9276C130.321 77.9216 130.33 77.9182 130.338 77.9182C130.347 77.9182 130.355 77.9216 130.361 77.9276C130.367 77.9337 130.37 77.9419 130.37 77.9504C130.37 79.7442 130.7 81.5178 130.772 83.3116C130.774 83.3244 130.771 83.3373 130.763 83.3475C130.755 83.3577 130.743 83.3643 130.73 83.3659C130.717 83.3675 130.705 83.3639 130.694 83.356C130.684 83.3481 130.678 83.3365 130.676 83.3237Z" fill="#263238"/>
<path d="M133.866 83.284C133.801 82.8729 133.79 82.4551 133.834 82.0412C133.834 81.6028 133.882 81.1604 133.918 80.722C133.988 79.8426 134.078 78.9658 134.188 78.0917C134.188 78.0515 134.252 78.0515 134.248 78.0917C134.184 78.9685 134.132 79.8452 134.099 80.722C134.099 81.1644 134.075 81.6028 134.067 82.0412C134.085 82.4571 134.058 82.8738 133.987 83.284C133.982 83.2963 133.974 83.3069 133.963 83.3144C133.952 83.3219 133.94 83.3259 133.926 83.3259C133.913 83.3259 133.9 83.3219 133.89 83.3144C133.879 83.3069 133.871 83.2963 133.866 83.284Z" fill="#263238"/>
<path d="M137.606 83.0581C137.554 82.6849 137.565 82.3057 137.638 81.936C137.678 81.5338 137.714 81.1316 137.75 80.7294C137.823 79.9251 137.891 79.1207 137.931 78.3163C137.931 78.2761 137.996 78.2761 137.996 78.3163C137.956 79.1207 137.927 79.9492 137.883 80.7656L137.811 81.9722C137.819 82.3397 137.764 82.7058 137.646 83.0541C137.644 83.0577 137.641 83.0607 137.638 83.063C137.635 83.0652 137.631 83.0666 137.627 83.067C137.623 83.0674 137.619 83.0668 137.615 83.0653C137.611 83.0637 137.608 83.0612 137.606 83.0581Z" fill="#263238"/>
<path d="M129.566 69.1466L141.322 69.7821C141.322 69.7821 140.453 56.912 139.52 53.3365C138.587 49.7611 130.623 37.8441 125.922 33.5246C121.498 29.4585 121.498 32.8409 123.175 37.6069C124.852 42.3728 129.003 53.8916 129.143 54.7321C129.284 55.5727 129.566 69.1466 129.566 69.1466Z" fill="#37474F"/>
<path d="M130.093 66.7735C130.543 66.7333 130.998 66.7735 131.448 66.7735C131.899 66.7735 132.349 66.7936 132.8 66.8137C133.668 66.8499 134.537 66.9022 135.406 66.9585L138.008 67.1314C138.905 67.1918 139.822 67.2079 140.711 67.3406C140.717 67.3429 140.722 67.347 140.726 67.3524C140.73 67.3578 140.732 67.3642 140.732 67.3707C140.732 67.3773 140.73 67.3837 140.726 67.3891C140.722 67.3945 140.717 67.3986 140.711 67.4009C139.814 67.4371 138.901 67.3567 138.004 67.3245L135.35 67.2159C134.465 67.1757 133.58 67.1314 132.695 67.0751C132.261 67.051 131.826 67.0188 131.396 66.9706C130.966 66.9223 130.515 66.9183 130.089 66.8338C130.049 66.8258 130.061 66.7775 130.093 66.7735Z" fill="#263238"/>
<path d="M117.191 35.1454C117.649 35.1253 120.694 32.7322 121.615 30.8902C121.679 30.7615 121.442 29.4504 121.233 27.8456C121.108 26.8723 120.991 25.7824 120.959 24.7809C120.959 24.5758 120.268 24.978 120.268 24.978L118.981 25.3319L114.733 26.5144C115.133 27.7544 115.379 29.0391 115.465 30.3392C115.47 30.4739 115.461 30.6087 115.437 30.7414C115.439 30.7642 115.439 30.787 115.437 30.8098C115.345 31.6021 116.451 35.1735 117.191 35.1454Z" fill="#AD6359"/>
<path d="M115.453 30.7493C115.455 30.7721 115.455 30.7949 115.453 30.8177C115.668 30.8381 115.885 30.8381 116.101 30.8177C120.324 30.5844 120.674 25.187 120.674 25.187L119.004 25.3157L114.757 26.4982C115.157 27.7382 115.403 29.0228 115.489 30.323C115.493 30.466 115.481 30.609 115.453 30.7493Z" fill="#263238"/>
<path d="M120.803 16.2944C121.816 18.3898 121.647 24.9295 120.3 26.5905C118.353 29.0037 114.669 29.7718 112.498 27.3145C110.394 24.9375 110.768 16.4191 112.317 14.8465C114.597 12.5621 119.307 13.1976 120.803 16.2944Z" fill="#AD6359"/>
<path d="M115.196 21.0647C115.196 21.0647 115.228 21.0647 115.228 21.1049C115.204 21.5433 115.252 22.0541 115.63 22.2069C115.63 22.2069 115.63 22.2351 115.63 22.2311C115.159 22.1546 115.103 21.479 115.196 21.0647Z" fill="#263238"/>
<path d="M115.597 20.6141C116.305 20.5739 116.334 21.9977 115.674 22.0338C115.014 22.07 115.002 20.6463 115.597 20.6141Z" fill="#263238"/>
<path d="M112.646 21.1855C112.646 21.1855 112.613 21.2057 112.613 21.2258C112.633 21.6642 112.585 22.1749 112.187 22.3278V22.3519C112.678 22.2715 112.738 21.5877 112.646 21.1855Z" fill="#263238"/>
<path d="M112.244 20.7269C111.536 20.6867 111.504 22.1104 112.164 22.1466C112.823 22.1828 112.832 20.7832 112.244 20.7269Z" fill="#263238"/>
<path d="M116.149 19.9545C115.952 19.9063 115.779 19.8339 115.594 19.7695C115.388 19.733 115.201 19.6281 115.063 19.4719C115.029 19.4154 115.014 19.3489 115.022 19.2832C115.03 19.2175 115.06 19.1564 115.107 19.1099C115.212 19.0293 115.337 18.9782 115.469 18.9619C115.6 18.9457 115.734 18.9648 115.855 19.0174C116.119 19.087 116.346 19.2518 116.495 19.4799C116.526 19.5338 116.54 19.5954 116.537 19.6574C116.533 19.7194 116.512 19.7791 116.476 19.8292C116.439 19.8794 116.389 19.9179 116.331 19.9402C116.273 19.9624 116.21 19.9674 116.149 19.9545Z" fill="#263238"/>
<path d="M111.68 20.023C111.871 19.9811 112.059 19.9288 112.243 19.8661C112.449 19.8375 112.639 19.7429 112.786 19.5967C112.824 19.5417 112.842 19.4759 112.837 19.4095C112.833 19.3432 112.806 19.2802 112.762 19.2307C112.661 19.1444 112.539 19.0869 112.408 19.0643C112.277 19.0416 112.142 19.0547 112.018 19.102C111.752 19.1582 111.517 19.3117 111.358 19.5323C111.325 19.5846 111.308 19.6454 111.308 19.7073C111.309 19.7693 111.327 19.8298 111.361 19.8817C111.395 19.9335 111.443 19.9744 111.5 19.9995C111.556 20.0245 111.619 20.0327 111.68 20.023Z" fill="#263238"/>
<path d="M113.856 24.379C114.045 24.6185 114.293 24.8043 114.576 24.918C114.732 24.9761 114.902 24.9846 115.063 24.9421C115.417 24.8415 115.417 24.5399 115.349 24.2423C115.309 24.1024 115.254 23.9674 115.184 23.8401C114.81 24.1562 114.345 24.3449 113.856 24.379Z" fill="#263238"/>
<path d="M114.576 24.9176C114.732 24.9758 114.902 24.9842 115.063 24.9418C115.417 24.8412 115.417 24.5396 115.348 24.2419C115.163 24.2528 114.986 24.3251 114.847 24.4475C114.707 24.5698 114.612 24.7352 114.576 24.9176Z" fill="#FF9ABB"/>
<path d="M111.415 17.0349C111.644 16.4718 111.914 15.9047 112.248 15.784C112.581 15.6634 112.819 16.4839 113.587 16.5201C114.62 16.5723 115.103 15.6151 116.547 15.4864C118.618 15.3014 119.563 17.0188 119.672 19.9628C119.765 22.5891 121.361 22.8063 121.361 22.8063C121.361 22.8063 122.214 16.9906 120.557 15.1003C118.9 13.21 115.119 12.4338 112.634 14.2959C111.713 14.9998 111.415 17.0349 111.415 17.0349Z" fill="#263238"/>
<path d="M120.013 21.797C120.013 21.797 121.176 19.5407 122.181 19.9268C123.187 20.3129 122.507 23.45 121.461 24.009C121.332 24.0894 121.188 24.1429 121.038 24.1662C120.888 24.1895 120.734 24.1822 120.587 24.1446C120.44 24.107 120.302 24.04 120.181 23.9476C120.06 23.8551 119.959 23.7392 119.885 23.6068L120.013 21.797Z" fill="#AD6359"/>
<path d="M121.965 20.8232C121.965 20.8232 121.989 20.8434 121.965 20.8514C121.237 21.2536 120.927 22.0338 120.758 22.8141C120.792 22.7304 120.844 22.6552 120.91 22.5936C120.976 22.5321 121.055 22.4857 121.14 22.4577C121.226 22.4297 121.317 22.4209 121.407 22.4317C121.496 22.4426 121.582 22.4729 121.659 22.5205C121.679 22.5205 121.659 22.5647 121.659 22.5647C121.518 22.5396 121.372 22.559 121.243 22.6203C121.113 22.6815 121.006 22.7816 120.935 22.9066C120.818 23.1155 120.723 23.3367 120.654 23.5662C120.63 23.6426 120.497 23.6225 120.513 23.538C120.344 22.5406 120.923 21.0646 121.965 20.8232Z" fill="#263238"/>
<path d="M115.433 30.9022L116.949 34.6265L121.55 29.9209L122.862 31.4251C122.862 31.4251 118.365 38.8817 118.337 38.5559L116.801 35.3625L114.601 37.5907L114.765 32.0042L115.433 30.9022Z" fill="#EBEBEB"/>
<path d="M114.525 34.8276C114.585 33.9066 114.617 32.9735 114.718 32.0565C114.718 32.0244 114.774 32.0123 114.782 32.0565C114.967 32.9454 114.726 36.4806 114.73 37.3132C114.822 37.2167 116.769 35.3545 116.789 35.3827C117.123 35.8894 118.249 38.198 118.325 38.4272C119.037 37.2408 121.76 32.9293 122.605 31.8072C122.61 31.8027 122.616 31.8 122.623 31.7994C122.63 31.7989 122.637 31.8005 122.643 31.8041C122.648 31.8077 122.653 31.813 122.655 31.8194C122.658 31.8257 122.659 31.8327 122.657 31.8394C122.041 33.0701 118.438 38.8817 118.382 38.8817C117.788 37.7836 117.251 36.656 116.773 35.5033C116.443 35.9055 114.476 38.017 114.468 37.8803C114.434 36.8624 114.453 35.8435 114.525 34.8276Z" fill="#263238"/>
<path d="M63.482 34.7393C68.5415 44.7257 73.6815 68.7485 74.1601 71.962C74.4859 74.1459 63.0034 76.1207 63.0034 74.6084C63.0034 72.6699 60.6868 49.9944 60.908 41.0336C61.0286 36.0907 62.4363 32.6761 63.482 34.7393Z" fill="#EB9481"/>
<path d="M62.9598 73.6513C62.7748 74.9665 63.2132 79.5233 64.0739 82.9017C64.4761 84.5507 66.1975 89.1558 67.4885 88.9346C68.7795 88.7134 68.3974 87.3258 68.3974 87.3258C68.3974 87.3258 69.411 89.1598 70.6859 88.8179C71.9609 88.4761 71.3053 86.3284 71.3053 86.3284C71.3053 86.3284 72.4797 88.1423 73.7184 87.7079C74.9572 87.2735 73.9396 85.2264 73.9396 85.2264C73.9396 85.2264 74.9411 86.9357 75.8179 86.1434C76.8756 85.1902 74.6797 82.2542 74.3096 80.4081C74.2252 80.0059 73.1996 71.7932 73.1996 71.7932L62.9598 73.6513Z" fill="#EB9481"/>
<path d="M73.9554 85.1979C72.3466 83.0342 72.0168 81.8075 71.8157 79.1651C71.8129 79.1561 71.8073 79.1482 71.7997 79.1426C71.7921 79.137 71.7829 79.134 71.7735 79.134C71.7641 79.134 71.7549 79.137 71.7473 79.1426C71.7397 79.1482 71.7341 79.1561 71.7313 79.1651C71.6951 81.7753 71.8881 83.372 73.8548 85.2905C73.9514 85.3749 74.0318 85.2985 73.9554 85.1979Z" fill="#263238"/>
<path d="M71.3373 86.4449C69.8612 84.0518 69.4912 82.7246 69.0729 79.9696C69.0729 79.9294 69.0005 79.9334 69.0046 79.9696C69.1855 82.7085 69.4067 84.2972 71.2045 86.4972C71.285 86.6017 71.4056 86.5535 71.3373 86.4449Z" fill="#263238"/>
<path d="M68.2797 87.1447C67.0208 84.7316 66.5543 83.2877 66.4939 80.5609C66.4908 80.55 66.4842 80.5403 66.4751 80.5335C66.4661 80.5266 66.455 80.5229 66.4437 80.5229C66.4323 80.5229 66.4212 80.5266 66.4122 80.5335C66.4031 80.5403 66.3965 80.55 66.3934 80.5609C66.1842 83.3481 66.7553 85.1458 68.2032 87.1809C68.3038 87.2976 68.3601 87.2815 68.2797 87.1447Z" fill="#263238"/>
<path d="M74.0879 71.3906C74.0879 71.3906 75.938 74.206 76.4769 75.6418C77.0159 77.0776 77.0762 83.0984 75.7731 83.1869C74.0919 83.2995 73.3599 79.8205 73.2393 78.071C73.2393 78.071 69.3461 78.3324 68.2923 75.9474C67.2386 73.5625 74.0879 71.3906 74.0879 71.3906Z" fill="#EB9481"/>
<path d="M75.303 83.0623C73.6942 82.0608 73.6701 79.7523 73.4167 78.0631C73.4141 78.0379 73.4055 78.0137 73.3916 77.9927C73.3776 77.9716 73.3588 77.9542 73.3367 77.9419C73.3145 77.9297 73.2898 77.9229 73.2645 77.9223C73.2392 77.9217 73.2142 77.9272 73.1915 77.9384C71.5546 77.9384 69.242 77.4638 68.2526 76.0481C68.2505 76.0426 68.2473 76.0377 68.2431 76.0336C68.2389 76.0295 68.2338 76.0264 68.2283 76.0245C68.2228 76.0225 68.2169 76.0218 68.2111 76.0224C68.2053 76.023 68.1997 76.0248 68.1946 76.0278C68.1896 76.0307 68.1853 76.0348 68.1819 76.0396C68.1786 76.0444 68.1764 76.0499 68.1754 76.0556C68.1744 76.0614 68.1747 76.0673 68.1762 76.0729C68.1777 76.0786 68.1805 76.0838 68.1842 76.0883C69.0369 77.7534 71.273 78.4049 73.0668 78.2883C73.3001 80.0217 73.4248 82.3383 75.2909 83.0784C75.303 83.0824 75.311 83.0703 75.303 83.0623Z" fill="#263238"/>
<path d="M75.2618 70.715L62.2187 72.726C62.2187 72.726 60.1394 48.5101 60.063 40.3818C59.9866 32.2536 62.9065 30.2627 66.0395 38.576C69.1726 46.8893 75.2618 70.715 75.2618 70.715Z" fill="#00AAFF"/>
<path d="M62.1551 70.6871C67.4922 69.4805 73.2797 69.0341 74.2852 68.8853C74.3335 68.8853 74.3375 68.9536 74.2852 68.9576C73.2958 69.0542 66.7321 70.2889 62.1551 70.7675C62.1189 70.7715 62.1149 70.6951 62.1551 70.6871Z" fill="#263238"/>
<path d="M91.0643 159.386C90.1594 159.68 63.6349 159.282 62.6616 158.642C62.545 158.57 62.5289 156.173 62.561 152.887L61.27 133.368L78.0534 133.417L79.3807 150.309C79.3807 150.309 83.1452 152.046 86.2501 153.566C87.6086 154.184 88.9288 154.882 90.2036 155.658C91.2051 156.494 91.9692 159.097 91.0643 159.386Z" fill="#EB9481"/>
<path d="M91.0642 159.386C90.1592 159.679 63.6348 159.281 62.6615 158.642C62.5448 158.569 62.5288 156.172 62.5609 152.886C69.1126 154.346 86.5838 156.711 87.0946 155.34C87.2997 154.789 86.8814 154.165 86.258 153.59C87.6165 154.207 88.9367 154.906 90.2115 155.681C91.2049 156.494 91.9691 159.096 91.0642 159.386Z" fill="#263238"/>
<path d="M54.1841 62.3296C54.1841 62.3296 58.938 112.772 59.0425 113.384C59.0425 113.464 59.0948 114.397 59.1391 115.913C59.4045 124.235 60.0561 150.184 60.0561 150.184H79.9967C79.9967 150.184 78.6976 119.449 77.9495 112.282C76.9963 103.132 71.1364 62.3296 71.1364 62.3296H54.1841Z" fill="#37474F"/>
<path d="M61.4186 115.089C60.8045 104.616 59.8809 94.1592 58.6475 83.7183C57.9477 77.8463 57.1031 71.9944 56.2665 66.1386C56.2665 66.0863 56.178 66.0903 56.1861 66.1386C57.7305 76.5593 58.8204 87.0525 59.7615 97.5537C60.7027 108.055 61.3703 118.532 61.7725 129.045C62.0178 134.998 62.2028 140.958 62.3919 146.914C62.3968 146.94 62.4105 146.963 62.4307 146.98C62.4509 146.997 62.4763 147.006 62.5025 147.006C62.5287 147.006 62.554 146.997 62.5742 146.98C62.5944 146.963 62.6081 146.94 62.6131 146.914C62.3476 136.313 62.042 125.695 61.4186 115.089Z" fill="#263238"/>
<path d="M78.7374 146.971C78.2145 146.902 77.6474 146.922 77.1286 146.906C76.5334 146.906 75.922 146.878 75.3348 146.858C74.1806 146.814 73.0222 146.782 71.868 146.765C69.5393 146.725 67.2066 146.741 64.8819 146.814L62.9594 146.882C62.2757 146.906 61.592 146.971 60.9083 146.967C60.86 146.967 60.86 147.027 60.9083 147.027C62.0786 147.027 63.2651 147.127 64.4395 147.172C65.6139 147.216 66.7481 147.232 67.9024 147.248C70.231 147.28 72.5678 147.248 74.8924 147.176C75.5319 147.152 76.1714 147.144 76.8109 147.123L77.8405 147.071C78.1462 147.071 78.4478 147.071 78.7535 147.043C78.7937 147.043 78.7897 146.979 78.7374 146.971Z" fill="#263238"/>
<path d="M68.5905 62.3296L59.4809 128.031C59.3522 123.133 59.2235 118.604 59.1391 115.913C59.0948 114.397 59.0586 113.464 59.0425 113.384C58.9299 112.772 54.1841 62.3296 54.1841 62.3296H68.5905Z" fill="#263238"/>
<path d="M57.6585 162.885C56.7094 162.809 32.3768 152.239 31.7253 151.274C31.6448 151.165 32.5297 148.945 33.8448 145.925L39.21 127.022L54.7346 133.252L50.3547 150.035C50.3547 150.035 53.1701 153.088 55.4465 155.666C56.4632 156.76 57.414 157.914 58.294 159.121C58.9013 160.267 58.6037 162.966 57.6585 162.885Z" fill="#EB9481"/>
<path d="M57.6585 162.885C56.7094 162.809 32.3768 152.239 31.7253 151.274C31.6448 151.166 32.5297 148.945 33.8448 145.925C39.3347 149.794 54.5496 158.691 55.5631 157.621C55.9653 157.194 55.8165 156.454 55.4626 155.682C56.4793 156.776 57.4301 157.93 58.3101 159.137C58.9013 160.267 58.6037 162.966 57.6585 162.885Z" fill="#263238"/>
<path d="M32.0991 143.978L51.5531 150.011C51.5531 150.011 61.0528 116.689 61.7808 108.863C62.5007 101.105 63.1965 85.2542 63.5062 73.7556C63.5062 73.7556 66.7559 71.8331 67.5804 70.7834C68.4049 69.7337 69.1449 65.9571 70.7697 62.3374H46.9681C41.2811 73.3856 45.5604 78.3003 45.5604 80.7095C45.5604 92.3408 43.8029 107.781 43.2438 110.069C42.0775 114.839 32.0991 143.978 32.0991 143.978Z" fill="#37474F"/>
<path d="M51.5084 145.755C51.0218 145.554 50.4708 145.43 49.964 145.273C49.3889 145.1 48.8097 144.939 48.2386 144.762C47.1366 144.42 46.0266 144.094 44.9165 143.781C42.6777 143.143 40.4227 142.555 38.1517 142.019L36.2775 141.589C35.6138 141.436 34.9341 141.319 34.2665 141.142C34.2142 141.142 34.2022 141.187 34.2665 141.203C35.4007 141.5 36.5188 141.906 37.6409 142.252C38.763 142.598 39.857 142.908 40.967 143.226C43.2072 143.857 45.4675 144.432 47.7359 144.959C48.3633 145.1 48.9827 145.257 49.6061 145.406L50.6075 145.627C50.9051 145.695 51.1947 145.792 51.4964 145.836C51.507 145.837 51.5179 145.835 51.5266 145.828C51.5352 145.822 51.541 145.812 51.5426 145.802C51.5442 145.791 51.5415 145.78 51.5351 145.772C51.5287 145.763 51.5191 145.757 51.5084 145.755Z" fill="#263238"/>
<path d="M68.1365 70.522C67.0007 71.044 65.9224 71.6829 64.919 72.4284C63.8532 73.1604 62.8718 74.001 61.8462 74.7852C61.806 74.8174 61.8463 74.8818 61.8865 74.8536C62.9684 74.1619 64.1025 73.5545 65.1724 72.8427C66.2466 72.191 67.2589 71.4425 68.1968 70.6065C68.225 70.5743 68.1888 70.5019 68.1365 70.522Z" fill="#263238"/>
<path d="M68.2839 63.8175C68.1471 64.5575 67.9661 65.2935 67.8053 66.0296C67.6444 66.7656 67.5438 67.4252 67.3628 68.1089C67.2132 68.7702 66.8768 69.3747 66.3936 69.8504C66.1241 70.1037 65.8225 70.3249 65.5329 70.5582C65.38 70.6829 65.2111 70.7995 65.0503 70.9282C65.0704 70.8277 65.0865 70.7312 65.1025 70.6266C65.1548 70.3491 65.2031 70.0675 65.2473 69.786C65.3519 69.1626 65.4524 68.5352 65.549 67.9118C65.738 66.6811 65.9109 65.4383 66.1683 64.2197C66.171 64.209 66.1693 64.1977 66.1637 64.1883C66.158 64.1789 66.1488 64.1721 66.1382 64.1694C66.1275 64.1668 66.1162 64.1684 66.1068 64.1741C66.0974 64.1798 66.0906 64.1889 66.0879 64.1996C65.7822 65.4062 65.4444 66.6127 65.179 67.8193C65.0462 68.4145 64.5797 71.3586 64.5596 71.5677C64.5395 71.7769 64.5194 71.9981 64.5113 72.2152C64.4852 72.4357 64.4852 72.6584 64.5113 72.8789C64.5113 72.9311 64.5918 72.9231 64.6119 72.8789C64.702 72.6747 64.7655 72.4597 64.8009 72.2394C64.8532 72.0302 64.9014 71.8171 64.9376 71.6039C64.9376 71.5275 64.9618 71.4471 64.9738 71.3666C65.2634 71.1897 65.5329 70.9644 65.8064 70.7633C66.0799 70.5622 66.3936 70.3611 66.6711 70.1118C67.1825 69.6802 67.5512 69.1039 67.7288 68.4588C67.9076 67.7639 68.0247 67.0547 68.0787 66.3392C68.1713 65.5027 68.2396 64.6621 68.3563 63.8296C68.3683 63.8175 68.2919 63.7773 68.2839 63.8175Z" fill="#263238"/>
<path d="M67.7851 31.7468C67.403 36.4726 66.9284 41.331 65.8264 45.9482C64.9657 49.5438 63.0111 52.339 59.1098 52.713C55.4901 53.0589 50.4828 52.3108 47.8284 49.5719C46.5896 48.297 46.3202 46.6962 46.6459 44.991C47.1004 42.6221 50.7885 29.8002 51.9106 25.7944C52.5943 23.3571 53.27 20.8837 54.3801 18.5912C56.7047 13.7649 59.2064 14.1671 59.5522 14.1067C59.878 13.9539 61.9051 13.3667 64.5112 14.6055C65.197 14.9256 65.8073 15.387 66.3022 15.9595C66.7971 16.532 67.1654 17.2027 67.3829 17.9276C68.7664 22.239 68.1551 27.3227 67.7851 31.7468Z" fill="#263238"/>
<path d="M58.6917 14.698C55.5023 15.6874 54.3359 18.8647 53.2098 21.6962C51.6413 25.6416 50.1371 29.6153 48.8259 33.6573C48.1985 35.5999 47.6194 37.5585 47.0844 39.5293C46.5817 41.4196 45.9261 43.4185 45.7894 45.3771C45.5642 48.5947 48.2991 50.4769 51.0822 51.3255C51.1099 51.3346 51.1401 51.3323 51.1662 51.3191C51.1922 51.3059 51.2119 51.2829 51.221 51.2551C51.23 51.2274 51.2277 51.1972 51.2145 51.1712C51.2013 51.1452 51.1783 51.1255 51.1506 51.1164C49.574 50.5734 47.9853 49.9098 46.9437 48.5303C45.6044 46.7768 46.0629 44.7899 46.5173 42.8112C47.2976 39.4408 48.2669 36.1227 49.3327 32.8409C50.3985 29.559 51.6292 26.3093 52.884 23.0877C54.0906 20.019 55.2047 15.9167 58.6836 14.7503C58.7359 14.7503 58.7238 14.686 58.6917 14.698Z" fill="#263238"/>
<path d="M68.272 21.5434C68.0388 19.0136 67.0896 16.4476 64.6081 15.3818C67.8015 16.9021 68.1152 20.6626 68.1393 23.7675C68.1661 27.0413 68.0736 30.3098 67.8618 33.5729C67.6607 36.714 67.3872 39.8712 66.9006 42.9802C66.3737 46.3344 65.332 49.4152 62.9671 51.9048C62.9619 51.9095 62.9576 51.9153 62.9545 51.9217C62.9514 51.9281 62.9497 51.935 62.9493 51.9421C62.9489 51.9492 62.9499 51.9563 62.9523 51.963C62.9547 51.9697 62.9584 51.9759 62.9631 51.9812C62.9679 51.9865 62.9736 51.9907 62.98 51.9938C62.9864 51.9969 62.9934 51.9986 63.0005 51.999C63.0076 51.9994 63.0147 51.9984 63.0214 51.996C63.0281 51.9936 63.0342 51.99 63.0395 51.9852C65.3039 50.0104 66.3777 47.0101 66.9287 44.1385C67.5935 40.3262 68.006 36.4742 68.1634 32.6077C68.3726 28.9678 68.6099 25.2074 68.272 21.5434Z" fill="#263238"/>
<path d="M58.5028 32.3905C58.6557 32.7927 61.0004 35.2461 62.8988 34.9123C63.5141 34.7996 63.0597 31.4011 63.0597 31.4011L63.0838 31.1437L63.4136 27.524L58.9372 25.4085L58.2977 25.135C58.2977 25.135 58.2696 26.1324 58.2535 27.3712C58.2535 27.4315 58.2535 27.4878 58.2535 27.5482C58.2495 27.6165 58.2495 27.685 58.2535 27.7533C58.2535 27.9383 58.2535 28.1273 58.2535 28.3163C58.2535 28.5054 58.2535 28.5979 58.2535 28.7467C58.2535 28.8955 58.2535 29.0483 58.2535 29.1971C58.2641 30.266 58.3474 31.333 58.5028 32.3905Z" fill="#EB9481"/>
<path d="M58.2539 27.3712C58.7366 28.3124 59.4183 29.1374 60.2517 29.7889C61.0851 30.4403 62.0502 30.9026 63.0802 31.1437L63.41 27.524L58.9376 25.4085L58.2981 25.135C58.2981 25.135 58.27 26.1324 58.2539 27.3712Z" fill="#263238"/>
<path d="M68.0148 22.1946C68.5216 28.5493 64.7732 29.5708 63.4017 29.6794C62.1549 29.7759 57.9038 29.9529 56.7454 23.6787C55.5871 17.4046 58.3824 15.1523 61.2178 14.7903C64.0532 14.4283 67.5121 15.836 68.0148 22.1946Z" fill="#EB9481"/>
<path d="M66.9449 20.8434C66.7999 20.8221 66.6562 20.7925 66.5146 20.7549C66.3574 20.7455 66.2076 20.6847 66.0883 20.582C66.0579 20.5421 66.0415 20.4934 66.0415 20.4432C66.0415 20.3931 66.0579 20.3444 66.0883 20.3045C66.16 20.2353 66.2487 20.1862 66.3454 20.1622C66.4422 20.1382 66.5435 20.1401 66.6393 20.1677C66.8443 20.1935 67.0315 20.2972 67.1621 20.4573C67.1906 20.4948 67.2075 20.5398 67.2108 20.5868C67.214 20.6338 67.2035 20.6807 67.1804 20.7217C67.1573 20.7628 67.1227 20.7962 67.0808 20.8178C67.039 20.8394 66.9918 20.8483 66.9449 20.8434Z" fill="#263238"/>
<path d="M62.7138 20.9319C62.8626 20.9117 62.9954 20.8715 63.1442 20.8393C63.2939 20.8226 63.4345 20.7593 63.5464 20.6584C63.5774 20.6187 63.5942 20.5699 63.5942 20.5196C63.5942 20.4693 63.5774 20.4205 63.5464 20.3808C63.4737 20.312 63.3839 20.2637 63.2863 20.2411C63.1888 20.2185 63.0869 20.2223 62.9913 20.2521C62.789 20.2846 62.6057 20.3906 62.4765 20.5498C62.4474 20.5886 62.4306 20.6354 62.4285 20.684C62.4263 20.7326 62.4389 20.7807 62.4645 20.8219C62.4902 20.8632 62.5277 20.8958 62.5722 20.9154C62.6167 20.9351 62.666 20.9408 62.7138 20.9319Z" fill="#263238"/>
<path d="M63.7073 22.5366C63.7073 22.5366 63.6751 22.5366 63.6751 22.5728C63.7033 23.0072 63.6751 23.5099 63.2729 23.6668C63.2729 23.6668 63.2729 23.6949 63.2729 23.6909C63.7636 23.5984 63.8038 22.9428 63.7073 22.5366Z" fill="#263238"/>
<path d="M63.3053 22.0942C62.6055 22.066 62.5974 23.4656 63.2449 23.4938C63.8925 23.5219 63.8925 22.1183 63.3053 22.0942Z" fill="#263238"/>
<path d="M63.0316 22.1669C62.907 22.2474 62.7863 22.3841 62.6294 22.4002C62.4726 22.4163 62.3318 22.2675 62.2273 22.1267H62.2031C62.2031 22.3922 62.2956 22.6697 62.6053 22.7099C62.915 22.7501 63.0598 22.5128 63.1282 22.2433C63.1241 22.2112 63.0799 22.1348 63.0316 22.1669Z" fill="#263238"/>
<path d="M66.1206 22.4404C66.1206 22.4404 66.1528 22.4404 66.1528 22.4766C66.1327 22.911 66.181 23.4137 66.5751 23.5625C66.5751 23.5625 66.5751 23.5907 66.5751 23.5867C66.0925 23.5143 66.0322 22.8466 66.1206 22.4404Z" fill="#263238"/>
<path d="M66.5145 21.9899C67.2102 21.9496 67.2464 23.3493 66.5989 23.3895C65.9514 23.4297 65.9273 22.0261 66.5145 21.9899Z" fill="#263238"/>
<path d="M66.808 22.0782C66.9206 22.1466 67.0333 22.2793 67.166 22.2874C67.2987 22.2954 67.4274 22.1386 67.5239 21.9897H67.544C67.544 22.2552 67.4757 22.5367 67.2223 22.593C66.9689 22.6493 66.8201 22.4201 66.7397 22.1587C66.7276 22.1225 66.7638 22.0461 66.808 22.0782Z" fill="#263238"/>
<path d="M65.4848 24.4031C65.4848 24.4031 65.5773 25.0506 65.5773 25.3563C65.5773 25.3884 65.505 25.4005 65.4004 25.4085C65.138 25.4582 64.8671 25.4345 64.6173 25.3401C64.3676 25.2457 64.1487 25.0843 63.9847 24.8736C63.9788 24.8672 63.9757 24.8588 63.9761 24.8501C63.9765 24.8414 63.9803 24.8332 63.9867 24.8274C63.9931 24.8215 64.0016 24.8184 64.0102 24.8188C64.0189 24.8192 64.0271 24.823 64.0329 24.8294C64.423 25.0949 64.8889 25.2262 65.3602 25.2034C65.3803 25.119 65.1631 24.0974 65.2114 24.0934C65.4492 24.1124 65.6833 24.1638 65.9071 24.2462C65.7543 22.8908 65.3843 21.5716 65.2476 20.2243C65.2476 20.2136 65.2518 20.2034 65.2593 20.1959C65.2669 20.1883 65.2771 20.1841 65.2878 20.1841C65.2984 20.1841 65.3087 20.1883 65.3162 20.1959C65.3238 20.2034 65.328 20.2136 65.328 20.2243C65.769 21.6268 66.0694 23.0698 66.2249 24.5318C66.2369 24.6685 65.6055 24.4433 65.4848 24.4031Z" fill="#263238"/>
<path d="M65.9762 22.8624C65.8797 21.8248 66.3583 20.9319 67.042 20.8515C67.7258 20.7711 68.3653 21.5754 68.4618 22.6131C68.5583 23.6507 68.0596 24.5436 67.396 24.624C66.7324 24.7045 66.0728 23.9001 65.9762 22.8624ZM66.2296 22.8383C66.3141 23.7352 66.8249 24.4229 67.3718 24.3747C67.9188 24.3264 68.2969 23.5502 68.2124 22.6533C68.128 21.7564 67.6132 21.0687 67.0662 21.1169C66.5192 21.1652 66.1452 21.9414 66.2296 22.8383Z" fill="#263238"/>
<path d="M61.2501 23.309C61.2415 22.9653 61.3334 22.6265 61.5147 22.3343C61.6959 22.0421 61.9585 21.8091 62.2703 21.6641C62.5821 21.519 62.9294 21.4681 63.2697 21.5177C63.6099 21.5673 63.9283 21.7151 64.1857 21.9431C64.4432 22.1711 64.6284 22.4693 64.7187 22.8011C64.8091 23.1329 64.8005 23.4838 64.6942 23.8108C64.5879 24.1378 64.3884 24.4267 64.1202 24.6419C63.8521 24.8571 63.5269 24.9893 63.1846 25.0223C62.7013 25.0499 62.2267 24.8852 61.8643 24.5643C61.5019 24.2433 61.2811 23.7921 61.2501 23.309ZM61.5034 23.2849C61.5547 23.5741 61.689 23.8421 61.89 24.0562C62.091 24.2703 62.35 24.4213 62.6353 24.4906C62.9207 24.56 63.2201 24.5448 63.4969 24.4468C63.7738 24.3489 64.0162 24.1724 64.1944 23.939C64.3726 23.7056 64.479 23.4253 64.5007 23.1324C64.5223 22.8396 64.4581 22.5467 64.3161 22.2897C64.174 22.0327 63.9602 21.8225 63.7007 21.685C63.4412 21.5475 63.1473 21.4885 62.8548 21.5152C62.4412 21.5713 62.0666 21.789 61.8133 22.1207C61.56 22.4525 61.4486 22.8711 61.5034 23.2849Z" fill="#263238"/>
<path d="M64.6602 22.8144C65.5692 22.4122 66.0237 22.6656 66.0277 22.6696L66.1644 22.4564C66.1443 22.4564 65.6054 22.1025 64.5557 22.5851L64.6602 22.8144Z" fill="#263238"/>
<path d="M61.3498 23.1323L61.374 22.8789C61.205 22.8789 57.3038 22.5169 56.8855 22.533C56.4672 22.5491 55.4738 23.2207 55.3652 23.2972L55.51 23.5063C55.9232 23.1938 56.3853 22.9519 56.8775 22.7904H56.9257C57.2314 22.7944 59.9623 23.0076 61.3498 23.1323Z" fill="#263238"/>
<path d="M56.9254 23.2245C57.6132 23.1843 59.4069 21.2819 59.4632 17.9518C59.4632 17.9518 59.2058 20.94 58.9846 21.3784C58.7634 21.8168 59.9861 20.3086 60.0665 17.626C60.9138 18.2304 61.8428 18.7112 62.8255 19.0538C64.0924 19.4077 64.8687 19.3956 64.9612 19.3031C65.0537 19.2106 63.1835 18.6234 62.6767 18.0443C62.6767 18.0443 66.0551 19.6088 67.6076 19.7294C67.7886 19.7294 68.0098 16.0414 65.5966 14.4728C63.1835 12.9043 59.3828 14.6015 58.3572 15.5909C58.3572 15.5909 57.1506 15.7598 55.8516 17.5415C54.5525 19.3232 56.1854 23.2687 56.9254 23.2245Z" fill="#263238"/>
<path d="M57.7954 24.089C57.7954 24.089 56.4159 22.0781 55.511 22.5768C54.6061 23.0755 55.6276 25.9592 56.6854 26.3614C56.8175 26.4223 56.9606 26.456 57.1061 26.4603C57.2516 26.4647 57.3964 26.4396 57.5319 26.3867C57.6675 26.3337 57.791 26.254 57.895 26.1522C57.999 26.0504 58.0814 25.9287 58.1373 25.7943L57.7954 24.089Z" fill="#EB9481"/>
<path d="M55.8242 23.3972V23.4254C56.5642 23.7351 56.9504 24.4268 57.2198 25.1427C57.1776 25.0676 57.1195 25.0026 57.0495 24.9522C56.9795 24.9019 56.8994 24.8675 56.8147 24.8514C56.73 24.8353 56.6429 24.8379 56.5593 24.8591C56.4757 24.8802 56.3978 24.9194 56.331 24.9738C56.331 24.9738 56.331 25.018 56.3511 25.014C56.482 24.9729 56.6225 24.9737 56.753 25.0162C56.8835 25.0588 56.9975 25.1409 57.0791 25.2513C57.2151 25.4355 57.331 25.6337 57.4249 25.8425C57.4571 25.9109 57.5778 25.8747 57.5536 25.7983C57.5697 24.833 56.8418 23.5018 55.8242 23.3972Z" fill="#263238"/>
<path d="M57.5737 26.2169C57.5745 26.3094 57.5478 26.3999 57.497 26.4772C57.4462 26.5544 57.3737 26.6149 57.2885 26.6508C57.2033 26.6867 57.1094 26.6965 57.0186 26.679C56.9279 26.6615 56.8444 26.6173 56.7787 26.5523C56.7131 26.4872 56.6682 26.4041 56.6499 26.3134C56.6316 26.2228 56.6406 26.1288 56.6757 26.0433C56.7109 25.9579 56.7707 25.8848 56.8475 25.8333C56.9243 25.7819 57.0147 25.7544 57.1071 25.7544C57.2302 25.7544 57.3482 25.803 57.4356 25.8896C57.523 25.9762 57.5726 26.0939 57.5737 26.2169Z" fill="white"/>
<path d="M71.8074 64.4812C71.8074 64.4812 50.3868 64.7989 45.0698 64.4249C45.0698 64.4249 49.4054 39.8511 55.1246 33.6412C55.3376 33.408 55.5632 33.1864 55.8003 32.9776C56.1502 32.684 56.1019 30.3393 56.2668 30.1623C56.4317 29.9853 63.3816 30.8983 63.47 31.0672C63.5585 31.2361 63.9165 33.4482 63.9165 33.4482C65.4931 35.4591 70.5647 42.409 71.1559 45.2766C71.7471 48.1442 69.885 51.3095 69.885 51.3095L71.8074 64.4812Z" fill="#00AAFF"/>
<path d="M53.4884 38.0252C52.2215 44.1305 52.9736 57.3304 55.9016 59.7435C60.7279 63.693 72.327 64.8473 75.5647 65.2294C76.9603 65.3943 79.7394 56.2605 78.7822 55.0821C77.825 53.9037 63.5673 52.0697 62.8876 51.4624C62.4171 51.028 60.201 43.0526 58.2906 38.5561C55.7206 32.471 53.951 35.773 53.4884 38.0252Z" fill="#EB9481"/>
<path d="M76.3684 54.3457C76.3684 54.3457 80.6477 54.3015 83.447 54.4061C85.0115 54.4624 87.678 54.8082 88.8082 55.3713C90.4934 56.2199 97.0089 60.8451 95.9189 62.4499C94.9336 63.9018 92.995 61.9914 92.995 61.9914C92.995 61.9914 95.3116 63.8776 93.8919 65.0199C92.4721 66.1621 90.1756 63.4352 90.1756 63.4352C90.1756 63.4352 92.7738 65.2692 91.1409 66.339C89.7252 67.2721 86.753 64.4085 86.753 64.4085C86.753 64.4085 89.693 66.0173 88.3336 67.1314C86.8334 68.3379 81.8382 64.6056 81.8382 64.6056C78.2587 65.41 76.0024 65.41 73.3721 64.9796C72.8895 64.8992 76.3684 54.3457 76.3684 54.3457Z" fill="#EB9481"/>
<path d="M90.8918 64.0708L90.3086 63.4554C89.9477 63.0476 89.5637 62.6608 89.1584 62.2971C88.7562 61.9512 88.354 61.6214 87.9116 61.3077C87.4692 60.994 86.9705 60.6803 86.5281 60.3384C86.4919 60.3103 86.4516 60.3626 86.4919 60.3867C86.9311 60.7254 87.3526 61.0865 87.7547 61.4686C88.1569 61.8306 88.5591 62.2006 88.9613 62.5666C89.3635 62.9326 89.7657 63.2583 90.1679 63.6082C90.365 63.7812 90.5701 63.9622 90.7511 64.1432C90.9226 64.329 91.1096 64.4999 91.3101 64.6539C91.3302 64.6539 91.3543 64.6539 91.3423 64.6218C91.2122 64.4225 91.0612 64.2378 90.8918 64.0708Z" fill="#263238"/>
<path d="M93.4695 62.3937C92.8242 61.614 92.1254 60.8803 91.3781 60.1977C90.6215 59.5197 89.7982 58.9201 88.9207 58.408C88.8885 58.408 88.8564 58.4321 88.8805 58.4562C89.6366 59.1359 90.4048 59.8036 91.173 60.4672C91.547 60.7929 93.204 62.3293 93.3971 62.4781C93.4413 62.5023 93.4976 62.4379 93.4695 62.3937Z" fill="#263238"/>
<path d="M88.5065 65.7122C87.8806 64.9926 87.2089 64.3141 86.4956 63.6811C85.7107 63.103 84.8839 62.5841 84.0221 62.1287C83.9899 62.1287 83.9577 62.1608 83.9859 62.1809C84.7661 62.7601 85.5544 63.3191 86.3065 63.9345C86.6766 64.2361 88.0681 65.5151 88.4462 65.7685C88.4864 65.7926 88.5307 65.7444 88.5065 65.7122Z" fill="#263238"/>
<path d="M72.3538 65.6074L77.4576 53.7065C77.4576 53.7065 63.4775 51.3939 63.0472 51.1124C62.6168 50.8309 60.0669 41.5483 58.43 37.9045C56.7931 34.2606 53.9818 32.121 52.8959 39.9436C51.8099 47.7662 53.3825 57.3182 54.9551 59.305C56.8615 61.7101 64.4106 64.7547 72.3538 65.6074Z" fill="#00AAFF"/>
<path d="M65.1713 64.1033C63.0799 63.5362 61.0408 62.5468 59.0419 61.6901C57.3245 60.9702 55.571 60.0814 54.6178 58.3962C54.1734 57.5382 53.8628 56.6172 53.6968 55.6653C53.4756 54.6035 53.2946 53.5297 53.1418 52.4478C52.9568 51.2144 52.7905 49.9783 52.643 48.7396C52.5707 48.1041 52.4983 47.4687 52.4339 46.8332C52.3696 46.1977 52.2529 45.5623 52.2288 44.9228C52.2288 44.9143 52.2254 44.9061 52.2194 44.9C52.2133 44.894 52.2052 44.8906 52.1966 44.8906C52.1881 44.8906 52.1799 44.894 52.1739 44.9C52.1678 44.9061 52.1644 44.9143 52.1644 44.9228C52.2087 45.51 52.1644 46.1012 52.2127 46.6924C52.2127 47.0946 52.261 47.4646 52.2891 47.8507L52.1765 47.6054C52.0526 47.3237 51.9583 47.0298 51.895 46.7286C51.895 46.6924 51.8266 46.7085 51.8346 46.7286C51.907 47.0303 51.9794 47.3359 52.0639 47.6336C52.1041 47.7783 52.1524 47.9231 52.2087 48.0679C52.2424 48.1652 52.2813 48.2605 52.3253 48.3535C52.4218 49.5091 52.5465 50.6594 52.6994 51.8043C52.8482 52.9143 53.0211 54.0163 53.2182 55.1183C53.3641 56.093 53.6232 57.0473 53.9904 57.9618C54.3556 58.824 54.9143 59.5905 55.6233 60.202C56.358 60.8052 57.1694 61.3083 58.0364 61.6982C59.9967 62.6038 62.0228 63.3594 64.0974 63.9585C66.5789 64.7387 67.3351 64.6864 65.1713 64.1033Z" fill="#263238"/>
<path d="M70.4197 52.4679C69.9049 52.3995 63.8197 51.1205 63.5824 51.0522C63.4636 51.0159 63.3563 50.9494 63.271 50.8592C63.1857 50.7689 63.1253 50.658 63.0958 50.5374C62.9068 50.0467 62.7419 49.5439 62.5649 49.0493C62.2592 48.1966 61.9482 47.348 61.6318 46.5034C61.6318 46.3144 61.5956 46.1012 61.5755 45.9363C61.5554 45.7714 61.5152 45.4858 61.479 45.2606C61.3986 44.774 61.2538 44.2954 61.1934 43.8087C61.1934 43.7604 61.117 43.7765 61.1291 43.8087C61.2516 44.2879 61.3244 44.7785 61.3463 45.2727C61.3664 45.4657 61.3784 45.6749 61.3905 45.8559C61.2055 45.3612 61.0165 44.8665 60.8194 44.3758C60.5901 43.8047 60.3287 43.2296 60.1437 42.6424C60.1437 42.6021 60.0713 42.6223 60.0834 42.6424C60.2925 43.1692 60.4413 43.7283 60.6062 44.2511C60.7711 44.774 60.9481 45.337 61.1251 45.88C61.4709 46.9458 61.8369 48.0036 62.207 49.0653C62.3839 49.5761 62.5569 50.0949 62.7459 50.6017C62.7978 50.7915 62.8999 50.9637 63.0414 51.1003C63.183 51.2369 63.3588 51.3328 63.5503 51.3779C64.608 51.6635 69.7802 52.5202 70.4076 52.5443C70.472 52.5845 70.4881 52.4759 70.4197 52.4679Z" fill="#263238"/>
<path d="M74.8722 53.8915C74.0678 55.6008 73.2635 57.298 72.5355 59.0436C71.7991 60.7607 71.1534 62.5153 70.601 64.3002C70.5978 64.3082 70.5979 64.3171 70.6013 64.325C70.6047 64.333 70.6111 64.3392 70.6191 64.3424C70.6271 64.3456 70.636 64.3455 70.6439 64.3421C70.6518 64.3387 70.6581 64.3323 70.6613 64.3243C71.4657 62.6472 72.1695 60.9057 72.8814 59.1803C73.5933 57.4549 74.2408 55.6812 74.9607 53.9518C74.9969 53.8794 74.9044 53.8231 74.8722 53.8915Z" fill="#263238"/>
<path d="M89.9056 52.5319C89.2903 52.8778 85.7671 51.9045 84.3393 52.9743C83.3942 53.6822 82.4691 55.3875 82.268 57.6116C82.0629 59.9081 83.8768 59.7915 84.5484 58.8182C85.3668 57.5369 86.081 56.1919 86.6841 54.7963C87.33 54.9249 87.9668 55.0955 88.5905 55.3071L89.9056 52.5319Z" fill="#AD6359"/>
<path d="M85.5864 60.5475C84.4964 59.4053 79.0508 63.5921 80.7601 65.4945C82.4694 67.3968 86.8171 61.8426 85.5864 60.5475Z" fill="#AD6359"/>
<path d="M87.4047 62.1847C86.3148 61.0425 80.8691 65.2293 82.5784 67.1317C84.2877 69.0341 88.6354 63.4798 87.4047 62.1847Z" fill="#AD6359"/>
<path d="M88.8362 62.7639C87.69 61.8751 83.3222 66.4399 85.1522 67.928C86.9821 69.4161 90.1353 63.7694 88.8362 62.7639Z" fill="#AD6359"/>
<path d="M90.3925 63.013C89.0774 62.5103 86.3063 67.9801 88.4258 68.8448C90.5454 69.7095 91.8846 63.564 90.3925 63.013Z" fill="#AD6359"/>
<path d="M85.4253 62.4302C85.1228 62.6328 84.8376 62.8601 84.5727 63.1099C84.2791 63.3673 83.9895 63.6287 83.7241 63.9143C83.4652 64.1842 83.2221 64.4689 82.9961 64.7669C82.7588 65.0887 82.5617 65.4386 82.3204 65.7523C82.3161 65.7551 82.3124 65.7589 82.3099 65.7634C82.3073 65.7679 82.3059 65.773 82.3057 65.7782C82.3055 65.7834 82.3066 65.7885 82.3088 65.7932C82.311 65.7979 82.3144 65.802 82.3185 65.8051C82.3227 65.8082 82.3275 65.8103 82.3327 65.8111C82.3378 65.8119 82.343 65.8115 82.3479 65.8099C82.3529 65.8083 82.3573 65.8055 82.3609 65.8017C82.3646 65.798 82.3672 65.7935 82.3687 65.7885C82.6071 65.4851 82.8664 65.1989 83.1449 64.9318C83.4063 64.6583 83.6517 64.3728 83.9131 64.0953C84.1745 63.8178 84.4078 63.5483 84.6652 63.2909C84.9226 63.0335 85.2122 62.768 85.4696 62.4865C85.4816 62.4503 85.4535 62.4141 85.4253 62.4302Z" fill="#263238"/>
<path d="M87.5894 62.9407C87.3561 63.2986 86.5396 64.6862 86.2903 65.0361C86.0409 65.386 85.7795 65.7359 85.5141 66.0778C85.2486 66.4196 84.9912 66.7937 84.6896 67.1154C84.6654 67.1436 84.7097 67.1878 84.7378 67.1597C85.0395 66.8379 85.3693 66.5443 85.6548 66.2065C85.9404 65.8686 86.2018 65.5268 86.4592 65.1688C86.9059 64.4594 87.3089 63.7234 87.6658 62.9648C87.6658 62.9286 87.6095 62.9085 87.5894 62.9407Z" fill="#263238"/>
<path d="M89.1022 63.721C88.8609 64.2519 88.6517 64.8029 88.4064 65.3298C88.2857 65.5912 88.1611 65.8526 88.0404 66.1342L87.8715 66.5163C87.8184 66.6684 87.7511 66.8152 87.6704 66.9546C87.6463 66.9868 87.7106 67.023 87.7267 66.9788C87.8075 66.8196 87.9017 66.6675 88.0082 66.5243C88.0766 66.4036 88.149 66.283 88.2133 66.1623C88.3501 65.8942 88.4748 65.6328 88.5874 65.3781C88.8224 64.857 89.0186 64.3192 89.1746 63.7693C89.181 63.7597 89.1833 63.7479 89.181 63.7366C89.1788 63.7253 89.1721 63.7154 89.1625 63.709C89.1529 63.7026 89.1412 63.7002 89.1299 63.7025C89.1185 63.7048 89.1086 63.7114 89.1022 63.721Z" fill="#263238"/>
<path d="M92.6519 18.0084C92.4595 19.8456 91.7605 21.5932 90.6329 23.0563C89.5052 24.5195 87.9933 25.6406 86.2657 26.2946C84.5381 26.9486 82.6627 27.1098 80.8489 26.7602C79.035 26.4106 77.3539 25.5639 75.9931 24.3147L71.002 25.0467L73.4996 20.7352C72.8506 19.1402 72.6257 17.4044 72.8469 15.6967C73.0681 13.989 73.7278 12.3677 74.7617 10.9907C75.7957 9.61372 77.1686 8.528 78.7469 7.83928C80.3251 7.15057 82.0548 6.88234 83.7675 7.06073C86.3969 7.33556 88.8096 8.643 90.4755 10.6958C92.1414 12.7486 92.9242 15.3787 92.6519 18.0084Z" fill="white"/>
<path d="M92.6521 18.0083C92.4584 19.8448 91.7626 21.5926 90.6411 23.0598C90.3637 23.4262 90.0628 23.7742 89.7402 24.1015C89.4077 24.4193 89.0558 24.7162 88.6865 24.9903C87.9504 25.55 87.1377 26.0011 86.2733 26.3296C85.4138 26.6684 84.5106 26.8837 83.5907 26.9691C83.1309 27.0126 82.6684 27.022 82.2072 26.9972C81.7443 26.9855 81.283 26.9371 80.8277 26.8524C78.9906 26.5217 77.2819 25.6861 75.8928 24.4393L76.0135 24.4755L71.0343 25.2075L70.6724 25.2638L70.8534 24.9461L73.3349 20.6265V20.7955C72.753 19.3704 72.5048 17.8311 72.6094 16.2954C72.714 14.7597 73.1685 13.2682 73.9382 11.9352C74.7142 10.6052 75.7812 9.46809 77.0592 8.60908C78.6475 7.54567 80.5061 6.95704 82.417 6.91219C84.328 6.86734 86.2121 7.36813 87.8486 8.35585C89.4851 9.34357 90.8061 10.7773 91.6569 12.489C92.5076 14.2007 92.8529 16.1194 92.6521 18.0203V18.0083ZM92.6521 18.0083C92.8111 16.5069 92.6234 14.989 92.1034 13.5716C91.5834 12.1542 90.7451 10.875 89.653 9.83263C88.5608 8.79021 87.244 8.01236 85.8039 7.55897C84.3638 7.10559 82.8389 6.98876 81.3465 7.2175C79.8694 7.43444 78.4611 7.98458 77.2281 8.82626C76.0103 9.68167 74.9933 10.792 74.2478 12.08C73.5112 13.3721 73.0779 14.8148 72.9809 16.299C72.8895 17.7795 73.1286 19.2618 73.6808 20.6386L73.7169 20.7271L73.6687 20.8115L71.159 25.115L70.9821 24.8495L75.9732 24.1497H76.0416L76.0939 24.194C77.4251 25.4406 79.0765 26.2927 80.8639 26.6554C81.3109 26.7444 81.764 26.7995 82.2193 26.8203C82.6732 26.8524 83.1288 26.8524 83.5827 26.8203C84.4933 26.7499 85.3895 26.5522 86.2452 26.2331C87.1096 25.9241 87.923 25.4876 88.6583 24.938C89.4064 24.4083 90.0673 23.7651 90.617 23.0316C91.7424 21.575 92.4463 19.8374 92.6521 18.0083Z" fill="#263238"/>
<path d="M81.5677 22.6577L77.3125 18.3463L78.7403 16.9346L81.2298 19.4523L86.398 11.3481L88.0912 12.43L81.5677 22.6577Z" fill="#00AAFF"/>
</svg>
