<svg width="66" height="66" viewBox="0 0 66 66" fill="none" xmlns="http://www.w3.org/2000/svg">
<g filter="url(#filter0_d)">
<path d="M57 33C57 46.2548 46.2548 57 33 57C19.7452 57 9 46.2548 9 33C9 19.7452 19.7452 9 33 9C46.2548 9 57 19.7452 57 33Z" fill="#00AAFF"/>
</g>
<path d="M23.4388 22.4579C23.7199 22.1767 24.101 22.0188 24.4984 22.0188C24.8958 22.0188 25.2769 22.1767 25.558 22.4579L33.4906 30.3974L41.4233 22.4579C41.5615 22.3147 41.7269 22.2004 41.9098 22.1218C42.0926 22.0432 42.2893 22.0018 42.4883 22.0001C42.6873 21.9983 42.8846 22.0363 43.0688 22.1117C43.253 22.1871 43.4203 22.2985 43.561 22.4393C43.7018 22.5802 43.813 22.7477 43.8884 22.932C43.9638 23.1163 44.0017 23.3139 43.9999 23.513C43.9982 23.7122 43.9569 23.909 43.8783 24.092C43.7998 24.275 43.6856 24.4406 43.5425 24.5789L35.6098 32.5184L43.5425 40.4579C43.8155 40.7408 43.9665 41.1197 43.9631 41.513C43.9597 41.9063 43.8021 42.2825 43.5242 42.5607C43.2463 42.8388 42.8704 42.9965 42.4775 42.9999C42.0845 43.0034 41.7059 42.8522 41.4233 42.5789L33.4906 34.6394L25.558 42.5789C25.2753 42.8522 24.8967 43.0034 24.5038 42.9999C24.1108 42.9965 23.7349 42.8388 23.4571 42.5607C23.1792 42.2825 23.0216 41.9063 23.0182 41.513C23.0147 41.1197 23.1658 40.7408 23.4388 40.4579L31.3715 32.5184L23.4388 24.5789C23.1578 24.2976 23 23.9162 23 23.5184C23 23.1207 23.1578 22.7392 23.4388 22.4579Z" fill="white"/>
<defs>
<filter id="filter0_d" x="0.645021" y="0.645021" width="64.71" height="64.71" filterUnits="userSpaceOnUse" color-interpolation-filters="sRGB">
<feFlood flood-opacity="0" result="BackgroundImageFix"/>
<feColorMatrix in="SourceAlpha" type="matrix" values="0 0 0 0 0 0 0 0 0 0 0 0 0 0 0 0 0 0 127 0" result="hardAlpha"/>
<feOffset/>
<feGaussianBlur stdDeviation="4.17749"/>
<feColorMatrix type="matrix" values="0 0 0 0 0.825 0 0 0 0 0.825 0 0 0 0 0.825 0 0 0 0.5 0"/>
<feBlend mode="normal" in2="BackgroundImageFix" result="effect1_dropShadow"/>
<feBlend mode="normal" in="SourceGraphic" in2="effect1_dropShadow" result="shape"/>
</filter>
</defs>
</svg>
