<svg width="50" height="50" viewBox="0 0 50 50" fill="none" xmlns="http://www.w3.org/2000/svg">
<g filter="url(#filter0_d)">
<path d="M41 25C41 33.8366 33.8366 41 25 41C16.1634 41 9 33.8366 9 25C9 16.1634 16.1634 9 25 9C33.8366 9 41 16.1634 41 25Z" fill="white"/>
</g>
<path d="M18.293 18.293C18.4805 18.1055 18.7348 18.0002 19 18.0002C19.2651 18.0002 19.5194 18.1055 19.707 18.293L25 23.586L30.293 18.293C30.3852 18.1974 30.4956 18.1213 30.6176 18.0689C30.7396 18.0164 30.8708 17.9889 31.0036 17.9877C31.1363 17.9866 31.268 18.0119 31.3909 18.0621C31.5138 18.1124 31.6255 18.1867 31.7194 18.2806C31.8133 18.3745 31.8875 18.4861 31.9378 18.609C31.9881 18.7319 32.0134 18.8636 32.0122 18.9964C32.0111 19.1291 31.9835 19.2604 31.9311 19.3824C31.8787 19.5044 31.8025 19.6147 31.707 19.707L26.414 25L31.707 30.293C31.8891 30.4816 31.9899 30.7342 31.9876 30.9964C31.9854 31.2586 31.8802 31.5094 31.6948 31.6948C31.5094 31.8802 31.2586 31.9854 30.9964 31.9876C30.7342 31.9899 30.4816 31.8891 30.293 31.707L25 26.414L19.707 31.707C19.5184 31.8891 19.2658 31.9899 19.0036 31.9876C18.7414 31.9854 18.4906 31.8802 18.3052 31.6948C18.1197 31.5094 18.0146 31.2586 18.0123 30.9964C18.01 30.7342 18.1108 30.4816 18.293 30.293L23.586 25L18.293 19.707C18.1055 19.5194 18.0002 19.2651 18.0002 19C18.0002 18.7348 18.1055 18.4805 18.293 18.293Z" fill="#00AAFF"/>
<defs>
<filter id="filter0_d" x="0.645021" y="0.645021" width="48.71" height="48.71" filterUnits="userSpaceOnUse" color-interpolation-filters="sRGB">
<feFlood flood-opacity="0" result="BackgroundImageFix"/>
<feColorMatrix in="SourceAlpha" type="matrix" values="0 0 0 0 0 0 0 0 0 0 0 0 0 0 0 0 0 0 127 0" result="hardAlpha"/>
<feOffset/>
<feGaussianBlur stdDeviation="4.17749"/>
<feColorMatrix type="matrix" values="0 0 0 0 0.825 0 0 0 0 0.825 0 0 0 0 0.825 0 0 0 0.5 0"/>
<feBlend mode="normal" in2="BackgroundImageFix" result="effect1_dropShadow"/>
<feBlend mode="normal" in="SourceGraphic" in2="effect1_dropShadow" result="shape"/>
</filter>
</defs>
</svg>
