<svg width="24" height="24" viewBox="0 0 24 24" fill="none" xmlns="http://www.w3.org/2000/svg">
<path d="M16.9292 14.3077C17.8892 12.8492 18.4615 11.1138 18.4615 9.23077C18.4615 4.13538 14.3262 0 9.23077 0C4.13538 0 0 4.13538 0 9.23077C0 14.3262 4.13538 18.4615 9.23077 18.4615C11.1138 18.4615 12.8492 17.8892 14.3262 16.9292L21.3969 24L24 21.3969L16.9292 14.3077ZM9.23077 14.7692C6.18462 14.7692 3.69231 12.2769 3.69231 9.23077C3.69231 6.18462 6.18462 3.69231 9.23077 3.69231C12.2769 3.69231 14.7692 6.18462 14.7692 9.23077C14.7692 12.2769 12.2769 14.7692 9.23077 14.7692Z" fill="white"/>
</svg>
