<svg width="26" height="21" viewBox="0 0 26 21" fill="none" xmlns="http://www.w3.org/2000/svg">
<path d="M13.3 21C12.743 21 12.2089 20.7788 11.8151 20.3849C11.4213 19.9911 11.2 19.457 11.2 18.9C11.2 18.343 11.4213 17.8089 11.8151 17.4151C12.2089 17.0212 12.743 16.8 13.3 16.8H23.1C23.657 16.8 24.1911 17.0212 24.5849 17.4151C24.9788 17.8089 25.2 18.343 25.2 18.9C25.2 19.457 24.9788 19.9911 24.5849 20.3849C24.1911 20.7788 23.657 21 23.1 21H13.3ZM2.1 12.6C1.54305 12.6 1.0089 12.3788 0.615076 11.9849C0.221249 11.5911 0 11.057 0 10.5C0 9.94305 0.221249 9.4089 0.615076 9.01508C1.0089 8.62125 1.54305 8.4 2.1 8.4H23.1C23.657 8.4 24.1911 8.62125 24.5849 9.01508C24.9788 9.4089 25.2 9.94305 25.2 10.5C25.2 11.057 24.9788 11.5911 24.5849 11.9849C24.1911 12.3788 23.657 12.6 23.1 12.6H2.1ZM2.1 4.2C1.54305 4.2 1.0089 3.97875 0.615076 3.58492C0.221249 3.1911 0 2.65695 0 2.1C0 1.54305 0.221249 1.0089 0.615076 0.615076C1.0089 0.221249 1.54305 0 2.1 0L11.9 0C12.457 0 12.9911 0.221249 13.3849 0.615076C13.7788 1.0089 14 1.54305 14 2.1C14 2.65695 13.7788 3.1911 13.3849 3.58492C12.9911 3.97875 12.457 4.2 11.9 4.2H2.1Z" fill="#00AAFF"/>
</svg>
