<svg width="86" height="52" viewBox="0 0 86 52" fill="none" xmlns="http://www.w3.org/2000/svg">
<path d="M45.0894 33.5237V35.0716H36V22.7453H44.7981V24.2933H37.8062V28.0772H44.0407V29.5678H37.8062V33.5237H45.0894Z" fill="#00AAFF"/>
<path d="M53.6546 35.0717L50.9161 31.5171L48.1776 35.0717H46.2549L49.9839 30.3132L46.4297 25.7839H48.3524L50.9744 29.1092L53.5381 25.7839H55.4026L51.8484 30.3132L55.6356 35.0717H53.6546Z" fill="#00AAFF"/>
<path d="M57.7913 34.8423C57.0921 34.613 56.5094 34.3837 56.1016 34.0397L56.8007 32.7211C57.2086 33.0077 57.733 33.237 58.3157 33.409C58.8983 33.581 59.481 33.6957 60.1219 33.6957C61.6368 33.6957 62.3942 33.2944 62.3942 32.4344C62.3942 32.1477 62.2777 31.9184 62.1029 31.7464C61.9281 31.5744 61.6368 31.4597 61.3455 31.4024C61.0541 31.3451 60.588 31.2304 60.0636 31.1731C59.3062 31.0584 58.6652 30.9438 58.1991 30.7718C57.733 30.5998 57.3251 30.3704 56.9755 30.0265C56.626 29.6825 56.4512 29.1665 56.4512 28.4785C56.4512 27.6185 56.8007 26.9879 57.4999 26.4719C58.1991 25.9559 59.1896 25.7266 60.3549 25.7266C60.9959 25.7266 61.6368 25.7839 62.2194 25.9559C62.8604 26.1279 63.3848 26.2999 63.7926 26.5865L63.0352 27.9052C62.2777 27.3892 61.3455 27.1599 60.2967 27.1599C59.5975 27.1599 59.0148 27.2745 58.6652 27.5039C58.2574 27.7332 58.0826 28.0198 58.0826 28.4212C58.0826 28.7078 58.1991 28.9371 58.4322 29.1665C58.6652 29.3958 58.8983 29.4531 59.2479 29.5678C59.5392 29.6251 60.0054 29.7398 60.588 29.8545C61.3455 29.9691 61.9864 30.1411 62.4525 30.2558C62.9186 30.4278 63.3265 30.6571 63.6761 31.0011C64.0257 31.3451 64.2005 31.8611 64.2005 32.4917C64.2005 33.3517 63.8509 33.9824 63.0934 34.4983C62.336 35.0143 61.3455 35.2437 60.1219 35.2437C59.2479 35.129 58.5487 35.0717 57.7913 34.8423Z" fill="#959595"/>
<path d="M67.6965 34.5557C66.9391 34.1544 66.3564 33.5811 65.9485 32.8357C65.5407 32.0904 65.3076 31.2878 65.3076 30.3705C65.3076 29.4532 65.5407 28.6505 65.9485 27.9052C66.3564 27.1599 66.9391 26.6439 67.6965 26.2426C68.454 25.8413 69.2697 25.6119 70.2019 25.6119C71.1342 25.6119 72.0082 25.8413 72.7073 26.2426C73.4648 26.6439 74.0474 27.2172 74.4553 27.9052C74.8632 28.6505 75.0962 29.4532 75.0962 30.3705C75.0962 31.2878 74.8632 32.0904 74.4553 32.8357C74.0474 33.5811 73.4648 34.097 72.7073 34.5557C71.9499 34.957 71.1342 35.1864 70.2019 35.1864C69.2697 35.129 68.454 34.957 67.6965 34.5557ZM71.8334 33.2944C72.2995 33.0077 72.7073 32.6064 72.9404 32.1478C73.2317 31.6318 73.3483 31.0585 73.3483 30.4278C73.3483 29.7972 73.2317 29.2238 72.9404 28.7079C72.6491 28.1919 72.2995 27.8479 71.8334 27.5612C71.3672 27.2746 70.7846 27.1599 70.2019 27.1599C69.6193 27.1599 69.0366 27.2746 68.5705 27.5612C68.1044 27.8479 67.6965 28.1919 67.4052 28.7079C67.1138 29.2238 66.9973 29.7972 66.9973 30.4278C66.9973 31.0585 67.1138 31.6318 67.4052 32.1478C67.6965 32.6638 68.0461 33.0077 68.5705 33.2944C69.0366 33.5811 69.6193 33.6957 70.2019 33.6957C70.7846 33.6957 71.3672 33.5237 71.8334 33.2944Z" fill="#959595"/>
<path d="M78.7088 24.9239V25.7266H81.4473V27.1025H78.7088V35.0143H77.0191V27.1599H75.3877V25.7839H77.0191V24.9813C77.0191 24.0639 77.3105 23.3186 77.8349 22.8026C78.3592 22.2867 79.175 22 80.1072 22C80.5151 22 80.8647 22.0573 81.156 22.1147C81.5056 22.2293 81.7969 22.344 82.03 22.516L81.5056 23.7773C81.0977 23.4906 80.6899 23.3186 80.1655 23.3186C79.2332 23.3186 78.7088 23.8346 78.7088 24.9239Z" fill="#959595"/>
<path d="M88.9051 34.4984C88.672 34.7277 88.3224 34.8423 87.9729 34.957C87.6233 35.0717 87.2154 35.129 86.8075 35.129C85.8753 35.129 85.1179 34.8997 84.5935 34.3837C84.0691 33.8677 83.836 33.1797 83.836 32.2051V27.1025H82.2046V25.7266H83.836V23.72H85.5257V25.7266H88.2642V27.1025H85.5257V32.1477C85.5257 32.6637 85.6422 33.0651 85.9336 33.2944C86.1666 33.581 86.5745 33.6957 87.0406 33.6957C87.565 33.6957 88.0311 33.5237 88.3807 33.2371L88.9051 34.4984Z" fill="#959595"/>
<path d="M3.72908 40.419C3.72908 40.419 -5.36035 29.2393 5.01093 12.6703C5.01093 12.6703 12.935 1.60529 15.4405 0C15.4405 0 19.1695 4.52922 16.5475 10.6064C16.5475 10.6064 13.4594 16.4542 9.26431 22.1301C9.20605 22.1301 1.74805 33.5391 3.72908 40.419Z" fill="#00AAFF"/>
<path d="M11.5951 47.2988C11.5951 47.2988 2.50564 42.8269 8.39046 29.3539C8.39046 29.3539 12.3525 20.8115 20.2184 11.4664C20.2184 11.4664 24.297 15.7089 22.1411 21.6714C20.6262 25.8567 20.0436 25.8567 18.2956 29.0673C18.2956 29.0673 9.20618 42.8269 11.5951 47.2988Z" fill="#00AAFF"/>
<path d="M18.1207 52C18.1207 52 11.1289 48.5601 15.6736 38.1831C15.6736 38.1831 18.7034 31.5899 24.763 24.4234C24.763 24.4234 26.9771 27.3473 26.3944 30.8446C25.7535 34.5138 24.8795 35.7751 23.3064 37.9537C23.2481 37.9537 16.3145 48.5601 18.1207 52Z" fill="#00AAFF"/>
</svg>
